<svg xmlns="http://www.w3.org/2000/svg" viewBox="0 0 164.33 220.82"><defs><style>.cls-1{fill:#a23732;}.cls-2{fill:#e4e8ea;}.cls-3{fill:#e1bf3b;}.cls-4{fill:#2d713a;}.cls-5{fill:#fff;}.cls-6{fill:#001a02;}.cls-7{fill:#debf48;}.cls-8{fill:none;stroke:#000;stroke-miterlimit:10;}</style></defs><title>E</title><g id="Capa_2" data-name="Capa 2"><g id="E"><path class="cls-1" d="M146.16,62.43c.46-.17,1.56-.55,2.92-1v0c-.75.38,1.1,7.2-16.1,5.44a34.49,34.49,0,0,0-6.18-.11c-2.61.19-6.69-.09-8.65-3.35,10-5,11-3,11-3S138.16,65.43,146.16,62.43Z"/><path class="cls-2" d="M141.16,147.43c.87,3.49-18.24,5.56-22.08,5.94-1.84-1.27,1.08-12.94,1.08-12.94S140.16,143.43,141.16,147.43Z"/><path class="cls-2" d="M141.16,136.43s1,1-18,3l-3.63.54.52-9.48a3.92,3.92,0,0,0-.45-2.06C120.22,128.49,140.18,130.52,141.16,136.43Z"/><path class="cls-2" d="M136.16,156.43c1,0,0,4.84-21,5.95l1-.95a37.46,37.46,0,0,1,1-8S135.16,156.43,136.16,156.43Z"/><path class="cls-2" d="M136.16,111.43c1,2.91-17.8,2.2-20.31,4.37.2-.22.31-.37.31-.37-2.35-3.13-1.63-8.72-1.21-11,2.79-1,13.21,0,13.21,0S135.16,108.43,136.16,111.43Z"/><path class="cls-2" d="M135.16,99.43s5,3-7,5c0,0-10.42-1-13.21,0,.12-.63.21-1,.21-1a1.35,1.35,0,0,0-1-1.24V97.91a3.1,3.1,0,0,0-.38-1.48S122.16,91.43,135.16,99.43Z"/><path class="cls-2" d="M125.16,212.43s.53.74-2,2c-2,1-19.49,3.53-20,3.6q.51-.28,1-.6l1.68-10.9a3.21,3.21,0,0,0-.12-1.45h0a43.67,43.67,0,0,1,12.89,2.44C121.39,208.61,123.87,210.17,125.16,212.43Z"/><path class="cls-2" d="M117.77,199.4c2.44.94,4.49,2.24,5.39,4,0,0,2.93,3.19-4.54,4.09a43.67,43.67,0,0,0-12.89-2.44h0a3,3,0,0,0-.8-1.32l.09-.08c.58-1.2,0-4.13-.47-5.88a2.93,2.93,0,0,0-.37-.87C104.51,196.94,112.16,197.23,117.77,199.4Z"/><path class="cls-2" d="M120.16,197.43s0,1.72-2.39,2c-5.61-2.17-13.26-2.46-13.6-2.47a2.88,2.88,0,0,0-1-1l0,0v-3.62a2.53,2.53,0,0,0-.15-.87S116.16,190.43,120.16,197.43Z"/><path class="cls-3" d="M114.16,102.19a1.35,1.35,0,0,1,1,1.24s-.09.37-.21,1c-.42,2.28-1.14,7.87,1.21,11,0,0-.11.15-.31.37l0,0-.13.13c-.94,1-3.23,3-5.53,1.47,0,0-5.92-1.53-8.46,1.23a27.83,27.83,0,0,0-4.54-12.23A36.87,36.87,0,0,0,99.09,98s8.07-6.61,12.07-3.61c0,0,.8.4,1.64.94a3,3,0,0,1,1.36,2.54Z"/><path class="cls-4" d="M105.38,29.44a8,8,0,0,0,2.76-5.91c1.21,2.4,1.45,5.49,2,8.9.42,2.53,1,3.82,1.57,4.46a1.09,1.09,0,0,1-.31,1.64,32.09,32.09,0,0,1-6.57,3,8.27,8.27,0,0,0-1.29-2.85,7,7,0,0,0,2.6-5.71A8,8,0,0,0,105.38,29.44Z"/><path class="cls-3" d="M86.25,4.67a18.78,18.78,0,0,1,5.41-1.19c.66,0,1.32-.11,2-.21a9.88,9.88,0,0,1,3.47.42c3,.72,8.15,2.52,17.06,6.74a11.41,11.41,0,0,1,3.32,4.51h0l40.67,14.49s8,5,5,14c0,0-1,11-5,15l-3.38,1.11s-1.62,10.89-7.62,14.89-33,9-33,9l-18,8s3.47,0,2.93,6.61a36.87,36.87,0,0,1-1.93,8.39,27.83,27.83,0,0,1,4.54,12.23,18.83,18.83,0,0,1-1.54,9.77v.4a22,22,0,0,0,4-.4c3.45-.86,9.15-4,13.86-1.57a3.56,3.56,0,0,1,1.57,1.57h0a3.92,3.92,0,0,1,.45,2.06l-.52,9.48a2.69,2.69,0,0,1,.63.46s-2.92,11.67-1.08,12.94l-.67.06h-1.25a37.46,37.46,0,0,0-1,8l-1,.95,0,.05a66.09,66.09,0,0,1-24-.79l1,.79a5.18,5.18,0,0,1,2.06,3.87,6.83,6.83,0,0,1,0,1.28,7.08,7.08,0,0,1-1.45,3.48h0a6.66,6.66,0,0,1-.5.56A7.33,7.33,0,0,1,91,172.68a8.62,8.62,0,0,0-2.84,2.75l-.77,5.36-1.23,8.64s8.94-1.62,15.09.25a2.69,2.69,0,0,1,1.76,1.7,2.53,2.53,0,0,1,.15.87v3.62l0,0a2.88,2.88,0,0,1,1,1,2.93,2.93,0,0,1,.37.87c.44,1.75,1,4.68.47,5.88l-.09.08a3,3,0,0,1,.8,1.32,3.21,3.21,0,0,1,.12,1.45l-1.68,10.9q-.48.31-1,.6h0c-6,3.29-14.38,2.35-21,1.4-7-1-21,0-31,0s-12-4-13-11,11-18,11-18A32.09,32.09,0,0,1,55,180.8a75.89,75.89,0,0,1,8-8.29,1.35,1.35,0,0,0-.09-2.08l-2.67-2c-2.47.49-6.28-.11-9.51-.85s-6-1.65-6-1.65c-24-5-32-19-40-38C1,119.31.28,113.78.55,110.31a3.63,3.63,0,0,1,5.64-2.93c2.46,1.75,6.89,3.53,13.47,5.55,6,1.85,11.19,3.71,15,5.16,0,0,5.5-9.66,9.5-12.66,0,0,1-7,7-9,0,0-3-10,9-13l1-5s-14-6-18-15-7-37,12-51c0,0,8.78-8,23.5-8.25a41.77,41.77,0,0,1,5.5.25h2Zm31.91,58.76c2,3.26,6,3.54,8.65,3.35a34.49,34.49,0,0,1,6.18.11c17.2,1.76,15.35-5.06,16.1-5.44v0c-1.36.46-2.46.84-2.92,1-8,3-17-2-17-2S128.16,58.43,118.16,63.43Zm-6.74-24.9a1.09,1.09,0,0,0,.31-1.64c-.55-.64-1.15-1.93-1.57-4.46-.57-3.41-.81-6.5-2-8.9h0A8.25,8.25,0,0,0,97.7,19.71a18.8,18.8,0,0,0-6.54,4.72c-2.6,1.3-3.94,1.33-4.55,1.19,0,0,0,0,0,0a5.12,5.12,0,0,1,2.55,4.79c0,3,1.67,8.18,5.41,10.64a8.23,8.23,0,0,0,4.59,1.36,19.66,19.66,0,0,0,5.69-.94A32.09,32.09,0,0,0,111.42,38.53Z"/><path class="cls-2" d="M104.16,170.43c3,2-1.15,2.59-1.15,2.59a22.07,22.07,0,0,0-4.85-1.59c-4.65-.93-5.35-.44-5.42-.37a7.08,7.08,0,0,0,1.45-3.48S101.16,168.43,104.16,170.43Z"/><path class="cls-5" d="M103.56,38.64a8.27,8.27,0,0,1,1.29,2.85,19.66,19.66,0,0,1-5.69.94,8.23,8.23,0,0,1-4.59-1.36,6.89,6.89,0,0,1,2.78-3.93,4.19,4.19,0,0,1,2.31-.71A4.89,4.89,0,0,1,103.56,38.64Z"/><path class="cls-5" d="M105.38,29.44a4.37,4.37,0,0,1-2.72,1,5.12,5.12,0,0,1-4.32-2.87,9.27,9.27,0,0,1-1.18-4.63,9.54,9.54,0,0,1,.54-3.22,8.25,8.25,0,0,1,10.44,3.81h0A8,8,0,0,1,105.38,29.44Z"/><path class="cls-6" d="M98.34,27.56a5.12,5.12,0,0,0,4.32,2.87,4.37,4.37,0,0,0,2.72-1,8,8,0,0,1,.78,3.49,7,7,0,0,1-2.6,5.71,4.89,4.89,0,0,0-3.9-2.21,4.19,4.19,0,0,0-2.31.71,7.74,7.74,0,0,1-1.19-4.21A7.22,7.22,0,0,1,98.34,27.56Z"/><path class="cls-2" d="M107.16,177.43c-1,2-12.85,1.72-12.85,1.72h0a2.15,2.15,0,0,0,.56-2,16.56,16.56,0,0,0-2.63-5.49,6.66,6.66,0,0,0,.5-.56h0c.07-.07.77-.56,5.42.37A22.07,22.07,0,0,1,103,173C105.86,174.35,107.82,176.11,107.16,177.43Z"/><path class="cls-7" d="M94.86,177.12a2.15,2.15,0,0,1-.56,2,2.12,2.12,0,0,1-1.19.65l-5.72,1,.77-5.36A8.62,8.62,0,0,1,91,172.68a7.33,7.33,0,0,0,1.23-1.05A16.56,16.56,0,0,1,94.86,177.12Z"/><path class="cls-4" d="M97.16,22.93a9.27,9.27,0,0,0,1.18,4.63,7.22,7.22,0,0,0-2.18,5.37,7.74,7.74,0,0,0,1.19,4.21,6.89,6.89,0,0,0-2.78,3.93c-3.74-2.46-5.41-7.66-5.41-10.64a5.12,5.12,0,0,0-2.55-4.79s0,0,0,0c.61.14,2,.11,4.55-1.19a18.8,18.8,0,0,1,6.54-4.72A9.54,9.54,0,0,0,97.16,22.93Z"/><path class="cls-7" d="M62.83,170.43a1.35,1.35,0,0,1,.09,2.08,75.89,75.89,0,0,0-8,8.29h0s-4.79-1.36-5.79-3.36,1-6,1-6l.49-3.85c3.23.74,7,1.34,9.51.85Z"/><path class="cls-8" d="M41.66,120.93s-2.59-1.15-7-2.84c-3.81-1.45-9-3.31-15-5.16-6.58-2-11-3.8-13.47-5.55a3.63,3.63,0,0,0-5.64,2.93c-.27,3.47.48,9,4.11,17.62,8,19,16,33,40,38,0,0,2.69.9,6,1.65s7,1.34,9.51.85"/><path class="cls-8" d="M103.17,218q.51-.28,1-.6l1.68-10.9a3.21,3.21,0,0,0-.12-1.45,3,3,0,0,0-.8-1.32,2.69,2.69,0,0,0-.73-.55,25.9,25.9,0,0,0-8-2.78"/><path class="cls-8" d="M52.16,162.43l8,6,2.67,2a1.35,1.35,0,0,1,.09,2.08,75.89,75.89,0,0,0-8,8.29,32.09,32.09,0,0,0-5.8,9.63s-12,11-11,18,3,11,13,11,24-1,31,0c6.62.95,15,1.89,21-1.4"/><path class="cls-8" d="M88.16,194.43s10,0,14.34,1.22a2.35,2.35,0,0,1,.63.27,2.88,2.88,0,0,1,1,1,2.93,2.93,0,0,1,.37.87c.44,1.75,1,4.68.47,5.88"/><path class="cls-8" d="M92.74,171.06a7.08,7.08,0,0,0,1.45-3.48,6.83,6.83,0,0,0,0-1.28,5.18,5.18,0,0,0-2.06-3.87l-1-.79"/><path class="cls-8" d="M103.16,195.87v-3.62a2.53,2.53,0,0,0-.15-.87,2.69,2.69,0,0,0-1.76-1.7c-6.15-1.87-15.09-.25-15.09-.25l1.23-8.64.77-5.36A8.62,8.62,0,0,1,91,172.68a7.33,7.33,0,0,0,1.23-1.05,6.66,6.66,0,0,0,.5-.56"/><path class="cls-8" d="M50.65,167.58l-.49,3.85s-2,4-1,6,5.79,3.36,5.79,3.36"/><path class="cls-8" d="M92.23,171.63a16.56,16.56,0,0,1,2.63,5.49,2.15,2.15,0,0,1-.56,2,2.12,2.12,0,0,1-1.19.65l-5.72,1"/><path class="cls-8" d="M34.66,118.09s5.5-9.66,9.5-12.66c0,0,1-7,7-9,0,0-3-10,9-13l1-5s-14-6-18-15-7-37,12-51c0,0,8.78-8,23.5-8.25a41.77,41.77,0,0,1,5.5.25h2"/><path class="cls-8" d="M64.16,24.43s-6,2,0,6"/><path class="cls-8" d="M117.49,14.94a9.43,9.43,0,0,1,.67,3.49"/><path class="cls-8" d="M80.16,9.43c.49-1.22,2.57-3.38,6.09-4.76a18.78,18.78,0,0,1,5.41-1.19c.66,0,1.32-.11,2-.21a9.88,9.88,0,0,1,3.47.42c3,.72,8.15,2.52,17.06,6.74a11.41,11.41,0,0,1,3.32,4.51"/><path class="cls-8" d="M78.66,4.18s7.5-7.75,18.5-.75"/><path class="cls-8" d="M117.48,14.94h0l40.67,14.49s8,5,5,14c0,0-1,11-5,15l-3.38,1.11-5.7,1.88c-1.36.46-2.46.84-2.92,1-8,3-17-2-17-2s-1-2-11,3c0,0-7,2-10-4,0,0-1-3-5-1"/><path class="cls-8" d="M118.16,63.43c2,3.26,6,3.54,8.65,3.35a34.49,34.49,0,0,1,6.18.11c17.2,1.76,15.35-5.06,16.1-5.44l.07,0"/><path class="cls-8" d="M154.78,59.54s-1.62,10.89-7.62,14.89-33,9-33,9l-18,8s3.47,0,2.93,6.61a36.87,36.87,0,0,1-1.93,8.39,27.83,27.83,0,0,1,4.54,12.23,18.83,18.83,0,0,1-1.54,9.77"/><path class="cls-8" d="M107.16,77.43a29.08,29.08,0,0,1-21,5c-12-2-10-13-10-13"/><path class="cls-8" d="M94.57,41.07c-3.74-2.46-5.41-7.66-5.41-10.64a5.12,5.12,0,0,0-2.55-4.79s0,0,0,0c.61.14,2,.11,4.55-1.19a18.8,18.8,0,0,1,6.54-4.72"/><path class="cls-8" d="M108.14,23.53c1.21,2.4,1.45,5.49,2,8.9.42,2.53,1,3.82,1.57,4.46a1.09,1.09,0,0,1-.31,1.64,32.09,32.09,0,0,1-6.57,3"/><path class="cls-8" d="M159.16,42.43s1-2-4-3"/><path class="cls-8" d="M103.56,38.64a8.27,8.27,0,0,1,1.29,2.85,19.66,19.66,0,0,1-5.69.94,8.23,8.23,0,0,1-4.59-1.36,6.89,6.89,0,0,1,2.78-3.93"/><path class="cls-8" d="M98.34,27.56a9.27,9.27,0,0,1-1.18-4.63,9.54,9.54,0,0,1,.54-3.22,8.25,8.25,0,0,1,10.44,3.81h0a8,8,0,0,1-2.76,5.91"/><path class="cls-8" d="M105.38,29.44a8,8,0,0,1,.78,3.49,7,7,0,0,1-2.6,5.71,4.89,4.89,0,0,0-3.9-2.21,4.19,4.19,0,0,0-2.31.71,7.74,7.74,0,0,1-1.19-4.21,7.22,7.22,0,0,1,2.18-5.37,5.12,5.12,0,0,0,4.32,2.87A4.37,4.37,0,0,0,105.38,29.44Z"/><path class="cls-8" d="M103,191.38s13.15-.95,17.15,6.05c0,0,0,1.72-2.39,2a5.79,5.79,0,0,1-.61,0"/><path class="cls-8" d="M104.16,196.93h0c.34,0,8,.3,13.6,2.47,2.44.94,4.49,2.24,5.39,4,0,0,2.93,3.19-4.54,4.09"/><path class="cls-8" d="M105.73,205.08a43.67,43.67,0,0,1,12.89,2.44c2.77,1.09,5.25,2.65,6.54,4.91"/><path class="cls-8" d="M103.16,218h0c.5-.07,18-2.61,20-3.6,2.53-1.26,2-2,2-2"/><path class="cls-8" d="M94.31,179.15s11.85.28,12.85-1.72c.66-1.32-1.3-3.08-4.15-4.41a22.07,22.07,0,0,0-4.85-1.59c-4.65-.93-5.35-.44-5.42-.37h0"/><path class="cls-8" d="M94.19,167.58s7,.85,10,2.85S103,173,103,173"/><path class="cls-8" d="M66.16,99.43a12.07,12.07,0,0,0,1,10s-7,32-4,38c2,4,13.3,11.09,28,14.21a66.09,66.09,0,0,0,24,.79l0-.05,1-.95a37.46,37.46,0,0,1,1-8h-4"/><path class="cls-8" d="M111.16,139.43s5.83-.83,8.37.54a2.69,2.69,0,0,1,.63.46s-2.92,11.67-1.08,12.94a.21.21,0,0,0,.08.06h-2s18,3,19,3,0,4.84-21,5.95l-1,.05"/><path class="cls-8" d="M85.16,99.43c0,1,1,7-3,12,0,0,.46,1.84,1,4.63,1,5.42,2.33,14.42,1,20.37"/><path class="cls-8" d="M92.16,113.43s-5,4-6,3L82.95,115"/><path class="cls-8" d="M99.09,98s8.07-6.61,12.07-3.61c0,0,.8.4,1.64.94a3,3,0,0,1,1.36,2.54v4.52"/><path class="cls-8" d="M115.82,115.83a.79.79,0,0,1-.13.13c-.94,1-3.23,3-5.53,1.47,0,0-5.92-1.53-8.46,1.23"/><path class="cls-8" d="M105.16,102.43s6.47-1.29,9-.24a1.35,1.35,0,0,1,1,1.24s-.09.37-.21,1c-.42,2.28-1.14,7.87,1.21,11,0,0-.11.15-.31.37"/><path class="cls-8" d="M113.78,96.43s8.38-5,21.38,3c0,0,5,3-7,5,0,0-10.42-1-13.21,0"/><path class="cls-8" d="M128.16,104.43s7,4,8,7-17.8,2.2-20.31,4.37l0,0-.13.13,0,.05"/><path class="cls-8" d="M119.59,128.43a3.56,3.56,0,0,0-1.57-1.57c-4.71-2.4-10.41.71-13.86,1.57a22,22,0,0,1-4,.4c-5.91.21-15-.4-15-.4"/><path class="cls-8" d="M119.6,128.43c.62.06,20.58,2.09,21.56,8,0,0,1,1-18,3l-3.63.54.52-9.48a3.92,3.92,0,0,0-.45-2.06"/><path class="cls-8" d="M119.6,128.43h0"/><path class="cls-8" d="M120.16,140.43s20,3,21,7c.87,3.49-18.24,5.56-22.08,5.94l-.67.06"/></g></g></svg>