<svg xmlns="http://www.w3.org/2000/svg" viewBox="0 0 300 300"><defs><style>.cls-1,.cls-9{fill:none;}.cls-2{fill:#a23732;}.cls-3{fill:#e4e8ea;}.cls-4{fill:#e1bf3b;}.cls-5{fill:#2d713a;}.cls-6{fill:#fff;}.cls-7{fill:#001a02;}.cls-8{fill:#debf48;}.cls-9{stroke:#000;stroke-miterlimit:10;}</style></defs><title>E</title><g id="Capa_2" data-name="Capa 2"><g id="img_bg" data-name="img bg"><rect class="cls-1" width="300" height="300"/></g><g id="E"><path class="cls-2" d="M214,102c.46-.17,1.56-.55,2.92-1v0c-.75.38,1.1,7.2-16.1,5.44a34.49,34.49,0,0,0-6.18-.11c-2.61.19-6.69-.09-8.65-3.35,10-5,11-3,11-3S206,105,214,102Z"/><path class="cls-3" d="M209,187c.87,3.49-18.24,5.56-22.08,5.94C185.07,191.69,188,180,188,180S208,183,209,187Z"/><path class="cls-3" d="M209,176s1,1-18,3l-3.63.54.52-9.48a3.92,3.92,0,0,0-.45-2.06C188.05,168.08,208,170.11,209,176Z"/><path class="cls-3" d="M204,196c1,0,0,4.84-20.95,6l.95-1a37.46,37.46,0,0,1,1-8S203,196,204,196Z"/><path class="cls-3" d="M204,151c1,2.91-17.8,2.2-20.31,4.37.2-.22.31-.37.31-.37-2.35-3.13-1.63-8.72-1.21-11,2.79-1,13.21,0,13.21,0S203,148,204,151Z"/><path class="cls-3" d="M203,139s5,3-7,5c0,0-10.42-1-13.21,0,.12-.63.21-1,.21-1a1.35,1.35,0,0,0-1-1.24V137.5a3.1,3.1,0,0,0-.38-1.48S190,131,203,139Z"/><path class="cls-3" d="M193,252s.53.74-2,2c-2,1-19.49,3.53-20,3.6q.51-.28,1-.6l1.68-10.9a3.21,3.21,0,0,0-.12-1.45h0a43.67,43.67,0,0,1,12.89,2.44C189.22,248.2,191.7,249.76,193,252Z"/><path class="cls-3" d="M185.6,239c2.44.94,4.49,2.24,5.39,4,0,0,2.93,3.19-4.54,4.09a43.67,43.67,0,0,0-12.89-2.44h0a3,3,0,0,0-.8-1.32l.09-.08c.58-1.2,0-4.13-.47-5.88a2.93,2.93,0,0,0-.37-.87C172.34,236.53,180,236.82,185.6,239Z"/><path class="cls-3" d="M188,237s0,1.72-2.39,2c-5.61-2.17-13.26-2.46-13.6-2.47a2.88,2.88,0,0,0-1-1l0-.05v-3.62a2.53,2.53,0,0,0-.15-.87S184,230,188,237Z"/><path class="cls-4" d="M182,141.78a1.35,1.35,0,0,1,1,1.24s-.09.37-.21,1c-.42,2.28-1.14,7.87,1.21,11,0,0-.11.15-.31.37l0,0-.13.13c-.94,1-3.23,3-5.53,1.47,0,0-5.92-1.53-8.46,1.23A27.83,27.83,0,0,0,165,146a36.87,36.87,0,0,0,1.93-8.39S175,131,179,134c0,0,.8.4,1.64.94A3,3,0,0,1,182,137.5Z"/><path class="cls-5" d="M173.21,69A8,8,0,0,0,176,63.12c1.21,2.4,1.45,5.49,2,8.9.42,2.53,1,3.82,1.57,4.46a1.09,1.09,0,0,1-.31,1.64,32.09,32.09,0,0,1-6.57,3,8.27,8.27,0,0,0-1.29-2.85,7,7,0,0,0,2.6-5.71A8,8,0,0,0,173.21,69Z"/><path class="cls-4" d="M154.08,44.26a18.78,18.78,0,0,1,5.41-1.19c.66,0,1.32-.11,2-.21a9.88,9.88,0,0,1,3.47.42c3,.72,8.15,2.52,17.06,6.74a11.41,11.41,0,0,1,3.32,4.51h0L226,69s8,5,5,14c0,0-1,11-5,15l-3.38,1.11S221,110,215,114s-33,9-33,9l-18,8s3.47,0,2.93,6.61A36.87,36.87,0,0,1,165,146a27.83,27.83,0,0,1,4.54,12.23A18.83,18.83,0,0,1,168,168v.4a22,22,0,0,0,4-.4c3.45-.86,9.15-4,13.86-1.57a3.56,3.56,0,0,1,1.57,1.57h0a3.92,3.92,0,0,1,.45,2.06l-.52,9.48a2.69,2.69,0,0,1,.63.46s-2.92,11.67-1.08,12.94l-.67.06H185a37.46,37.46,0,0,0-1,8l-.95,1-.05,0a66.09,66.09,0,0,1-24-.79l1,.79a5.18,5.18,0,0,1,2.06,3.87,6.83,6.83,0,0,1,0,1.28,7.08,7.08,0,0,1-1.45,3.48h0a6.66,6.66,0,0,1-.5.56,7.33,7.33,0,0,1-1.23,1A8.62,8.62,0,0,0,156,215l-.77,5.36L154,229s8.94-1.62,15.09.25a2.69,2.69,0,0,1,1.76,1.7,2.53,2.53,0,0,1,.15.87v3.62l0,.05a2.88,2.88,0,0,1,1,1,2.93,2.93,0,0,1,.37.87c.44,1.75,1,4.68.47,5.88l-.09.08a3,3,0,0,1,.8,1.32,3.21,3.21,0,0,1,.12,1.45L172,257q-.48.31-1,.6h0c-6,3.29-14.38,2.35-21,1.4-7-1-21,0-31,0s-12-4-13-11,11-18,11-18a32.09,32.09,0,0,1,5.8-9.63,75.89,75.89,0,0,1,8-8.29,1.35,1.35,0,0,0-.09-2.08L128,208c-2.47.49-6.28-.11-9.51-.85s-6-1.65-6-1.65c-24-5-32-19-40-38-3.63-8.62-4.38-14.15-4.11-17.62A3.63,3.63,0,0,1,74,147c2.46,1.75,6.89,3.53,13.47,5.55,6,1.85,11.19,3.71,15,5.16,0,0,5.5-9.66,9.5-12.66,0,0,1-7,7-9,0,0-3-10,9-13l1-5s-14-6-18-15-7-37,12-51c0,0,8.78-8,23.5-8.25A41.77,41.77,0,0,1,152,44h2ZM186,103c2,3.26,6,3.54,8.65,3.35a34.49,34.49,0,0,1,6.18.11c17.2,1.76,15.35-5.06,16.1-5.44v0c-1.36.46-2.46.84-2.92,1-8,3-17-2-17-2S196,98,186,103Zm-6.74-24.9a1.09,1.09,0,0,0,.31-1.64c-.55-.64-1.15-1.93-1.57-4.46-.57-3.41-.81-6.5-2-8.9h0a8.25,8.25,0,0,0-10.44-3.81A18.8,18.8,0,0,0,159,64c-2.6,1.3-3.94,1.33-4.55,1.19,0,0,0,0,0,0A5.12,5.12,0,0,1,157,70c0,3,1.67,8.18,5.41,10.64A8.23,8.23,0,0,0,167,82a19.66,19.66,0,0,0,5.69-.94A32.09,32.09,0,0,0,179.25,78.12Z"/><path class="cls-3" d="M172,210c3,2-1.15,2.59-1.15,2.59A22.07,22.07,0,0,0,166,211c-4.65-.93-5.35-.44-5.42-.37a7.08,7.08,0,0,0,1.45-3.48S169,208,172,210Z"/><path class="cls-6" d="M171.39,78.23a8.27,8.27,0,0,1,1.29,2.85A19.66,19.66,0,0,1,167,82a8.23,8.23,0,0,1-4.59-1.36,6.89,6.89,0,0,1,2.78-3.93,4.19,4.19,0,0,1,2.31-.71A4.89,4.89,0,0,1,171.39,78.23Z"/><path class="cls-6" d="M173.21,69a4.37,4.37,0,0,1-2.72,1,5.12,5.12,0,0,1-4.32-2.87A9.27,9.27,0,0,1,165,62.52a9.54,9.54,0,0,1,.54-3.22A8.25,8.25,0,0,1,176,63.11h0A8,8,0,0,1,173.21,69Z"/><path class="cls-7" d="M166.17,67.15A5.12,5.12,0,0,0,170.49,70a4.37,4.37,0,0,0,2.72-1,8,8,0,0,1,.78,3.49,7,7,0,0,1-2.6,5.71,4.89,4.89,0,0,0-3.9-2.21,4.19,4.19,0,0,0-2.31.71A7.74,7.74,0,0,1,164,72.52,7.22,7.22,0,0,1,166.17,67.15Z"/><path class="cls-3" d="M175,217c-1,2-12.85,1.72-12.85,1.72h0a2.15,2.15,0,0,0,.56-2,16.56,16.56,0,0,0-2.63-5.49,6.66,6.66,0,0,0,.5-.56h0c.07-.07.77-.56,5.42.37a22.07,22.07,0,0,1,4.85,1.59C173.69,213.94,175.65,215.7,175,217Z"/><path class="cls-8" d="M162.69,216.71a2.15,2.15,0,0,1-.56,2,2.12,2.12,0,0,1-1.19.65l-5.72,1L156,215a8.62,8.62,0,0,1,2.84-2.75,7.33,7.33,0,0,0,1.23-1A16.56,16.56,0,0,1,162.69,216.71Z"/><path class="cls-5" d="M165,62.52a9.27,9.27,0,0,0,1.18,4.63A7.22,7.22,0,0,0,164,72.52a7.74,7.74,0,0,0,1.19,4.21,6.89,6.89,0,0,0-2.78,3.93C158.66,78.2,157,73,157,70a5.12,5.12,0,0,0-2.55-4.79s0,0,0,0c.61.14,1.95.11,4.55-1.19a18.8,18.8,0,0,1,6.54-4.72A9.54,9.54,0,0,0,165,62.52Z"/><path class="cls-8" d="M130.66,210a1.35,1.35,0,0,1,.09,2.08,75.89,75.89,0,0,0-8,8.29h0S118,219,117,217s1-6,1-6l.49-3.85c3.23.74,7,1.34,9.51.85Z"/><path class="cls-9" d="M109.49,160.52s-2.59-1.15-7-2.84c-3.81-1.45-9-3.31-15-5.16-6.58-2-11-3.8-13.47-5.55a3.63,3.63,0,0,0-5.64,2.93c-.27,3.47.48,9,4.11,17.62,8,19,16,33,40,38,0,0,2.69.9,6,1.65s7,1.34,9.51.85"/><path class="cls-9" d="M171,257.62q.51-.28,1-.6l1.68-10.9a3.21,3.21,0,0,0-.12-1.45,3,3,0,0,0-.8-1.32,2.69,2.69,0,0,0-.73-.55,25.9,25.9,0,0,0-8-2.78"/><path class="cls-9" d="M120,202l8,6,2.67,2a1.35,1.35,0,0,1,.09,2.08,75.89,75.89,0,0,0-8,8.29A32.09,32.09,0,0,0,117,230s-12,11-11,18,3,11,13,11,24-1,31,0c6.62.95,15,1.89,21-1.4"/><path class="cls-9" d="M156,234s10.05,0,14.34,1.22a2.35,2.35,0,0,1,.63.27,2.88,2.88,0,0,1,1,1,2.93,2.93,0,0,1,.37.87c.44,1.75,1,4.68.47,5.88"/><path class="cls-9" d="M160.57,210.65a7.08,7.08,0,0,0,1.45-3.48,6.83,6.83,0,0,0,0-1.28A5.18,5.18,0,0,0,160,202l-1-.79"/><path class="cls-9" d="M171,235.46v-3.62a2.53,2.53,0,0,0-.15-.87,2.69,2.69,0,0,0-1.76-1.7C162.93,227.4,154,229,154,229l1.23-8.64L156,215a8.62,8.62,0,0,1,2.84-2.75,7.33,7.33,0,0,0,1.23-1,6.66,6.66,0,0,0,.5-.56"/><path class="cls-9" d="M118.48,207.17,118,211s-2,4-1,6,5.79,3.36,5.79,3.36"/><path class="cls-9" d="M160.06,211.22a16.56,16.56,0,0,1,2.63,5.49,2.15,2.15,0,0,1-.56,2,2.12,2.12,0,0,1-1.19.65l-5.72,1"/><path class="cls-9" d="M102.49,157.68S108,148,112,145c0,0,1-7,7-9,0,0-3-10,9-13l1-5s-14-6-18-15-7-37,12-51c0,0,8.78-8,23.5-8.25A41.77,41.77,0,0,1,152,44h2"/><path class="cls-9" d="M132,64s-6,2,0,6"/><path class="cls-9" d="M185.32,54.53A9.43,9.43,0,0,1,186,58"/><path class="cls-9" d="M148,49c.49-1.22,2.57-3.38,6.09-4.76a18.78,18.78,0,0,1,5.41-1.19c.66,0,1.32-.11,2-.21a9.88,9.88,0,0,1,3.47.42c3,.72,8.15,2.52,17.06,6.74a11.41,11.41,0,0,1,3.32,4.51"/><path class="cls-9" d="M146.49,43.77S154,36,165,43"/><path class="cls-9" d="M185.31,54.53h0L226,69s8,5,5,14c0,0-1,11-5,15l-3.38,1.11-5.7,1.88c-1.36.46-2.46.84-2.92,1-8,3-17-2-17-2s-1-2-11,3c0,0-7,2-10-4,0,0-1-3-5-1"/><path class="cls-9" d="M186,103c2,3.26,6,3.54,8.65,3.35a34.49,34.49,0,0,1,6.18.11c17.2,1.76,15.35-5.06,16.1-5.44l.07,0"/><path class="cls-9" d="M222.61,99.13S221,110,215,114s-33,9-33,9l-18,8s3.47,0,2.93,6.61A36.87,36.87,0,0,1,165,146a27.83,27.83,0,0,1,4.54,12.23A18.83,18.83,0,0,1,168,168"/><path class="cls-9" d="M175,117a29.08,29.08,0,0,1-21,5c-12-2-10-13-10-13"/><path class="cls-9" d="M162.4,80.66C158.66,78.2,157,73,157,70a5.12,5.12,0,0,0-2.55-4.79s0,0,0,0c.61.14,1.95.11,4.55-1.19a18.8,18.8,0,0,1,6.54-4.72"/><path class="cls-9" d="M176,63.12c1.21,2.4,1.45,5.49,2,8.9.42,2.53,1,3.82,1.57,4.46a1.09,1.09,0,0,1-.31,1.64,32.09,32.09,0,0,1-6.57,3"/><path class="cls-9" d="M227,82s1-2-4-3"/><path class="cls-9" d="M171.39,78.23a8.27,8.27,0,0,1,1.29,2.85A19.66,19.66,0,0,1,167,82a8.23,8.23,0,0,1-4.59-1.36,6.89,6.89,0,0,1,2.78-3.93"/><path class="cls-9" d="M166.17,67.15A9.27,9.27,0,0,1,165,62.52a9.54,9.54,0,0,1,.54-3.22A8.25,8.25,0,0,1,176,63.11h0A8,8,0,0,1,173.21,69"/><path class="cls-9" d="M173.21,69a8,8,0,0,1,.78,3.49,7,7,0,0,1-2.6,5.71,4.89,4.89,0,0,0-3.9-2.21,4.19,4.19,0,0,0-2.31.71A7.74,7.74,0,0,1,164,72.52a7.22,7.22,0,0,1,2.18-5.37A5.12,5.12,0,0,0,170.49,70,4.37,4.37,0,0,0,173.21,69Z"/><path class="cls-9" d="M170.84,231S184,230,188,237c0,0,0,1.72-2.39,2a5.79,5.79,0,0,1-.61,0"/><path class="cls-9" d="M172,236.52h0c.34,0,8,.3,13.6,2.47,2.44.94,4.49,2.24,5.39,4,0,0,2.93,3.19-4.54,4.09"/><path class="cls-9" d="M173.56,244.67a43.67,43.67,0,0,1,12.89,2.44c2.77,1.09,5.25,2.65,6.54,4.91"/><path class="cls-9" d="M171,257.62h0c.5-.07,18-2.61,20-3.6,2.53-1.26,2-2,2-2"/><path class="cls-9" d="M162.14,218.74S174,219,175,217c.66-1.32-1.3-3.08-4.15-4.41A22.07,22.07,0,0,0,166,211c-4.65-.93-5.35-.44-5.42-.37h0"/><path class="cls-9" d="M162,207.17s7,.85,10,2.85-1.15,2.59-1.15,2.59"/><path class="cls-9" d="M134,139a12.07,12.07,0,0,0,1,10s-7,32-4,38c2,4,13.3,11.09,28,14.21a66.09,66.09,0,0,0,24,.79l.05,0,.95-1a37.46,37.46,0,0,1,1-8h-4"/><path class="cls-9" d="M179,179s5.83-.83,8.37.54a2.69,2.69,0,0,1,.63.46s-2.92,11.67-1.08,12.94a.21.21,0,0,0,.08.06h-2s18,3,19,3,0,4.84-20.95,6L182,202"/><path class="cls-9" d="M153,139c0,1,1,7-3,12,0,0,.46,1.84,1,4.63,1,5.42,2.33,14.42,1,20.37"/><path class="cls-9" d="M160,153s-5,4-6,3l-3.21-1.42"/><path class="cls-9" d="M166.92,137.63S175,131,179,134c0,0,.8.4,1.64.94A3,3,0,0,1,182,137.5V142"/><path class="cls-9" d="M183.65,155.42a.79.79,0,0,1-.13.13c-.94,1-3.23,3-5.53,1.47,0,0-5.92-1.53-8.46,1.23"/><path class="cls-9" d="M173,142s6.47-1.29,9-.24a1.35,1.35,0,0,1,1,1.24s-.09.37-.21,1c-.42,2.28-1.14,7.87,1.21,11,0,0-.11.15-.31.37"/><path class="cls-9" d="M181.61,136s8.38-5,21.38,3c0,0,5,3-7,5,0,0-10.42-1-13.21,0"/><path class="cls-9" d="M196,144s7,4,8,7-17.8,2.2-20.31,4.37l0,0-.13.13,0,.05"/><path class="cls-9" d="M187.42,168a3.56,3.56,0,0,0-1.57-1.57c-4.71-2.4-10.41.71-13.86,1.57a22,22,0,0,1-4,.4c-5.91.21-15-.4-15-.4"/><path class="cls-9" d="M187.43,168c.62.06,20.58,2.09,21.56,8,0,0,1,1-18,3l-3.63.54.52-9.48a3.92,3.92,0,0,0-.45-2.06"/><path class="cls-9" d="M187.43,168h0"/><path class="cls-9" d="M188,180s20,3,21,7c.87,3.49-18.24,5.56-22.08,5.94l-.67.06"/></g></g></svg>