<svg xmlns="http://www.w3.org/2000/svg" viewBox="0 0 300 300"><defs><style>.cls-1,.cls-4{fill:none;}.cls-2{fill:#e7ece8;}.cls-3{fill:#e2c03c;}.cls-4{stroke:#000;stroke-miterlimit:10;}</style></defs><title>N</title><g id="Capa_2" data-name="Capa 2"><g id="img_bg" data-name="img bg"><rect class="cls-1" width="300" height="300"/></g><g id="N"><path class="cls-2" d="M87.91,154.15s-1.59-8.07,1.41-10.07,9,6,9,6c-7-1-7,1-9,2A3.82,3.82,0,0,0,87.91,154.15Z"/><path class="cls-2" d="M80.32,155.08c1-3,6.71,2.19,6.71,2.19-.26,1.36-.71,3.81-.71,3.81a8.06,8.06,0,0,0-2.73,6h-.27S79.32,158.08,80.32,155.08Z"/><path class="cls-2" d="M85.32,210.08c2-4,15.21,0,15.21,0h0c-.13.79-.24,1.63-.33,2.49h0c-7.12-.51-8.88,6.51-8.88,6.51a7,7,0,0,0-1.49,0h0C89.4,218.72,83.39,213.94,85.32,210.08Z"/><path class="cls-2" d="M223.32,216.08c8,3-8.4,13.55-8.4,13.55,2-5-1.9-11.55-3.6-11.55a3.79,3.79,0,0,1-1.22-.25S215.32,213.08,223.32,216.08Z"/><path class="cls-2" d="M211.28,151.88c-.25-3.42-1.7-9.58-8.74-9,1.64-1.19,11.86-8.43,12.78-3.83,1,5-4,12.8-4,12.8Z"/><path class="cls-2" d="M201.32,143.08l-1,2s-2.74-6.37-9.94-2.61l-.06-.39c3-8,10-11,11-9S201.32,143.08,201.32,143.08Z"/><path class="cls-2" d="M99.52,146.3c0-.33-1.13-7.31,1.8-11.22s9.5,9.84,9.85,10.6c-.46-.72-1.83-1.93-5.85-2.6C102.27,142.57,100.51,144.39,99.52,146.3Z"/><path class="cls-3" d="M129,206.71a18.14,18.14,0,0,1-11.72-12.63c-2.55-9.34-2.93-15.8-1.14-22.44h0c-.23.55-4,9.5-9.85,11.44l-.32.1c-6,1.8-14.68-1.14-14.68-3.1s-3-7-5-8a6,6,0,0,1-2.73-5,8.06,8.06,0,0,1,2.73-6s.45-2.45.71-3.81c.09-.46.15-.8.17-.87a18.59,18.59,0,0,1,.71-2.25,3.82,3.82,0,0,1,1.41-2.07c2-1,2-3,9-2l1.2-3.77h0c1-1.91,2.75-3.73,5.8-3.22,4,.67,5.39,1.88,5.85,2.6l0,0a1.32,1.32,0,0,1,.22.57l.69-.76,2.22-2.44s2.86-12.86,8.57-17.44c-2.62-2.72-16.29-17.41-13.57-25.56,3-9,5-25,9-29,0,0-9-8,0-13,0,0-2-16,8-19a13.12,13.12,0,0,1,15,5s11-9,29-1c-.62-2.89,24.38-14.9,20,16,0,0,7,9,1,15,0,0,7,46.91-11,51l.22.81c1.57,1.1,2.93,3,3.73,6.2A81,81,0,0,0,189,144.85l.33-1.77c.36-.22.72-.43,1.06-.61,7.2-3.76,9.94,2.61,9.94,2.61l1-2c.43-.08.83-.13,1.22-.17,7-.61,8.49,5.55,8.74,9a15,15,0,0,1,0,2.2,1.69,1.69,0,0,1,.61.38h0c1.86,1.74,1.58,8,1.43,10,0,.4,0,.63,0,.63s-14,14-20,15c-5.83,1-12.61-16.95-13-17.5a137.12,137.12,0,0,1,1.42,17.5c.06,8.26-1,15.89-4.44,20a28.07,28.07,0,0,1-12.82,10.31h0a27.52,27.52,0,0,1-6.17,1.69s-7,4-20,1c0,0-3-1-8-6A11.55,11.55,0,0,1,129,206.71Z"/><path class="cls-3" d="M126.55,207.41l.1.58c4.63,6.05,3.67,26.09,3.67,26.09s8,8,2,21-32,4-35-4-16-14-16-14-4.27-3.56-2.61-8.87a11.39,11.39,0,0,1,1.61-3.13c3.47-4.85,7.42-5.86,9.51-6a7,7,0,0,1,1.49,0s1.76-7,8.88-6.51h0c.09-.86.2-1.7.33-2.49a41.65,41.65,0,0,1,2.78-10c-2.85-12.35,2.42-15.68,3-16l-.28-.92.32-.1c5.81-1.94,9.62-10.89,9.85-11.44h0c-1.79,6.64-1.41,13.1,1.14,22.44A18.14,18.14,0,0,0,129,206.71,11.52,11.52,0,0,1,126.55,207.41Z"/><path class="cls-2" d="M219.32,152.08c3,6-5.84,12.38-5.84,12.38h-.11c.15-2,.43-8.25-1.43-10C216.54,150.84,219.32,152.08,219.32,152.08Z"/><path class="cls-3" d="M167.34,210.78a26.24,26.24,0,0,1-2.84-.39,28.07,28.07,0,0,0,12.82-10.31c3.43-4.11,4.5-11.74,4.44-20,0,0,14.35.87,15.52,8.25a19.35,19.35,0,0,0,.85,3.35c.74,2.07,1.19,6.07-2.81,11.4a38,38,0,0,1,.63,6.74,25.44,25.44,0,0,1,3.09.72c2.49.76,5.69,2.16,6.28,4.54,0,0,.81.61,1.88,1.28a15.51,15.51,0,0,0,2.9,1.47,3.79,3.79,0,0,0,1.22.25c1.7,0,5.58,6.53,3.6,11.55a7,7,0,0,1-1.6,2.45c-5,5-5,5-12,9,0,0-5,12-11,14a27.62,27.62,0,0,1-22,4c-13-3-9-17-6-22s1-15,2-19a26.26,26.26,0,0,1,3-7.09Z"/><path class="cls-2" d="M212.32,208.08a8.22,8.22,0,0,1-5.12,8.28c-1.07-.67-1.88-1.28-1.88-1.28-.59-2.38-3.79-3.78-6.28-4.54C200.48,209.07,205.59,204.71,212.32,208.08Z"/><path class="cls-2" d="M89.81,219h0c-2.09.16-6,1.17-9.51,6a11.39,11.39,0,0,0-1.61,3.13l-.39-.13s-6-11-3-13S89.22,218.75,89.81,219Z"/><path class="cls-4" d="M126.32,180.08s10-26,24-27,20,27,20,27"/><path class="cls-4" d="M123.32,126.08l-.43-.44c-2.62-2.72-16.29-17.41-13.57-25.56,3-9,5-25,9-29,0,0-9-8,0-13,0,0-2-16,8-19a13.12,13.12,0,0,1,15,5s11-9,29-1c-.62-2.89,24.38-14.9,20,16,0,0,7,9,1,15,0,0,7,46.91-11,51h0"/><path class="cls-4" d="M170.32,126.08A14.26,14.26,0,0,1,174,124.8a8.48,8.48,0,0,1,6.58,1.08c1.57,1.1,2.93,3,3.73,6.2A81,81,0,0,0,189,144.85c3.86,8.63,8.33,16.23,8.33,16.23"/><path class="cls-4" d="M164.49,210.39a27.52,27.52,0,0,1-6.17,1.69s-7,4-20,1c0,0-3-1-8-6a11.55,11.55,0,0,1-1.28-.37,18.14,18.14,0,0,1-11.72-12.63c-2.55-9.34-2.93-15.8-1.14-22.44a34.85,34.85,0,0,1,1.14-3.56c3-8,4-6,5-15s3-12,3-12"/><path class="cls-4" d="M180.34,162.58a137.12,137.12,0,0,1,1.42,17.5c.06,8.26-1,15.89-4.44,20a28.07,28.07,0,0,1-12.82,10.31"/><path class="cls-4" d="M139.32,118.08a24.06,24.06,0,0,1-13,6,6.83,6.83,0,0,0-3.43,1.56c-5.71,4.58-8.57,17.44-8.57,17.44l-2.22,2.44-.69.76c-3.4,3.78-8.75,9.8-10.09,11.8-2,3-8,7-8,10"/><path class="cls-4" d="M111.19,145.71a1.32,1.32,0,0,1,.22.57"/><path class="cls-4" d="M99.52,146.3c1-1.91,2.75-3.73,5.8-3.22,4,.67,5.39,1.88,5.85,2.6"/><path class="cls-4" d="M116.18,171.61v0c-.23.55-4,9.5-9.85,11.44l-.32.1c-6,1.8-14.68-1.14-14.68-3.1s-3-7-5-8a6,6,0,0,1-2.73-5,8.06,8.06,0,0,1,2.73-6s.45-2.45.71-3.81c.09-.46.15-.8.17-.87a18.59,18.59,0,0,1,.71-2.25,3.82,3.82,0,0,1,1.41-2.07c2-1,2-3,9-2a12.52,12.52,0,0,1,1.2-3.77"/><path class="cls-4" d="M83.32,167.08s-4-9-3-12S87,157.27,87,157.27"/><path class="cls-4" d="M87.91,154.15s-1.59-8.07,1.41-10.07,9,6,9,6l1.2-3.77h0c0-.33-1.13-7.31,1.8-11.22s9.5,9.84,9.85,10.6l0,0"/><path class="cls-4" d="M211.93,154.46a1.69,1.69,0,0,0-.61-.38,15,15,0,0,0,0-2.2c-.25-3.42-1.7-9.58-8.74-9-.39,0-.79.09-1.22.17l-1,2s-2.74-6.37-9.94-2.61c-.34.18-.7.39-1.06.61l-.33,1.77v0"/><path class="cls-4" d="M177.32,146.08s1.71,7.2,3,16.49h0c.37.55,7.15,18.47,13,17.5,6-1,20-15,20-15s0-.23,0-.63c.15-2,.43-8.25-1.43-10"/><path class="cls-4" d="M213.48,164.46s8.84-6.38,5.84-12.38c0,0-2.78-1.24-7.38,2.38h0"/><path class="cls-4" d="M211.29,151.88s5-7.8,4-12.8c-.92-4.6-11.14,2.64-12.78,3.83l-.22.17"/><path class="cls-4" d="M201.32,143.08s1-8,0-10-8,1-11,9"/><path class="cls-4" d="M106.32,184.08l0,0c-.54.3-5.81,3.63-3,16a41.65,41.65,0,0,0-2.78,10c-.13.79-.24,1.63-.33,2.49a42.57,42.57,0,0,0,1.11,15.51"/><path class="cls-4" d="M130.32,206.08a7.54,7.54,0,0,1-1.28.63,11.52,11.52,0,0,1-2.49.7,14.37,14.37,0,0,1-10.23-2.33"/><path class="cls-4" d="M126.32,207.6l.33.39c4.63,6.05,3.67,26.09,3.67,26.09s8,8,2,21-32,4-35-4-16-14-16-14-4.27-3.56-2.61-8.87a11.39,11.39,0,0,1,1.61-3.13c3.47-4.85,7.42-5.86,9.51-6a7,7,0,0,1,1.49,0s1.76-7,8.88-6.51"/><path class="cls-4" d="M89.83,219.06h0c-.41-.33-6.42-5.11-4.49-9s15.21,0,15.21,0"/><path class="cls-4" d="M78.32,228.08s-6-11-3-13,13.9,3.67,14.49,4"/><path class="cls-4" d="M181.76,180.08s14.35.87,15.52,8.25a19.35,19.35,0,0,0,.85,3.35c.74,2.07,1.19,6.07-2.81,11.4a38,38,0,0,1,.63,6.74,69.76,69.76,0,0,1-1.63,16.26"/><path class="cls-4" d="M164.49,210.39h0a26.24,26.24,0,0,0,2.84.39c5.36.54,17,.58,23-7.7"/><path class="cls-4" d="M196,209.82a25.44,25.44,0,0,1,3.09.72c2.49.76,5.69,2.16,6.28,4.54,0,0,.81.61,1.88,1.28a15.51,15.51,0,0,0,2.9,1.47,3.79,3.79,0,0,0,1.22.25c1.7,0,5.58,6.53,3.6,11.55a7,7,0,0,1-1.6,2.45c-5,5-5,5-12,9,0,0-5,12-11,14a27.62,27.62,0,0,1-22,4c-13-3-9-17-6-22s1-15,2-19a26.26,26.26,0,0,1,3-7.09"/><path class="cls-4" d="M184.32,241.08s-7,6-14,0"/><path class="cls-4" d="M123.32,244.08s-6,6-12,0"/><path class="cls-4" d="M198.62,211s.14-.17.42-.45c1.44-1.47,6.55-5.83,13.28-2.46a8.22,8.22,0,0,1-5.12,8.28"/><path class="cls-4" d="M210.1,217.83s5.22-4.75,13.22-1.75-8.4,13.55-8.4,13.55"/><polyline class="cls-4" points="174.02 124.81 174.01 124.8 165.32 118.08"/></g></g></svg>