<svg xmlns="http://www.w3.org/2000/svg" viewBox="0 0 152.04 224.28"><defs><style>.cls-1{fill:#e7ece8;}.cls-2{fill:#e2c03c;}.cls-3{fill:none;stroke:#000;stroke-miterlimit:10;}</style></defs><title>N</title><g id="Capa_2" data-name="Capa 2"><g id="N"><path class="cls-1" d="M149.34,178.22c8,3-8.39,13.54-8.39,13.54,2-5-1.91-11.54-3.61-11.54a3.73,3.73,0,0,1-1.21-.25S141.34,175.22,149.34,178.22Z"/><path class="cls-1" d="M145.34,114.22c3,6-5.84,12.38-5.84,12.38h-.11c.15-2,.43-8.25-1.43-10C142.56,113,145.34,114.22,145.34,114.22Z"/><path class="cls-1" d="M141.34,101.22c1,5-4,12.79-4,12.79h0c-.25-3.42-1.7-9.58-8.74-9C130.2,103.86,140.42,96.62,141.34,101.22Z"/><path class="cls-1" d="M138.34,170.22a8.23,8.23,0,0,1-5.11,8.28c-1.08-.67-1.89-1.28-1.89-1.28-.59-2.38-3.78-3.78-6.28-4.54C126.51,171.21,131.61,166.85,138.34,170.22Z"/><path class="cls-2" d="M127.34,105.22c.42-.08.83-.13,1.22-.17,7-.62,8.49,5.54,8.74,9a15.19,15.19,0,0,1,0,2.21,1.69,1.69,0,0,1,.61.38h0c1.86,1.74,1.58,8,1.43,10,0,.4,0,.63,0,.63s-14,14-20,15c-5.83,1-12.61-17-13-17.5a140.86,140.86,0,0,1,1.42,17.5c.06,8.26-1,15.89-4.44,20a28.07,28.07,0,0,1-12.82,10.31h0a27.37,27.37,0,0,1-6.17,1.69s-7,4-20,1c0,0-3-1-8-6a11.55,11.55,0,0,1-1.28-.37,18.14,18.14,0,0,1-11.72-12.63c-2.55-9.34-2.93-15.8-1.14-22.44h0c-.23.55-4,9.5-9.85,11.44l-.32.1c-6,1.8-14.68-1.14-14.68-3.1s-3-7-5-8a6,6,0,0,1-2.73-5,8.06,8.06,0,0,1,2.73-6s.45-2.45.72-3.81c.08-.47.15-.8.17-.88a19,19,0,0,1,.71-2.24,3.87,3.87,0,0,1,1.4-2.07c2-1,2-3,9-2l1.2-3.77h0c1-1.91,2.75-3.73,5.8-3.22,4,.66,5.37,1.86,5.84,2.58l0,0a1.28,1.28,0,0,1,.23.57l.69-.77,2.21-2.43s2.86-12.86,8.57-17.44c-2.62-2.72-16.29-17.41-13.57-25.56,3-9,5-25,9-29,0,0-9-8,0-13,0,0-2-16,8-19a13.12,13.12,0,0,1,15,5s11-9,29-1c-.62-2.9,24.38-14.91,20,16,0,0,7,9,1,15,0,0,7,46.91-11,51l.22.81c1.57,1.1,2.93,3,3.73,6.2A81.13,81.13,0,0,0,115,107l.33-1.78c.36-.23.72-.43,1.06-.61,7.21-3.77,9.94,2.61,9.94,2.61Z"/><path class="cls-1" d="M127.34,105.22l-1,2s-2.73-6.38-9.94-2.61l-.06-.39c3-8,10-11,11-9S127.34,105.22,127.34,105.22Z"/><path class="cls-2" d="M122,172h0a25.08,25.08,0,0,1,3.08.72c2.5.76,5.69,2.16,6.28,4.54,0,0,.81.61,1.89,1.28a14.93,14.93,0,0,0,2.9,1.47,3.73,3.73,0,0,0,1.21.25c1.7,0,5.58,6.52,3.61,11.54a7.08,7.08,0,0,1-1.61,2.46c-5,5-5,5-12,9,0,0-5,12-11,14a27.62,27.62,0,0,1-22,4c-13-3-9-17-6-22s1-15,2-19a26.26,26.26,0,0,1,3-7.09l0-.21a26.24,26.24,0,0,1-2.84-.39,28.07,28.07,0,0,0,12.82-10.31c3.43-4.11,4.5-11.74,4.44-20,0,0,14.35.87,15.53,8.25a19,19,0,0,0,.84,3.34c.75,2.08,1.19,6.08-2.81,11.41A38,38,0,0,1,122,172Z"/><path class="cls-2" d="M32.3,146.24l-.28-.92.32-.1c5.81-1.94,9.62-10.89,9.85-11.44h0c-1.79,6.64-1.41,13.1,1.14,22.44a18.14,18.14,0,0,0,11.72,12.63,11.52,11.52,0,0,1-2.49.7l.1.57c4.63,6.06,3.67,26.1,3.67,26.1s8,8,2,21-32,4-35-4-16-14-16-14-4.27-3.56-2.61-8.87a11.39,11.39,0,0,1,1.61-3.13c3.48-4.86,7.43-5.87,9.52-6a7,7,0,0,1,1.48,0s1.76-7,8.88-6.51c.09-.86.2-1.7.33-2.49a41.9,41.9,0,0,1,2.79-10C26.49,149.87,31.76,146.54,32.3,146.24Z"/><path class="cls-1" d="M27.34,97.22c2.9-3.87,9.42,9.68,9.84,10.58-.47-.72-1.86-1.92-5.84-2.58-3.05-.51-4.81,1.31-5.8,3.22C25.49,108.11,24.41,101.13,27.34,97.22Z"/><path class="cls-1" d="M11.34,172.22c2-4,15.21,0,15.21,0-.13.79-.24,1.63-.33,2.49-7.12-.52-8.88,6.51-8.88,6.51a7,7,0,0,0-1.48,0h0C15.45,180.88,9.41,176.09,11.34,172.22Z"/><path class="cls-1" d="M15.84,181.19h0c-2.09.15-6,1.16-9.52,6a11.39,11.39,0,0,0-1.61,3.13l-.39-.13s-6-11-3-13S15.25,180.89,15.84,181.19Z"/><path class="cls-1" d="M15.34,114.22a3.87,3.87,0,0,0-1.4,2.07h0s-1.59-8.07,1.41-10.07,9,6,9,6C17.34,111.22,17.34,113.22,15.34,114.22Z"/><path class="cls-1" d="M9.34,129.22s-4-9-3-12,6.71,2.19,6.71,2.19h0c-.27,1.36-.72,3.81-.72,3.81a8.06,8.06,0,0,0-2.73,6Z"/><path class="cls-3" d="M52.34,142.22s10-26,24-27,20,27,20,27"/><path class="cls-3" d="M49.34,88.22l-.43-.44c-2.62-2.72-16.29-17.41-13.57-25.56,3-9,5-25,9-29,0,0-9-8,0-13,0,0-2-16,8-19a13.12,13.12,0,0,1,15,5s11-9,29-1c-.62-2.9,24.38-14.91,20,16,0,0,7,9,1,15,0,0,7,46.91-11,51h0"/><path class="cls-3" d="M96.34,88.22a14.43,14.43,0,0,1,3.7-1.28A8.46,8.46,0,0,1,106.61,88c1.57,1.1,2.93,3,3.73,6.2A81.13,81.13,0,0,0,115,107c3.86,8.62,8.33,16.22,8.33,16.22"/><path class="cls-3" d="M90.51,172.53a27.37,27.37,0,0,1-6.17,1.69s-7,4-20,1c0,0-3-1-8-6a11.55,11.55,0,0,1-1.28-.37,18.14,18.14,0,0,1-11.72-12.63c-2.55-9.34-2.93-15.8-1.14-22.44a34.85,34.85,0,0,1,1.14-3.56c3-8,4-6,5-15s3-12,3-12"/><path class="cls-3" d="M106.36,124.72a140.86,140.86,0,0,1,1.42,17.5c.06,8.26-1,15.89-4.44,20a28.07,28.07,0,0,1-12.82,10.31"/><path class="cls-3" d="M65.34,80.22a24.06,24.06,0,0,1-13,6,6.83,6.83,0,0,0-3.43,1.56c-5.71,4.58-8.57,17.44-8.57,17.44l-2.21,2.43-.69.77c-3.41,3.78-8.77,9.79-10.1,11.8-2,3-8,7-8,10"/><path class="cls-3" d="M37.21,107.85a1.28,1.28,0,0,1,.23.57"/><path class="cls-3" d="M25.54,108.44c1-1.91,2.75-3.73,5.8-3.22,4,.66,5.37,1.86,5.84,2.58"/><path class="cls-3" d="M42.2,133.75a.08.08,0,0,1,0,0c-.23.55-4,9.5-9.85,11.44l-.32.1c-6,1.8-14.68-1.14-14.68-3.1s-3-7-5-8a6,6,0,0,1-2.73-5,8.06,8.06,0,0,1,2.73-6s.45-2.45.72-3.81c.08-.47.15-.8.17-.88a19,19,0,0,1,.71-2.24,3.87,3.87,0,0,1,1.4-2.07c2-1,2-3,9-2a12.52,12.52,0,0,1,1.2-3.77"/><path class="cls-3" d="M9.34,129.22s-4-9-3-12,6.71,2.19,6.71,2.19"/><path class="cls-3" d="M13.93,116.29s-1.59-8.07,1.41-10.07,9,6,9,6l1.2-3.77h0c-.05-.33-1.13-7.31,1.8-11.22s9.42,9.68,9.84,10.58l0,0"/><path class="cls-3" d="M138,116.6a1.69,1.69,0,0,0-.61-.38,15.19,15.19,0,0,0,0-2.21c-.25-3.42-1.7-9.58-8.74-9-.39,0-.8.09-1.22.17l-1,2s-2.73-6.38-9.94-2.61c-.34.18-.7.38-1.06.61L115,107"/><path class="cls-3" d="M106.35,124.72s0,0,0,0c.37.55,7.15,18.47,13,17.5,6-1,20-15,20-15s0-.23,0-.63c.15-2,.43-8.25-1.43-10"/><path class="cls-3" d="M106.35,124.72h0c-1.3-9.29-3-16.49-3-16.49"/><path class="cls-3" d="M139.5,126.6s8.84-6.38,5.84-12.38c0,0-2.78-1.25-7.38,2.38h0"/><path class="cls-3" d="M137.31,114s5-7.79,4-12.79c-.92-4.6-11.14,2.64-12.78,3.83l-.22.17"/><path class="cls-3" d="M127.34,105.22s1-8,0-10-8,1-11,9"/><path class="cls-3" d="M32.34,146.22l0,0c-.54.3-5.81,3.63-3,16a41.9,41.9,0,0,0-2.79,10c-.13.79-.24,1.63-.33,2.49a42.81,42.81,0,0,0,1.12,15.51"/><path class="cls-3" d="M56.34,168.22a7.54,7.54,0,0,1-1.28.63,11.52,11.52,0,0,1-2.49.7,14.37,14.37,0,0,1-10.23-2.33"/><path class="cls-3" d="M52.34,169.73l.33.39c4.63,6.06,3.67,26.1,3.67,26.1s8,8,2,21-32,4-35-4-16-14-16-14-4.27-3.56-2.61-8.87a11.39,11.39,0,0,1,1.61-3.13c3.48-4.86,7.43-5.87,9.52-6a7,7,0,0,1,1.48,0s1.76-7,8.88-6.51"/><path class="cls-3" d="M15.86,181.2h0c-.39-.31-6.43-5.1-4.5-9s15.21,0,15.21,0"/><path class="cls-3" d="M4.34,190.22s-6-11-3-13,13.91,3.67,14.5,4"/><path class="cls-3" d="M107.78,142.22s14.35.87,15.53,8.25a19,19,0,0,0,.84,3.34c.75,2.08,1.19,6.08-2.81,11.41A38,38,0,0,1,122,172a69.76,69.76,0,0,1-1.63,16.26"/><path class="cls-3" d="M90.51,172.53h0a26.24,26.24,0,0,0,2.84.39c5.36.54,17,.58,23-7.7"/><path class="cls-3" d="M122,172a25.08,25.08,0,0,1,3.08.72c2.5.76,5.69,2.16,6.28,4.54,0,0,.81.61,1.89,1.28a14.93,14.93,0,0,0,2.9,1.47,3.73,3.73,0,0,0,1.21.25c1.7,0,5.58,6.52,3.61,11.54a7.08,7.08,0,0,1-1.61,2.46c-5,5-5,5-12,9,0,0-5,12-11,14a27.62,27.62,0,0,1-22,4c-13-3-9-17-6-22s1-15,2-19a26.26,26.26,0,0,1,3-7.09"/><path class="cls-3" d="M110.34,203.22s-7,6-14,0"/><path class="cls-3" d="M49.34,206.22s-6,6-12,0"/><path class="cls-3" d="M124.65,173.13s.14-.17.41-.45c1.45-1.47,6.55-5.83,13.28-2.46a8.23,8.23,0,0,1-5.11,8.28"/><path class="cls-3" d="M136.13,180s5.21-4.75,13.21-1.75S141,191.76,141,191.76"/><line class="cls-3" x1="100.04" y1="86.94" x2="91.34" y2="80.22"/></g></g></svg>