<svg xmlns="http://www.w3.org/2000/svg" viewBox="0 0 300 300"><defs><style>.cls-1,.cls-7{fill:none;}.cls-2{fill:#e2c03c;}.cls-3{fill:#ebe2d1;}.cls-4{fill:#4b6437;}.cls-5{fill:#f2f2f2;}.cls-6{fill:#041a00;}.cls-7{stroke:#000;stroke-miterlimit:10;}</style></defs><title>NE</title><g id="Capa_2" data-name="Capa 2"><g id="img_bg" data-name="img bg"><rect class="cls-1" width="300" height="300"/></g><g id="NE"><path class="cls-2" d="M175.28,220.19a4.77,4.77,0,0,0-.18-.8,32.17,32.17,0,0,1-1-8s4-9,3-14-11.51-12.74-11.51-12.74a37.47,37.47,0,0,1,6.51-.26c16.08.89,23.39.19,27.61-2.82a11.25,11.25,0,0,0,1.39-1.18c4-4,0-10,0-10l1.46-1,1.54-1c0-6.17-2.35-9-3.83-10.25a5.26,5.26,0,0,0-1.17-.75h-4a2.27,2.27,0,0,0,2.2-2.5,5.54,5.54,0,0,0-.2-1.5,6.56,6.56,0,0,0-5.8-4.69h0a10.12,10.12,0,0,0-5.19.69c-5,2-14.85,6.44-14.85,6.44l-6.15-18.44.5-4,0-.18.48-3.82c1-4,2-6,27-14s20-18,20-18l-6.37-1c-4.08-.79-12.63-7-12.63-7s24,5,26-4-2-22-2-22c-4-6-26-11-26-11,0-2.16-2.07-6.38-3.23-8.59a6.65,6.65,0,0,0-2.2-2.45c-5-3.31-12.12-5-17.57-5-2.94,0-5.89,1.93-8.12,3.89-1.54-1.41-4.59-1.76-6-1.86-.71,0-1.41-.16-2.11-.26a28.25,28.25,0,0,0-7.95,0c-3.92-4.42-9.52-3.6-11.78-3-.83.21-1.68.39-2.53.55-13.39,2.59-12.46,13.75-12.46,13.75-19,4-17,41-15,51s21.39,22.22,21.39,22.22a5.44,5.44,0,0,1-1.55,1c-7,3.11-17.39,32.17-17.39,32.17-8.3-5.74-17.11-11.49-20.45-12.44-7-2-10,40,5,55a67.41,67.41,0,0,0,8.13,7,51.1,51.1,0,0,0,23,9.51,65.19,65.19,0,0,0,11,.66c1.27,0,2.54-.08,3.83-.16a29.09,29.09,0,0,0,5.68-.63c.45-.11.9-.23,1.32-.37l.1-.37a17.23,17.23,0,0,0,4.41.62s-6.38,14.05-6.14,20.42c-2.55,2.77-11.7,13.54-7.37,21.33,5,9,16,11,26,7s28-11,33-12a6,6,0,0,0,4.19-3.42,11,11,0,0,0,.81-7.58c-1-3-4-6-6-6a11.94,11.94,0,0,1-2.15-.25c.85-4.26-4.85-7.75-4.85-7.75a3.42,3.42,0,0,0-1.27-1.1c-2.85-1.56-8.27-.86-8.55-.82A22.44,22.44,0,0,0,175.28,220.19ZM174.1,61.39l1-1c.68-.68,3.18-6.37,5.66-8.75,1.18-1.16,2.37-1.55,3.34-.25,1.29,1.72,2.21,4.74,2.76,7.69.73,3.92.81,7.74.24,8.31-.85.85.47,1.7.88,1.94-1.88-.86-1.88,1.06-1.88,1.06-.16.82-.33,1.56-.5,2.22h0c-1.84,7.45-3.75,5.69-6.5,4.77-1.35-.46-2.32-3-3-5.7a40.37,40.37,0,0,1-1-7.3A4.38,4.38,0,0,0,174.1,61.39Z"/><path class="cls-2" d="M121.25,214.89a51.1,51.1,0,0,1-23-9.51s-4.14,6.75-5.61,12.49a19.25,19.25,0,0,0-6.52,15.52c-.34-3.24-1.87,18.72,23,13,17.11-3.93,27.33-15,28.14-21a4.73,4.73,0,0,0,0-.91,3.7,3.7,0,0,0-.18-1.08c-1.54-4.54-6.83-5.77-7.83-6l3-1.86h0A65.19,65.19,0,0,1,121.25,214.89Z"/><path class="cls-3" d="M132.27,215.56l-3,1.86c1,.2,6.29,1.43,7.83,6a3.7,3.7,0,0,1,.18,1.08h0l4.49-9.71a29.09,29.09,0,0,1-5.68.63c-1.29.08-2.56.13-3.83.16Z"/><path class="cls-4" d="M175.1,60.39l-1,1a4.38,4.38,0,0,1,1,3,40.37,40.37,0,0,0,1,7.3,5.47,5.47,0,0,1,4.47-2.3,8.72,8.72,0,0,1-.5-3,7.62,7.62,0,0,1,.95-3.93,7.88,7.88,0,0,1-1.95-5.57,8.21,8.21,0,0,1,1.66-5.25C178.28,54,175.78,59.71,175.1,60.39Z"/><path class="cls-3" d="M175.28,220.19a22.44,22.44,0,0,1,0,4.28c.28,0,5.7-.74,8.55.82.11,0,2.08-.57,4.87-1l.14,0h0c.95-.17,5.76-1.16,1.24-3.87C185.2,217.45,175.65,220.08,175.28,220.19Z"/><path class="cls-5" d="M176.13,71.69c.65,2.73,1.62,5.24,3,5.7,2.75.92,4.66,2.68,6.5-4.77h0A5.25,5.25,0,0,0,184,70.56a5.48,5.48,0,0,0-7.85,1.13Z"/><path class="cls-5" d="M179.1,56.89a7.88,7.88,0,0,0,1.95,5.57,2.93,2.93,0,0,0,2,.93,2.59,2.59,0,0,0,1.34-.38,5.9,5.9,0,0,0,2.42-3.93c-.55-2.95-1.47-6-2.76-7.69-1-1.3-2.16-.91-3.34.25A8.21,8.21,0,0,0,179.1,56.89Z"/><path class="cls-6" d="M180.1,66.39a8.72,8.72,0,0,0,.5,3A5.45,5.45,0,0,1,184,70.56a7.19,7.19,0,0,0,1.12-4.17,8.27,8.27,0,0,0-.66-3.38,2.59,2.59,0,0,1-1.34.38,2.93,2.93,0,0,1-2-.93A7.62,7.62,0,0,0,180.1,66.39Z"/><path class="cls-3" d="M188.7,224.28c-2.79.44-4.76,1.05-4.87,1a3.42,3.42,0,0,1,1.27,1.1s5.7,3.49,4.85,7.75a11.94,11.94,0,0,0,2.15.25s1.36-.68,5.09-.26c9.07-5.25,5.91-7.74,5.91-7.74-4.15-3-10.06-2.77-14.24-2.13h0Z"/><path class="cls-4" d="M185.1,66.39A7.19,7.19,0,0,1,184,70.56a5.25,5.25,0,0,1,1.62,2.05c.17-.66.34-1.4.5-2.22,0,0,0-1.92,1.88-1.06-.41-.24-1.73-1.09-.88-1.94.57-.57.49-4.39-.24-8.31A5.9,5.9,0,0,1,184.44,63,8.27,8.27,0,0,1,185.1,66.39Z"/><path class="cls-3" d="M197.19,234.13c-3.73-.42-5.09.26-5.09.26,2,0,5,3,6,6a11,11,0,0,1-.81,7.58c17.17-9.4,11.81-10.58,11.81-10.58A50.14,50.14,0,0,0,197.19,234.13Z"/><path class="cls-3" d="M191.3,148.7a6.56,6.56,0,0,1,5.8,4.69,5.54,5.54,0,0,1,.2,1.5c14.2-7.5,11.8-10.5,11.8-10.5C202.19,141.43,191.57,148.51,191.3,148.7Z"/><path class="cls-3" d="M201.1,180.39a11.25,11.25,0,0,1-1.39,1.18c10.6-2.83,17.39-9.18,17.39-11.18s-14.54-1-14.54-1l-1.46,1S205.1,176.39,201.1,180.39Z"/><path class="cls-3" d="M200.27,158.14c1.48,1.2,3.83,4.08,3.83,10.25,0,0,16-7,13-10S200.27,158.14,200.27,158.14Z"/><path class="cls-7" d="M123.1,168.39s-8.47-6.28-17.55-12.56c-8.3-5.74-17.11-11.49-20.45-12.44-7-2-10,40,5,55a67.41,67.41,0,0,0,8.13,7,51.1,51.1,0,0,0,23,9.51,65.19,65.19,0,0,0,11,.66c1.27,0,2.54-.08,3.83-.16a29.09,29.09,0,0,0,5.68-.63c.45-.11.9-.23,1.32-.37"/><path class="cls-7" d="M135.1,200.39s-1,7,2,10a13.36,13.36,0,0,0,6.1,3.63,17.23,17.23,0,0,0,4.41.62,29,29,0,0,0,4.49-.25"/><polyline class="cls-7" points="121.27 214.65 121.25 214.89 120.1 227.39"/><path class="cls-7" d="M98.23,205.38s-4.14,6.75-5.61,12.49a16.89,16.89,0,0,0-.44,2.28,10.73,10.73,0,0,0-.08,1.24c0,6,6,10,6,10"/><path class="cls-7" d="M129.1,217.39l.17,0c1,.2,6.29,1.43,7.83,6a3.7,3.7,0,0,1,.18,1.08,4.73,4.73,0,0,1,0,.91c-.81,6-11,17.08-28.14,21-24.87,5.72-23.34-16.24-23-13a19.25,19.25,0,0,1,6.52-15.52"/><line class="cls-7" x1="141.78" y1="214.76" x2="137.29" y2="224.47"/><polyline class="cls-7" points="126.1 219.39 129.27 217.42 132.27 215.56"/><path class="cls-7" d="M105.55,155.83s10.35-29.06,17.39-32.17a5.44,5.44,0,0,0,1.55-1,7.2,7.2,0,0,0,.93-1c2.13-2.88,6.23-8.17,7.68-8.17"/><path class="cls-7" d="M124.49,122.61s-19.39-12.22-21.39-22.22-4-47,15-51c0,0-.93-11.16,12.46-13.75.85-.16,1.7-.34,2.53-.55,2.26-.56,7.86-1.38,11.78,3,.08.08.15.17.23.26"/><path class="cls-7" d="M130.1,43.39c0-.19,6.56-4.18,14.77-5.26a28.25,28.25,0,0,1,7.95,0c.7.1,1.4.22,2.11.26,1.46.1,4.51.45,6,1.86l.12.11"/><path class="cls-7" d="M157.1,44.39A30.34,30.34,0,0,1,161,40.28c2.23-2,5.18-3.89,8.12-3.89,5.45,0,12.56,1.65,17.57,5a6.65,6.65,0,0,1,2.2,2.45c1.16,2.21,3.23,6.43,3.23,8.59,0,0,22,5,26,11,0,0,4,13,2,22s-26,4-26,4,8.55,6.22,12.63,7l6.37,1s5,10-20,18-26,10-27,14l-.48,3.82,0,.18-.5,4,6.15,18.44,1.85,5.56"/><path class="cls-7" d="M154.1,57.39s-7-1-6,4"/><path class="cls-7" d="M154.1,61.39s0,3-1,4"/><path class="cls-7" d="M185.6,72.61c.17-.66.34-1.4.5-2.22,0,0,0-1.92,1.88-1.06-.41-.24-1.73-1.09-.88-1.94.57-.57.49-4.39-.24-8.31"/><path class="cls-7" d="M180.76,51.64c-2.48,2.38-5,8.07-5.66,8.75l-1,1a4.38,4.38,0,0,1,1,3,40.37,40.37,0,0,0,1,7.3"/><path class="cls-7" d="M191.3,148.7a6.56,6.56,0,0,1,5.8,4.69,5.54,5.54,0,0,1,.2,1.5,2.27,2.27,0,0,1-2.2,2.5h4a5.26,5.26,0,0,1,1.17.75c1.48,1.2,3.83,4.08,3.83,10.25l-1.54,1-1.46,1s4,6,0,10a11.25,11.25,0,0,1-1.39,1.18c-4.22,3-11.53,3.71-27.61,2.82a37.47,37.47,0,0,0-6.51.26c-1,.08-1.95.19-2.91.3a7.29,7.29,0,0,1-8-5.87c-1.47-7.74-4.28-19.59-3.55-24.69.15-1,.27-1.87.38-2.58.62-4.15.62-3.42.62-3.42"/><path class="cls-7" d="M171.25,155.83s9.85-4.44,14.85-6.44a10.12,10.12,0,0,1,5.19-.69"/><polyline class="cls-7" points="147.61 144.37 151.48 151.81 151.68 152.2"/><path class="cls-7" d="M157.1,106.39s1,12,9,11h8"/><path class="cls-7" d="M165.59,184.65s10.51,7.74,11.51,12.74-3,14-3,14a32.17,32.17,0,0,0,1,8,4.77,4.77,0,0,1,.18.8,22.44,22.44,0,0,1,0,4.28c-.31,4.12-1.18,8.92-1.18,8.92"/><path class="cls-7" d="M147.61,214.64s-6.38,14.05-6.14,20.42a4.14,4.14,0,0,0,.63,2.33"/><path class="cls-7" d="M142.1,234.39s-.24.24-.63.67c-2.55,2.77-11.7,13.54-7.37,21.33,5,9,16,11,26,7s28-11,33-12a6,6,0,0,0,4.19-3.42,11,11,0,0,0,.81-7.58c-1-3-4-6-6-6a11.94,11.94,0,0,1-2.15-.25,27.68,27.68,0,0,1-2.85-.75"/><path class="cls-7" d="M175.27,224.47h0c.28,0,5.7-.74,8.55.82a3.42,3.42,0,0,1,1.27,1.1s5.7,3.49,4.85,7.75"/><path class="cls-7" d="M192.1,234.39s1.36-.68,5.09-.26a50.14,50.14,0,0,1,11.91,3.26s5.36,1.18-11.81,10.58h0"/><path class="cls-7" d="M188.86,224.26c4.18-.64,10.09-.84,14.24,2.13,0,0,3.16,2.49-5.91,7.74h0"/><path class="cls-7" d="M183.83,225.29c.11,0,2.08-.57,4.87-1l.14,0"/><path class="cls-7" d="M175.27,220.19h0c.37-.11,9.92-2.74,14.82.2,4.52,2.71-.29,3.7-1.24,3.87h0l-.14,0"/><path class="cls-7" d="M202.56,169.42s14.54-1,14.54,1-6.79,8.35-17.39,11.18"/><path class="cls-7" d="M191.29,148.7h0c.27-.19,10.89-7.27,17.8-4.31,0,0,2.4,3-11.8,10.5"/><path class="cls-7" d="M200.27,158.14s13.83-2.75,16.83.25-13,10-13,10"/><path class="cls-7" d="M143.1,241.39s6,3,14,0"/><path class="cls-7" d="M148.1,122.39s12-3,15,3c2.49,5,2.57,7.21,2.52,7.82,0,.12,0,.18,0,.18"/><line class="cls-7" x1="184.1" y1="81.39" x2="179.1" y2="83.39"/><path class="cls-7" d="M184.44,63a5.9,5.9,0,0,0,2.42-3.93c-.55-2.95-1.47-6-2.76-7.69-1-1.3-2.16-.91-3.34.25a8.21,8.21,0,0,0-1.66,5.25,7.88,7.88,0,0,0,1.95,5.57"/><path class="cls-7" d="M184,70.56a7.19,7.19,0,0,0,1.12-4.17,8.27,8.27,0,0,0-.66-3.38,2.59,2.59,0,0,1-1.34.38,2.93,2.93,0,0,1-2-.93,7.62,7.62,0,0,0-.95,3.93,8.72,8.72,0,0,0,.5,3"/><path class="cls-7" d="M176.13,71.69c.65,2.73,1.62,5.24,3,5.7,2.75.92,4.66,2.68,6.5-4.77h0A5.25,5.25,0,0,0,184,70.56a5.48,5.48,0,0,0-7.85,1.13Z"/></g></g></svg>