<svg xmlns="http://www.w3.org/2000/svg" viewBox="0 0 300 300"><defs><style>.cls-1,.cls-7{fill:none;}.cls-2{fill:#e2c03c;}.cls-3{fill:#ebe2d1;}.cls-4{fill:#4b6437;}.cls-5{fill:#f2f2f2;}.cls-6{fill:#041a00;}.cls-7{stroke:#000;stroke-miterlimit:10;}</style></defs><title>NW</title><g id="Capa_2" data-name="Capa 2"><g id="img_bg" data-name="img bg"><rect class="cls-1" width="300" height="300"/></g><g id="NW"><path class="cls-2" d="M167.73,215.55a65.19,65.19,0,0,0,11-.66,51.1,51.1,0,0,0,23-9.51s4.14,6.75,5.61,12.49a19.25,19.25,0,0,1,6.52,15.52c.34-3.24,1.87,18.72-23,13-17.11-3.93-27.33-15-28.14-21a4.73,4.73,0,0,1,0-.91,3.7,3.7,0,0,1,.18-1.08c1.56-4.6,6.95-5.79,7.83-6l-3-1.86Z"/><path class="cls-3" d="M162.9,223.39a3.7,3.7,0,0,0-.18,1.08h0l-4.49-9.71a29.09,29.09,0,0,0,5.68.63c1.29.08,2.56.13,3.83.16h0l3,1.86C169.85,217.6,164.46,218.79,162.9,223.39Z"/><path class="cls-3" d="M124.72,220.19a22.44,22.44,0,0,0,0,4.28c-.28,0-5.7-.74-8.55.82-.11,0-2.08-.57-4.87-1l-.14,0h0c-.95-.17-5.76-1.16-1.24-3.87C114.8,217.45,124.35,220.08,124.72,220.19Z"/><path class="cls-4" d="M119.24,51.64c2.48,2.38,5,8.07,5.66,8.75l1,1a4.38,4.38,0,0,0-1,3,40.37,40.37,0,0,1-1,7.3,5.47,5.47,0,0,0-4.47-2.3,8.72,8.72,0,0,0,.5-3,7.62,7.62,0,0,0-1-3.93,7.88,7.88,0,0,0,2-5.57A8.21,8.21,0,0,0,119.24,51.64Z"/><path class="cls-5" d="M119.4,69.39a5.47,5.47,0,0,1,4.47,2.3c-.65,2.73-1.62,5.24-3,5.7-2.75.92-4.66,2.68-6.5-4.77h0A5.25,5.25,0,0,1,116,70.56,5.45,5.45,0,0,1,119.4,69.39Z"/><path class="cls-6" d="M116.9,63.39a2.93,2.93,0,0,0,2-.93,7.62,7.62,0,0,1,1,3.93,8.72,8.72,0,0,1-.5,3A5.45,5.45,0,0,0,116,70.56a7.19,7.19,0,0,1-1.12-4.17,8.27,8.27,0,0,1,.66-3.38A2.59,2.59,0,0,0,116.9,63.39Z"/><path class="cls-5" d="M115.56,63a5.9,5.9,0,0,1-2.42-3.93c.55-2.95,1.47-6,2.76-7.69,1-1.3,2.16-.91,3.34.25a8.21,8.21,0,0,1,1.66,5.25,7.88,7.88,0,0,1-2,5.57,2.93,2.93,0,0,1-2,.93A2.59,2.59,0,0,1,115.56,63Z"/><path class="cls-4" d="M115.56,63a8.27,8.27,0,0,0-.66,3.38A7.19,7.19,0,0,0,116,70.56a5.25,5.25,0,0,0-1.62,2.05c-.17-.66-.34-1.4-.5-2.22,0,0,0-1.92-1.88-1.06.41-.24,1.73-1.09.88-1.94-.57-.57-.49-4.39.24-8.31A5.9,5.9,0,0,0,115.56,63Z"/><path class="cls-2" d="M110,234.14c-.85-4.26,4.85-7.75,4.85-7.75a3.42,3.42,0,0,1,1.27-1.1c2.85-1.56,8.27-.86,8.55-.82a22.44,22.44,0,0,1,0-4.28,4.77,4.77,0,0,1,.18-.8,32.17,32.17,0,0,0,1-8s-4-9-3-14,11.51-12.74,11.51-12.74a37.47,37.47,0,0,0-6.51-.26c-16.08.89-23.39.19-27.61-2.82a11.25,11.25,0,0,1-1.39-1.18c-4-4,0-10,0-10l-1.46-1-1.54-1c0-6.17,2.35-9,3.83-10.25a5.26,5.26,0,0,1,1.17-.75h4a2.27,2.27,0,0,1-2.2-2.5,5.54,5.54,0,0,1,.2-1.5,6.56,6.56,0,0,1,5.8-4.69h0a10.12,10.12,0,0,1,5.19.69c5,2,14.85,6.44,14.85,6.44l6.15-18.44-.5-4,0-.18-.48-3.82c-1-4-2-6-27-14s-20-18-20-18l6.37-1c4.08-.79,12.63-7,12.63-7s-24,5-26-4,2-22,2-22c4-6,26-11,26-11,0-2.16,2.07-6.38,3.23-8.59a6.65,6.65,0,0,1,2.2-2.45c5-3.31,12.12-5,17.57-5,2.94,0,5.89,1.93,8.12,3.89,1.54-1.41,4.59-1.76,6-1.86.71,0,1.41-.16,2.11-.26a28.25,28.25,0,0,1,7.95,0c3.92-4.42,9.52-3.6,11.78-3,.83.21,1.68.39,2.53.55,13.39,2.59,12.46,13.75,12.46,13.75,19,4,17,41,15,51s-21.39,22.22-21.39,22.22a5.44,5.44,0,0,0,1.55,1c7,3.11,17.39,32.17,17.39,32.17,8.3-5.74,17.11-11.49,20.45-12.44,7-2,10,40-5,55a67.41,67.41,0,0,1-8.13,7,51.1,51.1,0,0,1-23,9.51,65.19,65.19,0,0,1-11,.66c-1.27,0-2.54-.08-3.83-.16a29.09,29.09,0,0,1-5.68-.63c-.45-.11-.9-.23-1.32-.37l-.1-.37a17.23,17.23,0,0,1-4.41.62s6.38,14.05,6.14,20.42c2.55,2.77,11.7,13.54,7.37,21.33-5,9-16,11-26,7s-28-11-33-12a6,6,0,0,1-4.19-3.42,11,11,0,0,1-.81-7.58c1-3,4-6,6-6A11.94,11.94,0,0,0,110,234.14ZM114.4,72.61h0c1.84,7.45,3.75,5.69,6.5,4.77,1.35-.46,2.32-3,3-5.7a40.37,40.37,0,0,0,1-7.3,4.38,4.38,0,0,1,1-3l-1-1c-.68-.68-3.18-6.37-5.66-8.75-1.18-1.16-2.37-1.55-3.34-.25-1.29,1.72-2.21,4.74-2.76,7.69-.73,3.92-.81,7.74-.24,8.31.85.85-.47,1.7-.88,1.94,1.88-.86,1.88,1.06,1.88,1.06C114.06,71.21,114.23,72,114.4,72.61Z"/><path class="cls-3" d="M114.9,226.39s-5.7,3.49-4.85,7.75a11.94,11.94,0,0,1-2.15.25s-1.36-.68-5.09-.26c-9.07-5.25-5.91-7.74-5.91-7.74,4.15-3,10.06-2.77,14.24-2.13h0l.14,0c2.79.44,4.76,1.05,4.87,1A3.42,3.42,0,0,0,114.9,226.39Z"/><path class="cls-3" d="M107.9,234.39c-2,0-5,3-6,6a11,11,0,0,0,.81,7.58c-17.17-9.4-11.81-10.58-11.81-10.58a50.14,50.14,0,0,1,11.91-3.26C106.54,233.71,107.9,234.39,107.9,234.39Z"/><path class="cls-3" d="M102.7,154.89c-14.2-7.5-11.8-10.5-11.8-10.5,6.91-3,17.53,4.12,17.8,4.31a6.56,6.56,0,0,0-5.8,4.69A5.54,5.54,0,0,0,102.7,154.89Z"/><path class="cls-3" d="M98.9,180.39a11.25,11.25,0,0,0,1.39,1.18c-10.6-2.83-17.39-9.18-17.39-11.18s14.54-1,14.54-1l1.46,1S94.9,176.39,98.9,180.39Z"/><path class="cls-3" d="M99.73,158.14c-1.48,1.2-3.83,4.08-3.83,10.25,0,0-16-7-13-10S99.73,158.14,99.73,158.14Z"/><path class="cls-7" d="M176.9,168.39s8.47-6.28,17.55-12.56c8.3-5.74,17.11-11.49,20.45-12.44,7-2,10,40-5,55a67.41,67.41,0,0,1-8.13,7,51.1,51.1,0,0,1-23,9.51,65.19,65.19,0,0,1-11,.66c-1.27,0-2.54-.08-3.83-.16a29.09,29.09,0,0,1-5.68-.63c-.45-.11-.9-.23-1.32-.37"/><path class="cls-7" d="M164.9,200.39s1,7-2,10a13.36,13.36,0,0,1-6.1,3.63,17.23,17.23,0,0,1-4.41.62,29,29,0,0,1-4.49-.25"/><polyline class="cls-7" points="178.73 214.65 178.75 214.89 179.9 227.39"/><path class="cls-7" d="M201.77,205.38s4.14,6.75,5.61,12.49a16.89,16.89,0,0,1,.44,2.28,10.73,10.73,0,0,1,.08,1.24c0,6-6,10-6,10"/><path class="cls-7" d="M170.9,217.39l-.17,0c-.88.18-6.27,1.37-7.83,6a3.7,3.7,0,0,0-.18,1.08,4.73,4.73,0,0,0,0,.91c.81,6,11,17.08,28.14,21,24.87,5.72,23.34-16.24,23-13a19.25,19.25,0,0,0-6.52-15.52"/><line class="cls-7" x1="158.22" y1="214.76" x2="162.71" y2="224.47"/><polyline class="cls-7" points="173.9 219.39 170.73 217.42 167.73 215.56"/><path class="cls-7" d="M194.45,155.83s-10.35-29.06-17.39-32.17a5.44,5.44,0,0,1-1.55-1,7.2,7.2,0,0,1-.93-1c-2.13-2.88-6.23-8.17-7.68-8.17"/><path class="cls-7" d="M175.51,122.61s19.39-12.22,21.39-22.22,4-47-15-51c0,0,.93-11.16-12.46-13.75-.85-.16-1.7-.34-2.53-.55-2.26-.56-7.86-1.38-11.78,3-.08.08-.15.17-.23.26"/><path class="cls-7" d="M169.9,43.39c0-.19-6.56-4.18-14.77-5.26a28.25,28.25,0,0,0-7.95,0c-.7.1-1.4.22-2.11.26-1.46.1-4.51.45-6,1.86l-.12.11"/><path class="cls-7" d="M142.9,44.39A30.34,30.34,0,0,0,139,40.28c-2.23-2-5.18-3.89-8.12-3.89-5.45,0-12.56,1.65-17.57,5a6.65,6.65,0,0,0-2.2,2.45C110,46,107.9,50.23,107.9,52.39c0,0-22,5-26,11,0,0-4,13-2,22s26,4,26,4-8.55,6.22-12.63,7l-6.37,1s-5,10,20,18,26,10,27,14l.48,3.82,0,.18.5,4-6.15,18.44-1.85,5.56"/><path class="cls-7" d="M145.9,57.39s7-1,6,4"/><path class="cls-7" d="M145.9,61.39s0,3,1,4"/><path class="cls-7" d="M114.4,72.61c-.17-.66-.34-1.4-.5-2.22,0,0,0-1.92-1.88-1.06.41-.24,1.73-1.09.88-1.94-.57-.57-.49-4.39.24-8.31"/><path class="cls-7" d="M119.24,51.64c2.48,2.38,5,8.07,5.66,8.75l1,1a4.38,4.38,0,0,0-1,3,40.37,40.37,0,0,1-1,7.3"/><path class="cls-7" d="M108.7,148.7a6.56,6.56,0,0,0-5.8,4.69,5.54,5.54,0,0,0-.2,1.5,2.27,2.27,0,0,0,2.2,2.5h-4a5.26,5.26,0,0,0-1.17.75c-1.48,1.2-3.83,4.08-3.83,10.25l1.54,1,1.46,1s-4,6,0,10a11.25,11.25,0,0,0,1.39,1.18c4.22,3,11.53,3.71,27.61,2.82a37.47,37.47,0,0,1,6.51.26c1,.08,2,.19,2.91.3a7.29,7.29,0,0,0,8-5.87c1.47-7.74,4.28-19.59,3.55-24.69-.15-1-.27-1.87-.38-2.58-.62-4.15-.62-3.42-.62-3.42"/><path class="cls-7" d="M128.75,155.83s-9.85-4.44-14.85-6.44a10.12,10.12,0,0,0-5.19-.69"/><polyline class="cls-7" points="152.39 144.37 148.52 151.81 148.32 152.2"/><path class="cls-7" d="M142.9,106.39s-1,12-9,11h-8"/><path class="cls-7" d="M134.41,184.65s-10.51,7.74-11.51,12.74,3,14,3,14a32.17,32.17,0,0,1-1,8,4.77,4.77,0,0,0-.18.8,22.44,22.44,0,0,0,0,4.28c.31,4.12,1.18,8.92,1.18,8.92"/><path class="cls-7" d="M152.39,214.64s6.38,14.05,6.14,20.42a4.14,4.14,0,0,1-.63,2.33"/><path class="cls-7" d="M157.9,234.39s.24.24.63.67c2.55,2.77,11.7,13.54,7.37,21.33-5,9-16,11-26,7s-28-11-33-12a6,6,0,0,1-4.19-3.42,11,11,0,0,1-.81-7.58c1-3,4-6,6-6a11.94,11.94,0,0,0,2.15-.25,27.68,27.68,0,0,0,2.85-.75"/><path class="cls-7" d="M124.73,224.47h0c-.28,0-5.7-.74-8.55.82a3.42,3.42,0,0,0-1.27,1.1s-5.7,3.49-4.85,7.75"/><path class="cls-7" d="M107.9,234.39s-1.36-.68-5.09-.26a50.14,50.14,0,0,0-11.91,3.26s-5.36,1.18,11.81,10.58h0"/><path class="cls-7" d="M111.14,224.26c-4.18-.64-10.09-.84-14.24,2.13,0,0-3.16,2.49,5.91,7.74h0"/><path class="cls-7" d="M116.17,225.29c-.11,0-2.08-.57-4.87-1l-.14,0"/><path class="cls-7" d="M124.73,220.19h0c-.37-.11-9.92-2.74-14.82.2-4.52,2.71.29,3.7,1.24,3.87h0l.14,0"/><path class="cls-7" d="M97.44,169.42s-14.54-1-14.54,1,6.79,8.35,17.39,11.18"/><path class="cls-7" d="M108.71,148.7h0c-.27-.19-10.89-7.27-17.8-4.31,0,0-2.4,3,11.8,10.5"/><path class="cls-7" d="M99.73,158.14s-13.83-2.75-16.83.25,13,10,13,10"/><path class="cls-7" d="M156.9,241.39s-6,3-14,0"/><path class="cls-7" d="M151.9,122.39s-12-3-15,3c-2.49,5-2.57,7.21-2.52,7.82,0,.12,0,.18,0,.18"/><line class="cls-7" x1="115.9" y1="81.39" x2="120.9" y2="83.39"/><path class="cls-7" d="M115.56,63a5.9,5.9,0,0,1-2.42-3.93c.55-2.95,1.47-6,2.76-7.69,1-1.3,2.16-.91,3.34.25a8.21,8.21,0,0,1,1.66,5.25,7.88,7.88,0,0,1-2,5.57"/><path class="cls-7" d="M116,70.56a7.19,7.19,0,0,1-1.12-4.17,8.27,8.27,0,0,1,.66-3.38,2.59,2.59,0,0,0,1.34.38,2.93,2.93,0,0,0,2-.93,7.62,7.62,0,0,1,1,3.93,8.72,8.72,0,0,1-.5,3"/><path class="cls-7" d="M123.87,71.69c-.65,2.73-1.62,5.24-3,5.7-2.75.92-4.66,2.68-6.5-4.77h0A5.25,5.25,0,0,1,116,70.56a5.48,5.48,0,0,1,7.85,1.13Z"/></g></g></svg>