<svg xmlns="http://www.w3.org/2000/svg" viewBox="0 0 230.59 262.17"><defs><style>.cls-1{fill:#e7ece8;}.cls-2{fill:#e1bf3b;}.cls-3{fill:#739946;}.cls-4{fill:#fff;}.cls-5{fill:#040b00;}.cls-6{fill:#9c2b3b;}.cls-7{fill:#050d00;}.cls-8{fill:none;stroke:#000;stroke-miterlimit:10;}</style></defs><title>S</title><g id="Capa_2" data-name="Capa 2"><g id="S"><path class="cls-1" d="M227.54,158.39s5,28,1,31c-.66.49-3.37-3.07-6.53-7.76-1.62-2.4-3.35-5.1-5-7.72,0,0,0,0,0,0h0c-3.88-6.17-7.23-11.83-7.23-11.83-.1-2.24-.22-3.66-.22-3.66C220.54,147.39,227.54,158.39,227.54,158.39Z"/><path class="cls-2" d="M48.54,236.39s-6-5-11,0a18.7,18.7,0,0,0-1.36,1.53l-.3-2.09a9.1,9.1,0,0,1,1.7-6.88c1.76-2.23,3.86-2.16,6-3.56,3-2,21-21,21-21s1-9,0-11-1-8-1-8c0-10,15-29,15-29-7-15,5-33,5-33l-14,11-20,32s-6.06,4.33-10.12,16.2a16.61,16.61,0,0,1-3.69,6.19c-.72.74-1.4,1.31-1.81,1.3-.23,0-.38-.21-.38-.69,0-16-10-11-10-11,8-8,0-12,0-12,6-5,6-13,6-13,0-12-12-6-12-6s0-1,4-6,35-11,35-11c6-13,15-17,15-17L82.4,93.64a13.32,13.32,0,0,0,4,3.23c1.56.82,3.1,2.22,4.15,1.52l.09,0c.27.5.51,1,.74,1.51a14.35,14.35,0,0,1,1.1,5c.1,1.71.74,4.93,3.53,9.64a12.63,12.63,0,0,0,1.72,2.28c.3.32.66.68,1.07,1.06l2,5.47a7.39,7.39,0,0,0,.45,1.24l0,.05c2.64,5.63,12,9.79,23.26,9.79,12,0,22-4.78,23.72-11l3.06-9.51a14.54,14.54,0,0,0,1.39-3l1.83-5.48,1-5s1.11-1.39,2.17-3c4.59-.06,6.54-2.28,7.33-3.74a95.73,95.73,0,0,1,8.5,14.74c3,7,13,14,13,14s12,2,21,10,10,12,12,13,6,3,8,6,0,7,0,7-7-11-18,0c0,0-16-11-18,8a1.46,1.46,0,0,1-1.08.49c-1.52,0-4.48-2.37-7.92-17.49,0,0-4-14-11-17-6.32-2.71-13.45-9.49-15.51-16.66-.22-1.25-.43-2.1-.48-2.29a14.37,14.37,0,0,0,.48,2.29,39.22,39.22,0,0,1,.51,4.71s9,12,3,34c0,0,10,18,7,30s-1,15-1,15,22,22,23,28a4.06,4.06,0,0,0,0,1.07c-7.81-3.73-12.18,4.64-12.18,4.64-.86-1.29-4.69-6.34-10.82-3.71-7,3-6,7-6,7l.17.29c-.13,0-1.42.33-2.75-2.86a11.46,11.46,0,0,1,.58,2.57c0,2-2,3.56-2,3.56a14.15,14.15,0,0,0-.43-3.37,4.5,4.5,0,0,0-2.85-3.13c-6.14-2.16-9.39-.34-11.06,1.68a5.28,5.28,0,0,0-.69,5.47c.42,1,1,2.22,1.6,3.61,0,0-5.55.18-6.55-3.82s-4-13-4-13a57.72,57.72,0,0,1-1.28-10,11.26,11.26,0,0,0-1.4-5.51c-.95-1.68-1.86-3.86-1.32-5.47,1-3,1-5,6-7,0,0,3-9,8-12l.24-.09a6.75,6.75,0,0,1-.24-.91c-1-5-5-9-5-9l0,0a17.63,17.63,0,0,1-6,1s-24.88.71-27,0a28.85,28.85,0,0,1-6-2.07l-.16.29a36.37,36.37,0,0,0-6.83,10.78s3,2,5,14c0,0,7,1,6,11a21.76,21.76,0,0,1-6,10s-1,1-2,6-2,10-11,16l-2,1s1-4-5-6-8,3-8,3-.14.3-.36.83l-1.61,1.93,0,0-1,1.2s-1.31-7.34-4-9c-3.46-2.12-4.93-3.12-10,4-.32.45-.61.91-.9,1.38a2.46,2.46,0,0,1-.92-.5C47.71,241.38,47.73,239.61,48.54,236.39Z"/><path class="cls-1" d="M222,181.63s-3.47,18.76-8.47,20.76c-4.65,1.86-.65-24.85-.06-28.57a26.17,26.17,0,0,1,3.51.06h0l0,0C218.66,176.53,220.39,179.23,222,181.63Z"/><path class="cls-2" d="M213.48,173.82h-.17c-1.86,0-3.71.09-3.71.09a103.27,103.27,0,0,0,.16-11.86s3.35,5.66,7.23,11.83A26.17,26.17,0,0,0,213.48,173.82Z"/><path class="cls-1" d="M209.76,162a103.27,103.27,0,0,1-.16,11.86c-.45,5.52-1.56,11-4.06,13.48-1.58,1.58-2,1-6-10s-9.08-10.51-9.08-10.51a1.46,1.46,0,0,0,1.08-.49c2-19,18-8,18-8S209.66,159.81,209.76,162Z"/><path class="cls-2" d="M82.4,93.64a15,15,0,0,1-2.93-5.77c-.63-2.47-1.47-5.64-2.28-8.66a43.83,43.83,0,0,1-.64-19.89l2.51-12.54a9.14,9.14,0,0,0-.29-4.7l-1.23-3.69c-3-7,6-17,6-17,5.07-8.23,12.39-6.36,12-7,.69-.5,29-31,63,0,0,0,7.74.49,11,7,0,0,4,16,0,23l-.57,1.7a5.57,5.57,0,0,0-.2,2.66l.18,1.13a87.49,87.49,0,0,1-1.21,35.34,49.73,49.73,0,0,1-2.2,7.17,5.07,5.07,0,0,1-.5,1.26c-.79,1.46-2.74,3.68-7.33,3.74-1.06,1.61-2.17,3-2.17,3l-1,5-1.83,5.48a14.54,14.54,0,0,1-1.39,3,13.52,13.52,0,0,1-3.69,4,11.7,11.7,0,0,1-1.59,1c-.49.25-2.17.93-3.94,1.61-2,.77-4.1,1.55-4.7,1.72s-5.22,1.13-5.86,1.23a50.45,50.45,0,0,1-20.74-.66,12.14,12.14,0,0,0-2.14-.37c-.37,0-.74-.06-1.09-.11h0c-.36-.06-.7-.12-1-.2a16.33,16.33,0,0,1-5.71-2.59,20.38,20.38,0,0,1-2-1.62c-.41-.38-.77-.74-1.07-1.06A12.63,12.63,0,0,1,96,114.5c-2.79-4.71-3.43-7.93-3.53-9.64a14.35,14.35,0,0,0-1.1-5c-.23-.52-.47-1-.74-1.51l-.09,0c-1,.7-2.59-.7-4.15-1.52A13.32,13.32,0,0,1,82.4,93.64Zm80.92-30.07a37.09,37.09,0,0,0,1.6-13.64c-.72-7.24-4.39-9.54-4.39-9.54-2.16-1-3.46,5.18-4.11,12,0,.26,0,.51-.07.76-.24,2.76-.38,5.58-.44,8,0,.38,0,.76,0,1.12a31.19,31.19,0,0,0,.29,6.07A2.11,2.11,0,0,0,158,70a4,4,0,0,0,4.21-3C162.66,65.81,163,64.67,163.32,63.57Zm-20.78,38.82c0-.55-.9-1-2-1s-2,.45-2,1,.9,1,2,1S142.54,102.94,142.54,102.39Zm-29,0c0-.55-.9-1-2-1s-2,.45-2,1,.9,1,2,1S113.54,102.94,113.54,102.39Zm-23-31a27.29,27.29,0,0,0,.34-6c0-.57,0-1.16,0-1.78-.08-2.35-.24-5-.51-7.56,0-.2,0-.41-.06-.61C89.69,50,88.62,45,87,43.65a1.33,1.33,0,0,0-1.79.2,13.25,13.25,0,0,0-2.63,4.28c-1,5.22-2.46,10.65.91,21.59h.15A6,6,0,0,1,87.24,64a8,8,0,0,0-3.63,6.18A4.52,4.52,0,0,0,88.41,73,2.37,2.37,0,0,0,90.54,71.39Z"/><path class="cls-3" d="M164.92,49.93a37.09,37.09,0,0,1-1.6,13.64,6,6,0,0,0-3.66-3,6.05,6.05,0,0,0,.08-6.15C162,54.29,164,52.5,164.92,49.93Z"/><path class="cls-4" d="M164.92,49.93c-.95,2.57-2.91,4.36-5.18,4.45a3.82,3.82,0,0,0-3.2-2h-.12c.65-6.83,2-13,4.11-12C160.53,40.39,164.2,42.69,164.92,49.93Z"/><path class="cls-4" d="M163.32,63.57c-.31,1.1-.66,2.24-1.07,3.43A4,4,0,0,1,158,70a2.11,2.11,0,0,1-1.85-1.61,31.19,31.19,0,0,1-.29-6.07,2.73,2.73,0,0,0,.64.07,3.79,3.79,0,0,0,3.12-1.86A6,6,0,0,1,163.32,63.57Z"/><path class="cls-5" d="M159.74,54.38a6.05,6.05,0,0,1-.08,6.15,3.79,3.79,0,0,1-3.12,1.86,2.73,2.73,0,0,1-.64-.07c0-.36,0-.74,0-1.12.06-2.46.2-5.28.44-8,0-.25,0-.5.07-.76h.12A3.82,3.82,0,0,1,159.74,54.38Z"/><path class="cls-2" d="M151.32,113.86l-3.06,9.51c-1.76,6.24-11.71,11-23.72,11-11.21,0-20.62-4.16-23.26-9.79l0-.05-.45-1.24-2-5.47a20.38,20.38,0,0,0,2,1.62,16.33,16.33,0,0,0,5.71,2.59c.34.08.68.14,1,.2h0c.49,3.42,8.13,6.14,17.47,6.14,9.66,0,17.5-2.91,17.5-6.5a2.73,2.73,0,0,0-.44-1.45c1.77-.68,3.45-1.36,3.94-1.61a11.7,11.7,0,0,0,1.59-1A13.52,13.52,0,0,0,151.32,113.86Z"/><path class="cls-6" d="M142.1,120.44a2.73,2.73,0,0,1,.44,1.45c0,3.59-7.84,6.5-17.5,6.5-9.34,0-17-2.72-17.47-6.14.35,0,.72.08,1.09.11a12.14,12.14,0,0,1,2.14.37,50.45,50.45,0,0,0,20.74.66c.64-.1,5.24-1.06,5.86-1.23S140.1,121.21,142.1,120.44Z"/><ellipse class="cls-7" cx="140.54" cy="102.39" rx="2" ry="1"/><ellipse class="cls-7" cx="111.54" cy="102.39" rx="2" ry="1"/><path class="cls-4" d="M90.88,65.36a27.29,27.29,0,0,1-.34,6A2.37,2.37,0,0,1,88.41,73a4.52,4.52,0,0,1-4.8-2.82A8,8,0,0,1,87.24,64c.12-.07.25-.13.38-.19a3.69,3.69,0,0,0,2.92,1.58A2,2,0,0,0,90.88,65.36Z"/><path class="cls-7" d="M90.88,65.36a2,2,0,0,1-.34,0,3.69,3.69,0,0,1-2.92-1.58,5.71,5.71,0,0,1-1.08-3.42,5.44,5.44,0,0,1,1.63-4,3.43,3.43,0,0,1,2.11-1c0,.2.05.41.06.61.27,2.57.43,5.21.51,7.56C90.86,64.2,90.88,64.79,90.88,65.36Z"/><path class="cls-4" d="M87,43.65C88.62,45,89.69,50,90.28,55.41a3.43,3.43,0,0,0-2.11,1c-3.14-.25-5.63-3.73-5.63-8a2.26,2.26,0,0,1,0-.26,13.25,13.25,0,0,1,2.63-4.28A1.33,1.33,0,0,1,87,43.65Z"/><path class="cls-3" d="M87.62,63.81c-.13.06-.26.12-.38.19a6,6,0,0,0-3.63,5.7h-.15c-3.37-10.94-1.91-16.37-.91-21.59a2.26,2.26,0,0,0,0,.26c0,4.25,2.49,7.73,5.63,8a5.44,5.44,0,0,0-1.63,4A5.71,5.71,0,0,0,87.62,63.81Z"/><path class="cls-8" d="M157.54,97.39h.17c4.59-.06,6.54-2.28,7.33-3.74a5.07,5.07,0,0,0,.5-1.26,49.73,49.73,0,0,0,2.2-7.17,87.49,87.49,0,0,0,1.21-35.34l-.18-1.13a5.57,5.57,0,0,1,.2-2.66l.57-1.7c4-7,0-23,0-23-3.26-6.51-11-7-11-7-34-31-62.31-.5-63,0,.39.64-6.93-1.23-12,7,0,0-9,10-6,17l1.23,3.69a9.14,9.14,0,0,1,.29,4.7L76.55,59.32a43.83,43.83,0,0,0,.64,19.89c.81,3,1.65,6.19,2.28,8.66a15,15,0,0,0,2.93,5.77,13.32,13.32,0,0,0,4,3.23c1.56.82,3.1,2.22,4.15,1.52"/><path class="cls-8" d="M151.32,113.86a14.54,14.54,0,0,0,1.39-3l1.83-5.48,1-5s1.11-1.39,2.17-3c.94-1.44,1.83-3.06,1.83-4,0-2,3-15,3-15"/><path class="cls-8" d="M87.54,82.39s-1,8,1,12c.85,1.71,1.52,2.87,2.09,4,.27.5.51,1,.74,1.51a14.35,14.35,0,0,1,1.1,5c.1,1.71.74,4.93,3.53,9.64a12.63,12.63,0,0,0,1.72,2.28c.3.32.66.68,1.07,1.06"/><line class="cls-8" x1="100.79" y1="62.7" x2="96.79" y2="69.7"/><line class="cls-8" x1="145.54" y1="63.39" x2="150.54" y2="70.39"/><path class="cls-8" d="M82.55,48.13c-1,5.22-2.46,10.65.91,21.59h.1"/><path class="cls-8" d="M87.24,64a6,6,0,0,0-3.63,5.7h-.07"/><path class="cls-8" d="M164.92,49.93a37.09,37.09,0,0,1-1.6,13.64"/><path class="cls-8" d="M142.1,120.44c1.77-.68,3.45-1.36,3.94-1.61a11.7,11.7,0,0,0,1.59-1,13.52,13.52,0,0,0,3.69-4l-3.06,9.51c-1.76,6.24-11.71,11-23.72,11-11.21,0-20.62-4.16-23.26-9.79l0-.05"/><path class="cls-8" d="M100.81,123.31l-2-5.47a20.38,20.38,0,0,0,2,1.62,16.33,16.33,0,0,0,5.71,2.59c.34.08.68.14,1,.2h0"/><path class="cls-8" d="M101.26,124.55a7.39,7.39,0,0,1-.45-1.24Z"/><line class="cls-8" x1="148.26" y1="123.37" x2="148.14" y2="123.76"/><path class="cls-8" d="M142.1,120.44a2.73,2.73,0,0,1,.44,1.45c0,3.59-7.84,6.5-17.5,6.5-9.34,0-17-2.72-17.47-6.14.35,0,.72.08,1.09.11a12.14,12.14,0,0,1,2.14.37,50.45,50.45,0,0,0,20.74.66c.64-.1,5.24-1.06,5.86-1.23S140.1,121.21,142.1,120.44Z"/><path class="cls-8" d="M155.54,113.39a.18.18,0,0,0,0,0c.05.19.26,1,.48,2.29a39.22,39.22,0,0,1,.51,4.71,28.61,28.61,0,0,1-.07,3.69c-.43,4.68-2.32,9.33-7.93,10.26"/><path class="cls-8" d="M165,93.65a95.73,95.73,0,0,1,8.5,14.74c3,7,13,14,13,14s12,2,21,10,10,12,12,13,6,3,8,6,0,7,0,7-7-11-18,0c0,0-16-11-18,8a1.46,1.46,0,0,1-1.08.49c-1.52,0-4.48-2.37-7.92-17.49,0,0-4-14-11-17-6.32-2.71-13.45-9.49-15.51-16.66a14.37,14.37,0,0,1-.48-2.29"/><path class="cls-8" d="M190.46,166.88s5.08-.49,9.08,10.51,4.42,11.58,6,10c2.5-2.5,3.61-8,4.06-13.48a103.27,103.27,0,0,0,.16-11.86c-.1-2.24-.22-3.66-.22-3.66a22.58,22.58,0,0,0-7-14"/><path class="cls-8" d="M217,173.89l0,0c1.64,2.62,3.37,5.32,5,7.72,3.16,4.69,5.87,8.25,6.53,7.76,4-3-1-31-1-31"/><path class="cls-8" d="M209.76,162s3.35,5.66,7.23,11.83"/><path class="cls-8" d="M209.6,173.91s1.85-.06,3.71-.09h.17a26.17,26.17,0,0,1,3.51.06h0s0,0,0,0"/><path class="cls-8" d="M222,181.63s-3.47,18.76-8.47,20.76c-4.65,1.86-.65-24.85-.06-28.57l.06-.43"/><path class="cls-8" d="M82.54,93.39l-.14.25L71.54,113.39s-9,4-15,17c0,0-31,6-35,11s-4,6-4,6,12-6,12,6c0,0,0,8-6,13,0,0,8,4,0,12,0,0,10-5,10,11,0,.48.15.68.38.69.41,0,1.09-.56,1.81-1.3a16.61,16.61,0,0,0,3.69-6.19c4.06-11.87,10.12-16.2,10.12-16.2l20-32,14-11s-12,18-5,33c0,0-15,19-15,29,0,0,0,6,1,8s0,11,0,11-18,19-21,21c-2.1,1.4-4.2,1.33-6,3.56a9.1,9.1,0,0,0-1.7,6.88l.3,2.09"/><path class="cls-8" d="M85.54,113.39a22.67,22.67,0,0,0-1.46,9.67,11.36,11.36,0,0,0,4.46,8.33"/><path class="cls-8" d="M33.92,190.08s-9.38,9.31-11.38,17.31c-1.47,5.86-2.93-7.07-3.22-16.37a19.28,19.28,0,0,1,4.22-12.63l-1,1L10.81,196.58a1.59,1.59,0,0,1-2.72-.18c-1.57-3.2-2.85-10.7,5.34-25.8a2.12,2.12,0,0,1,.11-.21"/><path class="cls-8" d="M17.54,147.39S-.45,166.2.54,175a1.82,1.82,0,0,0,2.73,1.37c2.22-1.32,6.23-3.66,10.16-5.75,4.26-2.26,8.43-4.21,10.11-4.21"/><path class="cls-8" d="M188.54,228.47a4.34,4.34,0,0,0,.18.65c1.83,5.12,2.85,19.33,1.82,19.27a48,48,0,0,1-13.14-13.62c-.29-.45-.58-.91-.86-1.38,0,0,1,20-2,24-1.33,1.78-13.25-18.06-14.83-20.71l-.17-.29s-1-4,6-7c6.13-2.63,10,2.42,10.82,3.71.12.18.18.29.18.29"/><path class="cls-8" d="M156.54,120.44s9,12,3,34c0,0,10,18,7,30s-1,15-1,15,22,22,23,28a4.06,4.06,0,0,0,0,1.07"/><path class="cls-8" d="M142.09,244.21c-.63-1.39-1.18-2.63-1.6-3.61a5.28,5.28,0,0,1,.69-5.47c1.67-2,4.92-3.84,11.06-1.68a4.5,4.5,0,0,1,2.85,3.13,14.15,14.15,0,0,1,.43,3.37v.39c-.09,5.09-.56,18.44-3,20.05C150.51,261.74,145.27,251.17,142.09,244.21Z"/><path class="cls-8" d="M176.36,233.1s4.37-8.37,12.18-4.64h0l.12,0"/><path class="cls-8" d="M176.54,232.39s-3-9-6-11"/><path class="cls-8" d="M156.95,233.79c-1.11-3.65-3.41-9.4-3.41-9.4"/><path class="cls-8" d="M155.52,239.95s2-1.56,2-3.56a11.46,11.46,0,0,0-.58-2.57"/><path class="cls-8" d="M159.72,236.68h0c-.13,0-1.42.33-2.75-2.86,0,0,0,0,0,0"/><path class="cls-8" d="M141.54,187.39c-5,3-8,12-8,12-5,2-5,4-6,7-.54,1.61.37,3.79,1.32,5.47a11.26,11.26,0,0,1,1.4,5.51,57.72,57.72,0,0,0,1.28,10s3,9,4,13,6.55,3.82,6.55,3.82"/><path class="cls-8" d="M136.54,177.39s4,4,5,9a6.75,6.75,0,0,0,.24.91c1.49,4.45,6.76,7.09,6.76,7.09"/><line class="cls-8" x1="152.54" y1="191.39" x2="157.54" y2="193.39"/><path class="cls-8" d="M147.54,168.39a23.2,23.2,0,0,1-11,9,17.63,17.63,0,0,1-6,1s-24.88.71-27,0a28.85,28.85,0,0,1-6-2.07c-2.34-1.26-5-3.51-8-7.93"/><path class="cls-8" d="M97.37,176.61a36.37,36.37,0,0,0-6.83,10.78s-1,3-6,5"/><line class="cls-8" x1="77.29" y1="189.74" x2="74.29" y2="194.74"/><path class="cls-8" d="M90.54,187.39s3,2,5,14c0,0,7,1,6,11a21.76,21.76,0,0,1-6,10s-1,1-2,6-2,10-11,16l-2,1s-7,13-15,16c-7.06,2.65-.1-14.19,1.64-18.17.22-.53.36-.83.36-.83s2-5,8-3,5,6,5,6"/><path class="cls-8" d="M67.18,243.22l-1.61,1.93,0,0-1,1.2s-1.31-7.34-4-9c-3.46-2.12-4.93-3.12-10,4-.32.45-.61.91-.9,1.38-4.13,6.94-4.44,16.34-4.1,17.62,1.13,4.31,18-13,18-13l1-1"/><path class="cls-8" d="M70.54,232.39s-5,4.39-5,8v5"/><path class="cls-8" d="M55.54,225.39s-6.23,7.93-7,11c-.81,3.22-.83,5,.18,5.88a2.46,2.46,0,0,0,.92.5"/><path class="cls-8" d="M48.72,242.27s-11.18,8.12-15.18,14.12c-3.51,5.26-5,2-5-1,0-2.72,3.29-12,7.64-17.47a18.7,18.7,0,0,1,1.36-1.53c5-5,11,0,11,0"/><ellipse class="cls-8" cx="111.54" cy="102.39" rx="2" ry="1"/><ellipse class="cls-8" cx="140.54" cy="102.39" rx="2" ry="1"/><path class="cls-8" d="M155.9,62.32c0-.36,0-.74,0-1.12.06-2.46.2-5.28.44-8,0-.25,0-.5.07-.76"/><path class="cls-8" d="M159.74,54.38a6.05,6.05,0,0,1-.08,6.15"/><path class="cls-8" d="M164.92,49.93c-.95,2.57-2.91,4.36-5.18,4.45a3.82,3.82,0,0,0-3.2-2h-.12c.65-6.83,2-13,4.11-12C160.53,40.39,164.2,42.69,164.92,49.93Z"/><path class="cls-8" d="M88.17,56.37c-3.14-.25-5.63-3.73-5.63-8a2.26,2.26,0,0,1,0-.26,13.25,13.25,0,0,1,2.63-4.28,1.33,1.33,0,0,1,1.79-.2C88.62,45,89.69,50,90.28,55.41"/><path class="cls-8" d="M87.62,63.81a5.71,5.71,0,0,1-1.08-3.42,5.44,5.44,0,0,1,1.63-4,3.43,3.43,0,0,1,2.11-1c0,.2.05.41.06.61.27,2.57.43,5.21.51,7.56,0,.62,0,1.21,0,1.78"/><path class="cls-8" d="M90.88,65.36a27.29,27.29,0,0,1-.34,6A2.37,2.37,0,0,1,88.41,73a4.52,4.52,0,0,1-4.8-2.82A8,8,0,0,1,87.24,64c.12-.07.25-.13.38-.19a3.69,3.69,0,0,0,2.92,1.58A2,2,0,0,0,90.88,65.36Z"/><path class="cls-8" d="M163.32,63.57c-.31,1.1-.66,2.24-1.07,3.43A4,4,0,0,1,158,70a2.11,2.11,0,0,1-1.85-1.61,31.19,31.19,0,0,1-.29-6.07,2.73,2.73,0,0,0,.64.07,3.79,3.79,0,0,0,3.12-1.86A6,6,0,0,1,163.32,63.57Z"/></g></g></svg>