<svg xmlns="http://www.w3.org/2000/svg" viewBox="0 0 300 300"><defs><style>.cls-1,.cls-9{fill:none;}.cls-2{fill:#e7ece8;}.cls-3{fill:#e1bf3b;}.cls-4{fill:#739946;}.cls-5{fill:#fff;}.cls-6{fill:#040b00;}.cls-7{fill:#9c2b3b;}.cls-8{fill:#050d00;}.cls-9{stroke:#000;stroke-miterlimit:10;}</style></defs><title>S</title><g id="Capa_2" data-name="Capa 2"><g id="img_bg" data-name="img bg"><rect class="cls-1" width="300" height="300"/></g><g id="S"><path class="cls-2" d="M262.24,177.3s5,28,1,31c-.66.49-3.37-3.07-6.53-7.76-1.62-2.4-3.35-5.1-5-7.72,0,0,0,0,0,0h0c-3.88-6.17-7.23-11.83-7.23-11.83-.1-2.24-.22-3.66-.22-3.66C255.24,166.3,262.24,177.3,262.24,177.3Z"/><path class="cls-3" d="M190.25,132.35a14.37,14.37,0,0,0,.48,2.29,39.22,39.22,0,0,1,.51,4.71s9,11.95,3,33.95c0,0,10,18,7,30s-1,15-1,15,22,22,23,28a4.06,4.06,0,0,0,0,1.07c-7.81-3.73-12.18,4.64-12.18,4.64-.86-1.29-4.69-6.34-10.82-3.71-7,3-6,7-6,7l.17.29c-.13,0-1.42.33-2.75-2.86a11.46,11.46,0,0,1,.58,2.57c0,2-2,3.56-2,3.56a14.15,14.15,0,0,0-.43-3.37,4.5,4.5,0,0,0-2.85-3.13c-6.14-2.16-9.39-.34-11.06,1.68a5.28,5.28,0,0,0-.69,5.47c.42,1,1,2.22,1.6,3.61,0,0-5.55.18-6.55-3.82s-4-13-4-13a57.72,57.72,0,0,1-1.28-10,11.26,11.26,0,0,0-1.4-5.51c-.95-1.68-1.86-3.86-1.32-5.47,1-3,1-5,6-7,0,0,3-9,8-12l.24-.09a6.75,6.75,0,0,1-.24-.91c-1-5-5-9-5-9l0,0a17.63,17.63,0,0,1-6,1s-24.88.71-27,0a28.85,28.85,0,0,1-6-2.07l-.16.29a36.37,36.37,0,0,0-6.83,10.78s3,2,5,14c0,0,7,1,6,11a21.76,21.76,0,0,1-6,10s-1,1-2,6-2,10-11,16l-2,1s1-4-5-6-8,3-8,3-.14.3-.36.83l-1.61,1.93,0,0-1,1.2s-1.31-7.34-4-9c-3.46-2.12-4.93-3.12-10,4-.32.45-.61.91-.9,1.38a2.46,2.46,0,0,1-.92-.5c-1-.89-1-2.66-.18-5.88,0,0-6-5-11,0a18.7,18.7,0,0,0-1.36,1.53l-.3-2.09a9.1,9.1,0,0,1,1.7-6.88c1.76-2.23,3.86-2.16,6-3.56,3-2,21-21,21-21s1-9,0-11-1-8-1-8c0-10,15-29,15-29-7-15,5-33,5-33l-14,11-20,32s-6.06,4.33-10.12,16.2a16.61,16.61,0,0,1-3.69,6.19c-.72.74-1.4,1.31-1.81,1.3-.23,0-.38-.21-.38-.69,0-16-10-11-10-11,8-8,0-12,0-12,6-5,6-13,6-13,0-12-12-6-12-6s0-1,4-6,35-11,35-11c6-13,15-17,15-17l10.86-19.75a13.32,13.32,0,0,0,4,3.23c1.56.82,3.1,2.22,4.15,1.52l.09,0c.27.5.51,1,.74,1.51a14.35,14.35,0,0,1,1.1,5c.1,1.71.74,4.93,3.53,9.64a12.63,12.63,0,0,0,1.72,2.28c.3.32.66.68,1.07,1.06l2,5.47a7.39,7.39,0,0,0,.45,1.24l0,0c2.64,5.63,12,9.79,23.26,9.79,12,0,22-4.78,23.72-11l3.06-9.51a14.54,14.54,0,0,0,1.39-3l1.83-5.48,1-5s1.11-1.39,2.17-3c4.59-.06,6.54-2.28,7.33-3.74a95.73,95.73,0,0,1,8.5,14.74c3,7,13,14,13,14s12,2,21,10,10,12,12,13,6,3,8,6,0,7,0,7-7-11-18,0c0,0-16-11-18,8a1.46,1.46,0,0,1-1.08.49c-1.52,0-4.48-2.37-7.92-17.49,0,0-4-14-11-17-6.32-2.71-13.45-9.49-15.51-16.66C190.51,133.39,190.3,132.54,190.25,132.35Z"/><path class="cls-2" d="M256.71,200.54s-3.47,18.76-8.47,20.76c-4.65,1.86-.65-24.85-.06-28.57a26.17,26.17,0,0,1,3.51.06h0l0,0C253.36,195.44,255.09,198.14,256.71,200.54Z"/><path class="cls-3" d="M248.18,192.73H248c-1.86,0-3.71.09-3.71.09a103.27,103.27,0,0,0,.16-11.86s3.35,5.66,7.23,11.83A26.17,26.17,0,0,0,248.18,192.73Z"/><path class="cls-2" d="M244.46,181a103.27,103.27,0,0,1-.16,11.86c-.45,5.52-1.56,11-4.06,13.48-1.58,1.58-2,1-6-10s-9.08-10.51-9.08-10.51a1.46,1.46,0,0,0,1.08-.49c2-19,18-8,18-8S244.36,178.72,244.46,181Z"/><path class="cls-3" d="M117.1,112.55a15,15,0,0,1-2.93-5.77c-.63-2.47-1.47-5.64-2.28-8.66a43.83,43.83,0,0,1-.64-19.89l2.51-12.54a9.14,9.14,0,0,0-.29-4.7l-1.23-3.69c-3-7,6-17,6-17,5.07-8.23,12.39-6.36,12-7,.69-.5,29-31,63,0,0,0,7.74.49,11,7,0,0,4,16,0,23l-.57,1.7a5.57,5.57,0,0,0-.2,2.66l.18,1.13a87.49,87.49,0,0,1-1.21,35.34,49.73,49.73,0,0,1-2.2,7.17,5.07,5.07,0,0,1-.5,1.26c-.79,1.46-2.74,3.68-7.33,3.74-1.06,1.61-2.17,3-2.17,3l-1,5-1.83,5.48a14.54,14.54,0,0,1-1.39,3,13.52,13.52,0,0,1-3.69,4,11.7,11.7,0,0,1-1.59,1c-.49.25-2.17.93-3.94,1.61-2,.77-4.1,1.55-4.7,1.72s-5.22,1.13-5.86,1.23a50.45,50.45,0,0,1-20.74-.66,12.14,12.14,0,0,0-2.14-.37c-.37,0-.74-.06-1.09-.11h0c-.36-.06-.7-.12-1-.2a16.33,16.33,0,0,1-5.71-2.59,20.38,20.38,0,0,1-2-1.62c-.41-.38-.77-.74-1.07-1.06a12.63,12.63,0,0,1-1.72-2.28c-2.79-4.71-3.43-7.93-3.53-9.64a14.35,14.35,0,0,0-1.1-5c-.23-.52-.47-1-.74-1.51l-.09,0c-1,.7-2.59-.7-4.15-1.52A13.32,13.32,0,0,1,117.1,112.55ZM198,82.48a37.09,37.09,0,0,0,1.6-13.64c-.72-7.24-4.39-9.54-4.39-9.54-2.16-1-3.46,5.18-4.11,12,0,.26,0,.51-.07.76-.24,2.76-.38,5.58-.44,8,0,.38,0,.76,0,1.12a31.19,31.19,0,0,0,.29,6.07,2.11,2.11,0,0,0,1.85,1.61,4,4,0,0,0,4.21-3C197.36,84.72,197.71,83.58,198,82.48ZM177.24,121.3c0-.55-.9-1-2-1s-2,.45-2,1,.9,1,2,1S177.24,121.85,177.24,121.3Zm-29,0c0-.55-.9-1-2-1s-2,.45-2,1,.9,1,2,1S148.24,121.85,148.24,121.3Zm-23-31a27.29,27.29,0,0,0,.34-6c0-.57,0-1.16,0-1.78-.08-2.35-.24-5-.51-7.56,0-.2,0-.41-.06-.61-.59-5.4-1.66-10.4-3.31-11.76a1.33,1.33,0,0,0-1.79.2A13.25,13.25,0,0,0,117.25,67c-1,5.22-2.46,10.65.91,21.59h.1s0,0,0,0a6,6,0,0,1,3.63-5.7,8,8,0,0,0-3.63,6.18,4.52,4.52,0,0,0,4.8,2.82A2.37,2.37,0,0,0,125.24,90.3Z"/><path class="cls-4" d="M199.62,68.84A37.09,37.09,0,0,1,198,82.48a6,6,0,0,0-3.66-3,6.05,6.05,0,0,0,.08-6.15C196.71,73.2,198.67,71.41,199.62,68.84Z"/><path class="cls-5" d="M199.62,68.84c-.95,2.57-2.91,4.36-5.18,4.45a3.82,3.82,0,0,0-3.2-2h-.12c.65-6.83,2-13,4.11-12C195.23,59.3,198.9,61.6,199.62,68.84Z"/><path class="cls-5" d="M198,82.48c-.31,1.1-.66,2.24-1.07,3.43a4,4,0,0,1-4.21,3,2.11,2.11,0,0,1-1.85-1.61,31.19,31.19,0,0,1-.29-6.07,2.73,2.73,0,0,0,.64.07,3.79,3.79,0,0,0,3.12-1.86A6,6,0,0,1,198,82.48Z"/><path class="cls-6" d="M194.44,73.29a6.05,6.05,0,0,1-.08,6.15,3.79,3.79,0,0,1-3.12,1.86,2.73,2.73,0,0,1-.64-.07c0-.36,0-.74,0-1.12.06-2.46.2-5.28.44-8,0-.25,0-.5.07-.76h.12A3.82,3.82,0,0,1,194.44,73.29Z"/><path class="cls-3" d="M186,132.77,183,142.28c-1.76,6.24-11.71,11-23.72,11-11.21,0-20.62-4.16-23.26-9.79l0,0-.45-1.24-2-5.47a20.38,20.38,0,0,0,2,1.62,16.33,16.33,0,0,0,5.71,2.59c.34.08.68.14,1,.2h0c.49,3.42,8.13,6.14,17.47,6.14,9.66,0,17.5-2.91,17.5-6.5a2.73,2.73,0,0,0-.44-1.45c1.77-.68,3.45-1.36,3.94-1.61a11.7,11.7,0,0,0,1.59-1A13.52,13.52,0,0,0,186,132.77Z"/><path class="cls-7" d="M176.8,139.35a2.73,2.73,0,0,1,.44,1.45c0,3.59-7.84,6.5-17.5,6.5-9.34,0-17-2.72-17.47-6.14.35.05.72.08,1.09.11a12.14,12.14,0,0,1,2.14.37,50.45,50.45,0,0,0,20.74.66c.64-.1,5.24-1.06,5.86-1.23S174.8,140.12,176.8,139.35Z"/><ellipse class="cls-8" cx="175.24" cy="121.3" rx="2" ry="1"/><ellipse class="cls-8" cx="146.24" cy="121.3" rx="2" ry="1"/><path class="cls-5" d="M125.58,84.27a27.29,27.29,0,0,1-.34,6,2.37,2.37,0,0,1-2.13,1.61,4.52,4.52,0,0,1-4.8-2.82,8,8,0,0,1,3.63-6.18l.38-.19a3.69,3.69,0,0,0,2.92,1.58A2,2,0,0,0,125.58,84.27Z"/><path class="cls-8" d="M125.58,84.27a2,2,0,0,1-.34,0,3.69,3.69,0,0,1-2.92-1.58,5.71,5.71,0,0,1-1.08-3.42,5.44,5.44,0,0,1,1.63-4,3.43,3.43,0,0,1,2.11-1c0,.2.05.41.06.61.27,2.57.43,5.21.51,7.56C125.56,83.11,125.58,83.7,125.58,84.27Z"/><path class="cls-5" d="M121.67,62.56c1.65,1.36,2.72,6.36,3.31,11.76a3.43,3.43,0,0,0-2.11,1c-3.14-.25-5.63-3.73-5.63-8a2.26,2.26,0,0,1,0-.26,13.25,13.25,0,0,1,2.63-4.28A1.33,1.33,0,0,1,121.67,62.56Z"/><path class="cls-4" d="M122.32,82.72l-.38.19a6,6,0,0,0-3.63,5.7s0,0,0,0h-.1c-3.37-10.94-1.91-16.37-.91-21.59a2.26,2.26,0,0,0,0,.26c0,4.25,2.49,7.73,5.63,8a5.44,5.44,0,0,0-1.63,4A5.71,5.71,0,0,0,122.32,82.72Z"/><path class="cls-9" d="M192.24,116.3h.17c4.59-.06,6.54-2.28,7.33-3.74a5.07,5.07,0,0,0,.5-1.26,49.73,49.73,0,0,0,2.2-7.17,87.49,87.49,0,0,0,1.21-35.34l-.18-1.13a5.57,5.57,0,0,1,.2-2.66l.57-1.7c4-7,0-23,0-23-3.26-6.51-11-7-11-7-34-31-62.31-.5-63,0,.39.64-6.93-1.23-12,7,0,0-9,10-6,17L113.47,61a9.14,9.14,0,0,1,.29,4.7l-2.51,12.54a43.83,43.83,0,0,0,.64,19.89c.81,3,1.65,6.19,2.28,8.66a15,15,0,0,0,2.93,5.77,13.32,13.32,0,0,0,4,3.23c1.56.82,3.1,2.22,4.15,1.52"/><path class="cls-9" d="M186,132.77a14.54,14.54,0,0,0,1.39-3l1.83-5.48,1-5s1.11-1.39,2.17-3c.94-1.44,1.83-3.06,1.83-4,0-2,3-15,3-15"/><path class="cls-9" d="M122.24,101.3s-1,8,1,12c.85,1.71,1.52,2.87,2.09,4,.27.5.51,1,.74,1.51a14.35,14.35,0,0,1,1.1,5c.1,1.71.74,4.93,3.53,9.64a12.63,12.63,0,0,0,1.72,2.28c.3.32.66.68,1.07,1.06"/><line class="cls-9" x1="135.49" y1="81.61" x2="131.49" y2="88.61"/><line class="cls-9" x1="180.24" y1="82.3" x2="185.24" y2="89.3"/><path class="cls-9" d="M117.25,67c-1,5.22-2.46,10.65.91,21.59h.1"/><path class="cls-9" d="M121.94,82.91a6,6,0,0,0-3.63,5.7s0,0,0,0h0"/><path class="cls-9" d="M199.62,68.84A37.09,37.09,0,0,1,198,82.48"/><path class="cls-9" d="M176.8,139.35c1.77-.68,3.45-1.36,3.94-1.61a11.7,11.7,0,0,0,1.59-1,13.52,13.52,0,0,0,3.69-4L183,142.28c-1.76,6.24-11.71,11-23.72,11-11.21,0-20.62-4.16-23.26-9.79l0,0"/><path class="cls-9" d="M135.51,142.22l-2-5.47a20.38,20.38,0,0,0,2,1.62,16.33,16.33,0,0,0,5.71,2.59c.34.08.68.14,1,.2h0"/><path class="cls-9" d="M136,143.46a7.39,7.39,0,0,1-.45-1.24Z"/><line class="cls-9" x1="182.96" y1="142.28" x2="182.84" y2="142.67"/><path class="cls-9" d="M176.8,139.35a2.73,2.73,0,0,1,.44,1.45c0,3.59-7.84,6.5-17.5,6.5-9.34,0-17-2.72-17.47-6.14.35.05.72.08,1.09.11a12.14,12.14,0,0,1,2.14.37,50.45,50.45,0,0,0,20.74.66c.64-.1,5.24-1.06,5.86-1.23S174.8,140.12,176.8,139.35Z"/><path class="cls-9" d="M190.24,132.3a.18.18,0,0,0,0,.05c.05.19.26,1,.48,2.29a39.22,39.22,0,0,1,.51,4.71,28.61,28.61,0,0,1-.07,3.69c-.43,4.68-2.32,9.33-7.93,10.26"/><path class="cls-9" d="M199.74,112.56a95.73,95.73,0,0,1,8.5,14.74c3,7,13,14,13,14s12,2,21,10,10,12,12,13,6,3,8,6,0,7,0,7-7-11-18,0c0,0-16-11-18,8a1.46,1.46,0,0,1-1.08.49c-1.52,0-4.48-2.37-7.92-17.49,0,0-4-14-11-17-6.32-2.71-13.45-9.49-15.51-16.66a14.37,14.37,0,0,1-.48-2.29"/><path class="cls-9" d="M225.16,185.79s5.08-.49,9.08,10.51,4.42,11.58,6,10c2.5-2.5,3.61-8,4.06-13.48a103.27,103.27,0,0,0,.16-11.86c-.1-2.24-.22-3.66-.22-3.66a22.58,22.58,0,0,0-7-14"/><path class="cls-9" d="M251.7,192.8l0,0c1.64,2.62,3.37,5.32,5,7.72,3.16,4.69,5.87,8.25,6.53,7.76,4-3-1-31-1-31"/><path class="cls-9" d="M244.46,181s3.35,5.66,7.23,11.83"/><path class="cls-9" d="M244.3,192.82s1.85-.06,3.71-.09h.17a26.17,26.17,0,0,1,3.51.06h0s0,0,0,0"/><path class="cls-9" d="M256.71,200.54s-3.47,18.76-8.47,20.76c-4.65,1.86-.65-24.85-.06-28.57l.06-.43"/><path class="cls-9" d="M117.24,112.3l-.14.25L106.24,132.3s-9,4-15,17c0,0-31,6-35,11s-4,6-4,6,12-6,12,6c0,0,0,8-6,13,0,0,8,4,0,12,0,0,10-5,10,11,0,.48.15.68.38.69.41,0,1.09-.56,1.81-1.3a16.61,16.61,0,0,0,3.69-6.19c4.06-11.87,10.12-16.2,10.12-16.2l20-32,14-11s-12,18-5,33c0,0-15,19-15,29,0,0,0,6,1,8s0,11,0,11-18,19-21,21c-2.1,1.4-4.2,1.33-6,3.56a9.1,9.1,0,0,0-1.7,6.88l.3,2.09"/><path class="cls-9" d="M120.24,132.3a22.67,22.67,0,0,0-1.46,9.67,11.36,11.36,0,0,0,4.46,8.33"/><path class="cls-9" d="M68.62,209s-9.38,9.31-11.38,17.31c-1.47,5.86-2.93-7.07-3.22-16.37a19.28,19.28,0,0,1,4.22-12.63l-1,1L45.51,215.49a1.59,1.59,0,0,1-2.72-.18c-1.57-3.2-2.85-10.7,5.34-25.8a2.12,2.12,0,0,1,.11-.21"/><path class="cls-9" d="M52.24,166.3s-18,18.81-17,27.59A1.82,1.82,0,0,0,38,195.26c2.22-1.32,6.23-3.66,10.16-5.75,4.26-2.26,8.43-4.21,10.11-4.21"/><path class="cls-9" d="M223.24,247.38a4.34,4.34,0,0,0,.18.65c1.83,5.12,2.85,19.33,1.82,19.27a48,48,0,0,1-13.14-13.62c-.29-.45-.58-.91-.86-1.38,0,0,1,20-2,24-1.33,1.78-13.25-18.06-14.83-20.71l-.17-.29s-1-4,6-7c6.13-2.63,10,2.42,10.82,3.71.12.18.18.29.18.29"/><path class="cls-9" d="M191.24,139.35s9,11.95,3,33.95c0,0,10,18,7,30s-1,15-1,15,22,22,23,28a4.06,4.06,0,0,0,0,1.07"/><path class="cls-9" d="M176.79,263.12c-.63-1.39-1.18-2.63-1.6-3.61a5.28,5.28,0,0,1,.69-5.47c1.67-2,4.92-3.84,11.06-1.68a4.5,4.5,0,0,1,2.85,3.13,14.15,14.15,0,0,1,.43,3.37v.39c-.09,5.09-.56,18.44-3,20.05C185.21,280.65,180,270.08,176.79,263.12Z"/><path class="cls-9" d="M211.06,252s4.37-8.37,12.18-4.64h0l.12.05"/><path class="cls-9" d="M211.24,251.3s-3-9-6-11"/><path class="cls-9" d="M191.65,252.7c-1.11-3.65-3.41-9.4-3.41-9.4"/><path class="cls-9" d="M190.22,258.86s2-1.56,2-3.56a11.46,11.46,0,0,0-.58-2.57"/><path class="cls-9" d="M194.42,255.59h0c-.13,0-1.42.33-2.75-2.86,0,0,0,0,0,0"/><path class="cls-9" d="M176.24,206.3c-5,3-8,12-8,12-5,2-5,4-6,7-.54,1.61.37,3.79,1.32,5.47a11.26,11.26,0,0,1,1.4,5.51,57.72,57.72,0,0,0,1.28,10s3,9,4,13,6.55,3.82,6.55,3.82"/><path class="cls-9" d="M171.24,196.3s4,4,5,9a6.75,6.75,0,0,0,.24.91c1.49,4.45,6.76,7.09,6.76,7.09"/><line class="cls-9" x1="187.24" y1="210.3" x2="192.24" y2="212.3"/><path class="cls-9" d="M182.24,187.3a23.2,23.2,0,0,1-11,9,17.63,17.63,0,0,1-6,1s-24.88.71-27,0a28.85,28.85,0,0,1-6-2.07c-2.34-1.26-5-3.51-8-7.93"/><path class="cls-9" d="M132.07,195.52a36.37,36.37,0,0,0-6.83,10.78s-1,3-6,5"/><line class="cls-9" x1="111.99" y1="208.65" x2="108.99" y2="213.65"/><path class="cls-9" d="M125.24,206.3s3,2,5,14c0,0,7,1,6,11a21.76,21.76,0,0,1-6,10s-1,1-2,6-2,10-11,16l-2,1s-7,13-15,16c-7.06,2.65-.1-14.19,1.64-18.17.22-.53.36-.83.36-.83s2-5,8-3,5,6,5,6"/><path class="cls-9" d="M101.88,262.13l-1.61,1.93,0,0-1,1.2s-1.31-7.34-4-9c-3.46-2.12-4.93-3.12-10,4-.32.45-.61.91-.9,1.38-4.13,6.94-4.44,16.34-4.1,17.62,1.13,4.31,18-13,18-13l1-1"/><path class="cls-9" d="M105.24,251.3s-5,4.39-5,8v5"/><path class="cls-9" d="M90.24,244.3s-6.23,7.93-7,11c-.81,3.22-.83,5,.18,5.88a2.46,2.46,0,0,0,.92.5"/><path class="cls-9" d="M83.42,261.18S72.24,269.3,68.24,275.3c-3.51,5.26-5,2-5-1,0-2.72,3.29-12,7.64-17.47a18.7,18.7,0,0,1,1.36-1.53c5-5,11,0,11,0"/><ellipse class="cls-9" cx="146.24" cy="121.3" rx="2" ry="1"/><ellipse class="cls-9" cx="175.24" cy="121.3" rx="2" ry="1"/><path class="cls-9" d="M190.6,81.23c0-.36,0-.74,0-1.12.06-2.46.2-5.28.44-8,0-.25,0-.5.07-.76"/><path class="cls-9" d="M194.44,73.29a6.05,6.05,0,0,1-.08,6.15"/><path class="cls-9" d="M199.62,68.84c-.95,2.57-2.91,4.36-5.18,4.45a3.82,3.82,0,0,0-3.2-2h-.12c.65-6.83,2-13,4.11-12C195.23,59.3,198.9,61.6,199.62,68.84Z"/><path class="cls-9" d="M122.87,75.28c-3.14-.25-5.63-3.73-5.63-8a2.26,2.26,0,0,1,0-.26,13.25,13.25,0,0,1,2.63-4.28,1.33,1.33,0,0,1,1.79-.2c1.65,1.36,2.72,6.36,3.31,11.76"/><path class="cls-9" d="M122.32,82.72a5.71,5.71,0,0,1-1.08-3.42,5.44,5.44,0,0,1,1.63-4,3.43,3.43,0,0,1,2.11-1c0,.2.05.41.06.61.27,2.57.43,5.21.51,7.56,0,.62,0,1.21,0,1.78"/><path class="cls-9" d="M125.58,84.27a27.29,27.29,0,0,1-.34,6,2.37,2.37,0,0,1-2.13,1.61,4.52,4.52,0,0,1-4.8-2.82,8,8,0,0,1,3.63-6.18l.38-.19a3.69,3.69,0,0,0,2.92,1.58A2,2,0,0,0,125.58,84.27Z"/><path class="cls-9" d="M198,82.48c-.31,1.1-.66,2.24-1.07,3.43a4,4,0,0,1-4.21,3,2.11,2.11,0,0,1-1.85-1.61,31.19,31.19,0,0,1-.29-6.07,2.73,2.73,0,0,0,.64.07,3.79,3.79,0,0,0,3.12-1.86A6,6,0,0,1,198,82.48Z"/></g></g></svg>