<svg xmlns="http://www.w3.org/2000/svg" viewBox="0 0 230.58 262.17"><defs><style>.cls-1{fill:#e7ece8;}.cls-2{fill:#e1bf3b;}.cls-3{fill:#739946;}.cls-4{fill:#fff;}.cls-5{fill:#040b00;}.cls-6{fill:#9c2b3b;}.cls-7{fill:#050d00;}.cls-8{fill:none;stroke:#000;stroke-miterlimit:10;}</style></defs><title>S</title><g id="Capa_2" data-name="Capa 2"><g id="Capa_1-2" data-name="Capa 1"><g id="Capa_2-2" data-name="Capa 2"><g id="S"><path class="cls-1" d="M223.67,248.28c1.83,5.12,2.85,19.33,1.82,19.27a47.89,47.89,0,0,1-13.14-13.62c-.29-.45-.58-.91-.86-1.38,0,0-.06-.11-.18-.29h0s.14-.27.41-.69c.09-.11.17-.24.27-.38a12.6,12.6,0,0,1,1.19-1.46l.26-.26a10.48,10.48,0,0,1,2.59-1.93,8,8,0,0,1,7.46.09h0A3.69,3.69,0,0,0,223.67,248.28Z" transform="translate(-34.95 -19.16)"/><path class="cls-1" d="M194.66,255.84l-.17-.29s-1-4,6-7a7.87,7.87,0,0,1,5.9-.32c.22.08.43.16.63.25a5.59,5.59,0,0,1,.6.3,11.19,11.19,0,0,1,3.62,3.38l.07.09h0c.12.18.18.29.18.29s1,20-2,24C208.16,278.33,196.24,258.49,194.66,255.84Z" transform="translate(-34.95 -19.16)"/><path class="cls-1" d="M190.47,259.11v.39c-.09,5.09-.56,18.44-3,20.05-2,1.35-7.22-9.22-10.43-16.18h0c-.6-1.39-1.18-2.61-1.6-3.61a5.27,5.27,0,0,1,.69-5.47c.14-.17.3-.34.46-.51a9.74,9.74,0,0,1,.82-.71h0a5.89,5.89,0,0,1,.64-.42c1.81-1,4.48-1.5,8.39-.28l.72.24a4.5,4.5,0,0,1,2.85,3.13A14.15,14.15,0,0,1,190.47,259.11Z" transform="translate(-34.95 -19.16)"/><path class="cls-1" d="M102.52,261.57s2-5,8-3c.28.09.55.19.8.29a8.24,8.24,0,0,1,2.75,1.72l.18.18a4.36,4.36,0,0,1,1.24,3.79s-7,13-15,16c-7,2.63-.23-13.88,1.59-18.05l.08-.1C102.38,261.87,102.52,261.57,102.52,261.57Z" transform="translate(-34.95 -19.16)"/><path class="cls-1" d="M84.59,261.93l0,0h0c.29-.47.58-.93.9-1.38,3.76-5.28,5.54-6.1,7.62-5.3a14.81,14.81,0,0,1,2.35,1.28,3.32,3.32,0,0,1,.49.37,5.42,5.42,0,0,1,.46.49l0,0c.13.18.27.37.4.57s.13.21.2.32a26.4,26.4,0,0,1,2.43,7.23l-1,1s-16.87,17.31-18,13C80.18,278.23,80.49,268.87,84.59,261.93Z" transform="translate(-34.95 -19.16)"/><path class="cls-1" d="M83.49,255.55c-.81,3.22-.83,5,.18,5.88,0,0-11.18,8.12-15.18,14.12-3.51,5.26-5,2-5-1,0-2.72,3.29-12,7.64-17.47l.05-.06v0a19.8,19.8,0,0,1,1.36-1.53,7.87,7.87,0,0,1,2.23-1.6,6.09,6.09,0,0,1,1.22-.42C79.92,252.58,83.49,255.55,83.49,255.55Z" transform="translate(-34.95 -19.16)"/><path class="cls-1" d="M68.49,208.55c0,.48.15.68.38.69h0s-9.38,9.31-11.38,17.31c-1.47,5.86-2.93-7.07-3.22-16.37a19.28,19.28,0,0,1,4.22-12.63h0l.15-.07,0,.05a7.83,7.83,0,0,1,1.46-.51,7.39,7.39,0,0,1,.76-.14C63.76,196.48,68.49,197.55,68.49,208.55Z" transform="translate(-34.95 -19.16)"/><path class="cls-1" d="M45.76,215.74a1.59,1.59,0,0,1-2.72-.18c-1.57-3.2-2.85-10.69,5.33-25.78l0,0c4.24-2.25,8.38-4.19,10.08-4.21,0,0,8,4,0,12h0l-1,1Z" transform="translate(-34.95 -19.16)"/><path class="cls-1" d="M55.37,165.5a13.37,13.37,0,0,1,2-.39c3.32-.36,7.12.69,7.12,7.44,0,0,0,8-6,13-1.7,0-5.84,2-10.08,4.21l0,0c-3.92,2.09-7.91,4.41-10.12,5.73a1.85,1.85,0,0,1-.77.26,1.82,1.82,0,0,1-2-1.63c-1-8.78,17-27.59,17-27.59l.11-.05v0A16.47,16.47,0,0,1,55.37,165.5Z" transform="translate(-34.95 -19.16)"/><path class="cls-1" d="M263.48,208.53c-.2.15-.57-.07-1.09-.55a55.36,55.36,0,0,1-5.43-7.19v0l-.21-.31-.39-.58c-.83-1.24-1.67-2.54-2.51-3.85h0l-.41-.63c-.5-.78-1-1.56-1.48-2.34a0,0,0,0,1,0,0l-1.41-2.25s0,0,0,0l-3.62-5.92-1.58-2.62,0,0-.56-.95c-.1-2.24-.22-3.66-.22-3.66l.05-.05a20.53,20.53,0,0,1,3.88-3.12l.62-.36.05,0a9.67,9.67,0,0,1,6.85-1.14c.29.07.58.15.86.24a10.37,10.37,0,0,1,3.45,2c.27.23.52.46.74.68a11.48,11.48,0,0,1,1.47,1.74v0s0,0,0,0a.11.11,0,0,0,0,.05c0,.09,0,.23.07.42a.5.5,0,0,0,0,.12C263.3,182.33,267.12,205.8,263.48,208.53Z" transform="translate(-34.95 -19.16)"/><path class="cls-1" d="M263.49,208.55c-.2.15-.58-.07-1.1-.57.52.48.89.7,1.09.55,3.64-2.73-.18-26.2-.89-30.37C263.3,182.27,267.14,205.81,263.49,208.55Z" transform="translate(-34.95 -19.16)"/><path class="cls-1" d="M262.5,177.62c0,.08,0,.22.07.42C262.54,177.85,262.51,177.71,262.5,177.62Z" transform="translate(-34.95 -19.16)"/><path class="cls-1" d="M262.49,177.57a.07.07,0,0,1,0,.05A.11.11,0,0,1,262.49,177.57Z" transform="translate(-34.95 -19.16)"/><path class="cls-1" d="M256.74,200.46l-.39-.58Z" transform="translate(-34.95 -19.16)"/><path class="cls-1" d="M253.43,195.39l.41.63h0Z" transform="translate(-34.95 -19.16)"/><path class="cls-1" d="M253.84,196h0l0,0Z" transform="translate(-34.95 -19.16)"/><path class="cls-1" d="M248.49,221.55c-4.65,1.86-.65-24.85-.06-28.57a25.27,25.27,0,0,1,3.48.06h0a0,0,0,0,0,0,0c.49.78,1,1.56,1.48,2.34l.39.62,0,0c.84,1.31,1.68,2.61,2.51,3.85l.39.58.21.31v0S253.49,219.55,248.49,221.55Z" transform="translate(-34.95 -19.16)"/><path class="cls-2" d="M248.44,174.41a20.53,20.53,0,0,0-3.88,3.12l0,0a18,18,0,0,1,5.78-4.07c-.39.17-.79.36-1.2.58l-.05,0C248.86,174.16,248.65,174.27,248.44,174.41Z" transform="translate(-34.95 -19.16)"/><path class="cls-2" d="M244.71,181.23l.58,1,0,0c.93,1.58,2.89,4.84,5.2,8.54,0,0,0,0,0,0,.45.73.92,1.49,1.4,2.25h0c-3.86-6.15-7.2-11.79-7.2-11.79Z" transform="translate(-34.95 -19.16)"/><path class="cls-2" d="M244.71,181.25s3.34,5.64,7.2,11.79a25.27,25.27,0,0,0-3.48-.06h-.86c-.92,0-1.77,0-2.34.06h-.68A103.6,103.6,0,0,0,244.71,181.25Z" transform="translate(-34.95 -19.16)"/><path class="cls-1" d="M244.71,181.25a103.6,103.6,0,0,1-.16,11.82h0a104.31,104.31,0,0,0,.16-11.86v0Z" transform="translate(-34.95 -19.16)"/><path class="cls-1" d="M240.49,206.55c-1.58,1.58-2,1-6-10-3.42-9.42-7.64-10.41-8.78-10.5a1.45,1.45,0,0,0,.62-.31.75.75,0,0,0,.16-.15.19.19,0,0,0,.07-.06c.47-4.4,1.68-7.19,3.27-8.88.1-.11.2-.21.31-.31a7.2,7.2,0,0,1,.88-.71c5.4-3.59,13.47,2,13.47,2,0,.25.13,1.6.22,3.62v0a104.31,104.31,0,0,1-.16,11.86h0c-.06.68-.12,1.37-.2,2.05C243.8,199.88,242.68,204.36,240.49,206.55Z" transform="translate(-34.95 -19.16)"/><path class="cls-1" d="M234.49,196.59c-4-11-9.08-10.51-9.08-10.51a1.27,1.27,0,0,0,.28,0,0,0,0,0,1,0,0c1.14.09,5.36,1.08,8.78,10.5,4,11,4.42,11.58,6,10,2.19-2.19,3.31-6.67,3.86-11.43-.54,4.8-1.66,9.29-3.86,11.47C238.91,208.17,238.49,207.59,234.49,196.59Z" transform="translate(-34.95 -19.16)"/><path class="cls-2" d="M232.46,174.87a6.64,6.64,0,0,0-1.44.76,7.2,7.2,0,0,0-.88.71,3,3,0,0,0-.31.31c-1.43,1.46-2.56,3.8-3.13,7.36C227.59,178.43,229.84,175.83,232.46,174.87Z" transform="translate(-34.95 -19.16)"/><path class="cls-1" d="M230.14,176.34c-.11.1-.21.2-.31.31A3,3,0,0,1,230.14,176.34Z" transform="translate(-34.95 -19.16)"/><path class="cls-1" d="M226.7,184c.57-3.56,1.7-5.9,3.13-7.36-1.59,1.69-2.8,4.48-3.27,8.88a.19.19,0,0,1-.07.06v0c0-.26.06-.52.1-.77S226.66,184.26,226.7,184Z" transform="translate(-34.95 -19.16)"/><path class="cls-2" d="M226.7,184c0,.25-.08.51-.11.77C226.62,184.52,226.65,184.26,226.7,184Z" transform="translate(-34.95 -19.16)"/><path class="cls-2" d="M226.49,185.55v0a.75.75,0,0,1-.16.15,1.29,1.29,0,0,1-.33.17A1.33,1.33,0,0,0,226.49,185.55Z" transform="translate(-34.95 -19.16)"/><path class="cls-2" d="M223.49,247.61h0a8,8,0,0,0-7.46-.09A8,8,0,0,1,223.49,247.61Z" transform="translate(-34.95 -19.16)"/><path class="cls-2" d="M216,247.53a10.48,10.48,0,0,0-2.59,1.93A10,10,0,0,1,216,247.53Z" transform="translate(-34.95 -19.16)"/><path class="cls-2" d="M213.44,249.46l-.26.26A3.19,3.19,0,0,1,213.44,249.46Z" transform="translate(-34.95 -19.16)"/><path class="cls-2" d="M211.72,251.56l.27-.38C211.89,251.32,211.81,251.45,211.72,251.56Z" transform="translate(-34.95 -19.16)"/><path class="cls-2" d="M207.62,248.78a10.67,10.67,0,0,1,3.62,3.38A11.19,11.19,0,0,0,207.62,248.78Z" transform="translate(-34.95 -19.16)"/><path class="cls-2" d="M207,248.48c-.2-.09-.41-.17-.63-.25A5.9,5.9,0,0,1,207,248.48Z" transform="translate(-34.95 -19.16)"/><path class="cls-2" d="M208.49,127.55A94.89,94.89,0,0,0,200,112.86a.25.25,0,0,0,0-.07,95.07,95.07,0,0,1,8.5,14.74c3,7,13,14,13,14s12,2,21,10,10,12,12,13,6,3,8,6,0,7,0,7l0-.05c.25-.54,1.82-4.16,0-6.93-2-3-6-5-8-6s-3-5-12-13-21-10-21-10S211.49,134.55,208.49,127.55Z" transform="translate(-34.95 -19.16)"/><path class="cls-3" d="M199.83,74.48a36.75,36.75,0,0,0,0-5.35s0,0,0,0A35.91,35.91,0,0,1,199.83,74.48Z" transform="translate(-34.95 -19.16)"/><path class="cls-3" d="M198.9,80.35c-.15.66-.33,1.32-.53,2C198.57,81.67,198.75,81,198.9,80.35Z" transform="translate(-34.95 -19.16)"/><path class="cls-3" d="M197.94,82.2a6,6,0,0,0-3.33-2.5h0a5.81,5.81,0,0,0,.52-1.1,6,6,0,0,0-.42-5,4.58,4.58,0,0,0,1.22-.26l.39-.15a5.15,5.15,0,0,0,1.11-.64,7.52,7.52,0,0,0,2.42-3.4,36.75,36.75,0,0,1,0,5.35,33.58,33.58,0,0,1-.55,4.13c-.08.47-.18.93-.29,1.39a2.58,2.58,0,0,1-.09.35c-.15.66-.33,1.32-.53,2l-.12.41A5.64,5.64,0,0,0,197.94,82.2Z" transform="translate(-34.95 -19.16)"/><path class="cls-4" d="M197.94,82.2a6,6,0,0,0-3.35-2.47s0,0,0,0A6,6,0,0,1,197.94,82.2Z" transform="translate(-34.95 -19.16)"/><path class="cls-4" d="M197.19,86.11l.21-.59c-.07.21-.15.42-.22.64C197.18,86.14,197.19,86.13,197.19,86.11Z" transform="translate(-34.95 -19.16)"/><path class="cls-4" d="M195.48,59.54s3.67,2.31,4.39,9.55c0,0,0,0,0,0v0c-.72-7.24-4.39-9.54-4.39-9.54a1,1,0,0,0-.62-.09A.91.91,0,0,1,195.48,59.54Z" transform="translate(-34.95 -19.16)"/><path class="cls-4" d="M191.37,71.54c.55-5.74,1.59-11,3.16-12a.51.51,0,0,1,.15-.07l.16,0a1,1,0,0,1,.62.09s3.67,2.3,4.39,9.54v0a7.52,7.52,0,0,1-2.42,3.4,5.61,5.61,0,0,1-1.11.64l-.39.15a5.12,5.12,0,0,1-1.24.22,3,3,0,0,0-.27-.42,3.83,3.83,0,0,0-2.93-1.58Z" transform="translate(-34.95 -19.16)"/><path class="cls-5" d="M195.13,78.59a6,6,0,0,0-.46-5h0A6,6,0,0,1,195.13,78.59Z" transform="translate(-34.95 -19.16)"/><path class="cls-5" d="M194.61,79.7s0,0,0,0a3.73,3.73,0,0,1-2.18,1.66,3.83,3.83,0,0,0,2.18-1.7Z" transform="translate(-34.95 -19.16)"/><path class="cls-2" d="M192.73,116.53a12.35,12.35,0,0,0,2.32-.24,12.28,12.28,0,0,1-2.33.26S192.73,116.54,192.73,116.53Z" transform="translate(-34.95 -19.16)"/><path class="cls-2" d="M193.65,255.55l.14.09Z" transform="translate(-34.95 -19.16)"/><path class="cls-2" d="M193.46,255.41l-.17-.17A1.37,1.37,0,0,1,193.46,255.41Z" transform="translate(-34.95 -19.16)"/><path class="cls-2" d="M193,254.93l.28.31A2.89,2.89,0,0,1,193,254.93Z" transform="translate(-34.95 -19.16)"/><path class="cls-2" d="M193,254.93a6.33,6.33,0,0,1-.81-1.33A7.3,7.3,0,0,0,193,254.93Z" transform="translate(-34.95 -19.16)"/><path class="cls-2" d="M192.13,253.46l.07.14A.37.37,0,0,1,192.13,253.46Z" transform="translate(-34.95 -19.16)"/><path class="cls-5" d="M190.85,80.36c.06-2.46.2-5.28.44-8v-.11a2.32,2.32,0,0,0,.06-.59.13.13,0,0,1,0-.06h.12a3.82,3.82,0,0,1,2.94,1.52,3,3,0,0,1,.27.42.08.08,0,0,1,0,0h0a6,6,0,0,1,.46,5,5.81,5.81,0,0,1-.52,1.1h0a3.83,3.83,0,0,1-2.18,1.7,3.7,3.7,0,0,1-.94.16,2.56,2.56,0,0,1-.62-.07Z" transform="translate(-34.95 -19.16)"/><path class="cls-5" d="M191.29,72.25a2.41,2.41,0,0,1,.06-.59A2.32,2.32,0,0,1,191.29,72.25Z" transform="translate(-34.95 -19.16)"/><path class="cls-4" d="M190.85,81.48a2.56,2.56,0,0,0,.62.07,3.89,3.89,0,0,0,3.12-1.82,6,6,0,0,1,3.35,2.47,5.64,5.64,0,0,1,.31.53c-.23.82-.48,1.66-.76,2.53a2,2,0,0,0-.09.26l-.21.59s0,0,0,0a1.52,1.52,0,0,1-.09.28A4,4,0,0,1,193,89.11a2.11,2.11,0,0,1-1.85-1.61,31.08,31.08,0,0,1-.29-6Z" transform="translate(-34.95 -19.16)"/><path class="cls-4" d="M190.83,81.48h0a31.08,31.08,0,0,0,.29,6A2.11,2.11,0,0,0,193,89.11a4,4,0,0,0,4.11-2.67A4,4,0,0,1,193,89.16a2.11,2.11,0,0,1-1.85-1.61A31.6,31.6,0,0,1,190.83,81.48Z" transform="translate(-34.95 -19.16)"/><path class="cls-2" d="M189.47,124.54l1-5s1.11-1.38,2.16-3h0c-1.06,1.61-2.17,3-2.17,3l-1,5L187.66,130a14.34,14.34,0,0,1-1.39,3l0,0,0-.08a14.55,14.55,0,0,0,1.37-3Z" transform="translate(-34.95 -19.16)"/><path class="cls-2" d="M186.25,133l0,0,0,.08Z" transform="translate(-34.95 -19.16)"/><path class="cls-2" d="M186.25,133v0l0,0a13.3,13.3,0,0,1-2.07,2.6,12.88,12.88,0,0,0,1.73-2.1C186,133.41,186.13,133.22,186.25,133Z" transform="translate(-34.95 -19.16)"/><path class="cls-2" d="M183.25,142.53a11.17,11.17,0,0,1-4.47,5.78,22.71,22.71,0,0,1-4.35,2.42c-.51.21-1,.42-1.56.61-.34.13-.68.24-1,.35-.89.29-1.82.55-2.78.77s-2,.43-3,.58a44,44,0,0,1-6.5.48,38.38,38.38,0,0,1-14.86-2.78c-4.08-1.75-7.08-4.19-8.4-7a6.5,6.5,0,0,1-.25-.61,6.6,6.6,0,0,1-.2-.63l-2-5.39a18.36,18.36,0,0,0,1.88,1.52c.21.15.43.3.66.44a16.15,16.15,0,0,0,5.1,2.19c.3.08.64.14,1,.2h0a2.46,2.46,0,0,0,.16.59,4,4,0,0,0,.33.61,4.2,4.2,0,0,0,.48.6,11.26,11.26,0,0,0,4.45,2.54A37.39,37.39,0,0,0,160,147.58c9.66,0,17.5-2.91,17.5-6.5a3,3,0,0,0,0-.42,3.22,3.22,0,0,0-.22-.73c-.05-.1-.11-.2-.17-.3l.64-.24h0l1.78-.71h0l.48-.19h0l.6-.25.2-.09L181,138h0a10.9,10.9,0,0,0,1.59-1,12.37,12.37,0,0,0,1.56-1.32,13.3,13.3,0,0,0,2.07-2.6l-3,9.42Z" transform="translate(-34.95 -19.16)"/><path class="cls-2" d="M182.59,137a12.37,12.37,0,0,0,1.56-1.32A12.37,12.37,0,0,1,182.59,137Z" transform="translate(-34.95 -19.16)"/><path class="cls-2" d="M181,138h0Z" transform="translate(-34.95 -19.16)"/><path class="cls-2" d="M180.8,138.12,181,138Z" transform="translate(-34.95 -19.16)"/><path class="cls-2" d="M180,138.46l.6-.25Z" transform="translate(-34.95 -19.16)"/><path class="cls-2" d="M179.51,138.66l.48-.19Z" transform="translate(-34.95 -19.16)"/><path class="cls-2" d="M179.51,138.66h0Z" transform="translate(-34.95 -19.16)"/><path class="cls-2" d="M178.08,252.65a5.89,5.89,0,0,0-.64.42A5.89,5.89,0,0,1,178.08,252.65Z" transform="translate(-34.95 -19.16)"/><path class="cls-2" d="M177.72,139.38h0Z" transform="translate(-34.95 -19.16)"/><path class="cls-2" d="M177.05,139.6c1.77-.68,3.45-1.36,3.94-1.61a10.9,10.9,0,0,0,1.59-1,13.63,13.63,0,0,0,3.3-3.39,12.88,12.88,0,0,1-1.73,2.1,12.37,12.37,0,0,1-1.56,1.32,10.9,10.9,0,0,1-1.59,1h0l-.19.09-.2.09-.6.25h0l-.48.19h0l-1.78.71h0l-.64.24h0A0,0,0,0,0,177.05,139.6Z" transform="translate(-34.95 -19.16)"/><path class="cls-6" d="M177.07,139.63c.06.1.12.2.17.3a2.82,2.82,0,0,0-.18-.29h0Z" transform="translate(-34.95 -19.16)"/><path class="cls-2" d="M177,263.35v0a9.08,9.08,0,0,1-4.54-1.15A9.32,9.32,0,0,0,177,263.35Z" transform="translate(-34.95 -19.16)"/><path class="cls-2" d="M177.43,253.07a9.74,9.74,0,0,0-.82.71A7.09,7.09,0,0,1,177.43,253.07Z" transform="translate(-34.95 -19.16)"/><path class="cls-2" d="M177,263.35c-.63-1.38-1.17-2.61-1.59-3.59a5.27,5.27,0,0,1,.69-5.47,5.79,5.79,0,0,1,.48-.51c-.16.17-.32.34-.46.51a5.27,5.27,0,0,0-.69,5.47c.42,1,1,2.22,1.6,3.61h0Z" transform="translate(-34.95 -19.16)"/><ellipse class="cls-7" cx="140.54" cy="102.39" rx="2" ry="1"/><path class="cls-2" d="M172.87,151.34c.54-.19,1-.4,1.56-.61C173.92,151,173.4,151.15,172.87,151.34Z" transform="translate(-34.95 -19.16)"/><path class="cls-2" d="M169.07,152.46c1-.22,1.89-.48,2.78-.77C171,152,170,152.24,169.07,152.46Z" transform="translate(-34.95 -19.16)"/><ellipse class="cls-7" cx="111.54" cy="102.39" rx="2" ry="1"/><path class="cls-6" d="M160,147.55c-7.59,0-14.07-1.8-16.49-4.3a5.26,5.26,0,0,1-.48-.6,4,4,0,0,1-.33-.61l-.16-.59a7.6,7.6,0,0,0,1.08.11,12,12,0,0,1,2.14.37,50.52,50.52,0,0,0,20.74.66c.64-.1,5.26-1.06,5.86-1.23s2.7-1,4.7-1.72h0a2.82,2.82,0,0,1,.18.29,3.22,3.22,0,0,1,.22.73,2.56,2.56,0,0,1,0,.39C177.49,144.64,169.65,147.55,160,147.55Z" transform="translate(-34.95 -19.16)"/><path class="cls-6" d="M166.49,142.59a50.52,50.52,0,0,1-20.74-.66,12,12,0,0,0-2.14-.37,7.6,7.6,0,0,1-1.08-.11h0a0,0,0,0,1,0,0c.35.05.72.08,1.09.11a12,12,0,0,1,2.14.37,50.52,50.52,0,0,0,20.74.66c.64-.1,5.24-1.06,5.86-1.23s2.7-.95,4.7-1.72a0,0,0,0,1,0,0h0c-2,.77-4.1,1.55-4.7,1.72S167.13,142.49,166.49,142.59Z" transform="translate(-34.95 -19.16)"/><path class="cls-6" d="M142.53,141.45l.16.59A2.46,2.46,0,0,1,142.53,141.45Z" transform="translate(-34.95 -19.16)"/><path class="cls-2" d="M141.52,141.25a16.15,16.15,0,0,1-5.1-2.19.09.09,0,0,0,.06,0,15.77,15.77,0,0,0,2.74,1.41,16.79,16.79,0,0,0,2.31.74c.34.08.68.14,1,.2h0C142.16,141.39,141.82,141.33,141.52,141.25Z" transform="translate(-34.95 -19.16)"/><path class="cls-2" d="M136.48,139.09a.09.09,0,0,1-.06,0c-.23-.14-.45-.29-.66-.44a18.36,18.36,0,0,1-1.88-1.52v0a19.79,19.79,0,0,0,1.95,1.58C136,138.8,136.25,139,136.48,139.09Z" transform="translate(-34.95 -19.16)"/><path class="cls-2" d="M159.53,153.53c-11.21,0-20.62-4.16-23.26-9.79l-.22-.62a6.5,6.5,0,0,0,.25.61c1.32,2.82,4.32,5.26,8.4,7a38.38,38.38,0,0,0,14.86,2.78,44,44,0,0,0,6.5-.48A43,43,0,0,1,159.53,153.53Z" transform="translate(-34.95 -19.16)"/><path class="cls-2" d="M135.81,142.5l.44,1.21A6.48,6.48,0,0,1,135.81,142.5Z" transform="translate(-34.95 -19.16)"/><path class="cls-2" d="M135.85,142.49a6.6,6.6,0,0,0,.2.63l-.23-.62-2-5.44a.1.1,0,0,0,0,0Z" transform="translate(-34.95 -19.16)"/><path class="cls-2" d="M133.87,137.07v0a.1.1,0,0,1,0,0v0Z" transform="translate(-34.95 -19.16)"/><path class="cls-2" d="M125.78,206.81c.77.78,3.09,3.88,4.74,13.74h0C128.87,210.8,126.58,207.65,125.78,206.81Z" transform="translate(-34.95 -19.16)"/><path class="cls-2" d="M127.49,124.06a14.35,14.35,0,0,0-1.1-5c-.23-.52-.47-1-.74-1.51h0c.27.5.51,1,.74,1.51a14.35,14.35,0,0,1,1.1,5c.1,1.71.74,4.93,3.53,9.64a12.75,12.75,0,0,0,1.72,2.28c.3.32.66.68,1.07,1.06l0,0-.05,0v0l-.07-.06q-.58-.56-1-1A12.75,12.75,0,0,1,131,133.7C128.23,129,127.59,125.77,127.49,124.06Z" transform="translate(-34.95 -19.16)"/><path class="cls-2" d="M125.69,206.73l-.07-.07A.22.22,0,0,1,125.69,206.73Z" transform="translate(-34.95 -19.16)"/><path class="cls-2" d="M125.62,206.66s0,0,0,0Z" transform="translate(-34.95 -19.16)"/><path class="cls-2" d="M125.58,117.54h0Z" transform="translate(-34.95 -19.16)"/><path class="cls-7" d="M125.39,76.13c0,.31.06.62.08.94C125.44,76.76,125.42,76.44,125.39,76.13Z" transform="translate(-34.95 -19.16)"/><path class="cls-2" d="M125.24,117.68l.17-.05a.88.88,0,0,1-.36.1A.67.67,0,0,0,125.24,117.68Z" transform="translate(-34.95 -19.16)"/><path class="cls-7" d="M125.23,74.57a0,0,0,0,0,0,0A0,0,0,0,1,125.23,74.57Z" transform="translate(-34.95 -19.16)"/><path class="cls-7" d="M121.55,79.53a5.46,5.46,0,0,1,1.63-4h0a3.39,3.39,0,0,1,2.06-1,0,0,0,0,0,0,0c0,.18,0,.38.05.56s.07.64.1,1,0,.63.08.94c.16,2,.27,3.88.33,5.65,0,.66,0,1.24,0,1.8a1.93,1.93,0,0,1-.34,0,3.68,3.68,0,0,1-2.92-1.58l-.23-.34a4.36,4.36,0,0,1-.23-.42A5.75,5.75,0,0,1,121.55,79.53Z" transform="translate(-34.95 -19.16)"/><path class="cls-7" d="M125.23,74.52v0a0,0,0,0,0,0,0Z" transform="translate(-34.95 -19.16)"/><path class="cls-4" d="M125.22,74.52a0,0,0,0,1,0,0h0Z" transform="translate(-34.95 -19.16)"/><path class="cls-4" d="M124.63,70.31c-.09-.51-.18-1-.28-1.5C124.45,69.3,124.55,69.8,124.63,70.31Z" transform="translate(-34.95 -19.16)"/><path class="cls-4" d="M125.23,74.57a3.39,3.39,0,0,0-2.06,1h0a3.43,3.43,0,0,1,2.07-1h0Z" transform="translate(-34.95 -19.16)"/><path class="cls-4" d="M125.22,74.55a3.43,3.43,0,0,0-2.07,1,0,0,0,0,1,0,0,3.41,3.41,0,0,1,2.1-1Z" transform="translate(-34.95 -19.16)"/><path class="cls-4" d="M123.42,65.37c.08.21.15.43.22.66Z" transform="translate(-34.95 -19.16)"/><path class="cls-4" d="M123.05,64.46a4.87,4.87,0,0,1,.24.57Z" transform="translate(-34.95 -19.16)"/><path class="cls-3" d="M123.12,75.55l0,0h0l0,0h0Z" transform="translate(-34.95 -19.16)"/><path class="cls-3" d="M123.15,75.52l0,0,0,0h0l0,0h0A0,0,0,0,0,123.15,75.52Z" transform="translate(-34.95 -19.16)"/><path class="cls-4" d="M122.81,64l.09.19c-.08-.16-.16-.3-.24-.44a1.59,1.59,0,0,1,.13.22Z" transform="translate(-34.95 -19.16)"/><path class="cls-4" d="M123.06,92.16a4.51,4.51,0,0,1-4.5-2.85,8,8,0,0,1,3.49-6.08l.14-.07.38-.19s0,0,0,0h0a3.68,3.68,0,0,0,2.92,1.58,1.93,1.93,0,0,0,.34,0,27.38,27.38,0,0,1-.34,6A2.39,2.39,0,0,1,124.06,92a2.35,2.35,0,0,1-.7.14Z" transform="translate(-34.95 -19.16)"/><path class="cls-3" d="M122.56,83s0,0,0,0l-.38.19-.14.07.14-.1.36-.18Z" transform="translate(-34.95 -19.16)"/><path class="cls-3" d="M121.6,78.36a5.39,5.39,0,0,1,1.48-2.8h0A5.42,5.42,0,0,0,121.6,78.36Z" transform="translate(-34.95 -19.16)"/><path class="cls-2" d="M122.1,63a.57.57,0,0,1,.11.11A1.14,1.14,0,0,0,122.1,63Z" transform="translate(-34.95 -19.16)"/><path class="cls-3" d="M122.11,82.18a4.36,4.36,0,0,0,.23.42l.21.35a5.65,5.65,0,0,1-1-2.45A5.53,5.53,0,0,0,122.11,82.18Z" transform="translate(-34.95 -19.16)"/><path class="cls-3" d="M121.49,79.55a5.28,5.28,0,0,1,.11-1.19,5.42,5.42,0,0,1,1.5-2.79h0l0,0h0a5.46,5.46,0,0,0-1.63,4,5.75,5.75,0,0,0,.56,2.65,5.53,5.53,0,0,1-.55-1.68A5,5,0,0,1,121.49,79.55Z" transform="translate(-34.95 -19.16)"/><path class="cls-2" d="M121.35,116a13.35,13.35,0,0,1-3.95-3.17h0a13.27,13.27,0,0,0,4,3.17c1.3.69,2.63,1.78,3.61,1.71C124,117.87,122.69,116.74,121.35,116Z" transform="translate(-34.95 -19.16)"/><path class="cls-2" d="M121.41,116a13.27,13.27,0,0,1-4-3.17l0-.08a13.31,13.31,0,0,0,4,3.23c1.39.73,2.76,1.92,3.79,1.67a.67.67,0,0,1-.19,0h0C124,117.81,122.71,116.72,121.41,116Z" transform="translate(-34.95 -19.16)"/><path class="cls-4" d="M120.16,63a12.77,12.77,0,0,0-1.79,2.41A13,13,0,0,1,120.12,63a1.34,1.34,0,0,1,1.8-.22l0,0A1.33,1.33,0,0,0,120.16,63Z" transform="translate(-34.95 -19.16)"/><path class="cls-2" d="M117.74,66.67A13.28,13.28,0,0,1,120.12,63a1.33,1.33,0,0,1,1.79-.2,1.21,1.21,0,0,1,.16.16l-.12-.11,0,0a1.34,1.34,0,0,0-1.8.22,13,13,0,0,0-1.75,2.42c-.14.24-.27.48-.39.73Z" transform="translate(-34.95 -19.16)"/><path class="cls-3" d="M123.08,75.56c-2.74-.24-5-2.94-5.48-6.47.52,3.53,2.77,6.21,5.51,6.44Z" transform="translate(-34.95 -19.16)"/><path class="cls-2" d="M121.94,83.28a8,8,0,0,0-3.38,5.51A6,6,0,0,1,121.94,83.28Z" transform="translate(-34.95 -19.16)"/><path class="cls-3" d="M118.56,88.79v.07h0A.17.17,0,0,0,118.56,88.79Z" transform="translate(-34.95 -19.16)"/><path class="cls-3" d="M118.45,88.84c-3.29-10.71-2-16.14-1-21.26a10.62,10.62,0,0,0,.11,1.51c.5,3.53,2.74,6.23,5.48,6.47a5.39,5.39,0,0,0-1.48,2.8,5.28,5.28,0,0,0-.11,1.19,5,5,0,0,0,.07,1,5.65,5.65,0,0,0,1,2.45l-.36.18-.14.1-.11,0,.2-.14a6,6,0,0,0-3.63,5.5v.2Z" transform="translate(-34.95 -19.16)"/><path class="cls-3" d="M121.94,83.28a6,6,0,0,0-3.38,5.51.17.17,0,0,1,0,.07h-.09s0,0,0,0h.06v-.2a6,6,0,0,1,3.63-5.5Z" transform="translate(-34.95 -19.16)"/><path class="cls-3" d="M117.55,67.53c0,4.22,2.46,7.68,5.57,8h0c-2.74-.23-5-2.91-5.51-6.44a10.62,10.62,0,0,1-.11-1.51h0l.06-.3Z" transform="translate(-34.95 -19.16)"/><path class="cls-2" d="M117.52,263.57l-2,1v0l2-1c9-6,10-11,11-16s2-6,2-6a21.77,21.77,0,0,0,6-10c.48-4.75-.86-7.47-2.38-9,1.54,1.53,2.89,4.26,2.41,9a21.77,21.77,0,0,1-6,10s-1,1-2,6S126.52,257.57,117.52,263.57Z" transform="translate(-34.95 -19.16)"/><path class="cls-4" d="M117.5,67.27c.15-.37.31-.73.48-1.09s.25-.49.39-.73A12.77,12.77,0,0,1,120.16,63a1.33,1.33,0,0,1,1.79-.2l.12.11s0,0,0,0a1.14,1.14,0,0,1,.11.11,2.37,2.37,0,0,1,.3.39l.13.2a.08.08,0,0,1,0,0c.08.14.16.28.24.44l0,0c0,.09.09.18.13.28l.24.57.13.34.22.66c.26.83.5,1.77.71,2.78.1.49.19,1,.28,1.5.23,1.33.43,2.76.59,4.21a3.41,3.41,0,0,0-2.1,1c-3.11-.31-5.57-3.77-5.57-8v-.26l-.06.3v-.26h0A0,0,0,0,1,117.5,67.27Z" transform="translate(-34.95 -19.16)"/><path class="cls-2" d="M117.49,67.27s0,0,0,0v0a0,0,0,0,0,0,0Z" transform="translate(-34.95 -19.16)"/><path class="cls-2" d="M118.46,88.86h.09c0,.15,0,.31,0,.46a4.5,4.5,0,0,0,4.55,2.84l.3,0a1.82,1.82,0,0,0,.7-.14,2.35,2.35,0,0,0,1.43-1.44v0a27.38,27.38,0,0,0,.34-6V82.77c-.08-2.35-.24-5-.51-7.56a2.11,2.11,0,0,0-.06-.61c-.46-4.25-1.22-8.24-2.34-10.42a2.12,2.12,0,0,0-.11-.21l0,0a1.35,1.35,0,0,0-.15-.26l-.13-.2a2.37,2.37,0,0,0-.3-.39.57.57,0,0,0-.11-.11s0,0,0,0a1.21,1.21,0,0,0-.16-.16,1.33,1.33,0,0,0-1.79.2,13.28,13.28,0,0,0-2.38,3.68c-.09.19-.17.39-.24.58,0,0,0,0,0,0v0h0c-1,5.2-2.44,10.63.92,21.53h0S118.46,88.85,118.46,88.86Zm74.51.3a4,4,0,0,0,4.12-2.72,1.52,1.52,0,0,0,.09-.28c.07-.22.15-.43.22-.64a2,2,0,0,1,.09-.26c.29-.86.54-1.71.76-2.53l.12-.41c.2-.65.38-1.31.53-2A2.58,2.58,0,0,0,199,80c.11-.46.2-.92.29-1.39a33.58,33.58,0,0,0,.55-4.13,35.91,35.91,0,0,0,0-5.39c-.72-7.24-4.39-9.54-4.39-9.55a.91.91,0,0,0-.64-.08l-.16,0a.51.51,0,0,0-.15.07c-1.61.88-2.63,6.2-3.18,12v.11a2.41,2.41,0,0,0-.06.59.13.13,0,0,1,0,.06c-.24,2.76-.38,5.58-.44,8v1.17h0a31.6,31.6,0,0,0,.29,6.07A2.11,2.11,0,0,0,193,89.16Zm-17.48,33.39c1.1,0,2-.45,2-1s-.9-1-2-1-2,.45-2,1S174.39,122.55,175.49,122.55Zm-45-89c.69-.5,29-31,63,0,0,0,7.74.49,11,7,0,0,4,16,0,23l-.57,1.7a5.58,5.58,0,0,0-.2,2.66L203.9,69a87.5,87.5,0,0,1-1.21,35.34,49.88,49.88,0,0,1-2.2,7.17,5.26,5.26,0,0,1-.5,1.26,6.75,6.75,0,0,1-3.76,3.14,8.69,8.69,0,0,1-1.18.34,12.35,12.35,0,0,1-2.32.24s0,0,0,0h-.09c-1,1.61-2.16,3-2.16,3l-1,5L187.64,130a14.55,14.55,0,0,1-1.37,3l0,0c-.12.2-.24.39-.37.58a13.63,13.63,0,0,1-3.3,3.39,10.9,10.9,0,0,1-1.59,1c-.49.25-2.17.93-3.94,1.61-2,.77-4.08,1.55-4.7,1.72s-5.22,1.13-5.86,1.23a50.52,50.52,0,0,1-20.74-.66,12,12,0,0,0-2.14-.37c-.37,0-.74-.06-1.09-.11a0,0,0,0,0,0,0c-.32-.06-.66-.12-1-.2a16.79,16.79,0,0,1-2.31-.74,15.77,15.77,0,0,1-2.74-1.41c-.23-.14-.45-.29-.66-.44a19.79,19.79,0,0,1-1.95-1.58l0,0c-.41-.38-.77-.74-1.07-1.06a12.75,12.75,0,0,1-1.72-2.28c-2.79-4.71-3.43-7.93-3.53-9.64a14.35,14.35,0,0,0-1.1-5c-.23-.51-.47-1-.74-1.51h-.13l-.15.08-.17.05c-1,.25-2.4-.94-3.79-1.67a13.31,13.31,0,0,1-4-3.23l0,.08-.06,0h0a15.14,15.14,0,0,1-2.93-5.76c-.63-2.47-1.47-5.66-2.28-8.66a43.83,43.83,0,0,1-.64-19.89L114,66a9,9,0,0,0-.29-4.7l-1.23-3.7c-3-7,6-17,6-17C123.56,32.32,130.88,34.19,130.49,33.55Zm16,89c1.1,0,2-.45,2-1s-.9-1-2-1-2,.45-2,1S145.39,122.55,146.49,122.55Z" transform="translate(-34.95 -19.16)"/><path class="cls-2" d="M102.49,261.55s2-5,8-3c.29.1.57.2.83.31-.25-.1-.52-.2-.8-.29-6-2-8,3-8,3s-.14.3-.36.83l-.08.1,0-.12C102.35,261.85,102.49,261.55,102.49,261.55Z" transform="translate(-34.95 -19.16)"/><path class="cls-2" d="M100.52,264.31l1.61-1.93,0,.12-1.53,1.83-.06.07v0Z" transform="translate(-34.95 -19.16)"/><path class="cls-2" d="M100.49,264.4l-.94,1.13v0l.95-1.14Z" transform="translate(-34.95 -19.16)"/><path class="cls-2" d="M84.62,261.89c.29-.47.58-.93.9-1.38,3.78-5.31,5.56-6.1,7.65-5.28-2.08-.8-3.86,0-7.62,5.3-.32.45-.61.91-.9,1.38h0Z" transform="translate(-34.95 -19.16)"/><path class="cls-2" d="M72.49,255.55a7.8,7.8,0,0,1,2.29-1.62,7.87,7.87,0,0,0-2.23,1.6,19.8,19.8,0,0,0-1.36,1.53v0A18.32,18.32,0,0,1,72.49,255.55Z" transform="translate(-34.95 -19.16)"/><path class="cls-2" d="M74.47,201.73a16.56,16.56,0,0,1-3.69,6.19A4.12,4.12,0,0,1,69,209.21a4.8,4.8,0,0,0,1.64-1.27,16.56,16.56,0,0,0,3.69-6.19c4.06-11.87,10.12-16.2,10.12-16.2l20-32,14-11-.08.12-13.82,10.86-20,32S78.53,189.86,74.47,201.73Z" transform="translate(-34.95 -19.16)"/><path class="cls-2" d="M136.25,143.71l-.44-1.21A6.48,6.48,0,0,0,136.25,143.71Zm23.28,9.82a43,43,0,0,0,6.53-.49c1-.15,2-.35,3-.58s1.89-.48,2.78-.77c.34-.11.68-.22,1-.35.53-.19,1-.39,1.56-.61a22.71,22.71,0,0,0,4.35-2.42,11.07,11.07,0,0,0,4.5-5.79l3.06-9.51a14.34,14.34,0,0,0,1.39-3l1.83-5.48,1-5s1.1-1.38,2.16-3a12.28,12.28,0,0,0,2.33-.26,8.69,8.69,0,0,0,1.18-.34,6.74,6.74,0,0,0,3.79-3.09,94.89,94.89,0,0,1,8.47,14.69c3,7,13,14,13,14s12,2,21,10,10,12,12,13,6,3,8,6c1.85,2.77.28,6.39,0,6.93-.4-.6-4.07-5.78-10-4.68a10.25,10.25,0,0,0-2.18.64,18,18,0,0,0-5.78,4.07l-.05,0c-.71-.46-6.25-4-11-2.9a6,6,0,0,0-1,.3c-2.62,1-4.87,3.56-5.76,9.14,0,.25-.08.51-.11.77s-.07.51-.1.77a1.33,1.33,0,0,1-.49.36.85.85,0,0,1-.24.08,1.27,1.27,0,0,1-.28,0c-1.52,0-4.48-2.37-7.92-17.49,0,0-4-14-11-17-6.32-2.71-13.45-9.49-15.51-16.66-.29-1.23-.5-2.08-.55-2.27,0,0,0,.05,0,.07a0,0,0,0,0,0,0,13.24,13.24,0,0,0,.43,2.08l0,.11a39.2,39.2,0,0,1,.51,4.71s9,12,3,34c0,0,10,18,7,30s-1,15-1,15,22,22,23,28a3.76,3.76,0,0,0,0,1.06,8,8,0,0,0-7.46-.08,10,10,0,0,0-2.59,1.93,3.19,3.19,0,0,0-.26.26,12.6,12.6,0,0,0-1.19,1.46l-.27.38c-.27.42-.41.69-.41.69l-.07-.09a10.67,10.67,0,0,0-3.62-3.38,5.59,5.59,0,0,0-.6-.3,5.9,5.9,0,0,0-.63-.25,7.87,7.87,0,0,0-5.9.32c-7,3-6,7-6,7l.17.29a1.33,1.33,0,0,1-.87-.2l-.14-.09a1.33,1.33,0,0,0-.19-.14,1.37,1.37,0,0,0-.17-.17l-.28-.31a7.3,7.3,0,0,1-.81-1.33l-.07-.14c-.08-.15-.15-.31-.22-.48a11.27,11.27,0,0,1,.58,2.57c0,2-2,3.56-2,3.56v0a14,14,0,0,0-.43-3.35,4.5,4.5,0,0,0-2.85-3.13h0l-.72-.24c-3.91-1.22-6.58-.76-8.39.28a5.89,5.89,0,0,0-.64.42h0a7.09,7.09,0,0,0-.82.71,5.79,5.79,0,0,0-.48.51,5.27,5.27,0,0,0-.69,5.47c.42,1,1,2.21,1.59,3.59a9.32,9.32,0,0,1-4.53-1.13,4.28,4.28,0,0,1-2-2.67c-1-4-4-13-4-13a57.14,57.14,0,0,1-1.28-10,11.29,11.29,0,0,0-1.4-5.51c-1-1.68-1.86-3.86-1.32-5.47,1-3,1-5,6-7,0,0,3-9,8-12l.23-.09h0a7.17,7.17,0,0,1-.24-.91,16.43,16.43,0,0,0-2-5.07,22.58,22.58,0,0,0-3-3.93,17.6,17.6,0,0,1-5.83,1h-.17s-24.88.71-27,0a29,29,0,0,1-6-2.07l-.16.29a36.32,36.32,0,0,0-6.83,10.78h0l.06,0s0,0,0,0l.07.07.09.08c.8.84,3.09,4,4.71,13.74h0v0a5.77,5.77,0,0,1,1.18.35,7.21,7.21,0,0,1,2.41,1.61c1.52,1.55,2.86,4.27,2.38,9a21.77,21.77,0,0,1-6,10s-1,1-2,6-2,10-11,16l-2,1a4.37,4.37,0,0,0-1.28-3.77l-.18-.18a8.24,8.24,0,0,0-2.75-1.72c-.26-.11-.54-.21-.83-.31-6-2-8,3-8,3s-.14.3-.36.83l-1.61,1.93,0,0-.95,1.14a25.59,25.59,0,0,0-2.45-7.21c-.07-.11-.13-.22-.2-.32a5.81,5.81,0,0,0-.4-.57l0,0a4.35,4.35,0,0,0-.46-.49,3.32,3.32,0,0,0-.49-.37,14.81,14.81,0,0,0-2.35-1.28c-2.09-.82-3.87,0-7.65,5.28-.32.45-.61.91-.9,1.38h0a2.5,2.5,0,0,1-.89-.49c-1-.89-1-2.66-.18-5.88l0,0c-.39-.31-3.8-2.91-7.51-2a6.09,6.09,0,0,0-1.22.42,7.8,7.8,0,0,0-2.29,1.62A18.32,18.32,0,0,0,71.18,257l-.29-2a9.1,9.1,0,0,1,1.7-6.88c1.76-2.23,3.86-2.16,6-3.56,3-2,21-21,21-21s1-9,0-11-1-8-1-8c0-10,15-29,15-29-7-15,5-33,5-33l-.18.14.08-.12-14,11-20,32s-6.06,4.33-10.12,16.2a16.56,16.56,0,0,1-3.69,6.19A4.8,4.8,0,0,1,69,209.21s-.05,0-.07,0c-.23,0-.38-.21-.38-.69,0-11.13-4.84-12.1-7.78-11.65a7.39,7.39,0,0,0-.76.14,8.17,8.17,0,0,0-1.41.46c7.92-8,0-11.95,0-11.95,6-5,6-13,6-13,0-6.82-3.87-7.83-7.22-7.42a13.37,13.37,0,0,0-2,.39,16.31,16.31,0,0,0-2.77,1c0-.21.39-1.46,4-6,1.81-2.27,9.17-4.74,16.67-6.77l.68-.18.88-.23c8.49-2.22,16.67-3.8,16.67-3.8l.1,0c6-13,15-17,15-17l10.81-19.66a13.35,13.35,0,0,0,3.95,3.17c1.34.7,2.66,1.83,3.67,1.7h0a.88.88,0,0,0,.36-.1l.15-.08h.09c.27.51.51,1,.74,1.51a14.35,14.35,0,0,1,1.1,5c.1,1.71.74,4.93,3.53,9.64a12.75,12.75,0,0,0,1.72,2.28q.44.47,1,1l.07.06,2,5.44.23.62.22.62C138.91,149.37,148.32,153.53,159.53,153.53Z" transform="translate(-34.95 -19.16)"/><path class="cls-2" d="M58.64,197.48a8.17,8.17,0,0,1,1.41-.46,7.83,7.83,0,0,0-1.46.51Z" transform="translate(-34.95 -19.16)"/><path class="cls-2" d="M52.6,166.5a16.31,16.31,0,0,1,2.77-1,16.47,16.47,0,0,0-2.78,1Z" transform="translate(-34.95 -19.16)"/><path class="cls-8" d="M117.35,112.81l.05.06a13.35,13.35,0,0,0,3.95,3.17c1.34.7,2.66,1.83,3.67,1.7h0a.67.67,0,0,0,.19,0,.88.88,0,0,0,.26-.12" transform="translate(-34.95 -19.16)"/><path class="cls-8" d="M192.49,116.55h.23a12.28,12.28,0,0,0,2.33-.26,8.69,8.69,0,0,0,1.18-.34,6.75,6.75,0,0,0,3.76-3.14,5.26,5.26,0,0,0,.5-1.26,49.88,49.88,0,0,0,2.2-7.17A87.5,87.5,0,0,0,203.9,69l-.18-1.13a5.58,5.58,0,0,1,.2-2.66l.57-1.7c4-7,0-23,0-23-3.26-6.51-11-7-11-7-34-31-62.31-.5-63,0,.39.64-6.93-1.23-12,7,0,0-9,10-6,17l1.23,3.7A9,9,0,0,1,114,66L111.5,78.49a43.83,43.83,0,0,0,.64,19.89c.81,3,1.65,6.19,2.28,8.66a15.14,15.14,0,0,0,2.93,5.76" transform="translate(-34.95 -19.16)"/><path class="cls-8" d="M186.27,133a14.55,14.55,0,0,0,1.37-3l1.83-5.48,1-5s1.11-1.38,2.16-3h0c.94-1.44,1.83-3.06,1.83-4,0-2,3-15,3-15" transform="translate(-34.95 -19.16)"/><path class="cls-8" d="M122.49,101.55s-1,8,1,12c.85,1.71,1.52,2.86,2.09,4h0c.27.5.51,1,.74,1.51a14.35,14.35,0,0,1,1.1,5c.1,1.71.74,4.93,3.53,9.64a12.75,12.75,0,0,0,1.72,2.28c.3.32.66.68,1.07,1.06" transform="translate(-34.95 -19.16)"/><line class="cls-8" x1="100.79" y1="62.7" x2="96.79" y2="69.7"/><line class="cls-8" x1="145.54" y1="63.39" x2="150.54" y2="70.39"/><path class="cls-8" d="M117.49,67.31c-1,5.2-2.44,10.63.92,21.53h.1" transform="translate(-34.95 -19.16)"/><path class="cls-8" d="M117.5,67.25v0a0,0,0,0,0,0,0" transform="translate(-34.95 -19.16)"/><path class="cls-8" d="M122.19,83.16l-.14.07-.11,0a6,6,0,0,0-3.38,5.51v.07" transform="translate(-34.95 -19.16)"/><path class="cls-8" d="M199.87,69.09a35.91,35.91,0,0,1,0,5.39,33.58,33.58,0,0,1-.55,4.13c-.08.47-.18.93-.29,1.39a2.58,2.58,0,0,1-.09.35c-.15.66-.33,1.32-.53,2l-.12.41" transform="translate(-34.95 -19.16)"/><path class="cls-8" d="M177.05,139.6c1.77-.68,3.45-1.36,3.94-1.61a10.9,10.9,0,0,0,1.59-1,13.63,13.63,0,0,0,3.3-3.39c.13-.19.25-.38.37-.58l0,0,0,.08-3,9.45h0a11.17,11.17,0,0,1-4.47,5.78,22.71,22.71,0,0,1-4.35,2.42c-.51.22-1,.42-1.56.61-.34.13-.68.24-1,.35-.89.29-1.82.55-2.78.77s-2,.43-3,.58a43,43,0,0,1-6.53.49c-11.21,0-20.62-4.16-23.26-9.79" transform="translate(-34.95 -19.16)"/><path class="cls-8" d="M135.76,142.47l-2-5.47.07.06a.1.1,0,0,0,0,0,18.36,18.36,0,0,0,1.88,1.52c.21.15.43.3.66.44a.09.09,0,0,0,.06,0,16.06,16.06,0,0,0,5,2.12c.34.08.68.14,1,.2" transform="translate(-34.95 -19.16)"/><line class="cls-8" x1="100.85" y1="123.31" x2="100.86" y2="123.34"/><path class="cls-8" d="M135.81,142.5l.44,1.21A6.48,6.48,0,0,1,135.81,142.5Z" transform="translate(-34.95 -19.16)"/><line class="cls-8" x1="148.26" y1="123.37" x2="148.14" y2="123.76"/><path class="cls-8" d="M177.05,139.6a0,0,0,0,1,0,0h0c.06.1.12.2.17.3a3.22,3.22,0,0,1,.22.73,2.56,2.56,0,0,1,0,.39c0,3.59-7.84,6.5-17.5,6.5-7.59,0-14.07-1.8-16.49-4.3a5.26,5.26,0,0,1-.48-.6,4,4,0,0,1-.33-.61,2.46,2.46,0,0,1-.16-.59h0a0,0,0,0,1,0,0c.35.05.72.08,1.09.11a12,12,0,0,1,2.14.37,50.52,50.52,0,0,0,20.74.66c.64-.1,5.24-1.06,5.86-1.23S175.05,140.37,177.05,139.6Z" transform="translate(-34.95 -19.16)"/><path class="cls-8" d="M190.52,132.7c.07.29.24,1,.43,2.08,0,0,0,.07,0,.11a39.2,39.2,0,0,1,.51,4.71,28.41,28.41,0,0,1-.07,3.69c-.43,4.68-2.32,9.33-7.93,10.26" transform="translate(-34.95 -19.16)"/><path class="cls-8" d="M190.49,132.55v0a.25.25,0,0,0,0,.07" transform="translate(-34.95 -19.16)"/><path class="cls-8" d="M262.48,177.53a11.48,11.48,0,0,0-1.47-1.74c-.22-.22-.47-.45-.74-.68a10.37,10.37,0,0,0-3.45-2,6.06,6.06,0,0,0-.86-.24,8.71,8.71,0,0,0-3.47-.08,10.25,10.25,0,0,0-2.18.64,18,18,0,0,0-5.78,4.07l0,0s-5.93-4.08-11-3a6,6,0,0,0-1,.3c-2.62,1-4.87,3.56-5.76,9.14,0,.25-.08.51-.11.77s-.07.51-.1.77a1.33,1.33,0,0,1-.49.36.85.85,0,0,1-.24.08,1.34,1.34,0,0,1-.35,0c-1.52,0-4.48-2.37-7.92-17.49,0,0-4-14-11-17-6.32-2.71-13.45-9.49-15.51-16.66l0-.11a13.24,13.24,0,0,1-.43-2.08,0,0,0,0,1,0,0s0,0,0-.07" transform="translate(-34.95 -19.16)"/><path class="cls-8" d="M200,112.81l0,0a94.89,94.89,0,0,1,8.47,14.69c3,7,13,14,13,14s12,2,21,10,10,12,12,13,6,3,8,6c1.85,2.77.28,6.39,0,6.93l0,.07" transform="translate(-34.95 -19.16)"/><path class="cls-8" d="M225.41,186a1.48,1.48,0,0,1,.28,0,0,0,0,0,1,0,0c1.14.09,5.36,1.08,8.78,10.5,4,11,4.42,11.58,6,10,2.19-2.19,3.31-6.67,3.86-11.43.08-.68.14-1.37.2-2.05a103.6,103.6,0,0,0,.16-11.82v0c-.09-2-.2-3.37-.22-3.62v0s0-.05,0-.08a22.54,22.54,0,0,0-7-13.92" transform="translate(-34.95 -19.16)"/><path class="cls-8" d="M252,193.05c.49.78,1,1.56,1.48,2.34l.39.62,0,0c.84,1.31,1.68,2.61,2.51,3.85l.39.58.21.31v0a55.36,55.36,0,0,0,5.43,7.19c.52.48.89.7,1.09.55,3.64-2.73-.18-26.2-.89-30.37a.5.5,0,0,1,0-.12c0-.19-.06-.33-.07-.42a.11.11,0,0,1,0-.05s0,0,0,0v0" transform="translate(-34.95 -19.16)"/><path class="cls-8" d="M244.71,181.25s3.34,5.64,7.2,11.79l0,0" transform="translate(-34.95 -19.16)"/><path class="cls-8" d="M244.55,193.07h.68l2.34-.06h.86a25.27,25.27,0,0,1,3.48.06h0" transform="translate(-34.95 -19.16)"/><path class="cls-8" d="M257,200.79s-3.47,18.76-8.47,20.76c-4.65,1.86-.65-24.85-.06-28.57l.06-.43" transform="translate(-34.95 -19.16)"/><path class="cls-8" d="M117.49,112.55l-.14.25h0l-10.86,19.74s-9,4-15,17c0,0-8.18,1.58-16.67,3.8l-.88.23-.68.18c-7.54,2-15,4.51-16.77,6.79-4,5-4,6-4,6l.11-.05a16.31,16.31,0,0,1,2.77-1,13.37,13.37,0,0,1,2-.39c3.32-.36,7.12.69,7.12,7.44,0,0,0,8-6,13,0,0,8,4,0,12l.15-.07a8.17,8.17,0,0,1,1.41-.46,7.39,7.39,0,0,1,.76-.14c2.95-.4,7.68.67,7.68,11.67,0,.48.15.68.38.69a.18.18,0,0,0,.1,0s0,0,.07,0a4.8,4.8,0,0,0,1.64-1.27,16.56,16.56,0,0,0,3.69-6.19c4.06-11.87,10.12-16.2,10.12-16.2l20-32,14-11-.08.12c-1,1.61-11.58,18.61-4.92,32.88,0,0-15,19-15,29,0,0,0,6,1,8s0,11,0,11-18,19-21,21c-2.1,1.4-4.2,1.33-6,3.56a9.1,9.1,0,0,0-1.7,6.88l.3,2.09" transform="translate(-34.95 -19.16)"/><path class="cls-8" d="M120.49,132.55a22.79,22.79,0,0,0-1.46,9.67,11.37,11.37,0,0,0,4.46,8.33" transform="translate(-34.95 -19.16)"/><path class="cls-8" d="M68.87,209.25s-9.38,9.31-11.38,17.31c-1.47,5.86-2.93-7.07-3.22-16.37a19.28,19.28,0,0,1,4.22-12.63l-1,1L45.76,215.74a1.59,1.59,0,0,1-2.72-.18c-1.57-3.2-2.85-10.69,5.33-25.78,0,0,0,0,0,0a2.12,2.12,0,0,1,.11-.21" transform="translate(-34.95 -19.16)"/><path class="cls-8" d="M52.49,166.55s-18,18.81-17,27.59a1.82,1.82,0,0,0,2,1.63,1.85,1.85,0,0,0,.77-.26c2.21-1.32,6.2-3.64,10.12-5.73l0,0c4.24-2.25,8.38-4.19,10.08-4.21h0" transform="translate(-34.95 -19.16)"/><path class="cls-8" d="M223.49,247.63a3.69,3.69,0,0,0,.18.65c1.83,5.12,2.85,19.33,1.82,19.27a47.89,47.89,0,0,1-13.14-13.62c-.29-.45-.58-.91-.86-1.38,0,0,1,20-2,24-1.33,1.78-13.25-18.06-14.83-20.71l-.17-.29s-1-4,6-7a7.87,7.87,0,0,1,5.9-.32,5.9,5.9,0,0,1,.63.25,5.59,5.59,0,0,1,.6.3,10.67,10.67,0,0,1,3.62,3.38l.07.09h0c.12.18.18.29.18.29" transform="translate(-34.95 -19.16)"/><path class="cls-8" d="M191.49,139.6s9,12,3,34c0,0,10,18,7,30s-1,15-1,15,22,22,23,28a3.76,3.76,0,0,0,0,1.06h0" transform="translate(-34.95 -19.16)"/><path class="cls-8" d="M177,263.37v0c-.63-1.38-1.17-2.61-1.59-3.59a5.27,5.27,0,0,1,.69-5.47,5.79,5.79,0,0,1,.48-.51,7.09,7.09,0,0,1,.82-.71h0a5.89,5.89,0,0,1,.64-.42c1.81-1,4.48-1.5,8.39-.28l.72.24a4.5,4.5,0,0,1,2.85,3.13,14.15,14.15,0,0,1,.43,3.37v.39c-.09,5.09-.56,18.44-3,20.05C185.46,280.9,180.25,270.33,177,263.37Z" transform="translate(-34.95 -19.16)"/><path class="cls-8" d="M211.31,252.25s.14-.27.41-.69l.27-.38a12.6,12.6,0,0,1,1.19-1.46,3.19,3.19,0,0,1,.26-.26,10,10,0,0,1,2.59-1.93,8,8,0,0,1,7.46.08l.12,0" transform="translate(-34.95 -19.16)"/><path class="cls-8" d="M211.49,251.55s-3-9-6-11" transform="translate(-34.95 -19.16)"/><path class="cls-8" d="M191.9,253c-1.11-3.65-3.41-9.4-3.41-9.4" transform="translate(-34.95 -19.16)"/><path class="cls-8" d="M190.47,259.11l0,0a5.24,5.24,0,0,0,2-3.54,11.27,11.27,0,0,0-.58-2.57" transform="translate(-34.95 -19.16)"/><path class="cls-8" d="M194.67,255.84h0a1.33,1.33,0,0,1-.87-.2l-.14-.09a1.33,1.33,0,0,0-.19-.14,1.37,1.37,0,0,0-.17-.17l-.28-.31a7.3,7.3,0,0,1-.81-1.33l-.07-.14-.21-.48" transform="translate(-34.95 -19.16)"/><path class="cls-8" d="M176.49,206.55c-5,3-8,12-8,12-5,2-5,4-6,7-.54,1.61.37,3.79,1.32,5.47a11.29,11.29,0,0,1,1.4,5.51,57.14,57.14,0,0,0,1.28,10s3,9,4,13a4.22,4.22,0,0,0,.53,1.24,4.45,4.45,0,0,0,1.48,1.45,9.32,9.32,0,0,0,4.53,1.13h0" transform="translate(-34.95 -19.16)"/><path class="cls-8" d="M171.49,196.55l0,0a22.58,22.58,0,0,1,3,3.93,16.54,16.54,0,0,1,2,5.05,7.17,7.17,0,0,0,.24.91v0c1.5,4.44,6.75,7.07,6.75,7.07" transform="translate(-34.95 -19.16)"/><line class="cls-8" x1="152.54" y1="191.39" x2="157.54" y2="193.39"/><path class="cls-8" d="M182.49,187.55a23.18,23.18,0,0,1-11,9,17.54,17.54,0,0,1-6,1s-24.88.71-27,0a29,29,0,0,1-6-2.07c-2.34-1.26-5-3.51-8-7.93" transform="translate(-34.95 -19.16)"/><path class="cls-8" d="M132.32,195.77a36.32,36.32,0,0,0-6.83,10.78s-1,3-6,5" transform="translate(-34.95 -19.16)"/><line class="cls-8" x1="77.29" y1="189.74" x2="74.29" y2="194.74"/><path class="cls-8" d="M125.49,206.55l0,0,.06,0s0,0,0,0l.07.07.09.08c.8.84,3.09,4,4.71,13.74h0a6.27,6.27,0,0,1,1.18.37,7.21,7.21,0,0,1,2.41,1.61c1.52,1.55,2.86,4.27,2.38,9a21.77,21.77,0,0,1-6,10s-1,1-2,6-2,10-11,16l-2,1,0,0s-7,13-15,16c-7,2.63-.23-13.88,1.59-18.05l0-.12c.22-.53.36-.83.36-.83s2-5,8-3c.29.1.57.2.83.31a8.24,8.24,0,0,1,2.75,1.72l.18.18a4.36,4.36,0,0,1,1.24,3.79" transform="translate(-34.95 -19.16)"/><path class="cls-8" d="M102.13,262.38l-1.61,1.93,0,0-.95,1.14,0,0a26.4,26.4,0,0,0-2.43-7.23c-.07-.11-.13-.22-.2-.32s-.27-.39-.4-.57l0,0a5.42,5.42,0,0,0-.46-.49,3.32,3.32,0,0,0-.49-.37,14.81,14.81,0,0,0-2.35-1.28c-2.09-.82-3.87,0-7.65,5.28-.32.45-.61.91-.9,1.38h0l0,0c-4.1,6.94-4.41,16.3-4.07,17.58,1.13,4.31,18-13,18-13l1-1" transform="translate(-34.95 -19.16)"/><path class="cls-8" d="M105.49,251.55s-5,4.39-5,8v5" transform="translate(-34.95 -19.16)"/><path class="cls-8" d="M90.49,244.55s-6.17,7.85-7,10.95c0,0,0,0,0,.05-.81,3.22-.83,5,.18,5.88a2.5,2.5,0,0,0,.92.5" transform="translate(-34.95 -19.16)"/><path class="cls-8" d="M83.67,261.43s-11.18,8.12-15.18,14.12c-3.51,5.26-5,2-5-1,0-2.72,3.29-12,7.64-17.47l.05-.06a18.32,18.32,0,0,1,1.31-1.47,7.8,7.8,0,0,1,2.29-1.62,6.09,6.09,0,0,1,1.22-.42c3.92-.93,7.49,2,7.49,2" transform="translate(-34.95 -19.16)"/><ellipse class="cls-8" cx="111.54" cy="102.39" rx="2" ry="1"/><ellipse class="cls-8" cx="140.54" cy="102.39" rx="2" ry="1"/><path class="cls-8" d="M190.85,81.48V80.36c.06-2.46.2-5.28.44-8v-.11a2.41,2.41,0,0,1,.06-.59.13.13,0,0,1,0-.06" transform="translate(-34.95 -19.16)"/><path class="cls-8" d="M194.69,73.54a.08.08,0,0,1,0,0,6,6,0,0,1,.42,5,5.81,5.81,0,0,1-.52,1.1" transform="translate(-34.95 -19.16)"/><path class="cls-8" d="M199.87,69.09s0,0,0,0a7.52,7.52,0,0,1-2.42,3.4,5.61,5.61,0,0,1-1.11.64l-.39.15a5.12,5.12,0,0,1-1.24.22,3,3,0,0,0-.27-.42,3.83,3.83,0,0,0-2.93-1.58h-.12c.55-5.74,1.59-11,3.16-12a.51.51,0,0,1,.15-.07l.16,0a.91.91,0,0,1,.64.08S199.15,61.85,199.87,69.09Z" transform="translate(-34.95 -19.16)"/><path class="cls-8" d="M123.12,75.53h0c-2.74-.23-5-2.91-5.51-6.44a10.62,10.62,0,0,1-.11-1.51h0v-.26h0v0s0,0,0,0c.07-.19.15-.39.24-.58A13.28,13.28,0,0,1,120.12,63a1.33,1.33,0,0,1,1.79-.2,1.21,1.21,0,0,1,.16.16s0,0,0,0a.57.57,0,0,1,.11.11,2.37,2.37,0,0,1,.3.39l.13.2a.08.08,0,0,1,0,0c.08.14.16.28.24.44l0,0c0,.09.09.18.13.28l.24.57.13.34.22.66c.26.83.5,1.77.71,2.78.1.49.19,1,.28,1.5.23,1.33.43,2.76.59,4.21v0" transform="translate(-34.95 -19.16)"/><path class="cls-8" d="M122.55,83a5.65,5.65,0,0,1-1-2.45,5,5,0,0,1-.07-1,5.28,5.28,0,0,1,.11-1.19,5.42,5.42,0,0,1,1.5-2.79l0,0,0,0a3.43,3.43,0,0,1,2.07-1h0v0a0,0,0,0,0,0,0c0,.18,0,.38.05.56s.07.64.1,1,0,.63.08.94c.16,2,.27,3.88.33,5.65V84.5" transform="translate(-34.95 -19.16)"/><path class="cls-8" d="M122.57,83s0,0,0,0" transform="translate(-34.95 -19.16)"/><path class="cls-8" d="M125.83,84.52a27.38,27.38,0,0,1-.34,6A2.39,2.39,0,0,1,124.06,92a2.35,2.35,0,0,1-.7.14l-.3,0a4.51,4.51,0,0,1-4.5-2.85,8,8,0,0,1,3.49-6.08l.14-.1.36-.18h0a3.68,3.68,0,0,0,2.92,1.58A1.93,1.93,0,0,0,125.83,84.52Z" transform="translate(-34.95 -19.16)"/><path class="cls-8" d="M198.25,82.73c-.23.82-.48,1.66-.76,2.53a2,2,0,0,0-.09.26c-.07.21-.15.42-.22.64a1.52,1.52,0,0,1-.09.28A4,4,0,0,1,193,89.16a2.11,2.11,0,0,1-1.85-1.61,31.6,31.6,0,0,1-.29-6.07h0a2.56,2.56,0,0,0,.62.07,3.7,3.7,0,0,0,.94-.16,3.83,3.83,0,0,0,2.18-1.7h0a6,6,0,0,1,3.33,2.5A5.64,5.64,0,0,1,198.25,82.73Z" transform="translate(-34.95 -19.16)"/></g></g></g></g></svg>