<svg xmlns="http://www.w3.org/2000/svg" viewBox="0 0 185.09 265.55"><defs><style>.cls-1{fill:#e2c13a;}.cls-2{fill:#e8e8e5;}.cls-3{fill:#a8a458;}.cls-4{fill:#216434;}.cls-5{fill:#ddeed2;}.cls-6{fill:#0d1907;}.cls-7{fill:#7b2708;}.cls-8{fill:none;stroke:#000;stroke-miterlimit:10;}</style></defs><title>SE</title><g id="Capa_2" data-name="Capa 2"><g id="SE"><path class="cls-1" d="M4.37,98.81C-1.48,97.64-3.82,122.21,20.75,155l.43-.14a11.71,11.71,0,0,0-1.6-3.37c-3.51-4.68-3.51-23.41-2.34-26.92.7-2.12,5.69-8.1,9.53-12.49C26.77,112.07,7.61,99.46,4.37,98.81Z"/><path class="cls-1" d="M23.67,195.56c-6.44,4.3-5.25,21.45-5.25,29.64s-4.68,5.85-4.68,15.21,5.85,10.53,5.85,10.53v-2.34c0-7,4.68-12.87,9.36-12.87s8.19,12.87,8.19,12.87h3.51s-.06-.26-.13-.7c-.35-2.26-.87-9.43,6-13.34,8.19-4.68,11.7,7,11.7,7,0-11.7,11.7-11.7,11.7-11.7s-4.68-5.85-7-5.85-7-10.4-7-10.4c-.63,1.57-1.73,2.52-3.52,2.21-7-1.17-15.21-18.73-15.21-18.73-3.49-3.49-5.68-15.42-6.57-21.28,0,0-8.65,4.89-7.48,9.57A36,36,0,0,0,23.67,195.56Z"/><path class="cls-1" d="M98.17,83.59c3,1.36,5.54,2.34,6.85,2.34,7,0,10.53,8.19,18.73,12.87,5,2.86,14.32,3.1,22.43,1.79-6.82,8.82-15.41,7.57-22.43,5.23S98.17,83.59,98.17,83.59ZM153.43,98.9a22,22,0,0,0,5.42-2.43c7-4.68,9.36-14,9.36-17.55s0-9.36-1.17-12.87-7-5.85-7-5.85L138.24,33.87l.71-.6a42,42,0,0,0,0-12.87C126.08,4,108.53.5,105,.5S95.38,4.7,95,4.94h0A43.23,43.23,0,0,0,83.36,4C62.3,5.09,44.73,17.84,42.15,34.79l-5-.35L38,37.77a24.14,24.14,0,0,1,.18,10.71c-1.05,5.2-1.59,14,3.67,22.24,0,0,1.17,3.51,8.19,8.19a14.84,14.84,0,0,0-2.34,7s-7-2.34-11.7,5.85A33.77,33.77,0,0,0,31.29,107s-2,2.2-4.52,5.07c-3.84,4.39-8.82,10.37-9.53,12.49-1.17,3.51-1.17,22.24,2.34,26.92a11.71,11.71,0,0,1,1.6,3.37c1.8,5.55,2.31,13.92,8.93,17.7,0,0,.15,1.29.46,3.3.89,5.85,3.08,17.79,6.57,21.28,0,0,7-4.68,11.7-3.51l.4,0c-.62-.55-1.19-1-1.72-1.49l-.4-.33-.62-.48a5.84,5.84,0,0,1-1.17-1.17c1.15-1.7,3.7-3.84,5.2-5.23.41-.37.66-.62.66-.62,6.37-5.3,13.69-1,15-.14l0-.07-2.5-2.91,0,0c-3.5-4.93,2.77-4.62,7.38-1.52l0-.07c-1.8-1.29-3.77-2.81-5.9-4.61-1.26-1.06,0-4.68,0-4.68,3.51-7,11.7-5.85,11.7-5.85a69.06,69.06,0,0,1,5.83,6.82l.12.16c.73,0,4.39-1.52,8.68-4.34,6.5-4.28,14.44-11.45,15.8-20.2.13-.85.23-1.71.32-2.55a44.58,44.58,0,0,0,0-8.57h0c-.75-7.95-3.51-14.16-6.17-15.8h1.17c4.68-2.34,4.12-12.34,4.12-12.34l2.9,1.8a44.14,44.14,0,0,0,9,4.89c7.14,2.79,12.12,2,14.32,1.4,1-.28,2-.57,3.09-.81,18-3.94,17.32-15.92,17.32-15.92ZM65.17,47.57c-.66-2.22-.07-8.13-1.11-9.62a10,10,0,0,0,4.44-1L70.26,36a11.2,11.2,0,0,1,7.36-1,9.91,9.91,0,0,1,3.07,1.23c3.46,2.14,4.93,5.85,5.41,9.35a20.38,20.38,0,0,1,.2,2.87c0,5.85,1.17,8.19,1.17,8.19A36.58,36.58,0,0,1,79.27,59a6.27,6.27,0,0,1-1.62.12,10.59,10.59,0,0,1-5-1.67,16.39,16.39,0,0,1-5.93-6.26A17.63,17.63,0,0,1,65.17,47.57Z"/><path class="cls-2" d="M19.58,248.61v1.46s4.68,13.75,9.36,14.92,8.19-16.38,8.19-16.38-3.51-12.87-8.19-12.87S19.58,241.59,19.58,248.61Z"/><path class="cls-2" d="M46.5,234.56c-6.85,3.91-6.33,11.08-6,13.34,0,0,11.83,12.41,15.34,11.24s2.34-15.21,2.34-15.21v-2.34S54.69,229.88,46.5,234.56Z"/><path class="cls-2" d="M37.14,197.11s8.19,17.55,15.21,18.73c1.79.3,2.89-.64,3.52-2.21,1.85-4.58-.2-14.47-.2-14.47-2.45-2-4.62-4-6.44-5.61l-.4,0C44.16,192.43,37.14,197.11,37.14,197.11Z"/><path class="cls-2" d="M45.33,190.09a5.84,5.84,0,0,0,1.17,1.17l.62.48.4.33c.53.44,1.1.94,1.72,1.49,1.81,1.6,4,3.6,6.44,5.61,4.44,3.62,9.75,7.23,15.4,8.48,0,0,3.51-4.68-4.68-23.41l-.21-.14c-1.31-.84-8.64-5.16-15,.14,0,0-.25.25-.66.62C49,186.25,46.48,188.39,45.33,190.09Z"/><path class="cls-2" d="M58.2,241.59v2.34l17.55,7s4.68,2.34,2.34-8.19-8.19-12.87-8.19-12.87S58.2,229.88,58.2,241.59Z"/><path class="cls-3" d="M71.08,179.56c-4.61-3.1-10.88-3.41-7.38,1.52l0,0,2.5,2.91a15.07,15.07,0,0,0,3.6-2.14C71.46,180.47,71.08,179.56,71.08,179.56Z"/><path class="cls-4" d="M64.05,38c1,1.49.46,7.4,1.11,9.62a17.63,17.63,0,0,0,1.52,3.63,7,7,0,0,1,4.39-1.54,6.83,6.83,0,0,1,1.22.11,4.46,4.46,0,0,1,0-.69,5.42,5.42,0,0,1,2-4.3,7.11,7.11,0,0,1-.82-3.31A7,7,0,0,1,77.62,35a11.2,11.2,0,0,0-7.36,1l-1.77.89A10,10,0,0,1,64.05,38Z"/><path class="cls-2" d="M65.22,170.2s-1.26,3.62,0,4.68c2.13,1.8,4.1,3.32,5.9,4.61,11.14,8,16.34,7.09,16.34,7.09,2.6-3.9-.92-10.31-4.59-15.25-.12,0-.16-.07-.12-.16a69.06,69.06,0,0,0-5.83-6.82S68.74,163.17,65.22,170.2Z"/><path class="cls-1" d="M129.67,199.91c.15-2.39.56-7.3,1.25-8.59,2.15-4,4.52-2.4,4.52-2.4l1.16.39s1-2.41-.77-3.66h0c.39-4.45,3.12-4.9,3.12-4.9l1.23.41a28.75,28.75,0,0,0-7.08-3.92c-1.74-.59-8,.23-11.52.77a6,6,0,0,1-4.54-1.18,46.3,46.3,0,0,0-6.18-4.27c7-4.68,5.85-2.34,8.19-11.7s-11.39-16.6-11.39-16.6c-.08.84-.19,1.7-.32,2.55-1.36,8.75-9.3,15.92-15.8,20.2-4.3,2.82-8,4.39-8.68,4.34,3.66,4.94,7.19,11.35,4.59,15.25,0,0-5.2.87-16.34-7.09l0,.07s.39.91-1.25,2.33c0,0,.08,7,4.76,8.2s24.58,9.36,28.09,12.87,8.19,5.85,14,7c0,0,1.17-7,2.34-9.36s8.19-2.34,10.53,0a3.89,3.89,0,0,0,.06-.43C129.66,200.11,129.66,200,129.67,199.91Z"/><path class="cls-5" d="M71.08,49.65a7,7,0,0,0-4.39,1.54,16.39,16.39,0,0,0,5.93,6.26,10.59,10.59,0,0,0,5,1.67,7,7,0,0,0,0-4.87,7,7,0,0,0-5.37-4.51A6.83,6.83,0,0,0,71.08,49.65Z"/><path class="cls-6" d="M72.25,49.07a4.46,4.46,0,0,0,0,.69,7,7,0,0,1,5.37,4.51,5.11,5.11,0,0,0,3.94-5.2,4.31,4.31,0,0,0,0-.68,7,7,0,0,1-7.33-3.62A5.42,5.42,0,0,0,72.25,49.07Z"/><path class="cls-5" d="M73.42,41.46a7.11,7.11,0,0,0,.82,3.31,7,7,0,0,0,7.33,3.62,7,7,0,0,0,4.53-2.77c-.48-3.5-1.94-7.21-5.41-9.35A9.91,9.91,0,0,0,77.62,35,7,7,0,0,0,73.42,41.46Z"/><path class="cls-4" d="M77.65,59.13A6.27,6.27,0,0,0,79.27,59a36.58,36.58,0,0,0,8.19-2.34s-1.17-2.34-1.17-8.19a20.38,20.38,0,0,0-.2-2.87,7,7,0,0,1-4.53,2.77,4.31,4.31,0,0,1,0,.68,5.11,5.11,0,0,1-3.94,5.2,7,7,0,0,1,0,4.87Z"/><path class="cls-1" d="M157.76,147.15a1.17,1.17,0,0,1-.08-.36c1.17-9.36,10.53-11.7,10.53-11.7a14.71,14.71,0,0,0-3.5-2.48c-1.44-.75-2.88-1.5-4.26-2.34-11.66-7.14-36.71-9.22-36.71-9.22l-5-6.81a44.14,44.14,0,0,1-9-4.89l-2.9-1.8s.56,10-4.12,12.34H101.5c2.66,1.64,5.42,7.85,6.17,15.8h0c.73.54,31.29,22.82,33.61,22.82,0,0,0-9.36,5.85-9.36,4.85,0,6.47.8,8.88,3.07a6.6,6.6,0,0,1,1.45,2,5.1,5.1,0,0,1,.53-1.53,4.47,4.47,0,0,1,.84-1.19c1.17-1.17,4.68-1.17,4.68-1.17C159.1,149.41,158,147.85,157.76,147.15Z"/><path class="cls-7" d="M105,85.93c-1.31,0-3.89-1-6.85-2.34,0,0,18.55,19.9,25.57,22.24s15.61,3.59,22.43-5.23c-8.11,1.31-17.45,1.06-22.43-1.79C115.55,94.13,112,85.93,105,85.93Z"/><path class="cls-2" d="M129.63,200.65l0,0c-2.34-2.34-9.36-2.34-10.53,0s-2.34,9.36-2.34,9.36c5.85,1.17,17.55,8.19,22.24,4.68S130.33,201.19,129.63,200.65Z"/><path class="cls-2" d="M129.65,200.19c0,.16,0,.32,0,.44.83.3,16,5.84,18.69,5.84,3.16,0,3.48-2.84,1.8-5.11-.46-.63-1.1-1.73-1.5-2.4a26.51,26.51,0,0,0-5.8-6.53l-.43-.34a18.48,18.48,0,0,0-5.78-2.79l-1.16-.39s-2.36-1.58-4.52,2.4c-.69,1.29-1.1,6.2-1.25,8.59C129.66,200,129.66,200.11,129.65,200.19Z"/><path class="cls-2" d="M135.83,185.63h0c1.81,1.25.77,3.66.77,3.66a18.48,18.48,0,0,1,5.78,2.79s9.44,1.51,11.79.34,2.34-5.85-8.19-9.36l-5.79-1.93-1.23-.41S136.22,181.19,135.83,185.63Z"/><path class="cls-2" d="M141.29,158.49l1.64,1.64a43.7,43.7,0,0,1,4.3,4.89c5.41,7.34,10.53,6.18,11.62,4,.87-1.73-.19-9.2-.8-13a6.63,6.63,0,0,0-.57-1.83h0a6.6,6.6,0,0,0-1.45-2c-2.41-2.27-4-3.07-8.88-3.07C141.29,149.13,141.29,158.49,141.29,158.49Z"/><path class="cls-2" d="M157.68,146.79a1.17,1.17,0,0,0,.08.36c.26.7,1.33,2.26,5.77,3.15a61.74,61.74,0,0,1,12.56,4.52,26.05,26.05,0,0,1,6.17,3.67c1.85,1.85,4.68-9.36-1.17-14l-12.87-9.36S158.85,137.43,157.68,146.79Z"/><path class="cls-2" d="M158.85,151.47a4.47,4.47,0,0,0-.84,1.19,16.24,16.24,0,0,1,7.86,3.49c4.68,3.51,4.68,4.68,4.68,4.68s1.17,8.19,4.68,4.68.85-10.7.85-10.7a61.74,61.74,0,0,0-12.56-4.52S160,150.3,158.85,151.47Z"/><path class="cls-8" d="M99.16,39.12s-1.17-10.53-7-16.38S71.08,9.86,67.56,13.37c0,0-7,2.34-8.19,9.36"/><path class="cls-8" d="M42.15,34.79C44.73,17.84,62.3,5.09,83.36,4A43.23,43.23,0,0,1,95,4.94h0l1.12.27a15.34,15.34,0,0,1,10,4.66"/><path class="cls-8" d="M77.65,59.13A6.27,6.27,0,0,0,79.27,59a36.58,36.58,0,0,0,8.19-2.34s-1.17-2.34-1.17-8.19a20.38,20.38,0,0,0-.2-2.87"/><path class="cls-8" d="M77.62,35a11.2,11.2,0,0,0-7.36,1l-1.77.89a10,10,0,0,1-4.44,1c1,1.49.46,7.4,1.11,9.62a17.63,17.63,0,0,0,1.52,3.63"/><path class="cls-8" d="M42.15,34.79l-5-.35L38,37.77a24.14,24.14,0,0,1,.18,10.71c-1.05,5.2-1.59,14,3.67,22.24,0,0,1.17,3.51,8.19,8.19a14.84,14.84,0,0,0-2.34,7s-7-2.34-11.7,5.85A33.77,33.77,0,0,0,31.29,107s-2,2.2-4.52,5.07c-3.84,4.39-8.82,10.37-9.53,12.49-1.17,3.51-1.17,22.24,2.34,26.92a11.71,11.71,0,0,1,1.6,3.37c1.8,5.55,2.31,13.92,8.93,17.7,0,0,.15,1.29.46,3.3.89,5.85,3.08,17.79,6.57,21.28,0,0,7-4.68,11.7-3.51l.4,0"/><path class="cls-8" d="M139,33.27a42,42,0,0,0,0-12.87C126.08,4,108.53.5,105,.5S95.38,4.7,95,4.94"/><path class="cls-8" d="M131.93,26.25l6.31,7.62L160,60.19s5.85,2.34,7,5.85,1.17,9.36,1.17,12.87-2.34,12.87-9.36,17.55a22,22,0,0,1-5.42,2.43,46.57,46.57,0,0,1-7.26,1.7c-8.11,1.31-17.45,1.06-22.43-1.79C115.55,94.13,112,85.93,105,85.93c-1.31,0-3.89-1-6.85-2.34-6.73-3.1-15.39-8.19-15.39-8.19s-1.17-2.34-5.85,0"/><line class="cls-8" x1="165.87" y1="69.55" x2="163.53" y2="75.4"/><path class="cls-8" d="M142.47,83.59,142,83.3a7.59,7.59,0,0,0-6.59-.88"/><path class="cls-8" d="M98.17,83.59s18.55,19.9,25.57,22.24,15.61,3.59,22.43-5.23"/><path class="cls-8" d="M153.43,98.91s.69,12-17.32,15.92c-1,.23-2.07.53-3.09.81-2.2.63-7.19,1.38-14.32-1.4a44.14,44.14,0,0,1-9-4.89l-2.9-1.8c-2.95-1.83-7.3-4.47-8.8-5.22l-14,3.51"/><path class="cls-8" d="M57,70.72s-2.34,14,7,19.9S81.61,95.3,81.61,95.3"/><path class="cls-8" d="M43,177.22s-1,8.64,2.34,12.87a5.84,5.84,0,0,0,1.17,1.17l.62.48.4.33c.53.44,1.1.94,1.72,1.49,1.81,1.6,4,3.6,6.44,5.61,4.44,3.62,9.75,7.23,15.4,8.48,0,0,3.51-4.68-4.68-23.41l-.21-.14c-1.31-.84-8.64-5.16-15,.14,0,0-.25.25-.66.62-1.5,1.39-4,3.53-5.2,5.23"/><path class="cls-8" d="M37.14,197.11s8.19,17.55,15.21,18.73c1.79.3,2.89-.64,3.52-2.21,1.85-4.58-.2-14.47-.2-14.47"/><path class="cls-8" d="M63.71,181.12a16.53,16.53,0,0,0,1.78,2.08"/><path class="cls-8" d="M71.08,179.56c-4.61-3.1-10.88-3.41-7.38,1.52"/><path class="cls-8" d="M76.93,164.34s-8.19-1.17-11.7,5.85c0,0-1.26,3.62,0,4.68,2.13,1.8,4.1,3.32,5.9,4.61,11.14,8,16.34,7.09,16.34,7.09,2.6-3.9-.92-10.31-4.59-15.25l-.12-.16A69.06,69.06,0,0,0,76.93,164.34Z"/><path class="cls-8" d="M71.08,179.56s.39.91-1.25,2.33a15.07,15.07,0,0,1-3.6,2.14l-2.5-2.91,0,0-4.49-5.24"/><path class="cls-8" d="M76.93,164.34s-3.51-7-14-9.36-18.73-9.36-22.24-16.38A37.4,37.4,0,0,0,34.08,130c-.27-.28-.55-.54-.81-.78a9.6,9.6,0,0,0-3.16-2.28"/><path class="cls-8" d="M50,107S35.7,129.5,34.08,130"/><path class="cls-8" d="M48.84,116.36s1.17,9.36,9.36,9.36,12.87-3.51,12.87-3.51"/><path class="cls-8" d="M106.79,107.54s.56,10-4.12,12.34H94.48"/><path class="cls-8" d="M107.67,135.67c-.75-7.95-3.51-14.16-6.17-15.8"/><path class="cls-8" d="M82.76,171.17c0,.09,0,.15.12.16.73,0,4.39-1.52,8.68-4.34,6.5-4.28,14.44-11.45,15.8-20.2.13-.85.23-1.71.32-2.55a44.58,44.58,0,0,0,0-8.57"/><path class="cls-8" d="M118.7,114.23l5,6.81s25.06,2.08,36.71,9.22c1.38.84,2.82,1.59,4.26,2.34a14.71,14.71,0,0,1,3.5,2.48s-9.36,2.34-10.53,11.7a1.17,1.17,0,0,0,.08.36c.26.7,1.33,2.26,5.77,3.15a61.74,61.74,0,0,1,12.56,4.52,26.05,26.05,0,0,1,6.17,3.67c1.85,1.85,4.68-9.36-1.17-14l-12.87-9.36"/><polyline class="cls-8" points="148.32 139.77 151.83 142.11 157.76 147.15"/><path class="cls-8" d="M157.48,154.21a6.63,6.63,0,0,1,.57,1.83c.61,3.79,1.66,11.26.8,13-1.09,2.18-6.21,3.34-11.62-4a43.7,43.7,0,0,0-4.3-4.89l-1.64-1.64"/><path class="cls-8" d="M107.67,135.67h0c.73.54,31.29,22.82,33.61,22.82,0,0,0-9.36,5.85-9.36,4.85,0,6.47.8,8.88,3.07a6.6,6.6,0,0,1,1.45,2"/><path class="cls-8" d="M176.09,154.82s2.66,7.19-.85,10.7-4.68-4.68-4.68-4.68,0-1.17-4.68-4.68a16.24,16.24,0,0,0-7.86-3.49l-.33,0"/><path class="cls-8" d="M163.53,150.3s-3.51,0-4.68,1.17a4.47,4.47,0,0,0-.84,1.19,5.1,5.1,0,0,0-.53,1.53h0"/><path class="cls-8" d="M107.67,144.24s13.73,7.23,11.39,16.6-1.17,7-8.19,11.7a46.3,46.3,0,0,1,6.18,4.27,6,6,0,0,0,4.54,1.18c3.55-.54,9.77-1.36,11.52-.77a28.75,28.75,0,0,1,7.08,3.92"/><path class="cls-8" d="M91.56,167s8.78,4.38,12.29,3.21l3.51-1.17"/><path class="cls-8" d="M129.65,200.19c0,.16,0,.32,0,.44h0c0,.35,0,.56,0,.56"/><path class="cls-8" d="M69.82,181.89s.08,7,4.76,8.2,24.58,9.36,28.09,12.87,8.19,5.85,14,7,17.55,8.19,22.24,4.68-8.63-13.48-9.33-14l0,0h0c.83.3,16,5.84,18.69,5.84,3.16,0,3.48-2.84,1.8-5.11-.46-.63-1.1-1.73-1.5-2.4a26.51,26.51,0,0,0-5.8-6.53l-.43-.34a18.48,18.48,0,0,0-5.78-2.79l-1.16-.39s-2.36-1.58-4.52,2.4c-.69,1.29-1.1,6.2-1.25,8.59"/><path class="cls-8" d="M116.72,210s1.17-7,2.34-9.36,8.19-2.34,10.53,0a3.89,3.89,0,0,0,.06-.43c0-.08,0-.18,0-.28a5.63,5.63,0,0,0-4.76-6.31c-5.85-1.17-4.68-1.17-4.68-1.17"/><path class="cls-8" d="M135.83,185.63c-.12-.07-.25-.15-.39-.22a11.51,11.51,0,0,0-7-1.17"/><path class="cls-8" d="M136.6,189.31s1-2.41-.77-3.66"/><path class="cls-8" d="M142.38,192.09s9.44,1.51,11.79.34,2.34-5.85-8.19-9.36l-5.79-1.93-1.23-.41s-2.74.46-3.12,4.9h0"/><line class="cls-8" x1="110.84" y1="172.45" x2="103.34" y2="178.61"/><path class="cls-8" d="M30.57,175.84s-8.65,4.89-7.48,9.57a36,36,0,0,0,.57,10.15A21.17,21.17,0,0,0,26.6,203"/><path class="cls-8" d="M55.87,213.63s4.67,10.4,7,10.4,7,5.85,7,5.85-11.7,0-11.7,11.7c0,0-3.51-11.7-11.7-7-6.85,3.91-6.33,11.08-6,13.34.07.44.13.7.13.7H37.14s-3.51-12.87-8.19-12.87-9.36,5.85-9.36,12.87v2.34s-5.85-1.17-5.85-10.53,4.68-7,4.68-15.21-1.18-25.35,5.25-29.64"/><path class="cls-8" d="M69.91,229.88s5.85,2.34,8.19,12.87-2.34,8.19-2.34,8.19l-17.55-7s1.17,14-2.34,15.21-15.34-11.24-15.34-11.24"/><path class="cls-8" d="M37.14,248.61S33.63,266.16,28.94,265s-9.36-14.92-9.36-14.92"/><path class="cls-8" d="M26.77,112.07S7.61,99.46,4.37,98.81C-1.48,97.64-3.82,122.21,20.75,155"/><path class="cls-8" d="M81.56,48.39a7,7,0,0,0,4.53-2.77"/><path class="cls-8" d="M77.62,35a7,7,0,0,0-4.2,6.43,7.11,7.11,0,0,0,.82,3.31"/><path class="cls-8" d="M77.66,54.26a5.11,5.11,0,0,0,3.94-5.2,4.31,4.31,0,0,0,0-.68"/><path class="cls-8" d="M74.24,44.77a5.42,5.42,0,0,0-2,4.3,4.46,4.46,0,0,0,0,.69"/><path class="cls-8" d="M66.69,51.2a16.39,16.39,0,0,0,5.93,6.26,10.59,10.59,0,0,0,5,1.67,7,7,0,0,0,0-4.87,7,7,0,0,0-5.37-4.51,6.83,6.83,0,0,0-1.22-.11A7,7,0,0,0,66.69,51.2Z"/></g></g></svg>