<svg xmlns="http://www.w3.org/2000/svg" viewBox="0 0 185.09 265.55"><defs><style>.cls-1{fill:#e2c13a;}.cls-2{fill:#e8e8e5;}.cls-3{fill:#a8a458;}.cls-4{fill:#216434;}.cls-5{fill:#ddeed2;}.cls-6{fill:#0d1907;}.cls-7{fill:#7b2708;}.cls-8{fill:none;stroke:#000;stroke-miterlimit:10;}</style></defs><title>SW</title><g id="Capa_2" data-name="Capa 2"><g id="SW"><path class="cls-1" d="M180.72,98.81c5.85-1.17,8.19,23.41-16.38,56.18l-.43-.14a11.71,11.71,0,0,1,1.6-3.37c3.51-4.68,3.51-23.41,2.34-26.92-.7-2.12-5.7-8.1-9.53-12.49C158.32,112.07,177.48,99.45,180.72,98.81Z"/><path class="cls-1" d="M161.42,195.56c6.44,4.3,5.25,21.45,5.25,29.64s4.68,5.85,4.68,15.21-5.85,10.53-5.85,10.53v-2.34c0-7-4.68-12.87-9.36-12.87S148,248.61,148,248.61h-3.51s.06-.26.13-.7c.35-2.26.87-9.43-6-13.34-8.19-4.68-11.7,7-11.7,7,0-11.7-11.7-11.7-11.7-11.7s4.68-5.85,7-5.85,7-10.4,7-10.4c.63,1.57,1.73,2.52,3.52,2.21,7-1.17,15.21-18.73,15.21-18.73,3.49-3.49,5.68-15.42,6.57-21.28,0,0,8.65,4.89,7.48,9.57A36,36,0,0,1,161.42,195.56Z"/><path class="cls-1" d="M38.92,100.6c6.82,8.82,15.41,7.57,22.43,5.23S86.92,83.59,86.92,83.59c-3,1.36-5.54,2.34-6.85,2.34-7,0-10.53,8.19-18.73,12.87C56.37,101.66,47,101.91,38.92,100.6ZM90,4.94h0A43.23,43.23,0,0,1,101.73,4c21.07,1.08,38.63,13.83,41.22,30.78l5-.35-.83,3.34a24.14,24.14,0,0,0-.18,10.71c1.05,5.2,1.59,14-3.67,22.24,0,0-1.17,3.51-8.19,8.19a14.84,14.84,0,0,1,2.34,7s7-2.34,11.7,5.85A33.77,33.77,0,0,1,153.81,107s2,2.19,4.52,5.07c3.83,4.39,8.82,10.37,9.53,12.49,1.17,3.51,1.17,22.24-2.34,26.92a11.71,11.71,0,0,0-1.6,3.37c-1.8,5.55-2.31,13.92-8.93,17.7,0,0-.15,1.29-.46,3.3-.89,5.85-3.08,17.79-6.57,21.28,0,0-7-4.68-11.7-3.51l-.39-.06c.61-.54,1.18-1,1.71-1.47l.4-.33.62-.48a5.84,5.84,0,0,0,1.17-1.17c-1.15-1.7-3.7-3.84-5.2-5.23-.41-.37-.66-.62-.66-.62-6.37-5.3-13.69-1-15-.14l0-.07.73-.84a17.39,17.39,0,0,0,1.78-2.07l0,0c3.5-4.93-2.77-4.62-7.38-1.52l0-.07c1.8-1.29,3.77-2.81,5.9-4.61,1.26-1.06,0-4.68,0-4.68-3.51-7-11.7-5.85-11.7-5.85a69.06,69.06,0,0,0-5.83,6.82l-.12.16c-.73,0-4.39-1.52-8.68-4.34-6.5-4.28-14.44-11.45-15.8-20.2-.13-.85-.23-1.71-.32-2.55a44.58,44.58,0,0,1,0-8.57h0c.75-7.95,3.51-14.16,6.17-15.8H82.42c-4.56-2.28-4.14-11.86-4.12-12.32l-2.9,1.79a44.14,44.14,0,0,1-9,4.89c-7.14,2.79-12.12,2-14.32,1.4-1-.28-2-.59-3.09-.81-18-3.94-17.32-15.92-17.32-15.92h0a22,22,0,0,1-5.42-2.43c-7-4.68-9.36-14-9.36-17.55S16.88,69.55,18,66s7-5.85,7-5.85L46.85,33.87l-.71-.6a42,42,0,0,1,0-12.87C59,4,76.56.5,80.08.5S89.71,4.7,90,4.94Zm29.88,42.63c.66-2.22.07-8.13,1.11-9.62a10,10,0,0,1-4.44-1L114.83,36a11.2,11.2,0,0,0-7.36-1,9.91,9.91,0,0,0-3.07,1.23c-3.46,2.14-4.93,5.85-5.41,9.35a20.38,20.38,0,0,0-.2,2.87c0,5.85-1.17,8.19-1.17,8.19A36.58,36.58,0,0,0,105.82,59a6.27,6.27,0,0,0,1.62.12,10.59,10.59,0,0,0,5-1.67,16.39,16.39,0,0,0,5.93-6.26A17.63,17.63,0,0,0,119.93,47.57Z"/><path class="cls-2" d="M165.51,248.61v1.46s-4.68,13.75-9.36,14.92S148,248.61,148,248.61s3.51-12.87,8.19-12.87S165.51,241.59,165.51,248.61Z"/><path class="cls-2" d="M138.59,234.56c6.85,3.91,6.33,11.08,6,13.34,0,0-11.83,12.41-15.34,11.24s-2.34-15.21-2.34-15.21v-2.34S130.4,229.88,138.59,234.56Z"/><path class="cls-2" d="M148,197.11s-8.19,17.55-15.21,18.73c-1.79.3-2.89-.64-3.52-2.21-1.85-4.58.2-14.47.2-14.47,2.45-2,4.62-4,6.44-5.62h0l.39.06C140.93,192.43,148,197.11,148,197.11Z"/><path class="cls-2" d="M139.76,190.09a5.84,5.84,0,0,1-1.17,1.17l-.62.48-.4.33c-.53.43-1.1.94-1.71,1.47h0c-1.81,1.62-4,3.62-6.44,5.62-4.44,3.62-9.75,7.23-15.4,8.48,0,0-3.51-4.68,4.68-23.41l.21-.14c1.31-.84,8.64-5.16,15,.14,0,0,.25.25.66.62C136.06,186.25,138.62,188.39,139.76,190.09Z"/><path class="cls-2" d="M126.89,241.59v2.34l-17.55,7s-4.68,2.34-2.34-8.19,8.19-12.87,8.19-12.87S126.89,229.88,126.89,241.59Z"/><path class="cls-3" d="M114,179.56c4.61-3.1,10.88-3.41,7.38,1.52l0,0-1.78,2.07-.73.84a15.07,15.07,0,0,1-3.6-2.14C113.63,180.47,114,179.56,114,179.56Z"/><path class="cls-4" d="M121,38c-1,1.49-.46,7.4-1.11,9.62a17.63,17.63,0,0,1-1.52,3.63A7,7,0,0,0,114,49.65a6.83,6.83,0,0,0-1.22.11,4.46,4.46,0,0,0,0-.69,5.42,5.42,0,0,0-2-4.3,7.11,7.11,0,0,0,.82-3.31,7,7,0,0,0-4.2-6.43,11.2,11.2,0,0,1,7.36,1l1.77.89A10,10,0,0,0,121,38Z"/><path class="cls-2" d="M119.87,170.2s1.26,3.62,0,4.68c-2.13,1.8-4.1,3.32-5.9,4.61-11.14,8-16.34,7.09-16.34,7.09-2.6-3.9.92-10.31,4.59-15.25.12,0,.16-.07.12-.16a69.06,69.06,0,0,1,5.83-6.82S116.36,163.17,119.87,170.2Z"/><path class="cls-1" d="M93.53,167c4.3,2.82,8,4.39,8.68,4.34-3.66,4.94-7.19,11.35-4.59,15.25,0,0,5.2.87,16.34-7.09l0,.07s-.39.91,1.25,2.33c0,0-.08,7-4.76,8.2S85.93,199.45,82.42,203s-8.19,5.85-14,7c0,0-1.17-7-2.34-9.36s-8.19-2.34-10.53,0a3.89,3.89,0,0,1-.06-.43c0-.08,0-.18,0-.28-.15-2.39-.56-7.3-1.25-8.59-2.15-4-4.52-2.4-4.52-2.4l-1.16.39s-1-2.41.77-3.66h0c-.39-4.45-3.12-4.9-3.12-4.9l-1.23.41A28.75,28.75,0,0,1,52,177.22c1.74-.59,8,.23,11.52.77A6,6,0,0,0,68,176.81a46.3,46.3,0,0,1,6.18-4.27c-7-4.68-5.85-2.34-8.19-11.7s11.39-16.6,11.39-16.6c.08.84.19,1.7.32,2.55C79.09,155.54,87,162.71,93.53,167Z"/><path class="cls-5" d="M114,49.65a7,7,0,0,1,4.39,1.54,16.39,16.39,0,0,1-5.93,6.26,10.59,10.59,0,0,1-5,1.67,7,7,0,0,1,0-4.87,7,7,0,0,1,5.37-4.51A6.83,6.83,0,0,1,114,49.65Z"/><path class="cls-6" d="M112.84,49.07a4.46,4.46,0,0,1,0,.69,7,7,0,0,0-5.37,4.51,5.11,5.11,0,0,1-3.94-5.2,4.31,4.31,0,0,1,0-.68,7,7,0,0,0,7.33-3.62A5.42,5.42,0,0,1,112.84,49.07Z"/><path class="cls-5" d="M111.67,41.46a7.11,7.11,0,0,1-.82,3.31,7,7,0,0,1-7.33,3.62A7,7,0,0,1,99,45.62c.48-3.5,1.94-7.21,5.41-9.35A9.91,9.91,0,0,1,107.47,35,7,7,0,0,1,111.67,41.46Z"/><path class="cls-4" d="M107.44,59.13a6.27,6.27,0,0,1-1.62-.12,36.58,36.58,0,0,1-8.19-2.34s1.17-2.34,1.17-8.19a20.38,20.38,0,0,1,.2-2.87,7,7,0,0,0,4.53,2.77,4.31,4.31,0,0,0,0,.68,5.11,5.11,0,0,0,3.94,5.2,7,7,0,0,0,0,4.87Z"/><path class="cls-1" d="M27.33,147.15a1.17,1.17,0,0,0,.08-.36c-1.17-9.36-10.53-11.7-10.53-11.7a14.71,14.71,0,0,1,3.5-2.48c1.44-.75,2.88-1.5,4.26-2.34C36.29,123.13,61.35,121,61.35,121l5-6.81a44.14,44.14,0,0,0,9-4.89l2.9-1.79c0,.47-.44,10,4.12,12.32h1.17c-2.66,1.64-5.42,7.85-6.17,15.8h0c-.73.54-31.29,22.82-33.61,22.82,0,0,0-9.36-5.85-9.36-4.83,0-6.47.8-8.88,3.07a6.6,6.6,0,0,0-1.45,2,5.29,5.29,0,0,0-.51-1.53,4.61,4.61,0,0,0-.85-1.19c-1.17-1.17-4.68-1.17-4.68-1.17C26,149.41,27.07,147.85,27.33,147.15Z"/><path class="cls-7" d="M80.08,85.93c1.31,0,3.89-1,6.85-2.34,0,0-18.55,19.9-25.57,22.24s-15.61,3.59-22.43-5.23c8.11,1.31,17.45,1.06,22.43-1.79C69.54,94.13,73.05,85.93,80.08,85.93Z"/><path class="cls-2" d="M55.46,200.65l0,0c2.34-2.34,9.36-2.34,10.53,0S68.37,210,68.37,210c-5.85,1.17-17.55,8.19-22.24,4.68S54.76,201.19,55.46,200.65Z"/><path class="cls-2" d="M55.44,200.19c0,.16,0,.32,0,.44-.83.3-16,5.84-18.69,5.84-3.16,0-3.48-2.84-1.8-5.11.46-.63,1.1-1.73,1.5-2.4a26.51,26.51,0,0,1,5.8-6.53l.43-.34a18.48,18.48,0,0,1,5.78-2.79l1.16-.39s2.36-1.58,4.52,2.4c.69,1.29,1.1,6.2,1.25,8.59C55.43,200,55.43,200.11,55.44,200.19Z"/><path class="cls-2" d="M49.26,185.63h0c-1.81,1.25-.77,3.66-.77,3.66a18.48,18.48,0,0,0-5.78,2.79s-9.44,1.51-11.79.34-2.34-5.85,8.19-9.36l5.79-1.93,1.23-.41S48.88,181.19,49.26,185.63Z"/><path class="cls-2" d="M43.8,158.49l-1.64,1.64a43.7,43.7,0,0,0-4.3,4.89c-5.41,7.34-10.53,6.18-11.62,4-.87-1.73.19-9.2.8-13a6.63,6.63,0,0,1,.57-1.83h0a6.6,6.6,0,0,1,1.45-2c2.41-2.27,4-3.07,8.88-3.07C43.8,149.13,43.8,158.49,43.8,158.49Z"/><path class="cls-2" d="M27.41,146.79a1.17,1.17,0,0,1-.08.36c-.26.7-1.33,2.26-5.77,3.15A61.75,61.75,0,0,0,9,154.82a26.05,26.05,0,0,0-6.17,3.67c-1.85,1.85-4.68-9.36,1.17-14l12.87-9.36S26.24,137.43,27.41,146.79Z"/><path class="cls-2" d="M26.24,151.47a4.61,4.61,0,0,1,.85,1.19c-1,.08-4,.6-7.88,3.49-4.68,3.51-4.68,4.68-4.68,4.68s-1.17,8.19-4.68,4.68S9,154.82,9,154.82a61.75,61.75,0,0,1,12.56-4.52S25.07,150.3,26.24,151.47Z"/><path class="cls-8" d="M85.93,39.12s1.17-10.53,7-16.38S114,9.86,117.53,13.37c0,0,7,2.34,8.19,9.36"/><path class="cls-8" d="M142.95,34.79C140.36,17.84,122.79,5.09,101.73,4a43.23,43.23,0,0,0-11.67.92h0l-1.12.27a15.34,15.34,0,0,0-10,4.66"/><path class="cls-8" d="M107.44,59.13a6.27,6.27,0,0,1-1.62-.12,36.58,36.58,0,0,1-8.19-2.34s1.17-2.34,1.17-8.19a20.38,20.38,0,0,1,.2-2.87"/><path class="cls-8" d="M107.47,35a11.2,11.2,0,0,1,7.36,1l1.77.89A10,10,0,0,0,121,38c-1,1.49-.46,7.4-1.11,9.62a17.63,17.63,0,0,1-1.52,3.63"/><path class="cls-8" d="M142.95,34.79l5-.35-.83,3.34a24.14,24.14,0,0,0-.18,10.71c1.05,5.2,1.59,14-3.67,22.24,0,0-1.17,3.51-8.19,8.19a14.84,14.84,0,0,1,2.34,7s7-2.34,11.7,5.85A33.77,33.77,0,0,1,153.81,107s2,2.19,4.52,5.07c3.83,4.39,8.82,10.37,9.53,12.49,1.17,3.51,1.17,22.24-2.34,26.92a11.71,11.71,0,0,0-1.6,3.37c-1.8,5.55-2.31,13.92-8.93,17.7,0,0-.15,1.29-.46,3.3-.89,5.85-3.08,17.79-6.57,21.28,0,0-7-4.68-11.7-3.51l-.39-.06"/><path class="cls-8" d="M46.14,33.27a42,42,0,0,1,0-12.87C59,4,76.56.5,80.08.5s9.63,4.2,10,4.44"/><path class="cls-8" d="M53.16,26.25l-6.31,7.62L25.07,60.19S19.22,62.53,18,66s-1.17,9.36-1.17,12.87,2.34,12.87,9.36,17.55a22,22,0,0,0,5.42,2.43,46.57,46.57,0,0,0,7.26,1.7c8.11,1.31,17.45,1.06,22.43-1.79,8.19-4.68,11.7-12.87,18.73-12.87,1.31,0,3.89-1,6.85-2.34,6.73-3.1,15.39-8.19,15.39-8.19s1.17-2.34,5.85,0"/><line class="cls-8" x1="19.22" y1="69.55" x2="21.56" y2="75.4"/><path class="cls-8" d="M42.63,83.59l.43-.29a7.59,7.59,0,0,1,6.59-.88"/><path class="cls-8" d="M86.92,83.59s-18.55,19.9-25.57,22.24-15.61,3.59-22.43-5.23"/><path class="cls-8" d="M78.3,107.54c2.95-1.83,7.3-4.47,8.8-5.22l14,3.51"/><path class="cls-8" d="M31.66,98.91S31,110.88,49,114.83c1,.22,2.07.53,3.09.81,2.2.63,7.19,1.38,14.32-1.4a44.14,44.14,0,0,0,9-4.89l2.9-1.79"/><path class="cls-8" d="M128.06,70.72s2.34,14-7,19.9-17.55,4.68-17.55,4.68"/><path class="cls-8" d="M142.1,177.22s1,8.64-2.34,12.87a5.84,5.84,0,0,1-1.17,1.17l-.62.48-.4.33c-.53.43-1.1.94-1.71,1.47h0c-1.81,1.62-4,3.62-6.44,5.62-4.44,3.62-9.75,7.23-15.4,8.48,0,0-3.51-4.68,4.68-23.41l.21-.14c1.31-.84,8.64-5.16,15,.14,0,0,.25.25.66.62,1.5,1.39,4,3.53,5.2,5.23"/><path class="cls-8" d="M148,197.11s-8.19,17.55-15.21,18.73c-1.79.3-2.89-.64-3.52-2.21-1.85-4.58.2-14.47.2-14.47"/><path class="cls-8" d="M121.38,181.12a17.39,17.39,0,0,1-1.78,2.07"/><path class="cls-8" d="M114,179.56c4.61-3.1,10.88-3.41,7.38,1.52"/><path class="cls-8" d="M108.16,164.34s8.19-1.17,11.7,5.85c0,0,1.26,3.62,0,4.68-2.13,1.8-4.1,3.32-5.9,4.61-11.14,8-16.34,7.09-16.34,7.09-2.6-3.9.92-10.31,4.59-15.25l.12-.16A69.06,69.06,0,0,1,108.16,164.34Z"/><path class="cls-8" d="M114,179.56s-.39.91,1.25,2.33a15.07,15.07,0,0,0,3.6,2.14l.73-.84,1.78-2.07,0,0,4.49-5.24"/><path class="cls-8" d="M108.16,164.34s3.51-7,14-9.36,18.73-9.36,22.24-16.38a37.52,37.52,0,0,1,6.58-8.65l.8-.77a9.54,9.54,0,0,1,3.16-2.28"/><path class="cls-8" d="M135.08,107S149.39,129.5,151,129.95"/><path class="cls-8" d="M136.25,116.36s-1.17,9.36-9.36,9.36S114,122.21,114,122.21"/><path class="cls-8" d="M78.3,107.54h0c0,.47-.44,10,4.12,12.32h8.19"/><path class="cls-8" d="M77.42,135.67c.75-7.95,3.51-14.16,6.17-15.8"/><path class="cls-8" d="M102.34,171.17c0,.09,0,.15-.12.16-.73,0-4.39-1.52-8.68-4.34-6.5-4.28-14.44-11.45-15.8-20.2-.13-.85-.23-1.71-.32-2.55a44.58,44.58,0,0,1,0-8.57"/><path class="cls-8" d="M66.39,114.23l-5,6.81s-25.06,2.08-36.71,9.22c-1.38.84-2.82,1.59-4.26,2.34a14.71,14.71,0,0,0-3.5,2.48s9.36,2.34,10.53,11.7a1.17,1.17,0,0,1-.08.36c-.26.7-1.33,2.26-5.77,3.15A61.75,61.75,0,0,0,9,154.82a26.05,26.05,0,0,0-6.17,3.67c-1.85,1.85-4.68-9.36,1.17-14l12.87-9.36"/><polyline class="cls-8" points="36.77 139.77 33.26 142.11 27.33 147.15"/><path class="cls-8" d="M27.61,154.21A6.63,6.63,0,0,0,27,156c-.61,3.79-1.66,11.26-.8,13,1.09,2.18,6.21,3.34,11.62-4a43.7,43.7,0,0,1,4.3-4.89l1.64-1.64"/><path class="cls-8" d="M77.42,135.67h0c-.73.54-31.29,22.82-33.61,22.82,0,0,0-9.36-5.85-9.36-4.83,0-6.47.8-8.88,3.07a6.6,6.6,0,0,0-1.45,2"/><path class="cls-8" d="M9,154.82s-2.66,7.19.85,10.7,4.68-4.68,4.68-4.68,0-1.17,4.68-4.68c3.86-2.89,6.92-3.41,7.88-3.49l.32,0"/><path class="cls-8" d="M21.56,150.3s3.51,0,4.68,1.17a4.61,4.61,0,0,1,.85,1.19,5.29,5.29,0,0,1,.51,1.53h0"/><path class="cls-8" d="M77.42,144.24S63.69,151.47,66,160.83s1.17,7,8.19,11.7A46.3,46.3,0,0,0,68,176.81,6,6,0,0,1,63.5,178c-3.55-.54-9.77-1.36-11.52-.77a28.75,28.75,0,0,0-7.08,3.92"/><path class="cls-8" d="M93.53,167s-8.78,4.38-12.29,3.21L77.74,169"/><path class="cls-8" d="M55.44,200.19c0,.16,0,.32,0,.44h0c0,.35,0,.56,0,.56"/><path class="cls-8" d="M115.27,181.89s-.08,7-4.76,8.2S85.93,199.45,82.42,203s-8.19,5.85-14,7-17.55,8.19-22.24,4.68,8.63-13.48,9.33-14l0,0h0c-.83.3-16,5.84-18.69,5.84-3.16,0-3.48-2.84-1.8-5.11.46-.63,1.1-1.73,1.5-2.4a26.51,26.51,0,0,1,5.8-6.53l.43-.34a18.48,18.48,0,0,1,5.78-2.79l1.16-.39s2.36-1.58,4.52,2.4c.69,1.29,1.1,6.2,1.25,8.59"/><path class="cls-8" d="M68.37,210s-1.17-7-2.34-9.36-8.19-2.34-10.53,0a3.89,3.89,0,0,1-.06-.43c0-.08,0-.18,0-.28a5.63,5.63,0,0,1,4.76-6.31c5.85-1.17,4.68-1.17,4.68-1.17"/><path class="cls-8" d="M49.26,185.63c.12-.07.25-.15.39-.22a11.51,11.51,0,0,1,7-1.17"/><path class="cls-8" d="M48.49,189.31s-1-2.41.77-3.66"/><path class="cls-8" d="M42.71,192.09s-9.44,1.51-11.79.34-2.34-5.85,8.19-9.36l5.79-1.93,1.23-.41s2.74.46,3.12,4.9h0"/><line class="cls-8" x1="74.25" y1="172.44" x2="81.75" y2="178.61"/><path class="cls-8" d="M154.52,175.84s8.65,4.89,7.48,9.57a36,36,0,0,1-.57,10.15,21.17,21.17,0,0,1-2.94,7.41"/><path class="cls-8" d="M129.22,213.63s-4.67,10.4-7,10.4-7,5.85-7,5.85,11.7,0,11.7,11.7c0,0,3.51-11.7,11.7-7,6.85,3.91,6.33,11.08,6,13.34-.07.44-.13.7-.13.7H148s3.51-12.87,8.19-12.87,9.36,5.85,9.36,12.87v2.34s5.85-1.17,5.85-10.53-4.68-7-4.68-15.21,1.18-25.35-5.25-29.64"/><path class="cls-8" d="M115.19,229.88s-5.85,2.34-8.19,12.87,2.34,8.19,2.34,8.19l17.55-7s-1.17,14,2.34,15.21,15.34-11.24,15.34-11.24"/><path class="cls-8" d="M148,248.61s3.51,17.55,8.19,16.38,9.36-14.92,9.36-14.92"/><path class="cls-8" d="M158.32,112.07s19.16-12.62,22.4-13.26c5.85-1.17,8.19,23.41-16.38,56.18"/><path class="cls-8" d="M103.53,48.39A7,7,0,0,1,99,45.62c.48-3.5,1.94-7.21,5.41-9.35A9.91,9.91,0,0,1,107.47,35a7,7,0,0,1,4.2,6.43,7.11,7.11,0,0,1-.82,3.31"/><path class="cls-8" d="M107.43,54.26a5.11,5.11,0,0,1-3.94-5.2,4.31,4.31,0,0,1,0-.68,7,7,0,0,0,7.33-3.62,5.42,5.42,0,0,1,2,4.3,4.46,4.46,0,0,1,0,.69"/><path class="cls-8" d="M118.4,51.2a16.39,16.39,0,0,1-5.93,6.26,10.59,10.59,0,0,1-5,1.67,7,7,0,0,1,0-4.87,7,7,0,0,1,5.37-4.51,6.83,6.83,0,0,1,1.22-.11A7,7,0,0,1,118.4,51.2Z"/></g></g></svg>