<svg xmlns="http://www.w3.org/2000/svg" viewBox="0 0 300 300"><defs><style>.cls-1,.cls-9{fill:none;}.cls-2{fill:#e2c13a;}.cls-3{fill:#e8e8e5;}.cls-4{fill:#a8a458;}.cls-5{fill:#216434;}.cls-6{fill:#ddeed2;}.cls-7{fill:#0d1907;}.cls-8{fill:#7b2708;}.cls-9{stroke:#000;stroke-miterlimit:10;}</style></defs><title>SW</title><g id="Capa_2" data-name="Capa 2"><g id="img_bg" data-name="img bg"><rect class="cls-1" width="300" height="300"/></g><g id="SW"><path class="cls-2" d="M234.44,117.47c5.6-1.12,7.85,22.41-15.69,53.8l-.41-.13a11.22,11.22,0,0,1,1.54-3.23c3.36-4.48,3.36-22.41,2.24-25.78-.67-2-5.46-7.76-9.12-12C213,130.17,231.34,118.09,234.44,117.47Z"/><path class="cls-2" d="M216,210.12c6.16,4.11,5,20.54,5,28.39s4.48,5.6,4.48,14.57-5.6,10.09-5.6,10.09v-2.24c0-6.72-4.48-12.33-9-12.33s-7.85,12.33-7.85,12.33H199.7s.06-.25.12-.67c.34-2.16.83-9-5.73-12.78-7.85-4.48-11.21,6.72-11.21,6.72,0-11.21-11.21-11.21-11.21-11.21s4.48-5.6,6.72-5.6,6.71-10,6.71-10c.61,1.5,1.66,2.41,3.37,2.12,6.72-1.12,14.57-17.93,14.57-17.93,3.34-3.34,5.44-14.77,6.29-20.38,0,0,8.28,4.68,7.16,9.17A34.51,34.51,0,0,1,216,210.12Z"/><path class="cls-2" d="M144.62,102.9c-2.84,1.3-5.3,2.24-6.56,2.24-6.72,0-10.09,7.85-17.93,12.33-4.77,2.73-13.72,3-21.48,1.71,6.53,8.45,14.76,7.25,21.48,5S144.62,102.9,144.62,102.9Zm3-75.33h0a41.39,41.39,0,0,1,11.17-.89c20.17,1,37,13.25,39.47,29.48l4.8-.34-.8,3.19a23.12,23.12,0,0,0-.17,10.25c1,5,1.52,13.37-3.52,21.29,0,0-1.12,3.36-7.85,7.85a14.21,14.21,0,0,1,2.24,6.72s6.72-2.24,11.21,5.6a32.34,32.34,0,0,1,4.48,14.57s1.93,2.1,4.33,4.85c3.66,4.2,8.45,9.93,9.12,12,1.12,3.36,1.12,21.29-2.24,25.78a11.22,11.22,0,0,0-1.54,3.23c-1.73,5.31-2.21,13.33-8.55,16.95,0,0-.15,1.23-.44,3.16-.85,5.6-2.95,17-6.29,20.38,0,0-6.72-4.48-11.21-3.36l-.37-.06c.58-.52,1.13-1,1.64-1.41l.38-.31.59-.46a5.59,5.59,0,0,0,1.12-1.12,37.52,37.52,0,0,0-5-5c-.39-.36-.63-.59-.63-.59-6.1-5.08-13.11-.94-14.37-.13l0-.07.69-.81a16.66,16.66,0,0,0,1.7-2l0,0c3.35-4.72-2.66-4.43-7.07-1.46l0-.07c1.73-1.23,3.61-2.69,5.65-4.42,1.21-1,0-4.48,0-4.48-3.36-6.72-11.21-5.6-11.21-5.6a66.14,66.14,0,0,0-5.58,6.53l-.11.16c-.69,0-4.2-1.46-8.32-4.16-6.22-4.1-13.83-11-15.13-19.34-.12-.82-.22-1.64-.3-2.44a42.69,42.69,0,0,1,0-8.2h0c.72-7.61,3.36-13.56,5.91-15.13H140.3c-4.37-2.19-4-11.35-3.95-11.8l-2.78,1.71a42.27,42.27,0,0,1-8.62,4.68c-6.84,2.67-11.61,2-13.72,1.34-1-.27-2-.56-3-.77C91,129,91.69,117.57,91.69,117.57h0a21.06,21.06,0,0,1-5.19-2.33c-6.72-4.48-9-13.45-9-16.81s0-9,1.12-12.33,6.72-5.6,6.72-5.6l20.86-25.21-.68-.57a40.22,40.22,0,0,1,0-12.33c12.33-15.69,29.14-19.05,32.5-19.05S147.28,27.35,147.61,27.58Zm28.61,40.83c.63-2.13.07-7.79,1.06-9.21a9.62,9.62,0,0,1-4.25-1l-1.69-.85a10.73,10.73,0,0,0-7-.94,9.49,9.49,0,0,0-2.94,1.18c-3.32,2.05-4.72,5.6-5.18,9a19.51,19.51,0,0,0-.19,2.75c0,5.6-1.12,7.85-1.12,7.85a35,35,0,0,0,7.85,2.24,6,6,0,0,0,1.55.11,10.14,10.14,0,0,0,4.82-1.6,15.7,15.7,0,0,0,5.68-6A16.89,16.89,0,0,0,176.22,68.41Z"/><path class="cls-3" d="M219.87,260.93v1.4s-4.48,13.17-9,14.29-7.85-15.69-7.85-15.69,3.36-12.33,7.85-12.33S219.87,254.2,219.87,260.93Z"/><path class="cls-3" d="M194.1,247.48c6.56,3.74,6.06,10.61,5.73,12.78,0,0-11.33,11.88-14.69,10.76s-2.24-14.57-2.24-14.57V254.2S186.25,243,194.1,247.48Z"/><path class="cls-3" d="M203.06,211.61s-7.85,16.81-14.57,17.93c-1.71.29-2.77-.62-3.37-2.12-1.77-4.38.19-13.85.19-13.85,2.34-1.92,4.43-3.83,6.16-5.38h0l.37.06C196.34,207.13,203.06,211.61,203.06,211.61Z"/><path class="cls-3" d="M195.22,204.89A5.59,5.59,0,0,1,194.1,206l-.59.46-.38.31c-.5.41-1.05.9-1.64,1.41h0c-1.74,1.55-3.82,3.46-6.16,5.38-4.25,3.46-9.34,6.93-14.75,8.13,0,0-3.36-4.48,4.48-22.41l.2-.13c1.26-.81,8.27-4.94,14.37.13,0,0,.24.24.63.59A37.52,37.52,0,0,1,195.22,204.89Z"/><path class="cls-3" d="M182.89,254.2v2.24l-16.81,6.72s-4.48,2.24-2.24-7.85S171.68,243,171.68,243,182.89,243,182.89,254.2Z"/><path class="cls-4" d="M170.56,194.8c4.42-3,10.42-3.26,7.07,1.46l0,0-1.7,2-.69.81a14.43,14.43,0,0,1-3.45-2.05C170.19,195.68,170.56,194.8,170.56,194.8Z"/><path class="cls-5" d="M177.28,59.19c-1,1.42-.44,7.08-1.06,9.21a16.89,16.89,0,0,1-1.46,3.47,6.66,6.66,0,0,0-4.2-1.48,6.54,6.54,0,0,0-1.17.1,4.27,4.27,0,0,0,0-.66,5.19,5.19,0,0,0-1.91-4.11,6.81,6.81,0,0,0,.78-3.17,6.72,6.72,0,0,0-4-6.15,10.73,10.73,0,0,1,7,.94l1.69.85A9.62,9.62,0,0,0,177.28,59.19Z"/><path class="cls-3" d="M176.16,185.84s1.21,3.46,0,4.48c-2,1.73-3.92,3.18-5.65,4.42-10.67,7.62-15.65,6.79-15.65,6.79-2.49-3.73.89-9.87,4.39-14.6.11,0,.16-.07.11-.16a66.14,66.14,0,0,1,5.58-6.53S172.8,179.11,176.16,185.84Z"/><path class="cls-2" d="M150.95,182.77c4.11,2.7,7.62,4.2,8.32,4.16-3.51,4.73-6.88,10.87-4.39,14.6,0,0,5,.83,15.65-6.79l0,.07s-.37.87,1.2,2.23c0,0-.08,6.74-4.56,7.86s-23.54,9-26.9,12.33a25.56,25.56,0,0,1-13.45,6.72s-1.12-6.72-2.24-9-7.85-2.24-10.09,0a3.73,3.73,0,0,1-.06-.41c0-.08,0-.17,0-.27-.15-2.29-.54-7-1.2-8.23-2.06-3.81-4.33-2.3-4.33-2.3l-1.11.37s-1-2.31.74-3.51h0c-.37-4.26-3-4.7-3-4.7l-1.18.39a27.53,27.53,0,0,1,6.78-3.75c1.67-.56,7.63.22,11,.74a5.75,5.75,0,0,0,4.35-1.13,44.34,44.34,0,0,1,5.92-4.09c-6.72-4.48-5.6-2.24-7.85-11.21S135.51,161,135.51,161c.08.81.18,1.63.3,2.44C137.12,171.81,144.73,178.66,150.95,182.77Z"/><path class="cls-6" d="M170.56,70.4a6.66,6.66,0,0,1,4.2,1.48,15.7,15.7,0,0,1-5.68,6,10.14,10.14,0,0,1-4.82,1.6,6.68,6.68,0,0,1,0-4.66,6.72,6.72,0,0,1,5.14-4.31A6.54,6.54,0,0,1,170.56,70.4Z"/><path class="cls-7" d="M169.44,69.84a4.27,4.27,0,0,1,0,.66,6.72,6.72,0,0,0-5.14,4.31,4.89,4.89,0,0,1-3.78-5,4.13,4.13,0,0,1,0-.65,6.71,6.71,0,0,0,7-3.46A5.19,5.19,0,0,1,169.44,69.84Z"/><path class="cls-6" d="M168.32,62.56a6.81,6.81,0,0,1-.78,3.17,6.71,6.71,0,0,1-7,3.46,6.67,6.67,0,0,1-4.34-2.66c.46-3.35,1.86-6.9,5.18-9a9.49,9.49,0,0,1,2.94-1.18A6.72,6.72,0,0,1,168.32,62.56Z"/><path class="cls-5" d="M164.26,79.48a6,6,0,0,1-1.55-.11,35,35,0,0,1-7.85-2.24S156,74.88,156,69.28a19.51,19.51,0,0,1,.19-2.75,6.67,6.67,0,0,0,4.34,2.66,4.13,4.13,0,0,0,0,.65,4.89,4.89,0,0,0,3.78,5,6.68,6.68,0,0,0,0,4.66Z"/><path class="cls-2" d="M87.55,163.77a1.12,1.12,0,0,0,.08-.35c-1.12-9-10.09-11.21-10.09-11.21a14.09,14.09,0,0,1,3.35-2.38c1.38-.72,2.76-1.43,4.08-2.24,11.16-6.84,35.16-8.83,35.16-8.83l4.83-6.52a42.27,42.27,0,0,0,8.62-4.68l2.78-1.71c0,.45-.43,9.62,3.95,11.8h1.12c-2.54,1.57-5.19,7.52-5.91,15.13h0c-.69.52-30,21.85-32.19,21.85,0,0,0-9-5.6-9-4.63,0-6.2.76-8.51,2.94a6.32,6.32,0,0,0-1.39,1.92,5.07,5.07,0,0,0-.49-1.47,4.42,4.42,0,0,0-.82-1.14c-1.12-1.12-4.48-1.12-4.48-1.12C86.27,165.93,87.3,164.44,87.55,163.77Z"/><path class="cls-8" d="M138.06,105.14c1.26,0,3.72-.94,6.56-2.24,0,0-17.76,19.05-24.49,21.29s-15,3.44-21.48-5c7.77,1.26,16.71,1,21.48-1.71C128,113,131.33,105.14,138.06,105.14Z"/><path class="cls-3" d="M114.49,215l0,0c2.24-2.24,9-2.24,10.09,0s2.24,9,2.24,9c-5.6,1.12-16.81,7.85-21.29,4.48S113.82,215.51,114.49,215Z"/><path class="cls-3" d="M114.47,214.56c0,.16,0,.3,0,.43-.8.29-15.3,5.59-17.9,5.59-3,0-3.33-2.72-1.73-4.9.44-.61,1.05-1.66,1.43-2.3a25.39,25.39,0,0,1,5.56-6.25l.41-.33a17.69,17.69,0,0,1,5.54-2.67l1.11-.37s2.26-1.51,4.33,2.3c.66,1.23,1.05,5.94,1.2,8.23C114.46,214.39,114.46,214.48,114.47,214.56Z"/><path class="cls-3" d="M108.55,200.62h0c-1.74,1.2-.74,3.51-.74,3.51a17.69,17.69,0,0,0-5.54,2.67s-9,1.45-11.29.33-2.24-5.6,7.85-9l5.55-1.85,1.18-.39S108.18,196.36,108.55,200.62Z"/><path class="cls-3" d="M103.32,174.63l-1.57,1.57a41.85,41.85,0,0,0-4.11,4.68c-5.18,7-10.09,5.92-11.13,3.83-.83-1.66.18-8.81.76-12.44a6.35,6.35,0,0,1,.55-1.75h0a6.32,6.32,0,0,1,1.39-1.92c2.31-2.17,3.88-2.94,8.51-2.94C103.32,165.66,103.32,174.63,103.32,174.63Z"/><path class="cls-3" d="M87.63,163.42a1.12,1.12,0,0,1-.08.35c-.25.67-1.28,2.16-5.53,3a59.13,59.13,0,0,0-12,4.33,25,25,0,0,0-5.91,3.52c-1.77,1.77-4.48-9,1.12-13.45l12.33-9S86.5,154.46,87.63,163.42Z"/><path class="cls-3" d="M86.5,167.91a4.42,4.42,0,0,1,.82,1.14,15.46,15.46,0,0,0-7.54,3.34c-4.48,3.36-4.48,4.48-4.48,4.48s-1.12,7.85-4.48,4.48S70,171.11,70,171.11a59.13,59.13,0,0,1,12-4.33S85.38,166.78,86.5,167.91Z"/><path class="cls-9" d="M143.66,60.31s1.12-10.09,6.72-15.69,20.17-12.33,23.54-9c0,0,6.72,2.24,7.85,9"/><path class="cls-9" d="M198.26,56.17c-2.48-16.23-19.3-28.44-39.47-29.48a41.39,41.39,0,0,0-11.17.89h0l-1.08.26a14.69,14.69,0,0,0-9.59,4.46"/><path class="cls-9" d="M164.26,79.48a6,6,0,0,1-1.55-.11,35,35,0,0,1-7.85-2.24S156,74.88,156,69.28a19.51,19.51,0,0,1,.19-2.75"/><path class="cls-9" d="M164.3,56.4a10.73,10.73,0,0,1,7,.94l1.69.85a9.62,9.62,0,0,0,4.25,1c-1,1.42-.44,7.08-1.06,9.21a16.89,16.89,0,0,1-1.46,3.47"/><path class="cls-9" d="M198.26,56.17l4.8-.34-.8,3.19a23.12,23.12,0,0,0-.17,10.25c1,5,1.52,13.37-3.52,21.29,0,0-1.12,3.36-7.85,7.85a14.21,14.21,0,0,1,2.24,6.72s6.72-2.24,11.21,5.6a32.34,32.34,0,0,1,4.48,14.57s1.93,2.1,4.33,4.85c3.66,4.2,8.45,9.93,9.12,12,1.12,3.36,1.12,21.29-2.24,25.78a11.22,11.22,0,0,0-1.54,3.23c-1.73,5.31-2.21,13.33-8.55,16.95,0,0-.15,1.23-.44,3.16-.85,5.6-2.95,17-6.29,20.38,0,0-6.72-4.48-11.21-3.36l-.37-.06"/><path class="cls-9" d="M105.56,54.71a40.22,40.22,0,0,1,0-12.33c12.33-15.69,29.14-19.05,32.5-19.05s9.22,4,9.55,4.25"/><path class="cls-9" d="M112.28,48l-6,7.3L85.38,80.49s-5.6,2.24-6.72,5.6-1.12,9-1.12,12.33,2.24,12.33,9,16.81a21.06,21.06,0,0,0,5.19,2.33,44.6,44.6,0,0,0,6.95,1.63c7.77,1.26,16.71,1,21.48-1.71,7.85-4.48,11.21-12.33,17.93-12.33,1.26,0,3.72-.94,6.56-2.24,6.44-3,14.74-7.85,14.74-7.85s1.12-2.24,5.6,0"/><line class="cls-9" x1="79.78" y1="89.45" x2="82.02" y2="95.06"/><path class="cls-9" d="M102.2,102.9l.41-.28a7.27,7.27,0,0,1,6.31-.84"/><path class="cls-9" d="M144.62,102.9S126.85,122,120.13,124.2s-15,3.44-21.48-5"/><path class="cls-9" d="M136.36,125.83c2.82-1.75,7-4.28,8.43-5l13.45,3.36"/><path class="cls-9" d="M91.69,117.57S91,129,108.28,132.81c1,.21,2,.5,3,.77,2.11.61,6.88,1.32,13.72-1.34a42.27,42.27,0,0,0,8.62-4.68l2.78-1.71"/><path class="cls-9" d="M184,90.57s2.24,13.45-6.72,19.05-16.81,4.48-16.81,4.48"/><path class="cls-9" d="M197.46,192.56s.92,8.27-2.24,12.33A5.59,5.59,0,0,1,194.1,206l-.59.46-.38.31c-.5.41-1.05.9-1.64,1.41h0c-1.74,1.55-3.82,3.46-6.16,5.38-4.25,3.46-9.34,6.93-14.75,8.13,0,0-3.36-4.48,4.48-22.41l.2-.13c1.26-.81,8.27-4.94,14.37.13,0,0,.24.24.63.59a37.52,37.52,0,0,1,5,5"/><path class="cls-9" d="M203.06,211.61s-7.85,16.81-14.57,17.93c-1.71.29-2.77-.62-3.37-2.12-1.77-4.38.19-13.85.19-13.85"/><path class="cls-9" d="M177.61,196.29a16.66,16.66,0,0,1-1.7,2"/><path class="cls-9" d="M170.56,194.8c4.42-3,10.42-3.26,7.07,1.46"/><path class="cls-9" d="M165,180.23s7.85-1.12,11.21,5.6c0,0,1.21,3.46,0,4.48-2,1.73-3.92,3.18-5.65,4.42-10.67,7.62-15.65,6.79-15.65,6.79-2.49-3.73.89-9.87,4.39-14.6l.11-.16A66.14,66.14,0,0,1,165,180.23Z"/><path class="cls-9" d="M170.56,194.8s-.37.87,1.2,2.23a14.43,14.43,0,0,0,3.45,2.05l.69-.81,1.7-2,0,0,4.3-5"/><path class="cls-9" d="M165,180.23s3.36-6.72,13.45-9,17.93-9,21.29-15.69a35.93,35.93,0,0,1,6.3-8.28l.76-.74a9.13,9.13,0,0,1,3-2.19"/><path class="cls-9" d="M190.73,125.32s13.71,21.55,15.26,22"/><path class="cls-9" d="M191.85,134.28s-1.12,9-9,9-12.33-3.36-12.33-3.36"/><path class="cls-9" d="M136.36,125.83h0c0,.45-.43,9.62,3.95,11.8h7.85"/><path class="cls-9" d="M135.51,152.78c.72-7.61,3.36-13.56,5.91-15.13"/><path class="cls-9" d="M159.38,186.77c0,.09,0,.15-.11.16-.69,0-4.2-1.46-8.32-4.16-6.22-4.1-13.83-11-15.13-19.34-.12-.82-.22-1.64-.3-2.44a42.69,42.69,0,0,1,0-8.2"/><path class="cls-9" d="M125,132.24l-4.83,6.52s-24,2-35.16,8.83c-1.32.81-2.7,1.52-4.08,2.24a14.09,14.09,0,0,0-3.35,2.38s9,2.24,10.09,11.21a1.12,1.12,0,0,1-.08.35c-.25.67-1.28,2.16-5.53,3a59.13,59.13,0,0,0-12,4.33,25,25,0,0,0-5.91,3.52c-1.77,1.77-4.48-9,1.12-13.45l12.33-9"/><polyline class="cls-9" points="96.59 156.7 93.23 158.94 87.55 163.77"/><path class="cls-9" d="M87.82,170.53a6.35,6.35,0,0,0-.55,1.75c-.58,3.63-1.59,10.78-.76,12.44,1,2.08,6,3.19,11.13-3.83a41.85,41.85,0,0,1,4.11-4.68l1.57-1.57"/><path class="cls-9" d="M135.51,152.78h0c-.69.52-30,21.85-32.19,21.85,0,0,0-9-5.6-9-4.63,0-6.2.76-8.51,2.94a6.32,6.32,0,0,0-1.39,1.92"/><path class="cls-9" d="M70,171.11s-2.54,6.88.82,10.24,4.48-4.48,4.48-4.48,0-1.12,4.48-4.48A15.46,15.46,0,0,1,87.32,169l.3,0"/><path class="cls-9" d="M82,166.78s3.36,0,4.48,1.12a4.42,4.42,0,0,1,.82,1.14,5.07,5.07,0,0,1,.49,1.47h0"/><path class="cls-9" d="M135.51,161s-13.15,6.93-10.9,15.89,1.12,6.72,7.85,11.21a44.34,44.34,0,0,0-5.92,4.09,5.75,5.75,0,0,1-4.35,1.13c-3.4-.52-9.36-1.3-11-.74a27.53,27.53,0,0,0-6.78,3.75"/><path class="cls-9" d="M150.95,182.77s-8.41,4.19-11.77,3.07l-3.36-1.12"/><path class="cls-9" d="M114.47,214.56c0,.16,0,.3,0,.43h0c0,.34,0,.54,0,.54"/><path class="cls-9" d="M171.76,197s-.08,6.74-4.56,7.86-23.54,9-26.9,12.33a25.56,25.56,0,0,1-13.45,6.72c-5.6,1.12-16.81,7.85-21.29,4.48s8.26-12.91,8.93-13.43l0,0h0c-.8.29-15.3,5.59-17.9,5.59-3,0-3.33-2.72-1.73-4.9.44-.61,1.05-1.66,1.43-2.3a25.39,25.39,0,0,1,5.56-6.25l.41-.33a17.69,17.69,0,0,1,5.54-2.67l1.11-.37s2.26-1.51,4.33,2.3c.66,1.23,1.05,5.94,1.2,8.23"/><path class="cls-9" d="M126.85,223.94s-1.12-6.72-2.24-9-7.85-2.24-10.09,0a3.73,3.73,0,0,1-.06-.41c0-.08,0-.17,0-.27a5.39,5.39,0,0,1,4.56-6c5.6-1.12,4.48-1.12,4.48-1.12"/><path class="cls-9" d="M108.55,200.62c.11-.07.24-.15.37-.21a11,11,0,0,1,6.72-1.12"/><path class="cls-9" d="M107.81,204.14s-1-2.31.74-3.51"/><path class="cls-9" d="M102.27,206.81s-9,1.45-11.29.33-2.24-5.6,7.85-9l5.55-1.85,1.18-.39s2.62.44,3,4.7h0"/><line class="cls-9" x1="132.48" y1="187.99" x2="139.66" y2="193.9"/><path class="cls-9" d="M209.35,191.24s8.28,4.68,7.16,9.17a34.51,34.51,0,0,1-.55,9.72,20.28,20.28,0,0,1-2.81,7.09"/><path class="cls-9" d="M185.12,227.43s-4.47,10-6.71,10-6.72,5.6-6.72,5.6,11.21,0,11.21,11.21c0,0,3.36-11.21,11.21-6.72,6.56,3.74,6.06,10.61,5.73,12.78-.07.43-.12.67-.12.67h3.36s3.36-12.33,7.85-12.33,9,5.6,9,12.33v2.24s5.6-1.12,5.6-10.09S221,246.36,221,238.51s1.13-24.28-5-28.39"/><path class="cls-9" d="M171.68,243s-5.6,2.24-7.85,12.33,2.24,7.85,2.24,7.85l16.81-6.72s-1.12,13.45,2.24,14.57,14.69-10.76,14.69-10.76"/><path class="cls-9" d="M203.06,260.93s3.36,16.81,7.85,15.69,9-14.29,9-14.29"/><path class="cls-9" d="M213,130.17s18.35-12.08,21.45-12.7c5.6-1.12,7.85,22.41-15.69,53.8"/><path class="cls-9" d="M160.52,69.19a6.67,6.67,0,0,1-4.34-2.66c.46-3.35,1.86-6.9,5.18-9a9.49,9.49,0,0,1,2.94-1.18,6.72,6.72,0,0,1,4,6.15,6.81,6.81,0,0,1-.78,3.17"/><path class="cls-9" d="M164.25,74.82a4.89,4.89,0,0,1-3.78-5,4.13,4.13,0,0,1,0-.65,6.71,6.71,0,0,0,7-3.46,5.19,5.19,0,0,1,1.91,4.11,4.27,4.27,0,0,1,0,.66"/><path class="cls-9" d="M174.76,71.88a15.7,15.7,0,0,1-5.68,6,10.14,10.14,0,0,1-4.82,1.6,6.68,6.68,0,0,1,0-4.66,6.72,6.72,0,0,1,5.14-4.31,6.54,6.54,0,0,1,1.17-.1A6.66,6.66,0,0,1,174.76,71.88Z"/></g></g></svg>