<svg xmlns="http://www.w3.org/2000/svg" viewBox="0 0 164.33 220.82"><defs><style>.cls-1{fill:#a23732;}.cls-2{fill:#e4e8ea;}.cls-3{fill:#e1bf3b;}.cls-4{fill:#2d713a;}.cls-5{fill:#fff;}.cls-6{fill:#001a02;}.cls-7{fill:#debf48;}.cls-8{fill:none;stroke:#000;stroke-miterlimit:10;}</style></defs><title>W</title><g id="Capa_2" data-name="Capa 2"><g id="W"><path class="cls-1" d="M18.17,62.43c-.46-.17-1.56-.55-2.92-1v0c.75.38-1.1,7.2,16.1,5.44a34.49,34.49,0,0,1,6.18-.11c2.61.19,6.69-.09,8.65-3.35-10-5-11-3-11-3S26.17,65.43,18.17,62.43Z"/><path class="cls-2" d="M23.17,147.43c-.87,3.49,18.24,5.56,22.08,5.94,1.84-1.27-1.08-12.94-1.08-12.94S24.17,143.43,23.17,147.43Z"/><path class="cls-2" d="M23.17,136.43s-1,1,18,3l3.63.54-.52-9.48a3.92,3.92,0,0,1,.45-2.06C44.11,128.49,24.15,130.52,23.17,136.43Z"/><path class="cls-2" d="M28.17,156.43c-1,0,0,4.84,20.95,5.95l-.95-.95a37.46,37.46,0,0,0-1-8S29.17,156.43,28.17,156.43Z"/><path class="cls-2" d="M28.17,111.43c-1,2.91,17.8,2.2,20.31,4.37-.2-.22-.31-.37-.31-.37,2.35-3.13,1.63-8.72,1.21-11-2.79-1-13.21,0-13.21,0S29.17,108.43,28.17,111.43Z"/><path class="cls-2" d="M29.17,99.43s-5,3,7,5c0,0,10.42-1,13.21,0-.12-.63-.21-1-.21-1a1.35,1.35,0,0,1,1-1.24V97.91a3.1,3.1,0,0,1,.38-1.48S42.17,91.43,29.17,99.43Z"/><path class="cls-2" d="M39.17,212.43s-.53.74,2,2c2,1,19.49,3.53,20,3.6q-.51-.28-1-.6l-1.68-10.9a3.21,3.21,0,0,1,.12-1.45h0a43.67,43.67,0,0,0-12.89,2.44C42.94,208.61,40.46,210.17,39.17,212.43Z"/><path class="cls-2" d="M46.56,199.4c-2.44.94-4.49,2.24-5.39,4,0,0-2.93,3.19,4.54,4.09a43.67,43.67,0,0,1,12.89-2.44h0a3,3,0,0,1,.8-1.32l-.09-.08c-.58-1.2,0-4.13.47-5.88a2.93,2.93,0,0,1,.37-.87C59.82,196.94,52.17,197.23,46.56,199.4Z"/><path class="cls-2" d="M44.17,197.43s0,1.72,2.39,2c5.61-2.17,13.26-2.46,13.6-2.47a2.88,2.88,0,0,1,1-1l0,0v-3.62a2.53,2.53,0,0,1,.15-.87S48.17,190.43,44.17,197.43Z"/><path class="cls-3" d="M50.17,102.19a1.35,1.35,0,0,0-1,1.24s.09.37.21,1c.42,2.28,1.14,7.87-1.21,11,0,0,.11.15.31.37l0,0a.8.8,0,0,1,.13.13c.94,1,3.23,3,5.53,1.47,0,0,5.92-1.53,8.46,1.23a27.83,27.83,0,0,1,4.54-12.23A36.87,36.87,0,0,1,65.24,98s-8.07-6.61-12.07-3.61c0,0-.8.4-1.64.94a3,3,0,0,0-1.36,2.54Z"/><path class="cls-4" d="M52.91,38.53a32.09,32.09,0,0,0,6.57,3,8.27,8.27,0,0,1,1.29-2.85,7,7,0,0,1-2.6-5.71A8,8,0,0,1,59,29.44a8,8,0,0,1-2.76-5.91c-1.21,2.4-1.45,5.49-2,8.9-.42,2.53-1,3.82-1.57,4.46A1.09,1.09,0,0,0,52.91,38.53Z"/><path class="cls-2" d="M60.17,170.43c-3,2,1.15,2.59,1.15,2.59a22.07,22.07,0,0,1,4.85-1.59c4.65-.93,5.35-.44,5.42-.37a7.08,7.08,0,0,1-1.45-3.48S63.17,168.43,60.17,170.43Z"/><path class="cls-5" d="M60.77,38.64a8.27,8.27,0,0,0-1.29,2.85,19.66,19.66,0,0,0,5.69.94,8.23,8.23,0,0,0,4.59-1.36A6.89,6.89,0,0,0,67,37.14a4.19,4.19,0,0,0-2.31-.71A4.89,4.89,0,0,0,60.77,38.64Z"/><path class="cls-5" d="M61.67,30.43A5.12,5.12,0,0,0,66,27.56a9.27,9.27,0,0,0,1.18-4.63,9.54,9.54,0,0,0-.54-3.22,8.25,8.25,0,0,0-10.44,3.81h0A8,8,0,0,0,59,29.44,4.37,4.37,0,0,0,61.67,30.43Z"/><path class="cls-6" d="M67,37.14a7.74,7.74,0,0,0,1.19-4.21A7.22,7.22,0,0,0,66,27.56a5.12,5.12,0,0,1-4.32,2.87,4.37,4.37,0,0,1-2.72-1,8,8,0,0,0-.78,3.49,7,7,0,0,0,2.6,5.71,4.89,4.89,0,0,1,3.9-2.21A4.19,4.19,0,0,1,67,37.14Z"/><path class="cls-2" d="M57.17,177.43c1,2,12.85,1.72,12.85,1.72h0a2.15,2.15,0,0,1-.56-2,16.56,16.56,0,0,1,2.63-5.49,6.66,6.66,0,0,1-.5-.56h0c-.07-.07-.77-.56-5.42.37A22.07,22.07,0,0,0,61.32,173C58.47,174.35,56.51,176.11,57.17,177.43Z"/><path class="cls-7" d="M69.47,177.12a2.15,2.15,0,0,0,.56,2,2.12,2.12,0,0,0,1.19.65l5.72,1-.77-5.36a8.62,8.62,0,0,0-2.84-2.75,7.33,7.33,0,0,1-1.23-1.05A16.56,16.56,0,0,0,69.47,177.12Z"/><path class="cls-4" d="M77.72,25.62c-.61.14-1.95.11-4.55-1.19a18.8,18.8,0,0,0-6.54-4.72,9.54,9.54,0,0,1,.54,3.22A9.27,9.27,0,0,1,66,27.56a7.22,7.22,0,0,1,2.18,5.37A7.74,7.74,0,0,1,67,37.14a6.89,6.89,0,0,1,2.78,3.93c3.74-2.46,5.41-7.66,5.41-10.64a5.12,5.12,0,0,1,2.55-4.79S77.73,25.62,77.72,25.62Z"/><path class="cls-7" d="M101.5,170.43a1.35,1.35,0,0,0-.09,2.08,75.89,75.89,0,0,1,8,8.29h0s4.79-1.36,5.79-3.36-1-6-1-6l-.49-3.85c-3.23.74-7,1.34-9.51.85Z"/><path class="cls-3" d="M15.24,61.45v0c1.36.46,2.46.84,2.92,1,8,3,17-2,17-2s1-2,11,3c-2,3.26-6,3.54-8.65,3.35a34.49,34.49,0,0,0-6.18.11C14.14,68.65,16,61.83,15.24,61.45ZM78.08,4.67a18.78,18.78,0,0,0-5.41-1.19c-.66,0-1.32-.11-2-.21a9.88,9.88,0,0,0-3.47.42c-3,.72-8.15,2.52-17.06,6.74a11.41,11.41,0,0,0-3.32,4.51h0L6.17,29.43s-8,5-5,14c0,0,1,11,5,15l3.38,1.11s1.62,10.89,7.62,14.89,33,9,33,9l18,8s-3.47,0-2.93,6.61a36.87,36.87,0,0,0,1.93,8.39,27.83,27.83,0,0,0-4.54,12.23,18.83,18.83,0,0,0,1.54,9.77v.4a22,22,0,0,1-4-.4c-3.45-.86-9.15-4-13.86-1.57a3.56,3.56,0,0,0-1.57,1.57h0a3.92,3.92,0,0,0-.45,2.06L44.8,140a2.69,2.69,0,0,0-.63.46s2.92,11.67,1.08,12.94l.67.06h1.25a37.46,37.46,0,0,1,1,8l.95.95.05.05a66.09,66.09,0,0,0,24-.79l-1,.79a5.18,5.18,0,0,0-2.06,3.87,6.83,6.83,0,0,0,0,1.28,7.08,7.08,0,0,0,1.45,3.48h0a6.66,6.66,0,0,0,.5.56,7.33,7.33,0,0,0,1.23,1.05,8.62,8.62,0,0,1,2.84,2.75l.77,5.36,1.23,8.64s-8.94-1.62-15.09.25a2.69,2.69,0,0,0-1.76,1.7,2.53,2.53,0,0,0-.15.87v3.62l0,0a2.88,2.88,0,0,0-1,1,2.93,2.93,0,0,0-.37.87c-.44,1.75-1,4.68-.47,5.88l.09.08a3,3,0,0,0-.8,1.32,3.21,3.21,0,0,0-.12,1.45l1.68,10.9q.48.31,1,.6h0c6,3.29,14.38,2.35,21,1.4,7-1,21,0,31,0s12-4,13-11-11-18-11-18a32.09,32.09,0,0,0-5.8-9.63,75.89,75.89,0,0,0-8-8.29,1.35,1.35,0,0,1,.09-2.08l2.67-2c2.47.49,6.28-.11,9.51-.85s6-1.65,6-1.65c24-5,32-19,40-38,3.63-8.62,4.38-14.15,4.11-17.62a3.63,3.63,0,0,0-5.64-2.93c-2.46,1.75-6.89,3.53-13.47,5.55-6,1.85-11.19,3.71-15,5.16,0,0-5.5-9.66-9.5-12.66,0,0-1-7-7-9,0,0,3-10-9-13l-1-5s14-6,18-15,7-37-12-51c0,0-8.78-8-23.5-8.25a41.77,41.77,0,0,0-5.5.25h-2ZM52.91,38.53a1.09,1.09,0,0,1-.31-1.64c.55-.64,1.15-1.93,1.57-4.46.57-3.41.81-6.5,2-8.9h0a8.25,8.25,0,0,1,10.44-3.81,18.8,18.8,0,0,1,6.54,4.72c2.6,1.3,3.94,1.33,4.55,1.19,0,0,0,0,0,0a5.12,5.12,0,0,0-2.55,4.79c0,3-1.67,8.18-5.41,10.64a8.23,8.23,0,0,1-4.59,1.36,19.66,19.66,0,0,1-5.69-.94A32.09,32.09,0,0,1,52.91,38.53Z"/><path class="cls-8" d="M122.67,120.93s2.59-1.15,7-2.84c3.81-1.45,9-3.31,15-5.16,6.58-2,11-3.8,13.47-5.55a3.63,3.63,0,0,1,5.64,2.93c.27,3.47-.48,9-4.11,17.62-8,19-16,33-40,38,0,0-2.69.9-6,1.65s-7,1.34-9.51.85"/><path class="cls-8" d="M61.16,218q-.51-.28-1-.6l-1.68-10.9a3.21,3.21,0,0,1,.12-1.45,3,3,0,0,1,.8-1.32,2.69,2.69,0,0,1,.73-.55,25.9,25.9,0,0,1,8-2.78"/><path class="cls-8" d="M112.17,162.43l-8,6-2.67,2a1.35,1.35,0,0,0-.09,2.08,75.89,75.89,0,0,1,8,8.29,32.09,32.09,0,0,1,5.8,9.63s12,11,11,18-3,11-13,11-24-1-31,0c-6.62.95-15,1.89-21-1.4"/><path class="cls-8" d="M76.17,194.43s-10,0-14.34,1.22a2.35,2.35,0,0,0-.63.27,2.88,2.88,0,0,0-1,1,2.93,2.93,0,0,0-.37.87c-.44,1.75-1,4.68-.47,5.88"/><path class="cls-8" d="M71.59,171.06a7.08,7.08,0,0,1-1.45-3.48,6.83,6.83,0,0,1,0-1.28,5.18,5.18,0,0,1,2.06-3.87l1-.79"/><path class="cls-8" d="M61.17,195.87v-3.62a2.53,2.53,0,0,1,.15-.87,2.69,2.69,0,0,1,1.76-1.7c6.15-1.87,15.09-.25,15.09-.25l-1.23-8.64-.77-5.36a8.62,8.62,0,0,0-2.84-2.75,7.33,7.33,0,0,1-1.23-1.05,6.66,6.66,0,0,1-.5-.56"/><path class="cls-8" d="M113.68,167.58l.49,3.85s2,4,1,6-5.79,3.36-5.79,3.36"/><path class="cls-8" d="M72.1,171.63a16.56,16.56,0,0,0-2.63,5.49,2.15,2.15,0,0,0,.56,2,2.12,2.12,0,0,0,1.19.65l5.72,1"/><path class="cls-8" d="M129.67,118.09s-5.5-9.66-9.5-12.66c0,0-1-7-7-9,0,0,3-10-9-13l-1-5s14-6,18-15,7-37-12-51c0,0-8.78-8-23.5-8.25a41.77,41.77,0,0,0-5.5.25h-2"/><path class="cls-8" d="M100.17,24.43s6,2,0,6"/><path class="cls-8" d="M46.84,14.94a9.43,9.43,0,0,0-.67,3.49"/><path class="cls-8" d="M84.17,9.43C83.68,8.21,81.6,6,78.08,4.67a18.78,18.78,0,0,0-5.41-1.19c-.66,0-1.32-.11-2-.21a9.88,9.88,0,0,0-3.47.42c-3,.72-8.15,2.52-17.06,6.74a11.41,11.41,0,0,0-3.32,4.51"/><path class="cls-8" d="M85.67,4.18s-7.5-7.75-18.5-.75"/><path class="cls-8" d="M46.85,14.94h0L6.17,29.43s-8,5-5,14c0,0,1,11,5,15l3.38,1.11,5.7,1.88c1.36.46,2.46.84,2.92,1,8,3,17-2,17-2s1-2,11,3c0,0,7,2,10-4,0,0,1-3,5-1"/><path class="cls-8" d="M46.17,63.43c-2,3.26-6,3.54-8.65,3.35a34.49,34.49,0,0,0-6.18.11c-17.2,1.76-15.35-5.06-16.1-5.44l-.07,0"/><path class="cls-8" d="M9.55,59.54s1.62,10.89,7.62,14.89,33,9,33,9l18,8s-3.47,0-2.93,6.61a36.87,36.87,0,0,0,1.93,8.39,27.83,27.83,0,0,0-4.54,12.23,18.83,18.83,0,0,0,1.54,9.77"/><path class="cls-8" d="M57.17,77.43a29.08,29.08,0,0,0,21,5c12-2,10-13,10-13"/><path class="cls-8" d="M69.76,41.07c3.74-2.46,5.41-7.66,5.41-10.64a5.12,5.12,0,0,1,2.55-4.79s0,0,0,0c-.61.14-1.95.11-4.55-1.19a18.8,18.8,0,0,0-6.54-4.72"/><path class="cls-8" d="M56.19,23.53c-1.21,2.4-1.45,5.49-2,8.9-.42,2.53-1,3.82-1.57,4.46a1.09,1.09,0,0,0,.31,1.64,32.09,32.09,0,0,0,6.57,3"/><path class="cls-8" d="M5.17,42.43s-1-2,4-3"/><path class="cls-8" d="M60.77,38.64a8.27,8.27,0,0,0-1.29,2.85,19.66,19.66,0,0,0,5.69.94,8.23,8.23,0,0,0,4.59-1.36A6.89,6.89,0,0,0,67,37.14"/><path class="cls-8" d="M66,27.56a9.27,9.27,0,0,0,1.18-4.63,9.54,9.54,0,0,0-.54-3.22,8.25,8.25,0,0,0-10.44,3.81h0A8,8,0,0,0,59,29.44"/><path class="cls-8" d="M59,29.44a8,8,0,0,0-.78,3.49,7,7,0,0,0,2.6,5.71,4.89,4.89,0,0,1,3.9-2.21,4.19,4.19,0,0,1,2.31.71,7.74,7.74,0,0,0,1.19-4.21A7.22,7.22,0,0,0,66,27.56a5.12,5.12,0,0,1-4.32,2.87A4.37,4.37,0,0,1,59,29.44Z"/><path class="cls-8" d="M61.32,191.38s-13.15-.95-17.15,6.05c0,0,0,1.72,2.39,2a5.79,5.79,0,0,0,.61,0"/><path class="cls-8" d="M60.17,196.93h0c-.34,0-8,.3-13.6,2.47-2.44.94-4.49,2.24-5.39,4,0,0-2.93,3.19,4.54,4.09"/><path class="cls-8" d="M58.6,205.08a43.67,43.67,0,0,0-12.89,2.44c-2.77,1.09-5.25,2.65-6.54,4.91"/><path class="cls-8" d="M61.17,218h0c-.5-.07-18-2.61-20-3.6-2.53-1.26-2-2-2-2"/><path class="cls-8" d="M70,179.15s-11.85.28-12.85-1.72c-.66-1.32,1.3-3.08,4.15-4.41a22.07,22.07,0,0,1,4.85-1.59c4.65-.93,5.35-.44,5.42-.37h0"/><path class="cls-8" d="M70.14,167.58s-7,.85-10,2.85S61.32,173,61.32,173"/><path class="cls-8" d="M98.17,99.43a12.07,12.07,0,0,1-1,10s7,32,4,38c-2,4-13.3,11.09-28,14.21a66.09,66.09,0,0,1-24,.79l-.05-.05-.95-.95a37.46,37.46,0,0,0-1-8h4"/><path class="cls-8" d="M53.17,139.43s-5.83-.83-8.37.54a2.69,2.69,0,0,0-.63.46s2.92,11.67,1.08,12.94a.21.21,0,0,1-.08.06h2s-18,3-19,3,0,4.84,20.95,5.95l1,.05"/><path class="cls-8" d="M79.17,99.43c0,1-1,7,3,12,0,0-.46,1.84-1,4.63-1,5.42-2.33,14.42-1,20.37"/><path class="cls-8" d="M72.17,113.43s5,4,6,3L81.38,115"/><path class="cls-8" d="M65.24,98s-8.07-6.61-12.07-3.61c0,0-.8.4-1.64.94a3,3,0,0,0-1.36,2.54v4.52"/><path class="cls-8" d="M48.51,115.83a.79.79,0,0,0,.13.13c.94,1,3.23,3,5.53,1.47,0,0,5.92-1.53,8.46,1.23"/><path class="cls-8" d="M59.17,102.43s-6.47-1.29-9-.24a1.35,1.35,0,0,0-1,1.24s.09.37.21,1c.42,2.28,1.14,7.87-1.21,11,0,0,.11.15.31.37"/><path class="cls-8" d="M50.55,96.43s-8.38-5-21.38,3c0,0-5,3,7,5,0,0,10.42-1,13.21,0"/><path class="cls-8" d="M36.17,104.43s-7,4-8,7,17.8,2.2,20.31,4.37l0,0a.8.8,0,0,1,.13.13l0,.05"/><path class="cls-8" d="M44.74,128.43a3.56,3.56,0,0,1,1.57-1.57c4.71-2.4,10.41.71,13.86,1.57a22,22,0,0,0,4,.4c5.91.21,15-.4,15-.4"/><path class="cls-8" d="M44.73,128.43c-.62.06-20.58,2.09-21.56,8,0,0-1,1,18,3l3.63.54-.52-9.48a3.92,3.92,0,0,1,.45-2.06"/><path class="cls-8" d="M44.73,128.43h0"/><path class="cls-8" d="M44.17,140.43s-20,3-21,7c-.87,3.49,18.24,5.56,22.08,5.94l.67.06"/></g></g></svg>