<svg xmlns="http://www.w3.org/2000/svg" viewBox="0 0 300 300"><defs><style>.cls-1,.cls-9{fill:none;}.cls-2{fill:#a23732;}.cls-3{fill:#e4e8ea;}.cls-4{fill:#e1bf3b;}.cls-5{fill:#2d713a;}.cls-6{fill:#fff;}.cls-7{fill:#001a02;}.cls-8{fill:#debf48;}.cls-9{stroke:#000;stroke-miterlimit:10;}</style></defs><title>W</title><g id="Capa_2" data-name="Capa 2"><g id="img_bg" data-name="img bg"><rect class="cls-1" width="300" height="300"/></g><g id="W"><path class="cls-2" d="M86,102c-.46-.17-1.56-.55-2.92-1v0c.75.38-1.1,7.2,16.1,5.44a34.49,34.49,0,0,1,6.18-.11c2.61.19,6.69-.09,8.65-3.35-10-5-11-3-11-3S94,105,86,102Z"/><path class="cls-3" d="M91,187c-.87,3.49,18.24,5.56,22.08,5.94C114.93,191.69,112,180,112,180S92,183,91,187Z"/><path class="cls-3" d="M91,176s-1,1,18,3l3.63.54-.52-9.48a3.92,3.92,0,0,1,.45-2.06C111.95,168.08,92,170.11,91,176Z"/><path class="cls-3" d="M96,196c-1,0,0,4.84,20.95,6l-.95-1a37.46,37.46,0,0,0-1-8S97,196,96,196Z"/><path class="cls-3" d="M96,151c-1,2.91,17.8,2.2,20.31,4.37-.2-.22-.31-.37-.31-.37,2.35-3.13,1.63-8.72,1.21-11-2.79-1-13.21,0-13.21,0S97,148,96,151Z"/><path class="cls-3" d="M97,139s-5,3,7,5c0,0,10.42-1,13.21,0-.12-.63-.21-1-.21-1a1.35,1.35,0,0,1,1-1.24V137.5a3.1,3.1,0,0,1,.38-1.48S110,131,97,139Z"/><path class="cls-3" d="M107,252s-.53.74,2,2c2,1,19.49,3.53,20,3.6q-.51-.28-1-.6l-1.68-10.9a3.21,3.21,0,0,1,.12-1.45h0a43.67,43.67,0,0,0-12.89,2.44C110.78,248.2,108.3,249.76,107,252Z"/><path class="cls-3" d="M114.4,239c-2.44.94-4.49,2.24-5.39,4,0,0-2.93,3.19,4.54,4.09a43.67,43.67,0,0,1,12.89-2.44h0a3,3,0,0,1,.8-1.32l-.09-.08c-.58-1.2,0-4.13.47-5.88a2.93,2.93,0,0,1,.37-.87C127.66,236.53,120,236.82,114.4,239Z"/><path class="cls-3" d="M112,237s0,1.72,2.39,2c5.61-2.17,13.26-2.46,13.6-2.47a2.88,2.88,0,0,1,1-1l0-.05v-3.62a2.53,2.53,0,0,1,.15-.87S116,230,112,237Z"/><path class="cls-4" d="M118,141.78a1.35,1.35,0,0,0-1,1.24s.09.37.21,1c.42,2.28,1.14,7.87-1.21,11,0,0,.11.15.31.37l0,0a.8.8,0,0,1,.13.13c.94,1,3.23,3,5.53,1.47,0,0,5.92-1.53,8.46,1.23A27.83,27.83,0,0,1,135,146a36.87,36.87,0,0,1-1.93-8.39S125,131,121,134c0,0-.8.4-1.64.94A3,3,0,0,0,118,137.5Z"/><path class="cls-5" d="M120.75,78.12a32.09,32.09,0,0,0,6.57,3,8.27,8.27,0,0,1,1.29-2.85,7,7,0,0,1-2.6-5.71,8,8,0,0,1,.78-3.49A8,8,0,0,1,124,63.12c-1.21,2.4-1.45,5.49-2,8.9-.42,2.53-1,3.82-1.57,4.46A1.09,1.09,0,0,0,120.75,78.12Z"/><path class="cls-3" d="M128,210c-3,2,1.15,2.59,1.15,2.59A22.07,22.07,0,0,1,134,211c4.65-.93,5.35-.44,5.42-.37a7.08,7.08,0,0,1-1.45-3.48S131,208,128,210Z"/><path class="cls-6" d="M128.61,78.23a8.27,8.27,0,0,0-1.29,2.85A19.66,19.66,0,0,0,133,82a8.23,8.23,0,0,0,4.59-1.36,6.89,6.89,0,0,0-2.78-3.93,4.19,4.19,0,0,0-2.31-.71A4.89,4.89,0,0,0,128.61,78.23Z"/><path class="cls-6" d="M129.51,70a5.12,5.12,0,0,0,4.32-2.87A9.27,9.27,0,0,0,135,62.52a9.54,9.54,0,0,0-.54-3.22A8.25,8.25,0,0,0,124,63.11h0A8,8,0,0,0,126.79,69,4.37,4.37,0,0,0,129.51,70Z"/><path class="cls-7" d="M134.82,76.73A7.74,7.74,0,0,0,136,72.52a7.22,7.22,0,0,0-2.18-5.37A5.12,5.12,0,0,1,129.51,70a4.37,4.37,0,0,1-2.72-1,8,8,0,0,0-.78,3.49,7,7,0,0,0,2.6,5.71,4.89,4.89,0,0,1,3.9-2.21A4.19,4.19,0,0,1,134.82,76.73Z"/><path class="cls-3" d="M125,217c1,2,12.85,1.72,12.85,1.72h0a2.15,2.15,0,0,1-.56-2,16.56,16.56,0,0,1,2.63-5.49,6.66,6.66,0,0,1-.5-.56h0c-.07-.07-.77-.56-5.42.37a22.07,22.07,0,0,0-4.85,1.59C126.31,213.94,124.35,215.7,125,217Z"/><path class="cls-8" d="M137.31,216.71a2.15,2.15,0,0,0,.56,2,2.12,2.12,0,0,0,1.19.65l5.72,1L144,215a8.62,8.62,0,0,0-2.84-2.75,7.33,7.33,0,0,1-1.23-1A16.56,16.56,0,0,0,137.31,216.71Z"/><path class="cls-5" d="M145.56,65.21c-.61.14-1.95.11-4.55-1.19a18.8,18.8,0,0,0-6.54-4.72,9.54,9.54,0,0,1,.54,3.22,9.27,9.27,0,0,1-1.18,4.63A7.22,7.22,0,0,1,136,72.52a7.74,7.74,0,0,1-1.19,4.21,6.89,6.89,0,0,1,2.78,3.93C141.34,78.2,143,73,143,70a5.12,5.12,0,0,1,2.55-4.79S145.57,65.21,145.56,65.21Z"/><path class="cls-8" d="M169.34,210a1.35,1.35,0,0,0-.09,2.08,75.89,75.89,0,0,1,8,8.29h0S182,219,183,217s-1-6-1-6l-.49-3.85c-3.23.74-7,1.34-9.51.85Z"/><path class="cls-4" d="M83.08,101v0c1.36.46,2.46.84,2.92,1,8,3,17-2,17-2s1-2,11,3c-2,3.26-6,3.54-8.65,3.35a34.49,34.49,0,0,0-6.18.11C82,108.24,83.83,101.42,83.08,101Zm62.84-56.78a18.78,18.78,0,0,0-5.41-1.19c-.66,0-1.32-.11-2-.21a9.88,9.88,0,0,0-3.47.42c-3,.72-8.15,2.52-17.06,6.74a11.41,11.41,0,0,0-3.32,4.51h0L74,69s-8,5-5,14c0,0,1,11,5,15l3.38,1.11S79,110,85,114s33,9,33,9l18,8s-3.47,0-2.93,6.61A36.87,36.87,0,0,0,135,146a27.83,27.83,0,0,0-4.54,12.23A18.83,18.83,0,0,0,132,168v.4a22,22,0,0,1-4-.4c-3.45-.86-9.15-4-13.86-1.57a3.56,3.56,0,0,0-1.57,1.57h0a3.92,3.92,0,0,0-.45,2.06l.52,9.48a2.69,2.69,0,0,0-.63.46s2.92,11.67,1.08,12.94l.67.06H115a37.46,37.46,0,0,1,1,8l.95,1,0,0a66.09,66.09,0,0,0,24-.79l-1,.79a5.18,5.18,0,0,0-2.06,3.87,6.83,6.83,0,0,0,0,1.28,7.08,7.08,0,0,0,1.45,3.48h0a6.66,6.66,0,0,0,.5.56,7.33,7.33,0,0,0,1.23,1A8.62,8.62,0,0,1,144,215l.77,5.36L146,229s-8.94-1.62-15.09.25a2.69,2.69,0,0,0-1.76,1.7,2.53,2.53,0,0,0-.15.87v3.62l0,.05a2.88,2.88,0,0,0-1,1,2.93,2.93,0,0,0-.37.87c-.44,1.75-1,4.68-.47,5.88l.09.08a3,3,0,0,0-.8,1.32,3.21,3.21,0,0,0-.12,1.45L128,257q.48.31,1,.6h0c6,3.29,14.38,2.35,21,1.4,7-1,21,0,31,0s12-4,13-11-11-18-11-18a32.09,32.09,0,0,0-5.8-9.63,75.89,75.89,0,0,0-8-8.29,1.35,1.35,0,0,1,.09-2.08l2.67-2c2.47.49,6.28-.11,9.51-.85s6-1.65,6-1.65c24-5,32-19,40-38,3.63-8.62,4.38-14.15,4.11-17.62A3.63,3.63,0,0,0,226,147c-2.46,1.75-6.89,3.53-13.47,5.55-6,1.85-11.19,3.71-15,5.16,0,0-5.5-9.66-9.5-12.66,0,0-1-7-7-9,0,0,3-10-9-13l-1-5s14-6,18-15,7-37-12-51c0,0-8.78-8-23.5-8.25A41.77,41.77,0,0,0,148,44h-2ZM120.75,78.12a1.09,1.09,0,0,1-.31-1.64c.55-.64,1.15-1.93,1.57-4.46.57-3.41.81-6.5,2-8.9h0a8.25,8.25,0,0,1,10.44-3.81A18.8,18.8,0,0,1,141,64c2.6,1.3,3.94,1.33,4.55,1.19,0,0,0,0,0,0A5.12,5.12,0,0,0,143,70c0,3-1.67,8.18-5.41,10.64A8.23,8.23,0,0,1,133,82a19.66,19.66,0,0,1-5.69-.94A32.09,32.09,0,0,1,120.75,78.12Z"/><path class="cls-9" d="M190.51,160.52s2.59-1.15,7-2.84c3.81-1.45,9-3.31,15-5.16,6.58-2,11-3.8,13.47-5.55a3.63,3.63,0,0,1,5.64,2.93c.27,3.47-.48,9-4.11,17.62-8,19-16,33-40,38,0,0-2.69.9-6,1.65s-7,1.34-9.51.85"/><path class="cls-9" d="M129,257.62q-.51-.28-1-.6l-1.68-10.9a3.21,3.21,0,0,1,.12-1.45,3,3,0,0,1,.8-1.32,2.69,2.69,0,0,1,.73-.55,25.9,25.9,0,0,1,8-2.78"/><path class="cls-9" d="M180,202l-8,6-2.67,2a1.35,1.35,0,0,0-.09,2.08,75.89,75.89,0,0,1,8,8.29A32.09,32.09,0,0,1,183,230s12,11,11,18-3,11-13,11-24-1-31,0c-6.62.95-15,1.89-21-1.4"/><path class="cls-9" d="M144,234s-10,0-14.34,1.22a2.35,2.35,0,0,0-.63.27,2.88,2.88,0,0,0-1,1,2.93,2.93,0,0,0-.37.87c-.44,1.75-1,4.68-.47,5.88"/><path class="cls-9" d="M139.43,210.65a7.08,7.08,0,0,1-1.45-3.48,6.83,6.83,0,0,1,0-1.28A5.18,5.18,0,0,1,140,202l1-.79"/><path class="cls-9" d="M129,235.46v-3.62a2.53,2.53,0,0,1,.15-.87,2.69,2.69,0,0,1,1.76-1.7C137.07,227.4,146,229,146,229l-1.23-8.64L144,215a8.62,8.62,0,0,0-2.84-2.75,7.33,7.33,0,0,1-1.23-1,6.66,6.66,0,0,1-.5-.56"/><path class="cls-9" d="M181.52,207.17,182,211s2,4,1,6-5.79,3.36-5.79,3.36"/><path class="cls-9" d="M139.94,211.22a16.56,16.56,0,0,0-2.63,5.49,2.15,2.15,0,0,0,.56,2,2.12,2.12,0,0,0,1.19.65l5.72,1"/><path class="cls-9" d="M197.51,157.68S192,148,188,145c0,0-1-7-7-9,0,0,3-10-9-13l-1-5s14-6,18-15,7-37-12-51c0,0-8.78-8-23.5-8.25A41.77,41.77,0,0,0,148,44h-2"/><path class="cls-9" d="M168,64s6,2,0,6"/><path class="cls-9" d="M114.68,54.53A9.43,9.43,0,0,0,114,58"/><path class="cls-9" d="M152,49c-.49-1.22-2.57-3.38-6.09-4.76a18.78,18.78,0,0,0-5.41-1.19c-.66,0-1.32-.11-2-.21a9.88,9.88,0,0,0-3.47.42c-3,.72-8.15,2.52-17.06,6.74a11.41,11.41,0,0,0-3.32,4.51"/><path class="cls-9" d="M153.51,43.77S146,36,135,43"/><path class="cls-9" d="M114.69,54.53h0L74,69s-8,5-5,14c0,0,1,11,5,15l3.38,1.11,5.7,1.88c1.36.46,2.46.84,2.92,1,8,3,17-2,17-2s1-2,11,3c0,0,7,2,10-4,0,0,1-3,5-1"/><path class="cls-9" d="M114,103c-2,3.26-6,3.54-8.65,3.35a34.49,34.49,0,0,0-6.18.11c-17.2,1.76-15.35-5.06-16.1-5.44L83,101"/><path class="cls-9" d="M77.39,99.13S79,110,85,114s33,9,33,9l18,8s-3.47,0-2.93,6.61A36.87,36.87,0,0,0,135,146a27.83,27.83,0,0,0-4.54,12.23A18.83,18.83,0,0,0,132,168"/><path class="cls-9" d="M125,117a29.08,29.08,0,0,0,21,5c12-2,10-13,10-13"/><path class="cls-9" d="M137.6,80.66C141.34,78.2,143,73,143,70a5.12,5.12,0,0,1,2.55-4.79s0,0,0,0c-.61.14-1.95.11-4.55-1.19a18.8,18.8,0,0,0-6.54-4.72"/><path class="cls-9" d="M124,63.12c-1.21,2.4-1.45,5.49-2,8.9-.42,2.53-1,3.82-1.57,4.46a1.09,1.09,0,0,0,.31,1.64,32.09,32.09,0,0,0,6.57,3"/><path class="cls-9" d="M73,82s-1-2,4-3"/><path class="cls-9" d="M128.61,78.23a8.27,8.27,0,0,0-1.29,2.85A19.66,19.66,0,0,0,133,82a8.23,8.23,0,0,0,4.59-1.36,6.89,6.89,0,0,0-2.78-3.93"/><path class="cls-9" d="M133.83,67.15A9.27,9.27,0,0,0,135,62.52a9.54,9.54,0,0,0-.54-3.22A8.25,8.25,0,0,0,124,63.11h0A8,8,0,0,0,126.79,69"/><path class="cls-9" d="M126.79,69a8,8,0,0,0-.78,3.49,7,7,0,0,0,2.6,5.71,4.89,4.89,0,0,1,3.9-2.21,4.19,4.19,0,0,1,2.31.71A7.74,7.74,0,0,0,136,72.52a7.22,7.22,0,0,0-2.18-5.37A5.12,5.12,0,0,1,129.51,70,4.37,4.37,0,0,1,126.79,69Z"/><path class="cls-9" d="M129.16,231S116,230,112,237c0,0,0,1.72,2.39,2a5.79,5.79,0,0,0,.61,0"/><path class="cls-9" d="M128,236.52h0c-.34,0-8,.3-13.6,2.47-2.44.94-4.49,2.24-5.39,4,0,0-2.93,3.19,4.54,4.09"/><path class="cls-9" d="M126.44,244.67a43.67,43.67,0,0,0-12.89,2.44c-2.77,1.09-5.25,2.65-6.54,4.91"/><path class="cls-9" d="M129,257.62h0c-.5-.07-18-2.61-20-3.6-2.53-1.26-2-2-2-2"/><path class="cls-9" d="M137.86,218.74S126,219,125,217c-.66-1.32,1.3-3.08,4.15-4.41A22.07,22.07,0,0,1,134,211c4.65-.93,5.35-.44,5.42-.37h0"/><path class="cls-9" d="M138,207.17s-7,.85-10,2.85,1.15,2.59,1.15,2.59"/><path class="cls-9" d="M166,139a12.07,12.07,0,0,1-1,10s7,32,4,38c-2,4-13.3,11.09-28,14.21a66.09,66.09,0,0,1-24,.79l0,0-.95-1a37.46,37.46,0,0,0-1-8h4"/><path class="cls-9" d="M121,179s-5.83-.83-8.37.54a2.69,2.69,0,0,0-.63.46s2.92,11.67,1.08,12.94a.21.21,0,0,1-.08.06h2s-18,3-19,3,0,4.84,20.95,6l1,0"/><path class="cls-9" d="M147,139c0,1-1,7,3,12,0,0-.46,1.84-1,4.63-1,5.42-2.33,14.42-1,20.37"/><path class="cls-9" d="M140,153s5,4,6,3l3.21-1.42"/><path class="cls-9" d="M133.08,137.63S125,131,121,134c0,0-.8.4-1.64.94A3,3,0,0,0,118,137.5V142"/><path class="cls-9" d="M116.35,155.42a.79.79,0,0,0,.13.13c.94,1,3.23,3,5.53,1.47,0,0,5.92-1.53,8.46,1.23"/><path class="cls-9" d="M127,142s-6.47-1.29-9-.24a1.35,1.35,0,0,0-1,1.24s.09.37.21,1c.42,2.28,1.14,7.87-1.21,11,0,0,.11.15.31.37"/><path class="cls-9" d="M118.39,136S110,131,97,139c0,0-5,3,7,5,0,0,10.42-1,13.21,0"/><path class="cls-9" d="M104,144s-7,4-8,7,17.8,2.2,20.31,4.37l0,0a.8.8,0,0,1,.13.13l0,.05"/><path class="cls-9" d="M112.58,168a3.56,3.56,0,0,1,1.57-1.57c4.71-2.4,10.41.71,13.86,1.57a22,22,0,0,0,4,.4c5.91.21,15-.4,15-.4"/><path class="cls-9" d="M112.57,168c-.62.06-20.58,2.09-21.56,8,0,0-1,1,18,3l3.63.54-.52-9.48a3.92,3.92,0,0,1,.45-2.06"/><path class="cls-9" d="M112.57,168h0"/><path class="cls-9" d="M112,180s-20,3-21,7c-.87,3.49,18.24,5.56,22.08,5.94l.67.06"/></g></g></svg>