<svg xmlns="http://www.w3.org/2000/svg" viewBox="0 0 368 325.26"><defs><style>.cls-1{fill:#f2d4e1;}.cls-2{fill:#75292e;}.cls-3{fill:#0f0504;}.cls-4{fill:#f2f2f2;}.cls-5{fill:#eee7e7;}.cls-6,.cls-7{fill:none;stroke:#000;}.cls-6{stroke-miterlimit:10;}.cls-7{stroke-linecap:round;stroke-linejoin:round;}</style></defs><title>E</title><g id="Capa_2" data-name="Capa 2"><g id="E"><path class="cls-1" d="M130.2,44.74C121.36,47.68,80.43-1.27,71.3.55,56.73,3.47,68.11,38.07,88.3,73c16.26-8.53,28.58-19.32,43.91-25.92l-1.15-2.67Z"/><path class="cls-2" d="M301,224.39a19.57,19.57,0,0,1,3.81-11.8c-5.4-.35-9.7-5.48-9.7-11.76a12.66,12.66,0,0,1,1.8-6.6c-5.18-1.79-9.22-6.92-10.31-13.34a39.87,39.87,0,0,1-5.74,10.81,44.44,44.44,0,0,1-9.31,9.13s8.84,0,14.73,14.73c0,0,5.41,10.87,15.37,14.13A22.2,22.2,0,0,1,301,224.39Z"/><path class="cls-3" d="M310.63,190.67a13.33,13.33,0,0,1-9.61,4.26,11.79,11.79,0,0,1-4.09-.71,12.66,12.66,0,0,0-1.8,6.6c0,6.28,4.3,11.41,9.7,11.76a13.88,13.88,0,0,1,9.48-5.78,13,13,0,0,0,1.44-6A12.11,12.11,0,0,0,310.63,190.67Z"/><path class="cls-4" d="M301,194.93a13.33,13.33,0,0,0,9.61-4.26,19.35,19.35,0,0,0,5.12-13.41,20.24,20.24,0,0,0-1.64-8.12,15.38,15.38,0,0,0-16-.71c-7.19,3.59-10,8.31-11.08,11.39-.13.35-.27.71-.39,1.06,1.09,6.43,5.13,11.55,10.31,13.34A11.79,11.79,0,0,0,301,194.93Z"/><path class="cls-5" d="M305.4,260.94l0,0a21.39,21.39,0,0,0,12,11.22l6.32-16.93-.1-1.24C315.37,254.79,309.18,257.63,305.4,260.94Z"/><path class="cls-2" d="M310.63,190.67a12.11,12.11,0,0,1,5.12,10.15,13,13,0,0,1-1.44,6,11.84,11.84,0,0,1,1.44-.09c5.22,0,9.81,3.27,12.41,8.16.76-1.53,1.56-3.27,2.32-5.21,0,0,0-20.62-5.89-29.45-2.83-4.22-6.3-8.45-10.48-11.08a20.24,20.24,0,0,1,1.64,8.12A19.35,19.35,0,0,1,310.63,190.67Z"/><path class="cls-4" d="M315.74,206.71a11.84,11.84,0,0,0-1.44.09,13.88,13.88,0,0,0-9.48,5.78,19.57,19.57,0,0,0-3.81,11.8,22.2,22.2,0,0,0,.65,5.3c4.68,1.56,10.39,1.42,17-2.35,0,0,4.44-2.21,9.46-12.47C325.56,210,321,206.71,315.74,206.71Z"/><path class="cls-5" d="M345.31,249.94l-6-13.78-5.7,17c2.09-.56,3.86-1.39,7.5-2.28C342.28,250.56,343.74,250.27,345.31,249.94Z"/><path class="cls-1" d="M318.7,227.34c-6.63,3.77-12.34,3.91-17,2.35-10-3.26-15.37-14.13-15.37-14.13-5.89-14.73-14.73-14.73-14.73-14.73a44.44,44.44,0,0,0,9.31-9.13,39.87,39.87,0,0,0,5.74-10.81c.11-.35.26-.71.39-1.06,1.06-3.09,3.89-7.8,11.08-11.39a15.38,15.38,0,0,1,16,.71c4.18,2.62,7.66,6.86,10.48,11.08,5.89,8.83,5.89,29.45,5.89,29.45-.76,1.94-1.56,3.68-2.32,5.21C323.14,225.13,318.7,227.34,318.7,227.34Zm-13.3,33.6c3.78-3.3,10-6.15,18.23-6.9l.1,1.24-6.32,16.93a21.39,21.39,0,0,1-12-11.22Zm39.91-11c-1.57.33-3,.62-4.2.9-3.63.89-5.41,1.72-7.5,2.28l5.7-17Zm11.14-4.41q1.83-3.13,3.48-6.41c14.72-29.45,5.89-53-8.84-70.69,0,0-8.83-20.61-14.72-35.34,0,0-8.84-26.5-35.34-38.28,0,0-47.13-56-100.13-73.63,0,0-20.62-8.84-44.19,8.83,0,0-16.59,11.05-25.65,14.42l1.15,2.67C116.87,53.69,104.56,64.48,88.3,73c-.75.4-1.5.79-2.27,1.16C62.47,86,44.79,62.41,21.23,47.68s-20.61,0-20.61,0l23.55,53c14.73,29.45,29.45,23.56,47.13,17.67,14.25-4.75,64.8-38.3,64.8-38.3,4.44-2.26,15.09-3.78,23.56-2.94a129.86,129.86,0,0,1,14.82,2.46l-.1.48c-3.84.48-14.72,3-14.72,3S71.3,97.74,50.68,192c0,0-17.67,70.69,58.91,109,0,0,47.11,26.5,91.3,23.56s79.52-3,117.8-35.34C318.7,289.18,341.4,271.51,356.46,245.53Z"/><path class="cls-6" d="M89,74.18c-.23-.39-.46-.77-.67-1.16C68.11,38.07,56.73,3.47,71.3.55c9.14-1.82,50.07,47.13,58.91,44.19l.85-.31C140.12,41.06,156.71,30,156.71,30c23.56-17.67,44.19-8.83,44.19-8.83C253.9,38.85,301,94.8,301,94.8c26.5,11.78,35.34,38.28,35.34,38.28,5.89,14.73,14.72,35.34,14.72,35.34,14.73,17.67,23.56,41.24,8.84,70.69q-1.64,3.28-3.48,6.41c-15.05,26-37.76,43.65-37.76,43.65-38.28,32.39-73.63,32.39-117.8,35.34S109.59,301,109.59,301C33,262.68,50.68,192,50.68,192c20.61-94.25,109-109,109-109s10.88-2.47,14.72-3"/><path class="cls-6" d="M271.57,118.36c-4.92-4.61-57.9-30.16-97.09-38.77a129.86,129.86,0,0,0-14.82-2.46c-8.48-.84-19.12.68-23.56,2.94,0,0-50.54,33.54-64.8,38.3-17.67,5.89-32.39,11.78-47.13-17.67L.62,47.68s-3-14.72,20.61,0S62.47,86,86,74.18c.76-.38,1.52-.76,2.27-1.16,16.26-8.53,28.58-19.32,43.91-25.92a71.92,71.92,0,0,1,18.61-5.31C168,39.34,177,41,200.09,55.29c4.57,2.84,9.68,6.16,15.52,10.06a627.08,627.08,0,0,1,61.85,47.13"/><path class="cls-6" d="M200.08,55.29h0c.62-.13,22-4.32,59.69,18.89"/><path class="cls-6" d="M328.15,214.87c.76-1.53,1.56-3.27,2.32-5.21,0,0,0-20.62-5.89-29.45-2.83-4.22-6.3-8.45-10.48-11.08"/><path class="cls-6" d="M286.62,180.88a39.87,39.87,0,0,1-5.74,10.81,44.44,44.44,0,0,1-9.31,9.13s8.84,0,14.73,14.73c0,0,5.41,10.87,15.37,14.13"/><path class="cls-7" d="M333.61,253.12c2.09-.56,3.86-1.39,7.5-2.28,1.17-.28,2.63-.57,4.2-.9,3.89-.82,8.47-2,11.14-4.41.18-.17.36-.34.52-.52"/><path class="cls-7" d="M301,268.56c0-2.34,1.5-5.1,4.38-7.62,3.78-3.3,10-6.15,18.23-6.9,1.25-.11,2.55-.18,3.9-.19a22.74,22.74,0,0,0,6.08-.71"/><path class="cls-7" d="M323.73,255.28l-6.32,16.93a21.39,21.39,0,0,1-12-11.22"/><polyline class="cls-7" points="333.61 253.13 333.61 253.12 339.31 236.17 345.31 249.94 345.31 249.96"/><path class="cls-7" d="M310.63,190.67a19.35,19.35,0,0,0,5.12-13.41,20.24,20.24,0,0,0-1.64-8.12,15.38,15.38,0,0,0-16-.71c-7.19,3.59-10,8.31-11.08,11.39-.13.35-.27.71-.39,1.06,1.09,6.43,5.13,11.55,10.31,13.34"/><path class="cls-7" d="M304.83,212.58a19.57,19.57,0,0,0-3.81,11.8,22.2,22.2,0,0,0,.65,5.3c4.68,1.56,10.39,1.42,17-2.35,0,0,4.44-2.21,9.46-12.47-2.6-4.89-7.19-8.16-12.41-8.16a11.84,11.84,0,0,0-1.44.09"/><path class="cls-7" d="M296.93,194.23a12.66,12.66,0,0,0-1.8,6.6c0,6.28,4.3,11.41,9.7,11.76a13.88,13.88,0,0,1,9.48-5.78,13,13,0,0,0,1.44-6,12.11,12.11,0,0,0-5.12-10.15,13.33,13.33,0,0,1-9.61,4.26A11.79,11.79,0,0,1,296.93,194.23Z"/></g></g></svg>