<svg xmlns="http://www.w3.org/2000/svg" viewBox="0 0 425 425"><defs><style>.cls-1,.cls-7,.cls-8{fill:none;}.cls-2{fill:#f2d4e1;}.cls-3{fill:#75292e;}.cls-4{fill:#f2f2f2;}.cls-5{fill:#0f0504;}.cls-6{fill:#eee7e7;}.cls-7,.cls-8{stroke:#000;}.cls-7{stroke-miterlimit:10;}.cls-8{stroke-linecap:round;stroke-linejoin:round;}</style></defs><title>E</title><g id="Capa_2" data-name="Capa 2"><g id="img_bg" data-name="img bg"><rect class="cls-1" width="425" height="425"/></g><g id="E"><path class="cls-2" d="M333,320.07l5.39-16,5.67,13c-1.49.31-2.85.58-4,.85C336.62,318.75,334.94,319.54,333,320.07Zm-26.69,7.39c3.58-3.13,9.43-5.83,17.24-6.53l.1,1.16-6,16a20.18,20.18,0,0,1-11.32-10.6ZM101,149.78l-2.15,1.1c-22.28,11.14-39-11.14-61.27-25.06s-19.49,0-19.49,0l22.28,50.12c13.92,27.85,27.85,22.28,44.56,16.71,13.47-4.49,61.26-36.2,61.26-36.2,4.21-2.14,14.27-3.58,22.28-2.78a122.55,122.55,0,0,1,14,2.33l-.1.45c-3.64.45-13.93,2.78-13.93,2.78s-83.54,13.93-103,103c0,0-16.71,66.84,55.7,103,0,0,44.56,25.07,86.33,22.28s75.19-2.78,111.38-33.42c0,0,21.48-16.7,35.69-41.26,1.16-2,2.26-4,3.3-6.08,13.93-27.85,5.57-50.13-8.35-66.83,0,0-8.36-19.5-13.93-33.42,0,0-8.35-25.07-33.42-36.21,0,0-44.55-52.91-94.67-69.62,0,0-19.49-8.35-41.77,8.36,0,0-15.69,10.45-24.26,13.64l1.09,2.52C128,131.5,116.4,141.7,101,149.78ZM274.31,270.62A42.14,42.14,0,0,0,283.1,262a37.11,37.11,0,0,0,5.43-10.22c.12-.33.26-.67.37-1,1-2.93,3.67-7.38,10.47-10.77a14.54,14.54,0,0,1,15.15.67c4,2.48,7.24,6.49,9.91,10.46C330,259.48,330,279,330,279c-.72,1.84-1.48,3.48-2.2,4.93-4.73,9.69-8.94,11.78-8.94,11.78-6.26,3.57-11.67,3.71-16.1,2.23-9.4-3.09-14.53-13.37-14.53-13.37C282.66,270.62,274.31,270.62,274.31,270.62Z"/><path class="cls-2" d="M84.95,81.26c-13.78,2.75-3,35.47,16.07,68.52,15.37-8.08,27-18.27,41.51-24.51l-1.09-2.52-.81.28C132.29,125.82,93.58,79.53,84.95,81.26Z"/><path class="cls-3" d="M283.1,262a42.14,42.14,0,0,1-8.79,8.63s8.35,0,13.92,13.92c0,0,5.13,10.28,14.53,13.37a21,21,0,0,1-.61-5,18.51,18.51,0,0,1,3.6-11.17c-5.1-.33-9.17-5.18-9.17-11.11a11.91,11.91,0,0,1,1.7-6.24c-4.9-1.7-8.72-6.55-9.75-12.62A37.11,37.11,0,0,1,283.1,262Z"/><path class="cls-4" d="M288.9,250.76c-.11.33-.25.67-.37,1,1,6.07,4.85,10.91,9.75,12.62a11.4,11.4,0,0,0,3.87.67,12.6,12.6,0,0,0,9.08-4,18.28,18.28,0,0,0,4.85-12.67,19.1,19.1,0,0,0-1.56-7.68,14.54,14.54,0,0,0-15.15-.67C292.57,243.38,289.9,247.83,288.9,250.76Z"/><path class="cls-5" d="M298.28,264.38a11.91,11.91,0,0,0-1.7,6.24c0,5.93,4.07,10.77,9.17,11.11a13.07,13.07,0,0,1,9-5.45,12.35,12.35,0,0,0,1.37-5.66,11.47,11.47,0,0,0-4.85-9.61,12.6,12.6,0,0,1-9.08,4A11.4,11.4,0,0,1,298.28,264.38Z"/><path class="cls-4" d="M302.15,292.9a21,21,0,0,0,.61,5c4.43,1.48,9.84,1.34,16.1-2.23,0,0,4.21-2.09,8.94-11.78-2.45-4.62-6.8-7.71-11.72-7.71a9.52,9.52,0,0,0-1.37.09,13.07,13.07,0,0,0-9,5.45A18.51,18.51,0,0,0,302.15,292.9Z"/><path class="cls-6" d="M306.28,327.46l0,0a20.18,20.18,0,0,0,11.32,10.6l6-16-.1-1.16C315.71,321.63,309.86,324.32,306.28,327.46Z"/><path class="cls-3" d="M311.23,261a11.47,11.47,0,0,1,4.85,9.61,12.35,12.35,0,0,1-1.37,5.66,9.52,9.52,0,0,1,1.37-.09c4.92,0,9.28,3.09,11.72,7.71.72-1.45,1.48-3.09,2.2-4.93,0,0,0-19.49-5.57-27.85-2.67-4-6-8-9.91-10.46a19.1,19.1,0,0,1,1.56,7.68A18.28,18.28,0,0,1,311.23,261Z"/><path class="cls-6" d="M338.35,304l-5.39,16c2-.53,3.65-1.31,7.09-2.15,1.11-.27,2.48-.54,4-.85Z"/><path class="cls-7" d="M101.66,150.87c-.22-.37-.43-.73-.64-1.1C81.92,116.72,71.17,84,84.95,81.26c8.63-1.72,47.34,44.56,55.69,41.77l.81-.28c8.58-3.19,24.26-13.64,24.26-13.64,22.28-16.71,41.77-8.36,41.77-8.36,50.13,16.71,94.67,69.62,94.67,69.62,25.07,11.14,33.42,36.21,33.42,36.21,5.57,13.92,13.93,33.42,13.93,33.42,13.92,16.7,22.28,39,8.35,66.83-1,2.07-2.13,4.1-3.3,6.08-14.21,24.56-35.69,41.26-35.69,41.26-36.2,30.64-69.62,30.64-111.38,33.42s-86.33-22.28-86.33-22.28c-72.41-36.2-55.7-103-55.7-103,19.5-89.1,103-103,103-103s10.29-2.33,13.93-2.78"/><path class="cls-7" d="M274.31,192.64c-4.65-4.35-54.74-28.51-91.8-36.65a122.55,122.55,0,0,0-14-2.33c-8-.8-18.07.64-22.28,2.78,0,0-47.79,31.71-61.26,36.2-16.71,5.57-30.64,11.14-44.56-16.71L18.11,125.82s-2.79-13.93,19.49,0,39,36.2,61.27,25.06l2.15-1.1c15.37-8.08,27-18.27,41.51-24.51a68.2,68.2,0,0,1,17.6-5c16.27-2.33,24.78-.78,46.57,12.77,4.32,2.67,9.16,5.83,14.68,9.51a592.9,592.9,0,0,1,58.49,44.55"/><path class="cls-7" d="M206.71,133s20.25-4.42,56.46,17.86"/><path class="cls-7" d="M327.8,283.9c.72-1.45,1.48-3.09,2.2-4.93,0,0,0-19.49-5.57-27.85-2.67-4-6-8-9.91-10.46"/><path class="cls-7" d="M288.53,251.77A37.11,37.11,0,0,1,283.1,262a42.14,42.14,0,0,1-8.79,8.63s8.35,0,13.92,13.92c0,0,5.13,10.28,14.53,13.37"/><path class="cls-8" d="M302.15,334.66c0-2.21,1.42-4.83,4.14-7.21,3.58-3.13,9.43-5.83,17.24-6.53,1.19-.11,2.41-.17,3.7-.18a21,21,0,0,0,5.75-.68c2-.53,3.65-1.31,7.09-2.15,1.11-.27,2.48-.54,4-.85,3.66-.76,8-1.85,10.53-4.17.18-.16.36-.33.52-.51"/><path class="cls-8" d="M323.62,322.09l-6,16a20.18,20.18,0,0,1-11.32-10.6"/><polyline class="cls-8" points="332.97 320.07 338.36 304.04 344.02 317.06"/><path class="cls-8" d="M311.23,261a18.28,18.28,0,0,0,4.85-12.67,19.1,19.1,0,0,0-1.56-7.68,14.54,14.54,0,0,0-15.15-.67c-6.8,3.39-9.47,7.84-10.47,10.77-.11.33-.25.67-.37,1,1,6.07,4.85,10.91,9.75,12.62"/><path class="cls-8" d="M305.74,281.73a18.51,18.51,0,0,0-3.6,11.17,21,21,0,0,0,.61,5c4.43,1.48,9.84,1.34,16.1-2.23,0,0,4.21-2.09,8.94-11.78-2.45-4.62-6.8-7.71-11.72-7.71a9.52,9.52,0,0,0-1.37.09"/><path class="cls-8" d="M298.28,264.38a11.91,11.91,0,0,0-1.7,6.24c0,5.93,4.07,10.77,9.17,11.11a13.07,13.07,0,0,1,9-5.45,12.35,12.35,0,0,0,1.37-5.66,11.47,11.47,0,0,0-4.85-9.61,12.6,12.6,0,0,1-9.08,4A11.4,11.4,0,0,1,298.28,264.38Z"/></g></g></svg>