<svg xmlns="http://www.w3.org/2000/svg" viewBox="0 0 425 425"><defs><style>.cls-1,.cls-3{fill:none;}.cls-2{fill:#f2d4e1;}.cls-3{stroke:#000;stroke-linecap:round;stroke-linejoin:round;}</style></defs><title>N</title><g id="Capa_2" data-name="Capa 2"><g id="img_bg" data-name="img bg"><rect class="cls-1" width="425" height="425"/></g><g id="N"><path class="cls-2" d="M141.38,122.59a58.74,58.74,0,0,0-4.05,8.94c-8.76,24.09-35,35-46,32.85-10.75-2.15-34.15-17-55.72-71.34a10.83,10.83,0,0,1,.77-9.9c3.09-4.73,10.91-7.86,30.86,6.77l43.7,24.27L111,114l30.66-17.52c15.33-8.76,21.9-4.38,21.9-4.38l50.9,57.25c-10.14.66-19.69,1.88-27.86,3.22l-44.94-29.81Z"/><path class="cls-2" d="M356.47,131.77c11.78-5.5,24.55-10.25,34.94-11.19,14.06-1.27,16.93,4.88,16.89,10.27A15,15,0,0,1,404,140.92c-5.28,5.56-16.91,18.42-23.55,30C371.69,186.28,362.93,195,362.93,195c-13.14,4.38-15.33,0-26.28-6.57s-23.61-4-23.61-4A59.22,59.22,0,0,0,300.13,172c-1.47-7.73,8-20.72,12.42-36.05a53,53,0,0,0,1.84-10.84c-9.33,2.83-44.29,31.54-44.29,31.54a116.25,116.25,0,0,0-21.36-6.18v0s39.71-58.31,66-60.5c17.54-1.47,30.23,6.83,36.69,12.51a14.33,14.33,0,0,1,4.93,10.8v18.31Z"/><path class="cls-2" d="M313,184.49c5.8,7.64,9.9,16.54,16.82,28.39q2.53,4.37,4.64,9l.83,1.86A158.86,158.86,0,0,0,353.44,254c2.83,3.7,5.1,6.75,5.1,6.75a26.8,26.8,0,0,1,1.95,3.59c8.17,17.59,6,38.24-4.82,54.28-12,17.68-28.69,32.7-28.69,32.7-59.75,55.79-192,46.39-242.29-9.11,0,0-24-24.51-28.41-46.41-3.07-15.33-1.84-23.15-.83-26.46.46-1.51.79-3,1.1-4.56,2.63-13.23,23.83-32.5,23.83-32.5,3.46-3.46,6.57-11,6.57-11,23-45.86,43.81-54.76,74.47-63.52a257.37,257.37,0,0,1,25.23-5.23c8.17-1.34,17.72-2.56,27.86-3.22,5.69-.39,11.61-.61,17.54-.55a94.18,94.18,0,0,1,16.69,1.62,116.25,116.25,0,0,1,21.36,6.18c1,.39,2,.79,3,1.2,12,5,20.57,9.48,27,14.15A59.22,59.22,0,0,1,313,184.49Z"/><path class="cls-3" d="M186.65,152.57a257.37,257.37,0,0,0-25.23,5.23c-30.66,8.76-51.49,17.65-74.47,63.52,0,0-3.11,7.49-6.57,11,0,0-21.2,19.27-23.83,32.5-.31,1.53-.64,3-1.1,4.56-1,3.31-2.23,11.13.83,26.46,4.38,21.9,28.41,46.41,28.41,46.41,50.31,55.5,182.54,64.9,242.29,9.11,0,0,16.71-15,28.69-32.7,10.86-16,13-36.69,4.82-54.28a26.8,26.8,0,0,0-1.95-3.59s-2.28-3-5.1-6.75a158.86,158.86,0,0,1-18.11-30.29l-.83-1.86q-2.1-4.6-4.64-9c-6.92-11.85-11-20.74-16.82-28.39A59.22,59.22,0,0,0,300.13,172c-6.44-4.67-15-9.2-27-14.15-1-.42-2-.81-3-1.2a116.25,116.25,0,0,0-21.36-6.18,94.18,94.18,0,0,0-16.69-1.62c-5.94-.07-11.85.15-17.54.55C204.37,150,194.82,151.24,186.65,152.57Z"/><path class="cls-3" d="M214.51,149.35,163.61,92.1s-6.57-4.38-21.9,4.38L111,114"/><line class="cls-3" x1="141.71" y1="122.76" x2="186.65" y2="152.57"/><path class="cls-3" d="M159.23,109.62s-9.59-1.6-17.85,13a58.74,58.74,0,0,0-4.05,8.94c-8.76,24.09-35,35-46,32.85-10.75-2.15-34.15-17-55.72-71.34a10.83,10.83,0,0,1,.77-9.9c3.09-4.73,10.91-7.86,30.86,6.77l43.7,24.27,15.44,8.59"/><path class="cls-3" d="M248.75,150.41s39.71-58.31,66-60.5c17.54-1.47,30.23,6.83,36.69,12.51a14.33,14.33,0,0,1,4.93,10.8v18.31"/><path class="cls-3" d="M270.1,156.6s35-28.71,44.29-31.54a3.12,3.12,0,0,1,.35-.11"/><path class="cls-3" d="M312.55,105.24a65.51,65.51,0,0,1,1.84,19.82,53,53,0,0,1-1.84,10.84c-4.38,15.33-13.89,28.32-12.42,36.05"/><path class="cls-3" d="M313,184.49s12.66-2.58,23.61,4,13.14,11,26.28,6.57c0,0,8.76-8.76,17.52-24.09,6.64-11.61,18.27-24.47,23.55-30a15,15,0,0,0,4.29-10.08c0-5.39-2.83-11.54-16.89-10.27-10.38.94-23.15,5.69-34.94,11.19a317.41,317.41,0,0,0-35.15,19.47"/></g></g></svg>