<svg xmlns="http://www.w3.org/2000/svg" viewBox="0 0 374.52 310.59"><defs><style>.cls-1{fill:#f2d4e1;}.cls-2{fill:none;stroke:#000;stroke-linecap:round;stroke-linejoin:round;}</style></defs><title>N</title><g id="Capa_2" data-name="Capa 2"><g id="N"><path class="cls-1" d="M280.12,46.36c-9.33,2.83-44.29,31.54-44.29,31.54a116.25,116.25,0,0,0-21.36-6.18s39.71-58.33,66-60.52C298,9.74,310.7,18,317.16,23.74a14.25,14.25,0,0,1,4.93,10.78V52.83l.11.24c11.78-5.5,24.55-10.25,34.94-11.19,14.06-1.27,16.93,4.91,16.89,10.27a15,15,0,0,1-4.29,10.08c-5.28,5.59-16.91,18.42-23.55,30-8.76,15.33-17.52,24.09-17.52,24.09-13.14,4.38-15.33,0-26.28-6.57s-23.61-4-23.61-4a59.22,59.22,0,0,0-12.9-12.53c-1.47-7.73,8-20.72,12.42-36.05A53,53,0,0,0,280.12,46.36Z"/><path class="cls-1" d="M326.23,185.65c8.17,17.59,6,38.24-4.82,54.3-12,17.68-28.69,32.68-28.69,32.68C233,328.41,100.74,319,50.43,263.51c0,0-24-24.51-28.41-46.41-3.07-15.33-1.84-23.15-.83-26.46a46,46,0,0,0,1.1-4.56c2.63-13.23,23.83-32.5,23.83-32.5,3.46-3.46,6.57-11,6.57-11,23-45.86,43.81-54.76,74.47-63.52a254.92,254.92,0,0,1,25.23-5.21c8.15-1.34,17.72-2.56,27.86-3.24,5.72-.39,11.61-.59,17.54-.55a94,94,0,0,1,16.69,1.62,116.25,116.25,0,0,1,21.36,6.18c1,.39,2,.79,3,1.2,12,5,20.57,9.48,27,14.15a59.22,59.22,0,0,1,12.9,12.53c5.8,7.64,9.9,16.56,16.82,28.41,1.69,2.89,3.24,5.89,4.64,9l.83,1.86a158.86,158.86,0,0,0,18.11,30.29c2.83,3.7,5.1,6.75,5.1,6.75A26.8,26.8,0,0,1,326.23,185.65Z"/><path class="cls-1" d="M107.11,43.89a58.74,58.74,0,0,0-4.05,8.94c-8.76,24.09-35,35-46,32.85-10.75-2.15-34.15-17-55.72-71.34a10.83,10.83,0,0,1,.77-9.9C5.2-.29,13-3.42,33,11.21l43.7,24.27.11-.18,30.66-17.52c15.33-8.76,21.9-4.38,21.9-4.38l50.9,57.25c-10.14.68-19.71,1.91-27.86,3.24v0L107.44,44.07Z"/><path class="cls-2" d="M152.38,73.9a254.92,254.92,0,0,0-25.23,5.21c-30.66,8.76-51.49,17.65-74.47,63.52,0,0-3.11,7.49-6.57,11,0,0-21.2,19.27-23.83,32.5a46,46,0,0,1-1.1,4.56c-1,3.31-2.23,11.13.83,26.46,4.38,21.9,28.41,46.41,28.41,46.41,50.31,55.5,182.54,64.9,242.29,9.11,0,0,16.71-15,28.69-32.68,10.86-16.05,13-36.71,4.82-54.3a26.8,26.8,0,0,0-1.95-3.59s-2.28-3-5.1-6.75A158.86,158.86,0,0,1,301.06,145l-.83-1.86c-1.4-3.07-3-6.07-4.64-9-6.92-11.85-11-20.76-16.82-28.41a59.22,59.22,0,0,0-12.9-12.53c-6.44-4.67-15-9.2-27-14.15-1-.42-2-.81-3-1.2a116.25,116.25,0,0,0-21.36-6.18,94,94,0,0,0-16.69-1.62c-5.94,0-11.83.15-17.54.55C170.1,71.33,160.53,72.56,152.38,73.9Z"/><path class="cls-2" d="M180.24,70.66,129.34,13.4s-6.57-4.38-21.9,4.38L76.77,35.3"/><line class="cls-2" x1="107.44" y1="44.07" x2="152.38" y2="73.88"/><path class="cls-2" d="M125,30.92s-9.59-1.6-17.85,13a58.74,58.74,0,0,0-4.05,8.94c-8.76,24.09-35,35-46,32.85-10.75-2.15-34.15-17-55.72-71.34a10.83,10.83,0,0,1,.77-9.9C5.2-.29,13-3.42,33,11.21l43.7,24.27,15.44,8.59"/><path class="cls-2" d="M214.48,71.73s39.71-58.33,66-60.52C298,9.74,310.7,18,317.16,23.74a14.25,14.25,0,0,1,4.93,10.78V52.83"/><path class="cls-2" d="M235.83,77.91s35-28.71,44.29-31.54a3.12,3.12,0,0,1,.35-.11"/><path class="cls-2" d="M278.28,26.54a65.51,65.51,0,0,1,1.84,19.82,53,53,0,0,1-1.84,10.84c-4.38,15.33-13.89,28.32-12.42,36.05"/><path class="cls-2" d="M278.76,105.79s12.66-2.58,23.61,4,13.14,11,26.28,6.57c0,0,8.76-8.76,17.52-24.09,6.64-11.61,18.27-24.44,23.55-30A15,15,0,0,0,374,52.15c0-5.37-2.83-11.54-16.89-10.27-10.38.94-23.15,5.69-34.94,11.19A317.41,317.41,0,0,0,287,72.54"/></g></g></svg>