<svg xmlns="http://www.w3.org/2000/svg" viewBox="0 0 365.91 353.07"><defs><style>.cls-1{fill:#f2d4e1;}.cls-2{fill:#84757d;}.cls-3{fill:#0f0504;}.cls-4{fill:#f2f2f2;}.cls-5{fill:none;stroke:#000;stroke-miterlimit:10;}</style></defs><title>NE</title><g id="Capa_2" data-name="Capa 2"><g id="NE"><path class="cls-1" d="M263.62,86.71c16.15,6.87,36,20.58,53.89,48a160.21,160.21,0,0,1,11.89,18.26v0c3.5,6.3,6.84,13.48,8.57,20.38a70.88,70.88,0,0,0-.36,26.81,60.1,60.1,0,0,0,2.73,10.19,55.15,55.15,0,0,0,6.73,13s4.55,4.55,13.64,0c0,0,3.64,5.84,4.5,15.92.93,10.89-1.36,26.7-15,45.41a111,111,0,0,1-36,31.25c-18.15,10.1-49.66,26.4-74,32.5-36.38,9.1-115.59,1.59-138.72-6.82-25-9.1-63.67-20.47-91-79.59,0,0-15.92-38.66,6.82-72.77s29.56-52.3,43.21-63.67,56.85-34.11,79.59-43.21l.34,0c-.66,10.23.89,17.12,1.93,18.17,2.27,2.27,27.29,0,34.11-2.27s31.84,6.82,38.66,9.1,9.1-2.27,9.1-2.27L231,80l.14,0S244.86,78.77,263.62,86.71Z"/><path class="cls-2" d="M357.18,208.64c2.41,8.32,3.55,14.71,3.55,14.71-9.1,4.55-13.64,0-13.64,0a55.15,55.15,0,0,1-6.73-13,19.06,19.06,0,0,1,10.14-2.89A18.74,18.74,0,0,1,357.18,208.64Z"/><path class="cls-3" d="M357.18,208.64a18.74,18.74,0,0,0-6.69-1.21,19.06,19.06,0,0,0-10.14,2.89,60.1,60.1,0,0,1-2.73-10.19,24.37,24.37,0,0,0,10.6-14.28A113.44,113.44,0,0,1,357.18,208.64Z"/><path class="cls-4" d="M348.22,185.86a24.37,24.37,0,0,1-10.6,14.28,70.88,70.88,0,0,1,.36-26.81C341.94,176.15,345.33,180.67,348.22,185.86Z"/><path class="cls-1" d="M231,80l-6.69,25.06s-2.27,4.55-9.1,2.27S183.35,96,176.53,98.28s-31.84,4.55-34.11,2.27c-1-1-2.59-7.94-1.93-18.17a92.63,92.63,0,0,1,7.23-29.68c1.07-2.57,2.32-5.18,3.71-7.85q3.89-7.44,7.07-15.19c.23-.5.43-1,.64-1.52,2.64-6.55,6.62-14.35,10.57-14,4.82.41,12.92,12.64,20.67,26.79.89-2.23,4.62-11.44,6.62-15.42a12.51,12.51,0,0,1,11.37-6.82c4.55,0,25,2.27,29.56,2.27a23.52,23.52,0,0,1,9.1,2.27c11.23,9,16.46,62.1,16.6,63.47-18.76-7.94-32.52-6.62-32.52-6.62Z"/><path class="cls-1" d="M63.8,52.26l42-23.76A133.16,133.16,0,0,0,122,18.62c6.62-4.93,21.31-6.19,27.27-2.21,6.82,4.55,9.26,13.26,9.26,13.26q-3.17,7.74-7.07,15.19c-1.39,2.66-2.64,5.28-3.71,7.85h0L135.6,46l-.14-.14-.57.55c-18,16.87-63,56.85-78.89,49.62C31,84.64,6,30.06,1.43,11.87s9.1-9.1,9.1-9.1Z"/><path class="cls-5" d="M365.23,239.27c.93,10.89-1.36,26.7-15,45.41a111,111,0,0,1-36,31.25c-18.15,10.1-49.66,26.4-74,32.5-36.38,9.1-115.59,1.59-138.72-6.82-25-9.1-63.67-20.47-91-79.59,0,0-15.92-38.66,6.82-72.77s29.56-52.3,43.21-63.67,56.85-34.11,79.59-43.21"/><path class="cls-5" d="M340.35,210.32a60.1,60.1,0,0,1-2.73-10.19"/><path class="cls-5" d="M231.1,80.09s13.76-1.32,32.52,6.62c16.15,6.87,36,20.58,53.89,48a160.21,160.21,0,0,1,11.89,18.26"/><path class="cls-5" d="M357.18,208.64a113.44,113.44,0,0,0-9-22.79"/><path class="cls-5" d="M190.38,41l-.2.48"/><path class="cls-5" d="M263.62,86.73v0c-.14-1.36-5.37-54.49-16.6-63.47a23.52,23.52,0,0,0-9.1-2.27c-4.55,0-25-2.27-29.56-2.27A12.51,12.51,0,0,0,197,25.51c-2,4-5.73,13.19-6.62,15.42"/><path class="cls-5" d="M242.47,36.88,231,80l-6.69,25.06s-2.27,4.55-9.1,2.27S183.35,96,176.53,98.28s-31.84,4.55-34.11,2.27c-1-1-2.59-7.94-1.93-18.17a92.63,92.63,0,0,1,7.23-29.68c1.07-2.57,2.32-5.18,3.71-7.85q3.89-7.44,7.07-15.19c.23-.5.43-1,.64-1.52,2.64-6.55,6.62-14.35,10.57-14,4.82.41,12.92,12.64,20.67,26.79,0,0,0,0,0,0,11.19,20.49,21.6,45,20.26,43.68"/><path class="cls-5" d="M158.49,29.68s-2.43-8.71-9.26-13.26c-6-4-20.65-2.73-27.27,2.21a133.16,133.16,0,0,1-16.19,9.87l-42,23.76-1,.55"/><path class="cls-5" d="M74.2,61.9,63.8,52.26,10.52,2.77s-13.64-9.1-9.1,9.1S31,84.64,56,96c15.92,7.23,60.92-32.75,78.89-49.62l.57-.55c4.34-4.09,7-6.69,7-6.69"/><line class="cls-5" x1="147.69" y1="52.71" x2="135.6" y2="45.98"/><path class="cls-5" d="M348.22,185.86a24.37,24.37,0,0,1-10.6,14.28,70.88,70.88,0,0,1,.36-26.81"/><path class="cls-5" d="M348.22,185.86c-2.89-5.18-6.28-9.71-10.23-12.53-1.73-6.89-5.07-14.08-8.57-20.38"/><path class="cls-5" d="M360.72,223.35s3.64,5.84,4.5,15.92"/><path class="cls-5" d="M360.72,223.35c-9.1,4.55-13.64,0-13.64,0a55.15,55.15,0,0,1-6.73-13,19.06,19.06,0,0,1,10.14-2.89,18.74,18.74,0,0,1,6.69,1.21C359.59,217,360.72,223.35,360.72,223.35Z"/></g></g></svg>