<svg xmlns="http://www.w3.org/2000/svg" viewBox="0 0 425 425"><defs><style>.cls-1,.cls-6{fill:none;}.cls-2{fill:#f2d4e1;}.cls-3{fill:#84757d;}.cls-4{fill:#0f0504;}.cls-5{fill:#f2f2f2;}.cls-6{stroke:#000;stroke-miterlimit:10;}</style></defs><title>NE</title><g id="Capa_2" data-name="Capa 2"><g id="img_bg" data-name="img bg"><rect class="cls-1" width="425" height="425"/></g><g id="NE"><path class="cls-2" d="M283.15,160c13.74,5.83,30.66,17.52,45.89,40.82a136.37,136.37,0,0,1,10.12,15.54v0a74.67,74.67,0,0,1,7.3,17.34,60.33,60.33,0,0,0-.31,22.82,51.16,51.16,0,0,0,2.32,8.67,46.94,46.94,0,0,0,5.73,11.09s3.87,3.87,11.61,0c0,0,3.1,5,3.83,13.55.79,9.27-1.16,22.72-12.79,38.65a94.47,94.47,0,0,1-30.6,26.6c-15.45,8.59-42.27,22.47-63,27.66-31,7.74-98.39,1.35-118.07-5.81-21.29-7.74-54.2-17.42-77.43-67.75,0,0-13.55-32.91,5.81-61.94s25.16-44.52,36.78-54.2,48.39-29,67.75-36.78l.29,0c-.56,8.71.75,14.58,1.65,15.47,1.94,1.94,23.23,0,29-1.94s27.1,5.81,32.91,7.74,7.74-1.94,7.74-1.94l5.69-21.33.12,0S267.2,153.29,283.15,160Z"/><path class="cls-3" d="M362.8,263.83c2.05,7.08,3,12.52,3,12.52-7.74,3.87-11.61,0-11.61,0a46.94,46.94,0,0,1-5.73-11.09,16.22,16.22,0,0,1,8.63-2.46A16,16,0,0,1,362.8,263.83Z"/><path class="cls-4" d="M362.8,263.83a16,16,0,0,0-5.69-1,16.22,16.22,0,0,0-8.63,2.46,51.16,51.16,0,0,1-2.32-8.67,20.74,20.74,0,0,0,9-12.16A96.56,96.56,0,0,1,362.8,263.83Z"/><path class="cls-5" d="M355.18,244.43a20.74,20.74,0,0,1-9,12.16,60.33,60.33,0,0,1,.31-22.82C349.83,236.17,352.72,240,355.18,244.43Z"/><path class="cls-2" d="M220.82,121.1c.74-1.86,3.93-9.74,5.63-13.14a10.64,10.64,0,0,1,9.68-5.81c3.87,0,21.29,1.94,25.16,1.94A20,20,0,0,1,269,106c9.56,7.65,14,52.86,14.11,54-15.95-6.76-27.66-5.63-27.66-5.63l-.12,0-5.69,21.33s-1.94,3.87-7.74,1.94S214.84,168,209,169.89s-27.1,3.87-29,1.94c-.89-.89-2.21-6.76-1.65-15.47a78.87,78.87,0,0,1,6.14-25.26c.91-2.19,2-4.43,3.16-6.7,2.23-4.2,4.24-8.52,6-12.91.19-.43.37-.87.54-1.3,2.23-5.57,5.61-12.21,9-11.92C207.33,98.62,214.22,109,220.82,121.1Z"/><path class="cls-2" d="M113.09,130.72l35.73-20.23a114.85,114.85,0,0,0,13.78-8.4c5.63-4.2,18.12-5.26,23.21-1.88,5.81,3.87,7.88,11.28,7.88,11.28-1.8,4.39-3.81,8.71-6,12.91-1.2,2.26-2.25,4.51-3.16,6.7l-10.3-5.73-.12-.12-.48.46C158.3,140.08,120,174.11,106.45,168,85.16,158.28,63.86,111.82,60,96.34s7.74-7.74,7.74-7.74Z"/><path class="cls-6" d="M369.65,289.9c.79,9.27-1.16,22.72-12.79,38.65a94.47,94.47,0,0,1-30.6,26.6c-15.45,8.59-42.27,22.47-63,27.66-31,7.74-98.39,1.35-118.07-5.81-21.29-7.74-54.2-17.42-77.43-67.75,0,0-13.55-32.91,5.81-61.94s25.16-44.52,36.78-54.2,48.39-29,67.75-36.78"/><path class="cls-6" d="M348.48,265.26a51.16,51.16,0,0,1-2.32-8.67"/><path class="cls-6" d="M255.49,154.41s11.71-1.12,27.66,5.63c13.74,5.83,30.66,17.52,45.89,40.82a136.37,136.37,0,0,1,10.12,15.54"/><path class="cls-6" d="M362.8,263.83a96.56,96.56,0,0,0-7.63-19.39"/><path class="cls-6" d="M283.15,160.06v0c-.12-1.16-4.55-46.38-14.11-54a20,20,0,0,0-7.74-1.94c-3.87,0-21.29-1.94-25.16-1.94a10.64,10.64,0,0,0-9.68,5.81c-1.7,3.41-4.9,11.28-5.63,13.14l-.17.41"/><path class="cls-6" d="M265.17,117.63l-9.79,36.74-5.69,21.33s-1.94,3.87-7.74,1.94S214.84,168,209,169.89s-27.1,3.87-29,1.94c-.89-.89-2.21-6.76-1.65-15.47a78.87,78.87,0,0,1,6.14-25.26c.91-2.19,2-4.43,3.16-6.7,2.23-4.2,4.24-8.52,6-12.91.19-.43.37-.87.54-1.3,2.23-5.57,5.61-12.21,9-11.92,4.1.35,11,10.76,17.59,22.82,9.52,17.44,18.39,38.33,17.25,37.18"/><path class="cls-6" d="M193.69,111.5s-2.07-7.41-7.88-11.28c-5.09-3.39-17.58-2.32-23.21,1.88a114.85,114.85,0,0,1-13.78,8.4l-35.73,20.23-.83.46"/><path class="cls-6" d="M121.93,138.92l-8.85-8.21L67.73,88.6S56.12,80.85,60,96.34,85.16,158.28,106.45,168c13.55,6.16,51.86-27.87,67.15-42.24l.48-.46c3.7-3.48,5.92-5.69,5.92-5.69"/><line class="cls-6" x1="184.49" y1="131.1" x2="174.19" y2="125.37"/><path class="cls-6" d="M355.18,244.43a20.74,20.74,0,0,1-9,12.16,60.33,60.33,0,0,1,.31-22.82"/><path class="cls-6" d="M355.18,244.43c-2.46-4.41-5.34-8.27-8.71-10.67a74.67,74.67,0,0,0-7.3-17.34"/><path class="cls-6" d="M365.82,276.35s3.1,5,3.83,13.55"/><path class="cls-6" d="M365.82,276.35c-7.74,3.87-11.61,0-11.61,0a46.94,46.94,0,0,1-5.73-11.09,16.22,16.22,0,0,1,8.63-2.46,16,16,0,0,1,5.69,1C364.85,270.91,365.82,276.35,365.82,276.35Z"/></g></g></svg>