<svg xmlns="http://www.w3.org/2000/svg" viewBox="0 0 425 425"><defs><style>.cls-1,.cls-6{fill:none;}.cls-2{fill:#f2d4e1;}.cls-3{fill:#f2f2f2;}.cls-4{fill:#0f0504;}.cls-5{fill:#84757d;}.cls-6{stroke:#000;stroke-miterlimit:10;}</style></defs><title>NW</title><g id="Capa_2" data-name="Capa 2"><g id="img_bg" data-name="img bg"><rect class="cls-1" width="425" height="425"/></g><g id="NW"><path class="cls-2" d="M70.45,273.88s-4,4-12.06,0c0,0-3.22,5.17-4,14.07-.82,9.63,1.21,23.59,13.28,40.14a98.09,98.09,0,0,0,31.77,27.61c16,8.92,43.89,23.33,65.44,28.72,32.16,8,102.16,1.41,122.6-6,22.11-8,56.27-18.09,80.39-70.34,0,0,14.07-34.17-6-64.31s-26.13-46.22-38.19-56.27-50.24-30.15-70.34-38.19l-.3,0c.58,9-.78,15.13-1.71,16.06-2,2-24.12,0-30.15-2s-28.14,6-34.17,8-8-2-8-2l-5.91-22.15-.12,0s-12.16-1.17-28.74,5.85c-14.27,6.07-31.81,18.19-47.63,42.39a141.59,141.59,0,0,0-10.51,16.14v0a77.53,77.53,0,0,0-7.58,18,62.64,62.64,0,0,1,.32,23.7,53.12,53.12,0,0,1-2.41,9A48.74,48.74,0,0,1,70.45,273.88Z"/><path class="cls-3" d="M78.49,229.66c-3.5,2.49-6.49,6.49-9,11.07a21.54,21.54,0,0,0,9.37,12.62A62.64,62.64,0,0,0,78.49,229.66Z"/><path class="cls-2" d="M246.66,123.06l10.69-5.95.12-.12.5.48c15.88,14.91,55.65,50.24,69.72,43.85,22.11-10,44.21-58.28,48.23-74.36s-8-8-8-8L320.8,122.66l-37.1-21a115.21,115.21,0,0,1-14.31-8.72c-5.85-4.36-18.83-5.47-24.1-1.95-6,4-8.18,11.72-8.18,11.72,1.87,4.58,4,9,6.25,13.43,1.23,2.35,2.33,4.66,3.28,6.93Z"/><path class="cls-4" d="M67.43,259.81a16.84,16.84,0,0,1,9,2.55,53.12,53.12,0,0,0,2.41-9,21.54,21.54,0,0,1-9.37-12.62,100.26,100.26,0,0,0-7.92,20.14A16.56,16.56,0,0,1,67.43,259.81Z"/><path class="cls-5" d="M58.39,273.88c8,4,12.06,0,12.06,0a48.74,48.74,0,0,0,5.95-11.52,16.84,16.84,0,0,0-9-2.55,16.56,16.56,0,0,0-5.91,1.07C59.39,268.23,58.39,273.88,58.39,273.88Z"/><path class="cls-2" d="M179,169.37s2,4,8,2,28.14-10,34.17-8,28.14,4,30.15,2c.92-.92,2.29-7,1.71-16.06a81.74,81.74,0,0,0-6.39-26.23c-.94-2.27-2-4.58-3.28-6.93-2.29-4.38-4.38-8.84-6.25-13.43-.2-.44-.38-.9-.56-1.35-2.33-5.79-5.85-12.68-9.35-12.38-4.26.36-11.42,11.17-18.27,23.68-.78-2-4.1-10.11-5.85-13.63a11.05,11.05,0,0,0-10-6c-4,0-22.11,2-26.13,2a20.79,20.79,0,0,0-8,2c-9.93,7.94-14.55,54.89-14.67,56.09,16.58-7,28.74-5.85,28.74-5.85l.12,0Z"/><path class="cls-6" d="M54.41,287.94c-.82,9.63,1.21,23.59,13.28,40.14a98.09,98.09,0,0,0,31.77,27.61c16,8.92,43.89,23.33,65.44,28.72,32.16,8,102.16,1.41,122.6-6,22.11-8,56.27-18.09,80.39-70.34,0,0,14.07-34.17-6-64.31s-26.13-46.22-38.19-56.27-50.24-30.15-70.34-38.19"/><path class="cls-6" d="M76.4,262.36a53.12,53.12,0,0,0,2.41-9"/><path class="cls-6" d="M172.95,147.26s-12.16-1.17-28.74,5.85c-14.27,6.07-31.81,18.19-47.63,42.39a141.59,141.59,0,0,0-10.51,16.14"/><path class="cls-6" d="M61.52,260.87a100.26,100.26,0,0,1,7.92-20.14"/><path class="cls-6" d="M208.94,112.67l.18.42"/><path class="cls-6" d="M144.21,153.13v0c.12-1.21,4.74-48.15,14.67-56.09a20.79,20.79,0,0,1,8-2c4,0,22.11-2,26.13-2a11.05,11.05,0,0,1,10,6c1.75,3.52,5.06,11.66,5.85,13.63"/><path class="cls-6" d="M162.9,109.07l10.17,38.15L179,169.37s2,4,8,2,28.14-10,34.17-8,28.14,4,30.15,2c.92-.92,2.29-7,1.71-16.06a81.74,81.74,0,0,0-6.39-26.23c-.94-2.27-2-4.58-3.28-6.93-2.29-4.38-4.38-8.84-6.25-13.43-.2-.44-.38-.9-.56-1.35-2.33-5.79-5.85-12.68-9.35-12.38-4.26.36-11.42,11.17-18.27,23.68,0,0,0,0,0,0-9.89,18.11-19.09,39.79-17.91,38.61"/><path class="cls-6" d="M237.12,102.7S239.27,95,245.3,91c5.27-3.52,18.25-2.41,24.1,1.95a115.21,115.21,0,0,0,14.31,8.72l37.1,21,.86.48"/><path class="cls-6" d="M311.62,131.18l9.18-8.52,47.09-43.73s12.06-8,8,8-26.13,64.31-48.23,74.36c-14.07,6.39-53.84-28.94-69.72-43.85l-.5-.48c-3.84-3.62-6.15-5.91-6.15-5.91"/><line class="cls-6" x1="246.66" y1="123.06" x2="257.36" y2="117.11"/><path class="cls-6" d="M69.44,240.73a21.54,21.54,0,0,0,9.37,12.62,62.64,62.64,0,0,0-.32-23.7"/><path class="cls-6" d="M69.44,240.73c2.55-4.58,5.55-8.58,9-11.07a77.53,77.53,0,0,1,7.58-18"/><path class="cls-6" d="M58.39,273.88s-3.22,5.17-4,14.07"/><path class="cls-6" d="M58.39,273.88c8,4,12.06,0,12.06,0a48.74,48.74,0,0,0,5.95-11.52,16.84,16.84,0,0,0-9-2.55,16.56,16.56,0,0,0-5.91,1.07C59.39,268.23,58.39,273.88,58.39,273.88Z"/></g></g></svg>