<svg xmlns="http://www.w3.org/2000/svg" viewBox="0 0 365.5 352.68"><defs><style>.cls-1{fill:#f2d4e1;}.cls-2{fill:#84757d;}.cls-3{fill:#0f0504;}.cls-4{fill:#f2f2f2;}.cls-5{fill:none;stroke:#000;stroke-miterlimit:10;}</style></defs><title>NW</title><g id="Capa_2" data-name="Capa 2"><g id="NW"><path class="cls-1" d="M102.17,86.61c-16.13,6.86-36,20.56-53.83,47.91a160,160,0,0,0-11.88,18.24v0c-3.5,6.29-6.84,13.47-8.56,20.35a70.8,70.8,0,0,1,.36,26.78,60,60,0,0,1-2.73,10.18,55.09,55.09,0,0,1-6.72,13s-4.54,4.54-13.63,0c0,0-3.63,5.84-4.5,15.9-.93,10.88,1.36,26.67,15,45.36a110.86,110.86,0,0,0,35.91,31.21c18.13,10.09,49.61,26.37,74,32.46,36.34,9.09,115.46,1.59,138.56-6.81,25-9.09,63.6-20.44,90.86-79.5,0,0,15.9-38.62-6.81-72.69s-29.53-52.24-43.16-63.6-56.79-34.07-79.5-43.16l-.34,0c.66,10.22-.89,17.1-1.93,18.15-2.27,2.27-27.26,0-34.07-2.27s-31.8,6.81-38.62,9.09-9.09-2.27-9.09-2.27l-6.68-25-.14,0S120.91,78.69,102.17,86.61Z"/><path class="cls-2" d="M8.72,208.41c-2.41,8.31-3.54,14.7-3.54,14.7,9.09,4.54,13.63,0,13.63,0a55.09,55.09,0,0,0,6.72-13,19,19,0,0,0-10.13-2.88A18.72,18.72,0,0,0,8.72,208.41Z"/><path class="cls-3" d="M8.72,208.41a18.72,18.72,0,0,1,6.68-1.2,19,19,0,0,1,10.13,2.88,60,60,0,0,0,2.73-10.18,24.34,24.34,0,0,1-10.59-14.27A113.32,113.32,0,0,0,8.72,208.41Z"/><path class="cls-4" d="M17.67,185.65a24.34,24.34,0,0,0,10.59,14.27,70.8,70.8,0,0,0-.36-26.78C23.94,176,20.56,180.47,17.67,185.65Z"/><path class="cls-1" d="M175.34,40.89c-.89-2.23-4.61-11.43-6.61-15.4a12.49,12.49,0,0,0-11.36-6.81c-4.54,0-25,2.27-29.53,2.27a23.5,23.5,0,0,0-9.09,2.27c-11.22,9-16.45,62-16.58,63.4C120.91,78.69,134.66,80,134.66,80l.14,0,6.68,25s2.27,4.54,9.09,2.27,31.8-11.36,38.62-9.09,31.8,4.54,34.07,2.27c1-1,2.59-7.93,1.93-18.15A92.42,92.42,0,0,0,218,52.65c-1.07-2.57-2.32-5.18-3.7-7.84-2.61-5-5-10-7.09-15.17-.23-.5-.43-1-.64-1.52-2.63-6.54-6.61-14.33-10.56-14C191.17,14.54,183.08,26.76,175.34,40.89Z"/><path class="cls-1" d="M230.19,45.79l.57.55c17.94,16.85,62.9,56.79,78.8,49.56,25-11.36,50-65.87,54.52-84S355,2.77,355,2.77L301.77,52.2,259.84,28.46a127.54,127.54,0,0,1-16.17-9.86c-6.61-4.93-21.26-6.18-27.24-2.2-6.81,4.54-9.25,13.24-9.25,13.24,2.11,5.18,4.47,10.22,7.09,15.17,1.39,2.66,2.63,5.27,3.7,7.84l12.08-6.72Z"/><path class="cls-5" d="M.68,239c-.93,10.88,1.36,26.67,15,45.36a110.86,110.86,0,0,0,35.91,31.21c18.13,10.09,49.61,26.37,74,32.46,36.34,9.09,115.46,1.59,138.56-6.81,25-9.09,63.6-20.44,90.86-79.5,0,0,15.9-38.62-6.81-72.69s-29.53-52.24-43.16-63.6-56.79-34.07-79.5-43.16"/><path class="cls-5" d="M25.53,210.09a60,60,0,0,0,2.73-10.18"/><path class="cls-5" d="M134.66,80s-13.74-1.32-32.48,6.61c-16.13,6.86-36,20.56-53.83,47.91a160,160,0,0,0-11.88,18.24"/><path class="cls-5" d="M8.72,208.41a113.32,113.32,0,0,1,8.95-22.76"/><path class="cls-5" d="M175.34,40.91l.2.48"/><path class="cls-5" d="M102.17,86.64v0c.14-1.36,5.36-54.43,16.58-63.4a23.5,23.5,0,0,1,9.09-2.27c4.54,0,25-2.27,29.53-2.27a12.49,12.49,0,0,1,11.36,6.81c2,4,5.72,13.17,6.61,15.4"/><path class="cls-5" d="M123.3,36.84,134.79,80l6.68,25s2.27,4.54,9.09,2.27,31.8-11.36,38.62-9.09,31.8,4.54,34.07,2.27c1-1,2.59-7.93,1.93-18.15A92.42,92.42,0,0,0,218,52.65c-1.07-2.57-2.32-5.18-3.7-7.84-2.61-5-5-10-7.09-15.17-.23-.5-.43-1-.64-1.52-2.63-6.54-6.61-14.33-10.56-14-4.82.41-12.9,12.63-20.65,26.76,0,0,0,0,0,0-11.18,20.47-21.58,45-20.24,43.64"/><path class="cls-5" d="M207.18,29.64s2.43-8.7,9.25-13.24c6-4,20.63-2.73,27.24,2.2a127.54,127.54,0,0,0,16.17,9.86L301.77,52.2l1,.55"/><path class="cls-5" d="M291.39,61.83l10.38-9.63L355,2.77s13.63-9.09,9.09,9.09-29.53,72.69-54.52,84c-15.9,7.22-60.85-32.71-78.8-49.56l-.57-.55c-4.34-4.09-7-6.68-7-6.68"/><line class="cls-5" x1="217.97" y1="52.65" x2="230.06" y2="45.93"/><path class="cls-5" d="M17.67,185.65a24.34,24.34,0,0,0,10.59,14.27,70.8,70.8,0,0,0-.36-26.78"/><path class="cls-5" d="M17.67,185.65c2.88-5.18,6.27-9.7,10.22-12.52,1.73-6.88,5.07-14.06,8.56-20.35"/><path class="cls-5" d="M5.18,223.11S1.55,228.95.68,239"/><path class="cls-5" d="M5.18,223.11c9.09,4.54,13.63,0,13.63,0a55.09,55.09,0,0,0,6.72-13,19,19,0,0,0-10.13-2.88,18.72,18.72,0,0,0-6.68,1.2C6.32,216.72,5.18,223.11,5.18,223.11Z"/></g></g></svg>