<svg xmlns="http://www.w3.org/2000/svg" viewBox="0 0 327.62 363.38"><defs><style>.cls-1{fill:#f2d4e1;}.cls-2{fill:#f2f2f2;}.cls-3{fill:#75292e;}.cls-4{fill:#0f0504;}.cls-5{fill:none;stroke:#000;stroke-miterlimit:10;}</style></defs><title>S</title><g id="Capa_2" data-name="Capa 2"><g id="S"><path class="cls-1" d="M304.33.56c9.38,2.35,3.26,66.51,2.35,73.87-1.1,8.79-2.19,15.52-6.19,21.16-.54.76-1.1,1.5-1.62,2.27l-1.68,2.52a13.19,13.19,0,0,1-12.91,5.72c-12.49-1.84-34.4-5.59-32.23-9.06l.12-.16c10.56-15.1,22.26-23.78,33.41-15.42l7,4.69c-12.51-25-26.12-24.67-38.71-25.69v-.11S294.94-1.78,304.33.56Z"/><path class="cls-2" d="M292.67,289.73c2.05,6.28-7.11,13.36-7.11,13.36-3.52-3.52-3-8.81-3-8.81a46.69,46.69,0,0,1,5.34-2.92A47.34,47.34,0,0,1,292.67,289.73Z"/><path class="cls-2" d="M277.36,246.8a10.55,10.55,0,0,1,8.74,4.63,42.25,42.25,0,0,1-11.16,16.19,10.55,10.55,0,0,1-1.16-20.19A10.4,10.4,0,0,1,277.36,246.8Z"/><path class="cls-2" d="M258,212.8c9.45-1.9,15.06,7.22,13.48,18.76a18.67,18.67,0,0,1-1.81,5.75c-3.51,7-11,11.84-17,11.84a6.36,6.36,0,0,1-5.66-2.81c-2.23-3.22-2.54-8.9-2.54-15.36,0-6.89,2.92-12.21,7.12-15.34A15.9,15.9,0,0,1,258,212.8Z"/><path class="cls-2" d="M268.12,303.2h0L268,284.32s9.43,6.91,11.75,11.67C276.31,298.07,272.21,300.62,268.12,303.2Z"/><path class="cls-2" d="M264.09,305.73s-4.33,16.11-9,19.63c0,0-1.78-10-3.82-11.44C254.23,312,259,309,264.09,305.73Z"/><path class="cls-3" d="M286.09,251.43a10.55,10.55,0,0,0-8.74-4.63,10.4,10.4,0,0,0-3.59.63,17.92,17.92,0,0,0-4.08-10.13,18.67,18.67,0,0,0,1.81-5.75c1.57-11.54-4-20.66-13.48-18.76a15.9,15.9,0,0,0-6.37,2.84l-.38-.53c8-5.92,16.17-6.6,20.68-4.66,10.88,4.69,17.13,3.52,17.13,3.52C291.27,229.93,289.79,242.13,286.09,251.43Z"/><path class="cls-3" d="M228.11,278.46c.68-36.34,11.83-55,23.16-63.35l.38.53c-4.2,3.13-7.12,8.44-7.12,15.34,0,6.46.32,12.14,2.54,15.36a20.13,20.13,0,0,0-.2,2.81c0,9.06,6,16.42,13.48,16.42a11.85,11.85,0,0,0,7.81-3,10.52,10.52,0,0,0,6.77,5.1C256.72,283.85,228.57,280.17,228.11,278.46Z"/><path class="cls-4" d="M252.73,249.15c5.93,0,13.45-4.84,17-11.84a17.92,17.92,0,0,1,4.08,10.13,10.54,10.54,0,0,0-7,9.92,10.43,10.43,0,0,0,1.36,5.17,11.85,11.85,0,0,1-7.81,3c-7.45,0-13.48-7.35-13.48-16.42a20.13,20.13,0,0,1,.2-2.81A6.36,6.36,0,0,0,252.73,249.15Z"/><path class="cls-3" d="M84.48,224.39c8.83,10.3,15,28.73,11.13,59.93,0,0-1.61.12-4.29.11a18.6,18.6,0,0,0,.77-5.38c0-7.63-4.44-13.92-10.12-14.6a16,16,0,0,0,3-11,15.53,15.53,0,0,0-6.68-11.85,15.84,15.84,0,0,0,6.14-17.18Z"/><path class="cls-2" d="M76.79,319.85a107.3,107.3,0,0,1,13.06,2.77s-6,6.26-6,9.78C83.88,332.4,74.69,331.25,76.79,319.85Z"/><path class="cls-2" d="M84.48,224.39a15.83,15.83,0,1,1-19.07-11.14A32.24,32.24,0,0,1,84.48,224.39Z"/><path class="cls-2" d="M72.79,269.07h0A10.09,10.09,0,0,1,81,264.39a9.92,9.92,0,0,1,1,.06c5.68.68,10.12,7,10.12,14.6a18.6,18.6,0,0,1-.77,5.38A86.86,86.86,0,0,1,70,281.68h0a19.42,19.42,0,0,1-.18-2.64A17.35,17.35,0,0,1,72.79,269.07Z"/><path class="cls-4" d="M64.16,243.62a15.83,15.83,0,0,0,14.18-2.05A15.53,15.53,0,0,1,85,253.43a16,16,0,0,1-3,11,9.92,9.92,0,0,0-1-.06,10.09,10.09,0,0,0-8.15,4.68h0c-6.3-.19-11.69-6-12.32-13.65A15.79,15.79,0,0,1,64.16,243.62Z"/><path class="cls-3" d="M53.4,228.63a15.82,15.82,0,0,0,10.76,15,15.79,15.79,0,0,0-3.69,11.8c.63,7.61,6,13.46,12.32,13.65a17.35,17.35,0,0,0-3,10,19.42,19.42,0,0,0,.18,2.64C49.55,276.22,27,260.19,44,214c-.07.4-.59,4.43,10.56,0a21,21,0,0,1,10.85-.72A15.84,15.84,0,0,0,53.4,228.63Z"/><path class="cls-2" d="M67.39,316.46a40.58,40.58,0,0,1-7-5.17c-.53-.48-1.06-.94-1.57-1.34.79-7.2,12.12-9.22,12.12-9.22C71,305.43,67.39,316.46,67.39,316.46Z"/><path class="cls-1" d="M282.57,294.28s-.53,5.29,3,8.81c0,0,9.16-7.07,7.11-13.36a47.34,47.34,0,0,0-4.76,1.63A46.69,46.69,0,0,0,282.57,294.28Zm-14.46,8.92c4.09-2.58,8.2-5.14,11.61-7.21C277.4,291.23,268,284.32,268,284.32l.14,18.87ZM67.39,316.46s3.6-11,3.6-15.72c0,0-11.34,2-12.12,9.22.52.4,1,.86,1.57,1.34A40.58,40.58,0,0,0,67.39,316.46Zm196.71-10.73c-5.11,3.24-9.86,6.27-12.84,8.18,2,1.44,3.82,11.44,3.82,11.44C259.77,321.85,264.09,305.73,264.09,305.73ZM78,58h23a14,14,0,0,1,11.89,6.58c3.93,6.31,6.87,15.84,8.93,24.66a185,185,0,0,1,4.3,28.56c1.29-.34,45.07-11.55,80.88,0l.45.08C211.07,100.4,215.4,84.25,219.9,78c11.73-16.42,19.93-18.76,32.83-17.59l1.16.11c12.58,1,26.19.67,38.71,25.69l-7-4.69c-11.15-8.36-22.84.32-33.41,15.42l-.12.16a192.13,192.13,0,0,0-14.94,26.45l.39.18c44.56,9.38,61.85,59.75,67.35,77a46.5,46.5,0,0,0,5.93,12.17c16.22,23.52,35.29,58.52-24,111.38-64.49,57.46-207.54,48.07-261.48-9.38-44-46.84-18.2-91.73-7.18-106.73a47.13,47.13,0,0,0,6.45-12.14c18.55-52,68.15-68.16,68.15-68.16L92,126.45,79.64,95.83s-15.69-.29-23.9,4.4-17.59,9.38-25.8,4.69c-7.87-4.49-12.5-19.76-10.81-35.47.13-1.2.26-2.38.34-3.58.47-7.14,3.48-37.8,21-58.28,7-8.21,8.21-2.35,8.21-2.35C51.05,15.81,78,58,78,58Zm11.83,264.6a107.3,107.3,0,0,0-13.06-2.77c-2.1,11.4,7.09,12.55,7.09,12.55C83.88,328.88,89.85,322.62,89.85,322.62Zm-32.76-14c-6.7-4.71-12.18-4.49-15.49-3.55-1.23,6.65,7.11,12.1,7.11,12.1C48.71,313.64,57.09,308.61,57.09,308.61Zm229-57.17c3.69-9.3,5.18-21.5,3-37.46,0,0-6.25,1.17-17.13-3.52-4.51-1.95-12.64-1.27-20.68,4.66-11.33,8.33-22.48,27-23.16,63.35.46,1.71,28.61,5.39,46.82-10.83A42.25,42.25,0,0,0,286.09,251.43ZM95.61,284.32c3.83-31.2-2.3-49.63-11.13-59.93a32.24,32.24,0,0,0-19.07-11.14,21,21,0,0,0-10.85.72c-11.15,4.47-10.64.43-10.56,0-17,46.19,5.55,62.22,26,67.68h0a86.86,86.86,0,0,0,21.32,2.74C94,284.44,95.61,284.32,95.61,284.32Z"/><path class="cls-2" d="M57.09,308.61s-8.38,5-8.38,8.55c0,0-8.34-5.45-7.11-12.1C44.91,304.12,50.4,303.89,57.09,308.61Z"/><path class="cls-5" d="M237.49,123.68c44.56,9.38,61.85,59.75,67.35,77a46.5,46.5,0,0,0,5.93,12.17c16.22,23.52,35.29,58.52-24,111.38-64.49,57.46-207.54,48.07-261.48-9.38-44-46.84-18.2-91.73-7.18-106.73a47.13,47.13,0,0,0,6.45-12.14c18.55-52,68.15-68.16,68.15-68.16"/><path class="cls-5" d="M129.61,177.62l-3.27-56.44c-.07-1.13-.14-2.24-.22-3.37a185,185,0,0,0-4.3-28.56c-2.06-8.82-5-18.35-8.93-24.66A14,14,0,0,0,101,58H76.32a29.94,29.94,0,0,0-8.77,1.25,14.25,14.25,0,0,0-5.22,2.6c-.72.66-1.38,1.36-2.12,2C55.5,67.87,44,81.47,40.5,94.37"/><path class="cls-5" d="M207,117.82c-35.81-11.55-79.59-.34-80.88,0h0"/><path class="cls-5" d="M60.43,78c9.38-2.35,14.35,5.9,14.35,5.9l4.85,12L92,126.45l.63,1.34L114.37,180"/><path class="cls-5" d="M78,58s-27-42.21-29.31-52.77c0,0-1.17-5.86-8.21,2.35C23,28.07,19.95,58.74,19.48,65.88c-.08,1.2-.21,2.38-.34,3.58-1.69,15.71,2.94,31,10.81,35.47,8.21,4.69,17.59,0,25.8-4.69s23.9-4.4,23.9-4.4"/><path class="cls-5" d="M252.16,96.89c10.56-15.1,22.26-23.78,33.41-15.42l7,4.69c-12.51-25-26.12-24.67-38.71-25.69l-1.16-.11c-12.9-1.17-21.11,1.17-32.83,17.59-4.5,6.3-8.83,22.44-12.45,39.95-5.82,28.11-9.83,59.72-9.83,59.72"/><path class="cls-5" d="M215.21,180s8.93-29.3,21.89-56.46A192.13,192.13,0,0,1,252,97.05"/><path class="cls-5" d="M253.91,60.37s41-62.15,50.42-59.8,3.26,66.51,2.35,73.87c-1.1,8.79-2.19,15.52-6.19,21.16-.54.76-1.1,1.5-1.62,2.27l-1.68,2.52a13.19,13.19,0,0,1-12.91,5.72c-12.49-1.84-34.4-5.59-32.23-9.06l.12-.16"/><path class="cls-5" d="M70,281.68C49.55,276.22,27,260.19,44,214c-.07.4-.59,4.43,10.56,0a21,21,0,0,1,10.85-.72"/><path class="cls-5" d="M84.48,224.39c8.83,10.3,15,28.73,11.13,59.93,0,0-1.61.12-4.29.11"/><path class="cls-5" d="M274.93,267.63c-18.21,16.23-46.36,12.55-46.82,10.83.68-36.34,11.83-55,23.16-63.35,8-5.92,16.17-6.6,20.68-4.66,10.88,4.69,17.13,3.52,17.13,3.52,2.19,16,.7,28.16-3,37.46"/><path class="cls-5" d="M38.15,306.6a11.06,11.06,0,0,1,3.45-1.55c3.31-.94,8.79-1.16,15.49,3.55.57.4,1.17.84,1.77,1.35s1,.86,1.57,1.34a40.58,40.58,0,0,0,7,5.17,25.36,25.36,0,0,0,9,3.33l.39.06a107.3,107.3,0,0,1,13.06,2.77,83,83,0,0,1,8.29,2.8,84.76,84.76,0,0,1,10.37,4.63c3.52,2.35,14.07,3.52,18.76,1.17S154.7,323,158.93,323c9.38,0,27-1.76,38.69,1.17C211.69,327.71,248,316,248,316l3.21-2.06c3-1.91,7.73-4.95,12.84-8.18,1.31-.84,2.66-1.69,4-2.53,4.09-2.58,8.2-5.14,11.61-7.21,1-.62,2-1.2,2.85-1.71a46.69,46.69,0,0,1,5.34-2.92,47.34,47.34,0,0,1,4.76-1.63,7.9,7.9,0,0,1,7,1.63"/><path class="cls-5" d="M268.12,303.19,268,284.32s9.43,6.91,11.75,11.67"/><path class="cls-5" d="M282.57,294.28s-.53,5.29,3,8.81c0,0,9.16-7.07,7.11-13.36a1.63,1.63,0,0,0-.07-.22"/><path class="cls-5" d="M264.09,305.73s-4.33,16.11-9,19.63c0,0-1.78-10-3.82-11.44"/><path class="cls-5" d="M89.85,322.62s-6,6.26-6,9.78c0,0-9.19-1.15-7.09-12.55,0-.12,0-.23.06-.35"/><path class="cls-5" d="M67.39,316.46s3.6-11,3.6-15.72c0,0-11.34,2-12.12,9.22"/><path class="cls-5" d="M57.09,308.61s-8.38,5-8.38,8.55c0,0-8.34-5.45-7.11-12.1"/><path class="cls-5" d="M64.16,243.62a15.83,15.83,0,0,1,1.25-30.37,32.24,32.24,0,0,1,19.07,11.14,15.84,15.84,0,0,1-6.14,17.18"/><path class="cls-5" d="M82,264.45c5.68.68,10.12,7,10.12,14.6a18.6,18.6,0,0,1-.77,5.38A86.86,86.86,0,0,1,70,281.68h0a19.42,19.42,0,0,1-.18-2.64,17.35,17.35,0,0,1,3-10"/><path class="cls-5" d="M78.34,241.57A15.53,15.53,0,0,1,85,253.43a16,16,0,0,1-3,11,9.92,9.92,0,0,0-1-.06,10.09,10.09,0,0,0-8.15,4.68h0c-6.3-.19-11.69-6-12.32-13.65a15.79,15.79,0,0,1,3.69-11.8"/><path class="cls-5" d="M247.07,246.33c-2.23-3.22-2.54-8.9-2.54-15.36,0-6.89,2.92-12.21,7.12-15.34A15.9,15.9,0,0,1,258,212.8c9.45-1.9,15.06,7.22,13.48,18.76a18.67,18.67,0,0,1-1.81,5.75"/><path class="cls-5" d="M273.77,247.43a10.4,10.4,0,0,1,3.59-.63,10.55,10.55,0,0,1,8.74,4.63,42.25,42.25,0,0,1-11.16,16.19,10.52,10.52,0,0,1-6.77-5.1"/><path class="cls-5" d="M273.77,247.43a10.54,10.54,0,0,0-7,9.92,10.43,10.43,0,0,0,1.36,5.17,11.85,11.85,0,0,1-7.81,3c-7.45,0-13.48-7.35-13.48-16.42a20.13,20.13,0,0,1,.2-2.81,6.36,6.36,0,0,0,5.66,2.81c5.93,0,13.45-4.84,17-11.84A17.92,17.92,0,0,1,273.77,247.43Z"/></g></g></svg>