<svg xmlns="http://www.w3.org/2000/svg" viewBox="0 0 425 425"><defs><style>.cls-1,.cls-6{fill:none;}.cls-2{fill:#f2d4e1;}.cls-3{fill:#f2f2f2;}.cls-4{fill:#75292e;}.cls-5{fill:#0f0504;}.cls-6{stroke:#000;stroke-miterlimit:10;}</style></defs><title>S</title><g id="Capa_2" data-name="Capa 2"><g id="img_bg" data-name="img bg"><rect class="cls-1" width="425" height="425"/></g><g id="S"><path class="cls-2" d="M111.66,332.42c-6.33-4.45-11.5-4.24-14.62-3.36-1.17,6.29,6.7,11.43,6.7,11.43C103.74,337.17,111.66,332.42,111.66,332.42Zm199.39-5.11c3.88-2.45,7.76-4.86,11-6.82-2.2-4.49-11.11-11-11.11-11l.13,17.83Zm13.66-8.43s-.5,5,2.83,8.32c0,0,8.65-6.68,6.71-12.62a44.73,44.73,0,0,0-4.5,1.54A44.11,44.11,0,0,0,324.71,318.88ZM307.25,329.7c-4.82,3-9.31,5.92-12.12,7.73,1.93,1.37,3.6,10.81,3.6,10.81C303.16,344.93,307.25,329.7,307.25,329.7Zm-193.91,4c.49.39,1,.81,1.47,1.26a38.34,38.34,0,0,0,6.57,4.89s3.4-10.43,3.4-14.86C124.79,325,114.08,326.89,113.34,333.69ZM130.27,343c-2,10.77,6.7,11.85,6.7,11.85,0-3.32,5.65-9.24,5.65-9.24A101.11,101.11,0,0,0,130.27,343ZM281.75,157.52l.37.17c42.1,8.86,58.44,56.46,63.64,72.72a43.55,43.55,0,0,0,5.62,11.49c15.32,22.22,33.35,55.3-22.72,105.24-60.94,54.29-196.1,45.42-247.06-8.86C40,294,64.4,251.61,74.81,237.45A44.78,44.78,0,0,0,80.91,226c17.53-49.11,64.38-64.4,64.38-64.4l-.6-1.25L133,131.38s-14.82-.28-22.58,4.15S93.77,144.39,86,140c-7.42-4.24-11.81-18.67-10.21-33.51.12-1.13.25-2.25.32-3.38C76.57,96.32,79.41,67.35,96,48c6.65-7.76,7.76-2.22,7.76-2.22,2.22,10,27.7,49.86,27.7,49.86h21.7a13.22,13.22,0,0,1,11.23,6.22c3.72,6,6.49,15,8.44,23.3a174.48,174.48,0,0,1,4.08,27c1.38-.35,42.64-10.88,76.41,0l.42.08c3.42-16.54,7.51-31.8,11.77-37.75,11.08-15.51,18.83-17.73,31-16.62l1.1.1c11.89,1,24.75.63,36.57,24.27l-6.65-4.43C317,109.9,306,118.1,296,132.37l-.11.16A181.54,181.54,0,0,0,281.75,157.52ZM328,278.4c3.49-8.79,4.9-20.32,2.83-35.4,0,0-5.91,1.11-16.19-3.32-4.27-1.84-11.94-1.2-19.54,4.4-10.69,7.87-21.23,25.53-21.88,59.86.43,1.62,27,5.1,44.24-10.24A39.92,39.92,0,0,0,328,278.4Zm-180,31.08c3.62-29.48-2.17-46.9-10.51-56.63a30.46,30.46,0,0,0-18-10.53,19.85,19.85,0,0,0-10.25.68c-10.54,4.22-10,.41-10,0-16.1,43.64,5.24,58.79,24.55,63.95h0A82.08,82.08,0,0,0,144,309.57C146.54,309.58,148.06,309.47,148.06,309.47Z"/><path class="cls-2" d="M345.26,41.36c8.86,2.22,3.09,62.85,2.22,69.8-1,8.31-2.07,14.67-5.85,20-.51.72-1,1.42-1.53,2.15l-1.58,2.38a12.47,12.47,0,0,1-12.19,5.42c-11.81-1.75-32.51-5.3-30.47-8.58l.11-.16c10-14.27,21-22.47,31.56-14.57l6.65,4.43C322.36,98.59,309.5,98.93,297.61,98v-.1S336.4,39.14,345.26,41.36Z"/><path class="cls-3" d="M334.25,314.58c1.94,5.94-6.71,12.62-6.71,12.62-3.32-3.32-2.83-8.32-2.83-8.32a44.11,44.11,0,0,1,5-2.76A44.73,44.73,0,0,1,334.25,314.58Z"/><path class="cls-4" d="M330.86,243c2.07,15.08.66,26.61-2.83,35.4a10,10,0,0,0-8.25-4.38,9.83,9.83,0,0,0-3.39.6,16.93,16.93,0,0,0-3.86-9.57,17.64,17.64,0,0,0,1.71-5.43c1.48-10.9-3.81-19.52-12.74-17.73a15,15,0,0,0-6,2.68l-.35-.5c7.6-5.59,15.28-6.24,19.54-4.4C325,244.11,330.86,243,330.86,243Z"/><path class="cls-3" d="M319.78,274A10,10,0,0,1,328,278.4a39.92,39.92,0,0,1-10.55,15.3,10,10,0,0,1-1.1-19.08A9.83,9.83,0,0,1,319.78,274Z"/><path class="cls-3" d="M310.92,309.47s8.91,6.53,11.11,11c-3.22,2-7.1,4.38-11,6.82h0Z"/><path class="cls-5" d="M312.54,265a16.93,16.93,0,0,1,3.86,9.57,10,10,0,0,0-6.58,9.37,9.86,9.86,0,0,0,1.29,4.89,11.2,11.2,0,0,1-7.38,2.87c-7,0-12.74-6.95-12.74-15.51a19,19,0,0,1,.19-2.66,6,6,0,0,0,5.35,2.66C302.12,276.24,309.22,271.66,312.54,265Z"/><path class="cls-3" d="M301.5,241.89c8.93-1.79,14.23,6.82,12.74,17.73a17.64,17.64,0,0,1-1.71,5.43c-3.31,6.61-10.41,11.19-16,11.19a6,6,0,0,1-5.35-2.66c-2.11-3-2.4-8.41-2.4-14.51,0-6.51,2.76-11.53,6.73-14.49A15,15,0,0,1,301.5,241.89Z"/><path class="cls-4" d="M311.1,288.88a9.94,9.94,0,0,0,6.39,4.82c-17.21,15.33-43.81,11.85-44.24,10.24.65-34.33,11.19-52,21.88-59.86l.35.5c-4,3-6.73,8-6.73,14.49,0,6.1.3,11.47,2.4,14.51a19,19,0,0,0-.19,2.66c0,8.56,5.71,15.51,12.74,15.51A11.2,11.2,0,0,0,311.1,288.88Z"/><path class="cls-3" d="M307.25,329.7s-4.09,15.22-8.52,18.55c0,0-1.67-9.44-3.6-10.81C297.95,335.62,302.43,332.75,307.25,329.7Z"/><path class="cls-4" d="M137.54,252.85c8.34,9.73,14.14,27.14,10.51,56.63,0,0-1.52.11-4.05.1a17.57,17.57,0,0,0,.73-5.09c0-7.21-4.2-13.15-9.56-13.79a15.15,15.15,0,0,0,2.88-10.41,14.67,14.67,0,0,0-6.32-11.2,15,15,0,0,0,5.81-16.23Z"/><path class="cls-3" d="M144.73,304.49a17.57,17.57,0,0,1-.73,5.09A82.08,82.08,0,0,1,123.86,307h0a18.35,18.35,0,0,1-.17-2.49,16.4,16.4,0,0,1,2.81-9.43h0a9.53,9.53,0,0,1,7.7-4.42,9.37,9.37,0,0,1,1,.06C140.53,291.34,144.73,297.28,144.73,304.49Z"/><path class="cls-3" d="M130.27,343a101.11,101.11,0,0,1,12.35,2.61S137,351.57,137,354.9C137,354.9,128.29,353.81,130.27,343Z"/><path class="cls-5" d="M138.05,280.28a15.15,15.15,0,0,1-2.88,10.41,9.37,9.37,0,0,0-1-.06,9.53,9.53,0,0,0-7.7,4.42h0c-5.95-.18-11-5.71-11.64-12.9A14.92,14.92,0,0,1,118.34,271a15,15,0,0,0,13.39-1.94A14.67,14.67,0,0,1,138.05,280.28Z"/><path class="cls-3" d="M137.54,252.85a15,15,0,1,1-18-10.53A30.46,30.46,0,0,1,137.54,252.85Z"/><path class="cls-4" d="M126.5,295.06a16.4,16.4,0,0,0-2.81,9.43,18.35,18.35,0,0,0,.17,2.49C104.54,301.82,83.2,286.67,99.3,243c-.07.38-.55,4.19,10,0a19.85,19.85,0,0,1,10.25-.68A15,15,0,0,0,118.34,271a14.92,14.92,0,0,0-3.49,11.15C115.45,289.35,120.55,294.88,126.5,295.06Z"/><path class="cls-3" d="M124.79,325c0,4.43-3.4,14.86-3.4,14.86a38.34,38.34,0,0,1-6.57-4.89c-.5-.45-1-.88-1.47-1.26C114.08,326.89,124.79,325,124.79,325Z"/><path class="cls-3" d="M111.66,332.42s-7.92,4.75-7.92,8.08c0,0-7.88-5.14-6.7-11.43C100.16,328.18,105.33,328,111.66,332.42Z"/><path class="cls-6" d="M282.11,157.69c42.1,8.86,58.44,56.46,63.64,72.72a43.55,43.55,0,0,0,5.62,11.49c15.32,22.22,33.35,55.3-22.72,105.24-60.94,54.29-196.1,45.42-247.06-8.86C40,294,64.4,251.61,74.81,237.45A44.78,44.78,0,0,0,80.91,226c17.53-49.11,64.38-64.4,64.38-64.4"/><path class="cls-6" d="M180.19,208.65l-3.08-53.32c-.06-1.06-.13-2.13-.21-3.19a174.48,174.48,0,0,0-4.08-27c-1.95-8.33-4.72-17.34-8.44-23.3a13.22,13.22,0,0,0-11.23-6.22H129.83a28,28,0,0,0-8.29,1.2,13.28,13.28,0,0,0-4.93,2.45c-.68.62-1.31,1.29-2,1.87C110.15,105,99.31,117.8,96,130"/><path class="cls-6" d="M253.31,152.15c-33.77-10.89-75-.37-76.41,0h0"/><path class="cls-6" d="M114.82,114.48c8.86-2.22,13.56,5.57,13.56,5.57L133,131.38l11.72,28.94.6,1.25,20.5,49.3"/><path class="cls-6" d="M131.44,95.65S106,55.76,103.74,45.79c0,0-1.11-5.54-7.76,2.22C79.41,67.35,76.57,96.32,76.12,103.07c-.07,1.13-.2,2.25-.32,3.38C74.2,121.29,78.59,135.72,86,140c7.76,4.43,16.62,0,24.37-4.43S133,131.38,133,131.38"/><path class="cls-6" d="M296,132.37c10-14.27,21-22.47,31.56-14.57l6.65,4.43C322.36,98.59,309.5,98.93,297.61,98l-1.1-.1c-12.19-1.11-19.94,1.11-31,16.62-4.25,5.95-8.34,21.21-11.77,37.75-5.5,26.56-9.28,56.43-9.28,56.43"/><path class="cls-6" d="M261.06,210.87a440.43,440.43,0,0,1,20.68-53.35,181.54,181.54,0,0,1,14.11-25"/><path class="cls-6" d="M297.62,97.86s38.78-58.72,47.64-56.5,3.09,62.85,2.22,69.8c-1,8.31-2.07,14.67-5.85,20-.51.72-1,1.42-1.53,2.15l-1.58,2.38a12.47,12.47,0,0,1-12.19,5.42c-11.81-1.75-32.51-5.3-30.47-8.58l.11-.16"/><path class="cls-6" d="M123.85,307C104.54,301.82,83.2,286.67,99.3,243c-.07.38-.55,4.19,10,0a19.85,19.85,0,0,1,10.25-.68"/><path class="cls-6" d="M137.54,252.85c8.34,9.73,14.14,27.14,10.51,56.63,0,0-1.52.11-4.05.1"/><path class="cls-6" d="M317.49,293.7c-17.21,15.33-43.81,11.85-44.24,10.24.65-34.33,11.19-52,21.88-59.86,7.6-5.59,15.28-6.24,19.54-4.4C325,244.11,330.86,243,330.86,243c2.07,15.08.66,26.61-2.83,35.4"/><path class="cls-6" d="M93.77,330.52A10.44,10.44,0,0,1,97,329.06c3.12-.89,8.3-1.1,14.62,3.36.55.38,1.11.8,1.68,1.27s1,.81,1.47,1.26a38.34,38.34,0,0,0,6.57,4.89,24,24,0,0,0,8.53,3.15l.35.06a101.11,101.11,0,0,1,12.35,2.61,78.43,78.43,0,0,1,7.83,2.65,83.35,83.35,0,0,1,9.78,4.38c3.32,2.22,13.29,3.32,17.73,1.11S203.89,346,207.88,346c8.86,0,25.5-1.65,36.56,1.11,13.29,3.32,47.64-7.76,47.64-7.76l3-1.95c2.81-1.82,7.3-4.69,12.12-7.73,1.24-.8,2.51-1.6,3.8-2.39,3.88-2.45,7.76-4.86,11-6.82l2.68-1.61a44.11,44.11,0,0,1,5-2.76,44.73,44.73,0,0,1,4.5-1.54,7.47,7.47,0,0,1,6.58,1.54"/><path class="cls-6" d="M311.05,327.3l-.13-17.83s8.91,6.53,11.11,11h0"/><path class="cls-6" d="M324.71,318.88s-.5,5,2.83,8.32c0,0,8.65-6.68,6.71-12.62a1.54,1.54,0,0,0-.07-.21"/><path class="cls-6" d="M307.25,329.7s-4.09,15.22-8.52,18.55c0,0-1.67-9.44-3.6-10.81"/><path class="cls-6" d="M142.63,345.66S137,351.57,137,354.9c0,0-8.69-1.09-6.7-11.85,0-.11,0-.22.06-.33"/><path class="cls-6" d="M121.39,339.84s3.4-10.43,3.4-14.86c0,0-10.71,1.91-11.44,8.71"/><path class="cls-6" d="M111.66,332.42s-7.92,4.75-7.92,8.08c0,0-7.88-5.14-6.7-11.43"/><path class="cls-6" d="M118.34,271a15,15,0,0,1,1.19-28.69,30.46,30.46,0,0,1,18,10.53,15,15,0,0,1-5.81,16.23"/><path class="cls-6" d="M135.17,290.69c5.36.64,9.56,6.58,9.56,13.79a17.57,17.57,0,0,1-.73,5.09A82.08,82.08,0,0,1,123.86,307h0a18.35,18.35,0,0,1-.17-2.49,16.4,16.4,0,0,1,2.81-9.43"/><path class="cls-6" d="M131.74,269.08a14.67,14.67,0,0,1,6.32,11.2,15.15,15.15,0,0,1-2.88,10.41,9.37,9.37,0,0,0-1-.06,9.53,9.53,0,0,0-7.7,4.42h0c-5.95-.18-11-5.71-11.64-12.9A14.92,14.92,0,0,1,118.34,271"/><path class="cls-6" d="M291.17,273.58c-2.11-3-2.4-8.41-2.4-14.51,0-6.51,2.76-11.53,6.73-14.49a15,15,0,0,1,6-2.68c8.93-1.79,14.23,6.82,12.74,17.73a17.64,17.64,0,0,1-1.71,5.43"/><path class="cls-6" d="M316.39,274.62a9.83,9.83,0,0,1,3.39-.6A10,10,0,0,1,328,278.4a39.92,39.92,0,0,1-10.55,15.3,9.94,9.94,0,0,1-6.39-4.82"/><path class="cls-6" d="M316.39,274.62a10,10,0,0,0-6.58,9.37,9.86,9.86,0,0,0,1.29,4.89,11.2,11.2,0,0,1-7.38,2.87c-7,0-12.74-6.95-12.74-15.51a19,19,0,0,1,.19-2.66,6,6,0,0,0,5.35,2.66c5.61,0,12.71-4.58,16-11.19A16.93,16.93,0,0,1,316.39,274.62Z"/></g></g></svg>