<svg xmlns="http://www.w3.org/2000/svg" viewBox="0 0 425 425"><defs><style>.cls-1,.cls-8{fill:none;}.cls-2{fill:#75292e;}.cls-3{fill:#0f0504;}.cls-4{fill:#f2f2f2;}.cls-5{fill:#eee7e7;}.cls-6{fill:#84757d;}.cls-7{fill:#f2d4e1;}.cls-8{stroke:#000;stroke-miterlimit:10;}</style></defs><title>SE</title><g id="Capa_2" data-name="Capa 2"><g id="img_bg" data-name="img bg"><rect class="cls-1" width="425" height="425"/></g><g id="SE"><path class="cls-2" d="M249.78,313.35A13,13,0,0,0,243,302.73a17.57,17.57,0,0,0,2.47-9.14c0-5.7-2.54-10.67-6.29-13.27a20.25,20.25,0,0,0,3.39-11.38,21,21,0,0,0-1.67-8.25c9.27,3.41,14.91,9.77,19.07,19.13,5.8,13.05,7.25,20.3,7.25,20.3A57.16,57.16,0,0,1,249.78,313.35Z"/><path class="cls-3" d="M227.36,287.07a14.37,14.37,0,0,0,11.83-6.74c3.76,2.6,6.29,7.57,6.29,13.27a17.57,17.57,0,0,1-2.47,9.14,10.55,10.55,0,0,0-4.79-1.16,11.33,11.33,0,0,0-9.8,6.08c-4.47-2.29-7.6-7.72-7.6-14.05a17.76,17.76,0,0,1,1.61-7.5A12.76,12.76,0,0,0,227.36,287.07Z"/><path class="cls-4" d="M238.24,301.57a10.55,10.55,0,0,1,4.79,1.16,13,13,0,0,1,6.76,10.62,40,40,0,0,1-17.35,4.18,25.44,25.44,0,0,1-5.63-.64,14.58,14.58,0,0,1-.17-2.26,14.25,14.25,0,0,1,1.8-7A11.33,11.33,0,0,1,238.24,301.57Z"/><path class="cls-5" d="M299.72,342.36c2,1.61-2,12.88-2,12.88l-7.79-6.08a19.49,19.49,0,0,0,2.9-2.09A32.14,32.14,0,0,1,299.72,342.36Z"/><path class="cls-6" d="M347.07,236.78c0,2.13,0,4.39-.06,6.79l-5.8,11.6s-3.09-7.77-6.16-17.48c-.15-.44-.28-.88-.42-1.33a12.23,12.23,0,0,1,10.83-.44A9.5,9.5,0,0,1,347.07,236.78Z"/><path class="cls-4" d="M228.09,258.07a49.27,49.27,0,0,1,12.83,2.62,21,21,0,0,1,1.67,8.25,20.25,20.25,0,0,1-3.39,11.38,14.37,14.37,0,0,1-11.83,6.74,12.76,12.76,0,0,1-4.92-1c-6-2.44-10.31-9.19-10.31-17.16a20.85,20.85,0,0,1,1.68-8.28A25.84,25.84,0,0,1,228.09,258.07Z"/><path class="cls-3" d="M345.15,220.61A72,72,0,0,1,347,235.06c0,1.25-1,.59-1.57.86a12.23,12.23,0,0,0-10.83.44c-1.42-4.58-2.81-9.53-3.86-14.24a30.41,30.41,0,0,0,3.19,1.15c4.06,1.22,7.93-.1,11-2.74h0Z"/><path class="cls-2" d="M222.45,286.1a17.76,17.76,0,0,0-1.61,7.5c0,6.34,3.13,11.76,7.6,14.05a14.25,14.25,0,0,0-1.8,7,14.58,14.58,0,0,0,.17,2.26C209.93,313,200,292.34,199.08,288.52c-1.36-5.44-6.54-8.32-7.18-8.67a7.8,7.8,0,0,0,8.63-4.38c1.93-3.86,5.79-10.94,13.28-14.81a20.85,20.85,0,0,0-1.68,8.28C212.14,276.9,216.44,283.66,222.45,286.1Z"/><path class="cls-4" d="M345,220.52c-3.06,2.64-6.93,4-11,2.74a30.41,30.41,0,0,1-3.19-1.15c-.16-.74-.32-1.46-.46-2.19-1.65-8.35-2-15.65.75-18.42,0,0,9.76,1.62,14,18.88l-.13.13Z"/><path class="cls-7" d="M299.72,342.36a32.14,32.14,0,0,0-6.9,4.71,19.49,19.49,0,0,1-2.9,2.09l7.79,6.08S301.73,344,299.72,342.36Zm-38,5.38c.7.29,1.39.62,2.09,1A30.39,30.39,0,0,0,273.7,352c-3.71-10.47-7.9-14.17-7.9-14.17Zm-29.25-30.21a40,40,0,0,0,17.35-4.18,57.16,57.16,0,0,0,17.46-13.23s-1.45-7.25-7.25-20.3c-4.16-9.35-9.8-15.72-19.07-19.13a49.27,49.27,0,0,0-12.83-2.62,25.84,25.84,0,0,0-14.27,2.6c-7.5,3.87-11.36,10.95-13.28,14.81a7.8,7.8,0,0,1-8.63,4.38c.64.35,5.82,3.23,7.18,8.67,1,3.81,10.85,24.44,27.73,28.37A25.44,25.44,0,0,0,232.44,317.53ZM339.18,339c-58.49,60-127.83,44-156,46.67-20.65,2-47.31-10.06-62.33-18a84.16,84.16,0,0,1-20.27-14.87c-115.59-115.89,48.15-200,50.7-197.7l.28-.48c-10.05-5.71-19.19-9.59-26.32-10.31a12.39,12.39,0,0,0-10.22,3.8c-7.86,8.22-25.31,26-42,27.29,0,0-20.3,1.45-29-2.9,0,0-16-8.7-21.75-18.85-5.31-9.27-9.4-44-17.81-59.85-1.13-2.13-2-6.42.41-6.86,4.73-.86,14.11.25,20.3,2.9C35.2,94.18,52.61,113,64.21,129S86,139.14,86,139.14c2.9,1.45,27.34-26.71,59.46-29,15.34-1.09,36.82,15.69,57,36.21,52-5.66,82.27,14.55,82.27,14.55l.29-.09c-4.9-16.56-12.25-37.53-20-52.43,0,0-25.28-1.15-47,7.56,0,0-8.7,4.35-21.75,1.45s-36.26-53.66-31.91-65.26,53.53,34.68,68.1,33.36c7.92-6,39.22-7.25,39.22-7.25,8.7-1.45,13.05,4.35,13.05,4.35,16.42,19.69,20.45,69.13,21.44,92.21,6.61,1.9,13.56,8.8,18.62,15.37,4.32,5.45,7.06,10.63,6.35,11.34-2.77,2.77-2.41,10.06-.75,18.42.15.73.3,1.45.46,2.19,1,4.71,2.44,9.66,3.86,14.24.15.45.28.9.42,1.33,3.07,9.7,6.16,17.48,6.16,17.48l5.8-11.6a39.61,39.61,0,0,1,5.7,5.19,38.46,38.46,0,0,1,7.79,12.7c3.51,9.56,3.83,19.62,2.68,28.79a79.34,79.34,0,0,1-3.09,14.17A87.35,87.35,0,0,1,339.18,339ZM235.37,350a15.47,15.47,0,0,0,8.67,8.12l4.57-12.25h0A36.19,36.19,0,0,0,235.37,350Z"/><path class="cls-5" d="M235.37,350a36.19,36.19,0,0,1,13.24-4.15h0L244,358.13A15.47,15.47,0,0,1,235.37,350Z"/><path class="cls-5" d="M265.8,337.83s4.19,3.7,7.9,14.17a30.39,30.39,0,0,1-9.92-3.28c-.7-.36-1.39-.7-2.09-1Z"/><path class="cls-8" d="M305.68,174.68l.41.12c6.61,1.9,13.56,8.8,18.62,15.37"/><path class="cls-8" d="M352.71,248.75a38.46,38.46,0,0,1,7.79,12.7c3.51,9.56,3.83,19.62,2.68,28.79a79.34,79.34,0,0,1-3.09,14.17A87.35,87.35,0,0,1,339.18,339c-58.49,60-127.83,44-156,46.67-20.65,2-47.31-10.06-62.33-18a84.16,84.16,0,0,1-20.27-14.87c-115.59-115.89,48.15-200,50.7-197.7"/><path class="cls-8" d="M284.65,160.9s-30.3-20.2-82.27-14.55l-.39,0"/><path class="cls-8" d="M347.07,236.78c0-.58,0-1.16,0-1.71"/><path class="cls-8" d="M345.15,220.61a1.21,1.21,0,0,0-.06-.22"/><path class="cls-8" d="M226.81,316.89C209.93,313,200,292.34,199.08,288.52c-1.36-5.44-6.54-8.32-7.18-8.67a7.8,7.8,0,0,0,8.63-4.38c1.93-3.86,5.79-10.94,13.28-14.81"/><path class="cls-8" d="M240.92,260.69c9.27,3.41,14.91,9.77,19.07,19.13,5.8,13.05,7.25,20.3,7.25,20.3a57.16,57.16,0,0,1-17.46,13.23"/><path class="cls-8" d="M222.45,286.1c-6-2.44-10.31-9.19-10.31-17.16a20.85,20.85,0,0,1,1.68-8.28"/><path class="cls-8" d="M240.92,260.69a21,21,0,0,1,1.67,8.25,20.25,20.25,0,0,1-3.39,11.38"/><path class="cls-8" d="M240.92,260.69a49.27,49.27,0,0,0-12.83-2.62,25.84,25.84,0,0,0-14.27,2.6"/><path class="cls-8" d="M243,302.73a13,13,0,0,1,6.76,10.62,40,40,0,0,1-17.35,4.18,25.44,25.44,0,0,1-5.63-.64,14.58,14.58,0,0,1-.17-2.26,14.25,14.25,0,0,1,1.8-7"/><path class="cls-8" d="M239.2,280.33c3.76,2.6,6.29,7.57,6.29,13.27a17.57,17.57,0,0,1-2.47,9.14,10.55,10.55,0,0,0-4.79-1.16,11.33,11.33,0,0,0-9.8,6.08c-4.47-2.29-7.6-7.72-7.6-14.05a17.76,17.76,0,0,1,1.61-7.5"/><path class="cls-8" d="M331.06,201.51c.71-.71-2-5.89-6.35-11.34"/><path class="cls-8" d="M330.3,219.92c-1.65-8.35-2-15.65.75-18.42,0,0,9.76,1.62,14,18.88l-.13.13"/><path class="cls-8" d="M330.3,219.92c.15.73.3,1.45.46,2.19"/><path class="cls-8" d="M334.63,236.36c-1.42-4.58-2.81-9.53-3.86-14.24a30.41,30.41,0,0,0,3.19,1.15c4.06,1.22,7.93-.1,11-2.74h0l.19.09A72,72,0,0,1,347,235.06c0,1.25-1,.59-1.57.86"/><path class="cls-8" d="M334.63,236.36a12.23,12.23,0,0,1,10.83-.44,9.5,9.5,0,0,1,1.61.86"/><path class="cls-8" d="M347,243.56c.09-2.39.1-4.66.06-6.79"/><path class="cls-8" d="M334.63,236.36c.15.45.28.9.42,1.33,3.07,9.7,6.16,17.48,6.16,17.48l5.8-11.6a39.61,39.61,0,0,1,5.7,5.19"/><path class="cls-8" d="M233.89,350.88s.52-.35,1.48-.87a36.19,36.19,0,0,1,13.24-4.15,26.75,26.75,0,0,1,13.08,1.87c.7.29,1.39.62,2.09,1A30.39,30.39,0,0,0,273.7,352a26.6,26.6,0,0,0,7.28.1,22.93,22.93,0,0,0,8.93-2.94,19.49,19.49,0,0,0,2.9-2.09,32.14,32.14,0,0,1,6.9-4.71c.48-.25,1-.46,1.48-.67A58.57,58.57,0,0,1,318,337.83c15.1-1.38,39.51-30.3,42.09-33.41l.23-.28"/><path class="cls-8" d="M248.61,345.88,244,358.13a15.47,15.47,0,0,1-8.67-8.12"/><path class="cls-8" d="M261.68,347.75h0l4.1-9.91s4.19,3.7,7.9,14.17h0"/><path class="cls-8" d="M289.91,349.16l7.79,6.08s4-11.27,2-12.88"/><path class="cls-8" d="M258.54,216c2,1.38-25.52-38.46-56.17-69.66-20.13-20.52-41.61-37.3-57-36.21-32.12,2.29-56.56,30.46-59.46,29,0,0-10.15,5.8-21.75-10.15s-29-34.81-39.16-39.16c-6.19-2.65-15.58-3.76-20.3-2.9-2.38.44-1.54,4.73-.41,6.86,8.41,15.87,12.5,50.59,17.81,59.85C28,163.8,43.9,172.5,43.9,172.5c8.7,4.35,29,2.9,29,2.9,16.74-1.29,34.18-19.07,42-27.29a12.39,12.39,0,0,1,10.22-3.8c7.14.73,16.27,4.6,26.32,10.31,39.84,22.68,94,74.44,94,74.44"/><path class="cls-8" d="M290.45,187c1.71,1.78-.74-10.14-5.51-26.19-4.9-16.56-12.25-37.53-20-52.43-5.08-9.8-10.31-17-15.13-18.55"/><path class="cls-8" d="M306.4,187s0-4.71-.32-12.21c-1-23.07-5-72.51-21.44-92.21,0,0-4.35-5.8-13.05-4.35,0,0-31.3,1.25-39.22,7.25a6.81,6.81,0,0,0-.68.58c-.74.73-1.46,1.48-2.26,2.12l-20.2,16.16"/><path class="cls-8" d="M265,108.38s-25.28-1.15-47,7.56c0,0-8.7,4.35-21.75,1.45s-36.26-53.66-31.91-65.26,53.53,34.68,68.1,33.36h.06"/></g></g></svg>