<svg xmlns="http://www.w3.org/2000/svg" viewBox="0 0 375.29 349.43"><defs><style>.cls-1{fill:#f2d4e1;}.cls-2{fill:#84757d;}.cls-3{fill:#0f0504;}.cls-4{fill:#f2f2f2;}.cls-5{fill:#eee7e7;}.cls-6{fill:#75292e;}.cls-7{fill:none;stroke:#000;stroke-miterlimit:10;}</style></defs><title>SE</title><g id="Capa_2" data-name="Capa 2"><g id="SE"><path class="cls-1" d="M281.28,313.73c-3.85-10.87-8.21-14.71-8.21-14.71l-4.26,10.28c.72.3,1.45.65,2.17,1A31.9,31.9,0,0,0,281.28,313.73Zm27-10a34.5,34.5,0,0,0-7.17,4.89,21.5,21.5,0,0,1-3,2.18l8.08,6.31S310.38,305.39,308.29,303.71Zm-66.8,8a16.06,16.06,0,0,0,9,8.43l4.74-12.72v0A37.28,37.28,0,0,0,241.49,311.67ZM272.2,60.82c-.78,0-26.57-1-48.81,7.86,0,0-9,4.52-22.58,1.51s-37.64-55.7-33.12-67.75,55.57,36,70.7,34.63c8.22-6.23,40.71-7.53,40.71-7.53,9-1.51,13.55,4.52,13.55,4.52,17,20.44,21.23,71.77,22.25,95.72,6.87,2,14.08,9.14,19.33,16,4.49,5.66,7.33,11,6.59,11.77-2.88,2.88-2.5,10.45-.78,19.12.15.75.32,1.51.48,2.27,1.08,4.89,2.53,10,4,14.78.15.47.29.93.44,1.39,3.19,10.07,6.4,18.14,6.4,18.14l6-12a41.11,41.11,0,0,1,5.92,5.39,39.93,39.93,0,0,1,8.08,13.19c3.64,9.92,4,20.37,2.79,29.88A83,83,0,0,1,371,264.31a90.75,90.75,0,0,1-21.72,36c-60.72,62.27-132.7,45.66-162,48.45-21.44,2-49.11-10.46-64.71-18.71a87,87,0,0,1-21-15.45c-120-120.29,50-207.6,52.63-205.22l.29-.5c-10.43-5.93-19.92-10-27.33-10.7a12.86,12.86,0,0,0-10.61,3.94c-8.16,8.54-26.26,27-43.65,28.33,0,0-21.08,1.51-30.11-3,0,0-16.56-9-22.58-19.57-5.51-9.64-9.76-45.66-18.49-62.13-1.17-2.23-2-6.67.42-7.12,4.91-.89,14.65.26,21.08,3C33.7,46.1,51.76,65.67,63.81,82.23S86.39,92.77,86.39,92.77c3,1.51,28.38-27.73,61.73-30.11,15.93-1.14,38.24,16.29,59.15,37.59,53.93-5.86,85.38,15.1,85.38,15.1l.3-.09c-5.09-17.19-12.72-39-20.73-54.44Zm2.38,199.06s-1.51-7.53-7.53-21.08c-4.32-9.71-10.18-16.32-19.8-19.86a51.14,51.14,0,0,0-13.32-2.72,26.82,26.82,0,0,0-14.81,2.69c-7.78,4-11.79,11.37-13.79,15.37a8.09,8.09,0,0,1-9,4.55c.66.36,6,3.36,7.45,9,1,4,11.26,25.37,28.79,29.45a26.41,26.41,0,0,0,5.84.66,41.51,41.51,0,0,0,18-4.34A59.34,59.34,0,0,0,274.58,259.88Z"/><path class="cls-2" d="M357.45,194.12c0,2.21,0,4.56-.06,7l-6,12s-3.21-8.07-6.4-18.14c-.15-.45-.29-.92-.44-1.39a12.69,12.69,0,0,1,11.25-.45A9.86,9.86,0,0,1,357.45,194.12Z"/><path class="cls-3" d="M357.4,192.34c0,1.29-1.05.62-1.63.89a12.69,12.69,0,0,0-11.25.45c-1.48-4.76-2.92-9.89-4-14.78a31.57,31.57,0,0,0,3.31,1.19c4.22,1.26,8.24-.11,11.41-2.85h0l.2.09A74.79,74.79,0,0,1,357.4,192.34Z"/><path class="cls-4" d="M355.4,177.11l-.14.14h0c-3.18,2.74-7.2,4.11-11.41,2.85a31.57,31.57,0,0,1-3.31-1.19c-.17-.77-.33-1.52-.48-2.27-1.72-8.67-2.09-16.24.78-19.12C340.82,157.5,351,159.19,355.4,177.11Z"/><path class="cls-5" d="M308.29,303.71c2.09,1.69-2.09,13.38-2.09,13.38l-8.08-6.31a21.5,21.5,0,0,0,3-2.18A34.5,34.5,0,0,1,308.29,303.71Z"/><path class="cls-5" d="M273.08,299s4.35,3.84,8.21,14.71a31.9,31.9,0,0,1-10.3-3.4c-.72-.38-1.45-.72-2.17-1Z"/><path class="cls-6" d="M267.05,238.8c6,13.55,7.53,21.08,7.53,21.08a59.34,59.34,0,0,1-18.13,13.73,13.53,13.53,0,0,0-7-11A18.24,18.24,0,0,0,252,253.1c0-5.92-2.63-11.08-6.53-13.78A21,21,0,0,0,249,227.51a21.81,21.81,0,0,0-1.73-8.57C256.88,222.48,262.73,229.09,267.05,238.8Z"/><path class="cls-5" d="M255.24,307.36v0l-4.74,12.72a16.06,16.06,0,0,1-9-8.43A37.28,37.28,0,0,1,255.24,307.36Z"/><path class="cls-4" d="M249.44,262.59a13.53,13.53,0,0,1,7,11,41.51,41.51,0,0,1-18,4.34,26.41,26.41,0,0,1-5.84-.66,15.13,15.13,0,0,1-.18-2.35,14.79,14.79,0,0,1,1.87-7.24,11.76,11.76,0,0,1,10.18-6.31A11,11,0,0,1,249.44,262.59Z"/><path class="cls-3" d="M245.46,239.33c3.9,2.69,6.53,7.86,6.53,13.78a18.24,18.24,0,0,1-2.56,9.48,11,11,0,0,0-5-1.2,11.76,11.76,0,0,0-10.18,6.31c-4.64-2.38-7.89-8-7.89-14.59a18.43,18.43,0,0,1,1.67-7.78,13.24,13.24,0,0,0,5.1,1A14.92,14.92,0,0,0,245.46,239.33Z"/><path class="cls-4" d="M249,227.51a21,21,0,0,1-3.52,11.82,14.92,14.92,0,0,1-12.29,7,13.24,13.24,0,0,1-5.1-1c-6.23-2.53-10.7-9.54-10.7-17.81a21.65,21.65,0,0,1,1.75-8.6,26.82,26.82,0,0,1,14.81-2.69,51.14,51.14,0,0,1,13.32,2.72A21.81,21.81,0,0,1,249,227.51Z"/><path class="cls-6" d="M232.43,274.93a15.13,15.13,0,0,0,.18,2.35c-17.52-4.08-27.79-25.49-28.79-29.45-1.42-5.65-6.79-8.64-7.45-9a8.09,8.09,0,0,0,9-4.55c2-4,6-11.35,13.79-15.37a21.65,21.65,0,0,0-1.75,8.6c0,8.27,4.47,15.28,10.7,17.81a18.43,18.43,0,0,0-1.67,7.78c0,6.58,3.25,12.21,7.89,14.59A14.79,14.79,0,0,0,232.43,274.93Z"/><path class="cls-7" d="M314.48,129.65l.42.12c6.87,2,14.08,9.14,19.33,16"/><path class="cls-7" d="M363.3,206.55a39.93,39.93,0,0,1,8.08,13.19c3.64,9.92,4,20.37,2.79,29.88A83,83,0,0,1,371,264.31a90.75,90.75,0,0,1-21.72,36c-60.72,62.27-132.7,45.66-162,48.45-21.44,2-49.11-10.46-64.71-18.71a87,87,0,0,1-21-15.45c-120-120.29,50-207.6,52.63-205.22"/><path class="cls-7" d="M292.65,115.35s-31.45-21-85.38-15.1l-.44,0"/><path class="cls-7" d="M357.45,194.12c0-.6,0-1.2,0-1.78"/><path class="cls-7" d="M355.46,177.33a1.25,1.25,0,0,0-.06-.23"/><path class="cls-7" d="M232.61,277.28c-17.52-4.08-27.79-25.49-28.79-29.45-1.42-5.65-6.79-8.64-7.45-9a8.09,8.09,0,0,0,9-4.55c2-4,6-11.35,13.79-15.37"/><path class="cls-7" d="M247.26,218.94c9.62,3.54,15.48,10.15,19.8,19.86,6,13.55,7.53,21.08,7.53,21.08a59.34,59.34,0,0,1-18.13,13.73"/><path class="cls-7" d="M228.08,245.32c-6.23-2.53-10.7-9.54-10.7-17.81a21.65,21.65,0,0,1,1.75-8.6"/><path class="cls-7" d="M247.26,218.94a21.81,21.81,0,0,1,1.73,8.57,21,21,0,0,1-3.52,11.82"/><path class="cls-7" d="M247.26,218.94a51.14,51.14,0,0,0-13.32-2.72,26.82,26.82,0,0,0-14.81,2.69"/><path class="cls-7" d="M249.44,262.59a13.53,13.53,0,0,1,7,11,41.51,41.51,0,0,1-18,4.34,26.41,26.41,0,0,1-5.84-.66,15.13,15.13,0,0,1-.18-2.35,14.79,14.79,0,0,1,1.87-7.24"/><path class="cls-7" d="M245.46,239.33c3.9,2.69,6.53,7.86,6.53,13.78a18.24,18.24,0,0,1-2.56,9.48,11,11,0,0,0-5-1.2,11.76,11.76,0,0,0-10.18,6.31c-4.64-2.38-7.89-8-7.89-14.59a18.43,18.43,0,0,1,1.67-7.78,13.24,13.24,0,0,0,5.1,1A14.92,14.92,0,0,0,245.46,239.33Z"/><path class="cls-7" d="M340.82,157.5c.74-.74-2.11-6.11-6.59-11.77"/><path class="cls-7" d="M340,176.62c-1.72-8.67-2.09-16.24.78-19.12,0,0,10.13,1.69,14.57,19.6l-.14.14"/><path class="cls-7" d="M340,176.62c.15.75.32,1.51.48,2.27"/><path class="cls-7" d="M344.53,193.68c-1.48-4.76-2.92-9.89-4-14.78a31.57,31.57,0,0,0,3.31,1.19c4.22,1.26,8.24-.11,11.41-2.85h0l.2.09a74.79,74.79,0,0,1,1.94,15c0,1.29-1.05.62-1.63.89"/><path class="cls-7" d="M344.53,193.68a12.69,12.69,0,0,1,11.25-.45,9.86,9.86,0,0,1,1.67.89"/><path class="cls-7" d="M357.38,201.16c.09-2.48.11-4.83.06-7"/><path class="cls-7" d="M344.53,193.68c.15.47.29.93.44,1.39,3.19,10.07,6.4,18.14,6.4,18.14l6-12a41.11,41.11,0,0,1,5.92,5.39"/><path class="cls-7" d="M240,312.57s.54-.36,1.54-.9a37.28,37.28,0,0,1,13.75-4.31,27.77,27.77,0,0,1,13.58,1.94c.72.3,1.45.65,2.17,1a31.9,31.9,0,0,0,10.3,3.4,27.61,27.61,0,0,0,7.56.11,23.8,23.8,0,0,0,9.27-3.06,21.5,21.5,0,0,0,3-2.18,34.5,34.5,0,0,1,7.17-4.89c.5-.26,1-.48,1.54-.69a61.39,61.39,0,0,1,17.45-4c15.69-1.43,41.09-31.56,43.71-34.72l.23-.27"/><path class="cls-7" d="M255.24,307.38l-4.74,12.72a16.06,16.06,0,0,1-9-8.43"/><path class="cls-7" d="M268.8,309.32l0,0L273.08,299s4.35,3.84,8.21,14.71"/><path class="cls-7" d="M298.11,310.78l8.08,6.31s4.19-11.7,2.09-13.38"/><path class="cls-7" d="M265.55,172.56c2.06,1.43-26.48-39.91-58.28-72.31C186.36,78.95,164,61.51,148.12,62.66,114.77,65,89.4,94.27,86.39,92.77c0,0-10.54,6-22.58-10.54S33.7,46.1,23.16,41.58c-6.43-2.76-16.17-3.9-21.08-3-2.47.45-1.6,4.89-.42,7.12,8.73,16.47,13,52.5,18.49,62.13,6,10.54,22.58,19.57,22.58,19.57,9,4.52,30.11,3,30.11,3,17.39-1.34,35.49-19.8,43.65-28.33a12.86,12.86,0,0,1,10.61-3.94c7.41.75,16.89,4.77,27.33,10.7C195.78,132.38,252,186.11,252,186.11"/><path class="cls-7" d="M272.2,60.82c-5.27-10.16-10.7-17.61-15.69-19.24"/><path class="cls-7" d="M298.67,142.45c1.78,1.85-.77-10.52-5.72-27.19-5.09-17.19-12.72-39-20.73-54.44"/><path class="cls-7" d="M315.23,142.45s0-4.89-.33-12.68c-1-24-5.21-75.28-22.25-95.72,0,0-4.52-6-13.55-4.52,0,0-32.49,1.29-40.71,7.53a7.07,7.07,0,0,0-.71.6c-.77.75-1.52,1.52-2.35,2.2l-21,16.77"/><path class="cls-7" d="M272.22,60.82h0c-.78,0-26.57-1-48.81,7.86,0,0-9,4.52-22.58,1.51s-37.64-55.7-33.12-67.75,55.57,36,70.7,34.63h.06"/></g></g></svg>