<svg xmlns="http://www.w3.org/2000/svg" viewBox="0 0 425 425"><defs><style>.cls-1,.cls-8{fill:none;}.cls-2{fill:#0f0504;}.cls-3{fill:#eee7e7;}.cls-4{fill:#f2f2f2;}.cls-5{fill:#75292e;}.cls-6{fill:#f2d4e1;}.cls-7{fill:#84757d;}.cls-8{stroke:#000;stroke-miterlimit:10;}</style></defs><title>SW</title><g id="Capa_2" data-name="Capa 2"><g id="img_bg" data-name="img bg"><rect class="cls-1" width="425" height="425"/></g><g id="SW"><path class="cls-2" d="M200,289.32a12.61,12.61,0,0,1-4.86,1,14.2,14.2,0,0,1-11.69-6.66c-3.71,2.57-6.22,7.48-6.22,13.11a17.36,17.36,0,0,0,2.44,9,10.42,10.42,0,0,1,4.73-1.15,11.2,11.2,0,0,1,9.69,6c4.41-2.26,7.51-7.62,7.51-13.89A17.54,17.54,0,0,0,200,289.32Z"/><path class="cls-3" d="M157.18,340.44s-4.14,3.65-7.81,14a31.08,31.08,0,0,0,9.8-3.24c.69-.36,1.39-.69,2.08-1Z"/><path class="cls-4" d="M179.68,305.76A12.88,12.88,0,0,0,173,316.25a39.52,39.52,0,0,0,17.14,4.13,25.14,25.14,0,0,0,5.56-.63,14.41,14.41,0,0,0,.17-2.24,14.08,14.08,0,0,0-1.78-6.89,11.2,11.2,0,0,0-9.69-6A10.42,10.42,0,0,0,179.68,305.76Z"/><path class="cls-4" d="M79,224.51c3,2.61,6.85,3.91,10.86,2.71A30.05,30.05,0,0,0,93,226.09c.16-.73.32-1.45.46-2.16,1.63-8.25,2-15.46-.75-18.2,0,0-9.64,1.61-13.87,18.66l.13.13Z"/><path class="cls-5" d="M162.91,283.11c-5.73,12.9-7.17,20.06-7.17,20.06A56.49,56.49,0,0,0,173,316.25a12.88,12.88,0,0,1,6.68-10.49,17.36,17.36,0,0,1-2.44-9c0-5.63,2.51-10.55,6.22-13.11a20,20,0,0,1-3.35-11.25,20.76,20.76,0,0,1,1.65-8.15C172.6,267.58,167,273.87,162.91,283.11Z"/><path class="cls-6" d="M123.66,344.91a32.29,32.29,0,0,1,6.82,4.66,19.26,19.26,0,0,0,2.87,2.06l-7.7,6S121.67,346.5,123.66,344.91Zm50.5,3.48a35.71,35.71,0,0,1,13.08,4.08h0a15.34,15.34,0,0,1-8.57,8Zm16-28A39.52,39.52,0,0,1,173,316.25a56.49,56.49,0,0,1-17.25-13.07s1.43-7.17,7.17-20.06c4.11-9.24,9.69-15.53,18.84-18.9a48.68,48.68,0,0,1,12.68-2.59,25.53,25.53,0,0,1,14.1,2.57C216,268,219.76,275,221.67,278.81a7.7,7.7,0,0,0,8.53,4.33c-.63.34-5.75,3.2-7.09,8.57-.95,3.77-10.72,24.15-27.4,28A25.14,25.14,0,0,1,190.14,320.37Zm-28.89,29.87c-.69.29-1.39.62-2.08,1a31.08,31.08,0,0,1-9.8,3.24c3.67-10.36,7.81-14,7.81-14ZM93,226.09c-1,4.66-2.41,9.54-3.81,14.07-.14.44-.27.89-.42,1.32-3,9.59-6.09,17.27-6.09,17.27l-5.73-11.46a39.14,39.14,0,0,0-5.63,5.13A38,38,0,0,0,63.6,265c-3.47,9.44-3.78,19.39-2.65,28.45a78.4,78.4,0,0,0,3.05,14,86.31,86.31,0,0,0,20.66,34.19c57.8,59.27,126.31,43.47,154.2,46.12,20.41,1.95,46.75-9.95,61.59-17.8a83.21,83.21,0,0,0,20-14.7c114.22-114.5-47.58-197.62-50.1-195.36l-.26-.47c9.93-5.65,18.95-9.47,26-10.19a12.3,12.3,0,0,1,10.1,3.77c7.77,8.11,25,25.69,41.54,27,0,0,20.06,1.43,28.66-2.87,0,0,15.76-8.6,21.5-18.63,5.25-9.16,9.29-43.45,17.6-59.14,1.12-2.11,1.95-6.35-.4-6.78-4.67-.85-13.94.26-20.06,2.87-10,4.3-27.23,22.93-38.69,38.69s-21.5,10-21.5,10c-2.87,1.43-27-26.38-58.76-28.66-15.16-1.07-36.39,15.51-56.28,35.78-51.36-5.59-81.3,14.37-81.3,14.37l-.29-.09c4.84-16.37,12.11-37.09,19.73-51.81,0,0,25-1.13,46.47,7.47,0,0,8.6,4.3,21.5,1.43s35.83-53,31.53-64.49-52.89,34.26-67.3,33c-7.82-5.93-38.75-7.17-38.75-7.17-8.6-1.43-12.9,4.3-12.9,4.3-16.22,19.46-20.21,68.31-21.18,91.11C110.83,181.21,104,188,99,194.52c-4.27,5.39-7,10.5-6.28,11.21,2.74,2.74,2.38,9.95.75,18.2C93.29,224.64,93.14,225.36,93,226.09Z"/><path class="cls-3" d="M174.16,348.39l4.51,12.11a15.34,15.34,0,0,0,8.57-8h0A35.71,35.71,0,0,0,174.16,348.39Z"/><path class="cls-2" d="M89.83,227.22c-4,1.2-7.84-.1-10.86-2.71h0l-.19.09a71.19,71.19,0,0,0-1.85,14.29c0,1.23,1,.59,1.55.85a12.08,12.08,0,0,1,10.71.43c1.4-4.53,2.78-9.42,3.81-14.07A30.05,30.05,0,0,1,89.83,227.22Z"/><path class="cls-5" d="M230.2,283.14a7.7,7.7,0,0,1-8.53-4.33C219.76,275,216,268,208.54,264.18a20.6,20.6,0,0,1,1.66,8.18c0,7.87-4.26,14.55-10.19,17a17.54,17.54,0,0,1,1.59,7.41c0,6.26-3.1,11.62-7.51,13.89a14.08,14.08,0,0,1,1.78,6.89,14.41,14.41,0,0,1-.17,2.24c16.68-3.88,26.45-24.26,27.4-28C224.45,286.34,229.56,283.49,230.2,283.14Z"/><path class="cls-3" d="M123.66,344.91c-2,1.59,2,12.73,2,12.73l7.7-6a19.26,19.26,0,0,1-2.87-2.06A32.29,32.29,0,0,0,123.66,344.91Z"/><path class="cls-4" d="M195.16,290.28a12.61,12.61,0,0,0,4.86-1c5.93-2.41,10.19-9.09,10.19-17a20.6,20.6,0,0,0-1.66-8.18,25.53,25.53,0,0,0-14.1-2.57,48.68,48.68,0,0,0-12.68,2.59,20.76,20.76,0,0,0-1.65,8.15,20,20,0,0,0,3.35,11.25A14.2,14.2,0,0,0,195.16,290.28Z"/><path class="cls-7" d="M76.87,240.58c0,2.11,0,4.34.06,6.71l5.73,11.46s3.05-7.68,6.09-17.27c.14-.43.27-.87.42-1.32a12.08,12.08,0,0,0-10.71-.43A9.39,9.39,0,0,0,76.87,240.58Z"/><path class="cls-8" d="M117.77,179.22l-.4.11C110.83,181.21,104,188,99,194.52"/><path class="cls-8" d="M71.3,252.42A38,38,0,0,0,63.6,265c-3.47,9.44-3.78,19.39-2.65,28.45a78.4,78.4,0,0,0,3.05,14,86.31,86.31,0,0,0,20.66,34.19c57.8,59.27,126.31,43.47,154.2,46.12,20.41,1.95,46.75-9.95,61.59-17.8a83.21,83.21,0,0,0,20-14.7c114.22-114.5-47.58-197.62-50.1-195.36"/><path class="cls-8" d="M138.55,165.6s29.94-20,81.3-14.37l.39,0"/><path class="cls-8" d="M76.87,240.58c0-.57,0-1.15,0-1.69"/><path class="cls-8" d="M78.76,224.6a1.19,1.19,0,0,1,.06-.21"/><path class="cls-8" d="M195.7,319.74c16.68-3.88,26.45-24.26,27.4-28,1.35-5.37,6.46-8.23,7.09-8.57a7.7,7.7,0,0,1-8.53-4.33C219.76,275,216,268,208.54,264.18"/><path class="cls-8" d="M181.76,264.21c-9.16,3.37-14.73,9.66-18.84,18.9-5.73,12.9-7.17,20.06-7.17,20.06A56.49,56.49,0,0,0,173,316.25"/><path class="cls-8" d="M200,289.32c5.93-2.41,10.19-9.09,10.19-17a20.6,20.6,0,0,0-1.66-8.18"/><path class="cls-8" d="M181.76,264.21a20.76,20.76,0,0,0-1.65,8.15,20,20,0,0,0,3.35,11.25"/><path class="cls-8" d="M181.76,264.21a48.68,48.68,0,0,1,12.68-2.59,25.53,25.53,0,0,1,14.1,2.57"/><path class="cls-8" d="M179.68,305.76A12.88,12.88,0,0,0,173,316.25a39.52,39.52,0,0,0,17.14,4.13,25.14,25.14,0,0,0,5.56-.63,14.41,14.41,0,0,0,.17-2.24,14.08,14.08,0,0,0-1.78-6.89"/><path class="cls-8" d="M183.46,283.61c-3.71,2.57-6.22,7.48-6.22,13.11a17.36,17.36,0,0,0,2.44,9,10.42,10.42,0,0,1,4.73-1.15,11.2,11.2,0,0,1,9.69,6c4.41-2.26,7.51-7.62,7.51-13.89a17.54,17.54,0,0,0-1.59-7.41"/><path class="cls-8" d="M92.69,205.73c-.7-.7,2-5.82,6.28-11.21"/><path class="cls-8" d="M93.44,223.93c1.63-8.25,2-15.46-.75-18.2,0,0-9.64,1.61-13.87,18.66l.13.13"/><path class="cls-8" d="M93.44,223.93c-.14.72-.3,1.43-.46,2.16"/><path class="cls-8" d="M89.17,240.16c1.4-4.53,2.78-9.42,3.81-14.07a30.05,30.05,0,0,1-3.15,1.13c-4,1.2-7.84-.1-10.86-2.71h0l-.19.09a71.19,71.19,0,0,0-1.85,14.29c0,1.23,1,.59,1.55.85"/><path class="cls-8" d="M89.17,240.16a12.08,12.08,0,0,0-10.71-.43,9.39,9.39,0,0,0-1.59.85"/><path class="cls-8" d="M76.93,247.29c-.09-2.36-.1-4.6-.06-6.71"/><path class="cls-8" d="M89.17,240.16c-.14.44-.27.89-.42,1.32-3,9.59-6.09,17.27-6.09,17.27l-5.73-11.46a39.14,39.14,0,0,0-5.63,5.13"/><path class="cls-8" d="M187.25,352.47a35.71,35.71,0,0,0-13.08-4.08,26.38,26.38,0,0,0-12.91,1.85c-.69.29-1.39.62-2.08,1a31.08,31.08,0,0,1-9.8,3.24,26.28,26.28,0,0,1-7.19.1,22.92,22.92,0,0,1-8.83-2.92,19.26,19.26,0,0,1-2.87-2.06,32.29,32.29,0,0,0-6.82-4.66c-.47-.24-1-.46-1.46-.66a57.87,57.87,0,0,0-16.61-3.81c-14.92-1.36-39-29.94-41.59-33l-.23-.27"/><path class="cls-8" d="M188.71,353.33s-.52-.34-1.46-.85"/><path class="cls-8" d="M174.16,348.39l4.51,12.11a15.34,15.34,0,0,0,8.57-8h0"/><path class="cls-8" d="M161.25,350.24l-4.07-9.8s-4.14,3.65-7.81,14"/><path class="cls-8" d="M133.35,351.63l-7.7,6s-4-11.13-2-12.73"/><path class="cls-8" d="M164.35,220.06c-2,1.36,25.22-38,55.5-68.83,19.89-20.28,41.11-36.86,56.28-35.78,31.74,2.28,55.89,30.09,58.76,28.66,0,0,10,5.73,21.5-10S385,99.68,395.07,95.38c6.12-2.61,15.39-3.71,20.06-2.87,2.35.43,1.52,4.67.4,6.78-8.31,15.69-12.35,50-17.6,59.14-5.73,10-21.5,18.63-21.5,18.63-8.6,4.3-28.66,2.87-28.66,2.87-16.54-1.26-33.78-18.84-41.54-27a12.3,12.3,0,0,0-10.1-3.77c-7.05.72-16.06,4.54-26,10.19C230.77,181.81,177.24,233,177.24,233"/><path class="cls-8" d="M132.82,191.4c-1.69,1.76.73-10,5.45-25.88,4.84-16.37,12.11-37.09,19.73-51.81,5-9.69,10.19-16.78,14.95-18.33"/><path class="cls-8" d="M117.05,191.4s0-4.66.32-12.07c1-22.8,5-71.65,21.18-91.11,0,0,4.3-5.73,12.9-4.3,0,0,30.93,1.23,38.75,7.17a6.73,6.73,0,0,1,.67.57c.73.72,1.45,1.46,2.24,2.09l20,16"/><path class="cls-8" d="M158,113.71s25-1.13,46.47,7.47c0,0,8.6,4.3,21.5,1.43s35.83-53,31.53-64.49-52.89,34.26-67.3,33h-.06"/></g></g></svg>