<svg xmlns="http://www.w3.org/2000/svg" viewBox="0 0 374.21 348.42"><defs><style>.cls-1{fill:#f2d4e1;}.cls-2{fill:#0f0504;}.cls-3{fill:#84757d;}.cls-4{fill:#f2f2f2;}.cls-5{fill:#eee7e7;}.cls-6{fill:#75292e;}.cls-7{fill:none;stroke:#000;stroke-miterlimit:10;}</style></defs><title>SW</title><g id="Capa_2" data-name="Capa 2"><g id="SW"><path class="cls-1" d="M77,309.87l-8.06,6.31s-4.17-11.68-2.09-13.35a33.91,33.91,0,0,1,7.13,4.88A19.26,19.26,0,0,0,77,309.87Zm16.78,3c3.83-10.85,8.18-14.67,8.18-14.67l4.25,10.25c-.72.3-1.46.65-2.18,1A32.47,32.47,0,0,1,93.74,312.83Zm42.71-35.68a41.4,41.4,0,0,1-18-4.32,59.17,59.17,0,0,1-18.07-13.69s1.5-7.51,7.51-21c4.31-9.68,10.15-16.27,19.74-19.8A51,51,0,0,1,141,215.6a26.75,26.75,0,0,1,14.77,2.69c7.76,4,11.75,11.33,13.75,15.33a8.07,8.07,0,0,0,8.93,4.53c-.66.36-6,3.35-7.43,9-1,3.95-11.23,25.3-28.7,29.36A26.33,26.33,0,0,1,136.45,277.15Zm-3,33.61v0a16,16,0,0,1-9,8.41l-4.74-12.7A37.5,37.5,0,0,1,133.4,310.76ZM4.3,263.55A90.33,90.33,0,0,0,26,299.38c60.54,62.09,132.3,45.53,161.53,48.32,21.38,2,49-10.43,64.51-18.66a87.15,87.15,0,0,0,21-15.4c119.63-119.95-49.85-207-52.48-204.63l-.29-.5c10.4-5.93,19.86-9.94,27.25-10.69a12.9,12.9,0,0,1,10.58,3.95c8.14,8.5,26.18,26.92,43.52,28.25,0,0,21,1.5,30-3,0,0,16.51-9,22.52-19.52,5.48-9.61,9.71-45.53,18.42-62,1.17-2.21,2-6.65-.41-7.09-4.91-.9-14.62.26-21,3C340.62,46,322.6,65.48,310.59,82S288.07,92.5,288.07,92.5c-3,1.5-28.31-27.65-61.55-30-15.9-1.14-38.15,16.24-59,37.48C113.77,94.12,82.41,115,82.41,115l-.33-.09c5.09-17.14,12.7-38.87,20.7-54.28,0,0,26.17-1.17,48.68,7.84,0,0,9,4.5,22.52,1.5s37.53-55.54,33-67.55S151.67,38.26,136.54,37c-8.15-6.2-40.62-7.51-40.62-7.51-9-1.5-13.51,4.5-13.51,4.5-17,20.39-21.17,71.56-22.19,95.45-6.85,2-14.05,9.11-19.28,15.91-4.47,5.64-7.31,11-6.58,11.74,2.87,2.87,2.49,10.42.78,19.07-.15.75-.32,1.5-.48,2.27-1.08,4.88-2.52,10-4,14.74-.15.47-.29.93-.44,1.38-3.18,10-6.38,18.09-6.38,18.09l-6-12A41,41,0,0,0,12,206,39.81,39.81,0,0,0,3.9,219.11c-3.63,9.89-4,20.3-2.79,29.78A82,82,0,0,0,4.3,263.55Z"/><path class="cls-2" d="M24.61,191.58a12.55,12.55,0,0,1,6.06,1.55c1.47-4.74,2.91-9.86,4-14.74a31.48,31.48,0,0,1-3.3,1.19c-4.2,1.26-8.21-.11-11.38-2.84h0l-.2.09a74.57,74.57,0,0,0-1.94,15c0,1.29,1.05.62,1.62.89A12.57,12.57,0,0,1,24.61,191.58Z"/><path class="cls-3" d="M24.61,191.58a12.57,12.57,0,0,0-5.15,1.1,9.84,9.84,0,0,0-1.67.89c0,2.21,0,4.55.06,7l6,12s3.2-8,6.38-18.09c.15-.45.29-.92.44-1.38A12.55,12.55,0,0,0,24.61,191.58Z"/><path class="cls-4" d="M20,176.73c3.17,2.73,7.18,4.1,11.38,2.84a31.48,31.48,0,0,0,3.3-1.19c.17-.77.33-1.52.48-2.27,1.71-8.65,2.09-16.2-.78-19.07,0,0-10.1,1.68-14.53,19.55l.14.14Z"/><path class="cls-5" d="M66.81,302.83c-2.09,1.67,2.09,13.35,2.09,13.35L77,309.87a19.26,19.26,0,0,1-3-2.16A33.91,33.91,0,0,0,66.81,302.83Z"/><path class="cls-5" d="M101.92,298.16s-4.35,3.81-8.18,14.67A32.47,32.47,0,0,0,104,309.44c.72-.38,1.46-.72,2.18-1Z"/><path class="cls-6" d="M100.42,259.13a59.17,59.17,0,0,0,18.07,13.69,13.49,13.49,0,0,1,7-11,18.19,18.19,0,0,1-2.55-9.46c0-5.9,2.63-11,6.52-13.74a21,21,0,0,1-3.51-11.78,21.75,21.75,0,0,1,1.73-8.54c-9.59,3.53-15.43,10.12-19.74,19.8C101.92,251.63,100.42,259.13,100.42,259.13Z"/><path class="cls-5" d="M119.7,306.48l4.74,12.7a16,16,0,0,0,9-8.41v0A37.5,37.5,0,0,0,119.7,306.48Z"/><path class="cls-4" d="M130.45,260.63a10.92,10.92,0,0,0-5,1.2,13.49,13.49,0,0,0-7,11,41.4,41.4,0,0,0,18,4.32,26.33,26.33,0,0,0,5.82-.66,15.09,15.09,0,0,0,.18-2.34,14.75,14.75,0,0,0-1.86-7.22A11.73,11.73,0,0,0,130.45,260.63Z"/><path class="cls-2" d="M141.71,245.62a14.87,14.87,0,0,1-12.25-7c-3.89,2.69-6.52,7.84-6.52,13.74a18.19,18.19,0,0,0,2.55,9.46,10.92,10.92,0,0,1,5-1.2,11.73,11.73,0,0,1,10.15,6.29c4.62-2.37,7.87-8,7.87-14.55a18.38,18.38,0,0,0-1.67-7.76A13.21,13.21,0,0,1,141.71,245.62Z"/><path class="cls-4" d="M141.71,245.62a13.21,13.21,0,0,0,5.09-1c6.21-2.52,10.67-9.52,10.67-17.76a21.58,21.58,0,0,0-1.74-8.57A26.75,26.75,0,0,0,141,215.6a51,51,0,0,0-13.29,2.72,21.75,21.75,0,0,0-1.73,8.54,21,21,0,0,0,3.51,11.78A14.87,14.87,0,0,0,141.71,245.62Z"/><path class="cls-6" d="M157.47,226.86c0,8.24-4.46,15.24-10.67,17.76a18.38,18.38,0,0,1,1.67,7.76c0,6.56-3.24,12.17-7.87,14.55a14.75,14.75,0,0,1,1.86,7.22,15.09,15.09,0,0,1-.18,2.34c17.47-4.07,27.71-25.42,28.7-29.36,1.41-5.63,6.77-8.62,7.43-9a8.07,8.07,0,0,1-8.93-4.53c-2-4-6-11.32-13.75-15.33A21.58,21.58,0,0,1,157.47,226.86Z"/><path class="cls-7" d="M60.64,129.28l-.42.12c-6.85,2-14.05,9.11-19.28,15.91"/><path class="cls-7" d="M12,206A39.81,39.81,0,0,0,3.9,219.11c-3.63,9.89-4,20.3-2.79,29.78a82,82,0,0,0,3.2,14.65A90.33,90.33,0,0,0,26,299.38c60.54,62.09,132.3,45.53,161.53,48.32,21.38,2,49-10.43,64.51-18.66a87.15,87.15,0,0,0,21-15.4c119.63-119.95-49.85-207-52.48-204.63"/><path class="cls-7" d="M82.41,115s31.36-20.9,85.13-15.06l.44,0"/><path class="cls-7" d="M17.8,193.56c0-.6,0-1.2,0-1.77"/><path class="cls-7" d="M19.78,176.82a1.25,1.25,0,0,1,.06-.23"/><path class="cls-7" d="M142.28,276.49c17.47-4.07,27.71-25.42,28.7-29.36,1.41-5.63,6.77-8.62,7.43-9a8.07,8.07,0,0,1-8.93-4.53c-2-4-6-11.32-13.75-15.33"/><path class="cls-7" d="M127.67,218.32c-9.59,3.53-15.43,10.12-19.74,19.8-6,13.51-7.51,21-7.51,21a59.17,59.17,0,0,0,18.07,13.69"/><path class="cls-7" d="M146.8,244.62c6.21-2.52,10.67-9.52,10.67-17.76a21.58,21.58,0,0,0-1.74-8.57"/><path class="cls-7" d="M127.67,218.32a21.75,21.75,0,0,0-1.73,8.54,21,21,0,0,0,3.51,11.78"/><path class="cls-7" d="M127.67,218.32A51,51,0,0,1,141,215.6a26.75,26.75,0,0,1,14.77,2.69"/><path class="cls-7" d="M125.49,261.84a13.49,13.49,0,0,0-7,11,41.4,41.4,0,0,0,18,4.32,26.33,26.33,0,0,0,5.82-.66,15.09,15.09,0,0,0,.18-2.34,14.75,14.75,0,0,0-1.86-7.22"/><path class="cls-7" d="M129.46,238.64c-3.89,2.69-6.52,7.84-6.52,13.74a18.19,18.19,0,0,0,2.55,9.46,10.92,10.92,0,0,1,5-1.2,11.73,11.73,0,0,1,10.15,6.29c4.62-2.37,7.87-8,7.87-14.55a18.38,18.38,0,0,0-1.67-7.76"/><path class="cls-7" d="M34.37,157.05c-.74-.74,2.1-6.09,6.58-11.74"/><path class="cls-7" d="M35.15,176.12c1.71-8.65,2.09-16.2-.78-19.07,0,0-10.1,1.68-14.53,19.55l.14.14"/><path class="cls-7" d="M35.15,176.12c-.15.75-.32,1.5-.48,2.27"/><path class="cls-7" d="M30.68,193.13c1.47-4.74,2.91-9.86,4-14.74a31.48,31.48,0,0,1-3.3,1.19c-4.2,1.26-8.21-.11-11.38-2.84h0l-.2.09a74.57,74.57,0,0,0-1.94,15c0,1.29,1.05.62,1.62.89"/><path class="cls-7" d="M30.68,193.13a12.66,12.66,0,0,0-11.21-.45,9.84,9.84,0,0,0-1.67.89"/><path class="cls-7" d="M17.86,200.59c-.09-2.48-.11-4.82-.06-7"/><path class="cls-7" d="M30.68,193.13c-.15.47-.29.93-.44,1.38-3.18,10-6.38,18.09-6.38,18.09l-6-12A41,41,0,0,0,12,206"/><path class="cls-7" d="M135,311.67s-.56-.36-1.55-.92a37.5,37.5,0,0,0-13.71-4.28,27.63,27.63,0,0,0-13.53,1.94c-.72.3-1.46.65-2.18,1a32.47,32.47,0,0,1-10.25,3.39,27.53,27.53,0,0,1-7.54.11A23.52,23.52,0,0,1,77,309.87a19.26,19.26,0,0,1-3-2.16,33.91,33.91,0,0,0-7.13-4.88c-.5-.26-1-.48-1.53-.69a60.7,60.7,0,0,0-17.4-4c-15.64-1.43-41-31.47-43.58-34.62l-.23-.27"/><path class="cls-7" d="M119.7,306.48l4.74,12.7a16,16,0,0,0,9-8.41"/><path class="cls-7" d="M106.17,308.42l-4.25-10.25s-4.35,3.81-8.18,14.67"/><path class="cls-7" d="M77,309.87l-8.06,6.31s-4.17-11.68-2.09-13.35"/><path class="cls-7" d="M109.43,172.06c-2.07,1.43,26.41-39.8,58.11-72.1,20.84-21.24,43.08-38.63,59-37.48,33.24,2.37,58.55,31.53,61.55,30,0,0,10.51,6,22.52-10.51s30-36,40.53-40.53c6.4-2.75,16.11-3.9,21-3,2.45.44,1.58,4.88.41,7.09-8.71,16.44-12.94,52.36-18.42,62C348.12,118,331.61,127,331.61,127c-9,4.5-30,3-30,3-17.34-1.34-35.38-19.76-43.52-28.25a12.9,12.9,0,0,0-10.58-3.95c-7.39.75-16.84,4.76-27.25,10.69C179,132,122.94,185.57,122.94,185.57"/><path class="cls-7" d="M76.4,142c-1.79,1.83.77-10.49,5.67-27.11,5.09-17.14,12.7-38.87,20.7-54.28C108,50.5,113.45,43.08,118.44,41.46"/><path class="cls-7" d="M59.89,142s0-4.88.33-12.64c1-23.88,5.19-75.06,22.19-95.45,0,0,4.5-6,13.51-4.5,0,0,32.47,1.31,40.62,7.51a6.77,6.77,0,0,1,.68.59c.77.75,1.5,1.53,2.34,2.21l20.91,16.72"/><path class="cls-7" d="M102.78,60.64s26.17-1.17,48.68,7.84c0,0,9,4.5,22.52,1.5s37.53-55.54,33-67.55S151.67,38.26,136.54,37h-.09"/></g></g></svg>