<svg xmlns="http://www.w3.org/2000/svg" viewBox="0 0 425 425"><defs><style>.cls-1,.cls-7,.cls-8{fill:none;}.cls-2{fill:#f2d4e1;}.cls-3{fill:#75292e;}.cls-4{fill:#f2f2f2;}.cls-5{fill:#0f0504;}.cls-6{fill:#eee7e7;}.cls-7,.cls-8{stroke:#000;}.cls-7{stroke-miterlimit:10;}.cls-8{stroke-linecap:round;stroke-linejoin:round;}</style></defs><title>W</title><g id="Capa_2" data-name="Capa 2"><g id="img_bg" data-name="img bg"><rect class="cls-1" width="425" height="425"/></g><g id="W"><path class="cls-2" d="M96.82,321.67l-.1,1.2,6.09,16.33a20.63,20.63,0,0,0,11.55-10.83l0,0C110.74,325.14,104.79,322.39,96.82,321.67ZM240.67,153.4l.1.47c3.71.45,14.21,2.84,14.21,2.84s85.22,14.21,105.11,105.11c0,0,17,68.18-56.82,105.11,0,0-45.46,25.56-88.07,22.73s-76.7-2.85-113.63-34.09c0,0-21.9-17-36.41-42.09-1.19-2-2.31-4.09-3.36-6.2-14.21-28.41-5.68-51.14,8.52-68.18,0,0,8.53-19.88,14.21-34.09,0,0,8.52-25.56,34.08-36.93,0,0,45.46-54,96.6-71,0,0,19.88-8.53,42.61,8.52,0,0,16,10.66,24.75,13.91l-1.12,2.57c14.79,6.36,26.67,16.77,42.36,25l2.2,1.12c22.73,11.36,39.77-11.36,62.5-25.57s19.88,0,19.88,0l-22.73,51.14c-14.2,28.41-28.41,22.73-45.46,17-13.74-4.58-62.49-36.93-62.49-36.93-4.3-2.19-14.56-3.66-22.73-2.85A125,125,0,0,0,240.67,153.4ZM87.18,320.79l-5.5-16.35-5.79,13.3c1.52.32,2.92.59,4.06.87C83.45,319.46,85.17,320.26,87.18,320.79ZM147,270.35a43.25,43.25,0,0,1-9-8.81,38.29,38.29,0,0,1-5.55-10.42c-.11-.34-.25-.68-.36-1-1-3-3.75-7.53-10.68-11a14.84,14.84,0,0,0-15.45.68c-4,2.53-7.39,6.62-10.11,10.68-5.68,8.53-5.68,28.41-5.68,28.41.74,1.88,1.51,3.55,2.24,5,4.82,9.89,9.12,12,9.12,12,6.39,3.64,11.9,3.78,16.42,2.28,9.59-3.15,14.83-13.64,14.83-13.64C138.5,270.35,147,270.35,147,270.35Z"/><path class="cls-2" d="M340.2,77.17c14.06,2.8,3.09,36.18-16.4,69.9-15.68-8.24-27.56-18.65-42.36-25l1.12-2.57.82.3C291.91,122.62,331.4,75.4,340.2,77.17Z"/><path class="cls-3" d="M138.05,261.54a43.25,43.25,0,0,0,9,8.81s-8.52,0-14.2,14.2c0,0-5.23,10.48-14.83,13.64a21.57,21.57,0,0,0,.62-5.12A18.87,18.87,0,0,0,115,281.68c5.2-.34,9.34-5.29,9.34-11.33a12.14,12.14,0,0,0-1.73-6.36c5-1.74,8.89-6.68,9.94-12.87A38.29,38.29,0,0,0,138.05,261.54Z"/><path class="cls-4" d="M132.14,250.1c.11.34.25.68.36,1-1,6.19-4.93,11.13-9.94,12.87a11.65,11.65,0,0,1-4,.68,12.85,12.85,0,0,1-9.25-4.12,18.67,18.67,0,0,1-4.95-12.92,19.54,19.54,0,0,1,1.59-7.85,14.84,14.84,0,0,1,15.45-.68C128.39,242.57,131.12,247.11,132.14,250.1Z"/><path class="cls-5" d="M122.57,264a12.14,12.14,0,0,1,1.73,6.36c0,6-4.14,11-9.34,11.33a13.39,13.39,0,0,0-9.14-5.57,12.52,12.52,0,0,1-1.4-5.76,11.71,11.71,0,0,1,4.95-9.8,12.85,12.85,0,0,0,9.25,4.12A11.65,11.65,0,0,0,122.57,264Z"/><path class="cls-4" d="M118.61,293.07a21.57,21.57,0,0,1-.62,5.12c-4.52,1.51-10,1.36-16.42-2.28,0,0-4.3-2.13-9.12-12,2.49-4.71,6.93-7.87,12-7.87a11.61,11.61,0,0,1,1.4.09,13.39,13.39,0,0,1,9.14,5.57A18.87,18.87,0,0,1,118.61,293.07Z"/><path class="cls-6" d="M114.39,328.34l0,0a20.63,20.63,0,0,1-11.55,10.83l-6.09-16.33.1-1.2C104.79,322.39,110.74,325.14,114.39,328.34Z"/><path class="cls-3" d="M109.36,260.55a11.71,11.71,0,0,0-4.95,9.8,12.52,12.52,0,0,0,1.4,5.76,11.61,11.61,0,0,0-1.4-.09c-5,0-9.46,3.15-12,7.87-.74-1.47-1.51-3.14-2.24-5,0,0,0-19.88,5.68-28.41,2.73-4.07,6.08-8.15,10.11-10.68a19.54,19.54,0,0,0-1.59,7.85A18.67,18.67,0,0,0,109.36,260.55Z"/><path class="cls-6" d="M81.68,304.43l5.5,16.35c-2-.53-3.73-1.33-7.23-2.19-1.13-.27-2.54-.55-4.06-.87Z"/><path class="cls-7" d="M323.16,148.19c.22-.37.44-.75.65-1.12,19.49-33.72,30.45-67.1,16.4-69.9-8.8-1.77-48.29,45.45-56.81,42.61l-.82-.3c-8.75-3.25-24.75-13.91-24.75-13.91-22.73-17-42.61-8.52-42.61-8.52-51.14,17-96.6,71-96.6,71C93,179.44,84.53,205,84.53,205c-5.68,14.21-14.21,34.09-14.21,34.09-14.2,17-22.73,39.77-8.52,68.18,1.06,2.11,2.18,4.19,3.36,6.2,14.51,25.06,36.41,42.09,36.41,42.09,36.93,31.25,71,31.25,113.63,34.09s88.07-22.73,88.07-22.73c73.87-36.93,56.82-105.11,56.82-105.11C340.2,170.92,255,156.71,255,156.71s-10.5-2.38-14.21-2.84"/><path class="cls-7" d="M147,190.8c4.75-4.45,55.85-29.09,93.65-37.4A125,125,0,0,1,255,151c8.17-.81,18.43.66,22.73,2.85,0,0,48.75,32.34,62.49,36.93,17,5.68,31.26,11.36,45.46-17l22.73-51.14s2.84-14.2-19.88,0-39.77,36.94-62.5,25.57l-2.2-1.12c-15.68-8.24-27.56-18.65-42.36-25a69.62,69.62,0,0,0-17.95-5.12c-16.6-2.36-25.28-.78-47.52,13-4.41,2.74-9.34,5.95-15,9.7a605.88,605.88,0,0,0-59.67,45.46"/><path class="cls-7" d="M216,130s-20.65-4.5-57.59,18.23"/><path class="cls-7" d="M92.45,283.89c-.74-1.47-1.51-3.14-2.24-5,0,0,0-19.88,5.68-28.41,2.73-4.07,6.08-8.15,10.11-10.68"/><path class="cls-7" d="M132.5,251.12a38.29,38.29,0,0,0,5.55,10.42,43.25,43.25,0,0,0,9,8.81s-8.52,0-14.2,14.2c0,0-5.23,10.48-14.83,13.64"/><path class="cls-8" d="M87.18,320.79c-2-.53-3.73-1.33-7.23-2.19-1.13-.27-2.54-.55-4.06-.87-3.74-.79-8.14-1.9-10.73-4.25-.19-.16-.36-.34-.53-.52"/><path class="cls-8" d="M118.61,335.69c0-2.25-1.45-4.93-4.22-7.35-3.65-3.2-9.61-5.95-17.57-6.67-1.21-.11-2.47-.18-3.77-.19a21.93,21.93,0,0,1-5.87-.68"/><path class="cls-8" d="M96.72,322.86l6.09,16.33a20.63,20.63,0,0,0,11.55-10.83"/><polyline class="cls-8" points="87.18 320.8 87.18 320.79 81.68 304.43 75.89 317.73"/><path class="cls-8" d="M109.36,260.55a18.67,18.67,0,0,1-4.95-12.92,19.54,19.54,0,0,1,1.59-7.85,14.84,14.84,0,0,1,15.45-.68c6.93,3.47,9.66,8,10.68,11,.11.34.25.68.36,1-1,6.19-4.93,11.13-9.94,12.87"/><path class="cls-8" d="M115,281.68a18.87,18.87,0,0,1,3.66,11.39,21.57,21.57,0,0,1-.62,5.12c-4.52,1.51-10,1.36-16.42-2.28,0,0-4.3-2.13-9.12-12,2.49-4.71,6.93-7.87,12-7.87a11.61,11.61,0,0,1,1.4.09"/><path class="cls-8" d="M122.57,264a12.14,12.14,0,0,1,1.73,6.36c0,6-4.14,11-9.34,11.33a13.39,13.39,0,0,0-9.14-5.57,12.52,12.52,0,0,1-1.4-5.76,11.71,11.71,0,0,1,4.95-9.8,12.85,12.85,0,0,0,9.25,4.12A11.65,11.65,0,0,0,122.57,264Z"/></g></g></svg>