<svg xmlns="http://www.w3.org/2000/svg" viewBox="0 0 366.02 323.51"><defs><style>.cls-1{fill:#f2d4e1;}.cls-2{fill:#75292e;}.cls-3{fill:#f2f2f2;}.cls-4{fill:#0f0504;}.cls-5{fill:#eee7e7;}.cls-6,.cls-7{fill:none;stroke:#000;}.cls-6{stroke-miterlimit:10;}.cls-7{stroke-linecap:round;stroke-linejoin:round;}</style></defs><title>W</title><g id="Capa_2" data-name="Capa 2"><g id="W"><path class="cls-1" d="M62.26,259.54c-3.76-3.29-9.92-6.12-18.13-6.87l-.1,1.24,6.29,16.84a21.27,21.27,0,0,0,11.9-11.16ZM22.56,248.6c1.56.33,3,.61,4.18.9,3.62.88,5.38,1.71,7.46,2.27L28.54,234.9ZM192.48,79.17l.1.48c3.82.48,14.64,2.94,14.64,2.94S295.11,97.22,315.61,191c0,0,17.58,70.31-58.59,108.39,0,0-46.86,26.36-90.81,23.44S87.12,319.85,49,287.63c0,0-22.59-17.58-37.56-43.42Q9.66,241.11,8,237.84c-14.64-29.3-5.86-52.73,8.79-70.31,0,0,8.78-20.5,14.64-35.15,0,0,8.79-26.36,35.15-38.08,0,0,46.87-55.66,99.59-73.23,0,0,20.51-8.79,43.95,8.78,0,0,16.5,11,25.51,14.35l-1.14,2.65c15.25,6.56,27.5,17.29,43.68,25.78.75.4,1.5.78,2.26,1.16,23.44,11.72,41-11.71,64.45-26.36s20.5,0,20.5,0L342,100.15c-14.65,29.3-29.3,23.44-46.87,17.58-14.18-4.73-64.45-38.09-64.45-38.09-4.42-2.24-15-3.76-23.44-2.92A129.16,129.16,0,0,0,192.48,79.17ZM95.91,199.75a44.2,44.2,0,0,1-9.26-9.08,39.66,39.66,0,0,1-5.71-10.75c-.11-.35-.26-.7-.39-1.05-1.05-3.07-3.86-7.76-11-11.33a15.3,15.3,0,0,0-15.93.7c-4.16,2.61-7.62,6.82-10.43,11-5.86,8.78-5.86,29.3-5.86,29.3.76,1.93,1.55,3.66,2.31,5.18,5,10.2,9.41,12.4,9.41,12.4,6.6,3.75,12.27,3.89,16.93,2.33,9.9-3.24,15.29-14.05,15.29-14.05C87.12,199.75,95.91,199.75,95.91,199.75Z"/><path class="cls-1" d="M295.11.55c14.48,2.9,3.17,37.32-16.91,72.08C262,64.14,249.78,53.41,234.52,46.84l1.14-2.65.85.31C245.31,47.42,286-1.26,295.11.55Z"/><path class="cls-2" d="M86.65,190.67a44.2,44.2,0,0,0,9.26,9.08s-8.79,0-14.65,14.65c0,0-5.38,10.81-15.29,14.05a22.08,22.08,0,0,0,.65-5.27,19.47,19.47,0,0,0-3.79-11.74c5.37-.35,9.64-5.45,9.64-11.7a12.59,12.59,0,0,0-1.79-6.56c5.16-1.78,9.17-6.88,10.26-13.27A39.66,39.66,0,0,0,86.65,190.67Z"/><path class="cls-3" d="M80.56,178.86c.12.35.27.7.39,1.05-1.09,6.39-5.1,11.49-10.26,13.27a11.73,11.73,0,0,1-4.07.7,13.26,13.26,0,0,1-9.55-4.24A19.25,19.25,0,0,1,52,176.31a20.13,20.13,0,0,1,1.63-8.08,15.3,15.3,0,0,1,15.93-.7C76.69,171.1,79.5,175.79,80.56,178.86Z"/><path class="cls-4" d="M70.68,193.19a12.59,12.59,0,0,1,1.79,6.56c0,6.24-4.27,11.34-9.64,11.7a13.81,13.81,0,0,0-9.43-5.75A12.92,12.92,0,0,1,52,199.75a12,12,0,0,1,5.09-10.1,13.26,13.26,0,0,0,9.55,4.24A11.73,11.73,0,0,0,70.68,193.19Z"/><path class="cls-3" d="M66.62,223.18a22.08,22.08,0,0,1-.65,5.27C61.31,230,55.63,229.87,49,226.12c0,0-4.42-2.2-9.41-12.4,2.58-4.86,7.15-8.11,12.34-8.11a11.78,11.78,0,0,1,1.43.09,13.81,13.81,0,0,1,9.43,5.75A19.47,19.47,0,0,1,66.62,223.18Z"/><path class="cls-5" d="M62.26,259.54l0,0a21.27,21.27,0,0,1-11.9,11.16L44,253.91l.1-1.24C52.35,253.42,58.5,256.25,62.26,259.54Z"/><path class="cls-2" d="M57.06,189.65A12,12,0,0,0,52,199.75a12.92,12.92,0,0,0,1.43,5.95,11.78,11.78,0,0,0-1.43-.09c-5.19,0-9.76,3.25-12.34,8.11-.76-1.52-1.55-3.25-2.31-5.18,0,0,0-20.51,5.86-29.3,2.81-4.19,6.27-8.41,10.43-11A20.13,20.13,0,0,0,52,176.31,19.25,19.25,0,0,0,57.06,189.65Z"/><path class="cls-5" d="M28.54,234.9l5.67,16.86c-2.07-.56-3.84-1.38-7.46-2.27-1.17-.28-2.62-.57-4.18-.9Z"/><path class="cls-6" d="M277.53,73.78c.23-.39.45-.77.67-1.16C298.28,37.87,309.59,3.45,295.11.55,286-1.26,245.31,47.42,236.52,44.5l-.85-.31c-9-3.35-25.51-14.35-25.51-14.35-23.44-17.58-43.95-8.78-43.95-8.78C113.49,38.64,66.62,94.29,66.62,94.29,40.26,106,31.46,132.37,31.46,132.37,25.6,147,16.82,167.53,16.82,167.53,2.17,185.1-6.62,208.54,8,237.84q1.63,3.26,3.46,6.38C26.45,270.06,49,287.63,49,287.63c38.08,32.22,73.23,32.22,117.17,35.15S257,299.35,257,299.35C333.19,261.27,315.61,191,315.61,191,295.11,97.22,207.22,82.58,207.22,82.58s-10.82-2.46-14.64-2.94"/><path class="cls-6" d="M95.91,117.73c4.9-4.59,57.59-30,96.57-38.57a129.16,129.16,0,0,1,14.74-2.45c8.43-.84,19,.68,23.44,2.92,0,0,50.27,33.36,64.45,38.09,17.58,5.86,32.22,11.72,46.87-17.58l23.42-52.73s2.94-14.64-20.5,0-41,38.08-64.45,26.36c-.76-.37-1.51-.76-2.26-1.16C262,64.14,249.78,53.41,234.52,46.84A71.53,71.53,0,0,0,216,41.56c-17.12-2.44-26.08-.8-49,13.43-4.54,2.82-9.63,6.13-15.44,10a623.71,623.71,0,0,0-61.51,46.87"/><path class="cls-6" d="M167,55h0c-.61-.12-21.85-4.3-59.37,18.79"/><path class="cls-6" d="M39.63,213.72c-.76-1.52-1.55-3.25-2.31-5.18,0,0,0-20.51,5.86-29.3,2.81-4.19,6.27-8.41,10.43-11"/><path class="cls-6" d="M80.94,179.91a39.66,39.66,0,0,0,5.71,10.75,44.2,44.2,0,0,0,9.26,9.08s-8.79,0-14.65,14.65c0,0-5.38,10.81-15.29,14.05"/><path class="cls-7" d="M34.2,251.76c-2.07-.56-3.84-1.38-7.46-2.27-1.17-.28-2.62-.57-4.18-.9-3.86-.82-8.42-1.95-11.08-4.39-.18-.17-.36-.34-.52-.52"/><path class="cls-7" d="M66.62,267.12c0-2.32-1.5-5.08-4.35-7.58-3.76-3.29-9.92-6.12-18.13-6.87-1.25-.11-2.54-.18-3.88-.19a22.62,22.62,0,0,1-6.05-.7"/><path class="cls-7" d="M44,253.91l6.29,16.84a21.27,21.27,0,0,0,11.9-11.16"/><polyline class="cls-7" points="34.2 251.78 34.2 251.76 28.54 234.9 22.57 248.6 22.57 248.61"/><path class="cls-7" d="M57.06,189.65A19.25,19.25,0,0,1,52,176.31a20.13,20.13,0,0,1,1.63-8.08,15.3,15.3,0,0,1,15.93-.7c7.15,3.57,10,8.26,11,11.33.12.35.27.7.39,1.05-1.09,6.39-5.1,11.49-10.26,13.27"/><path class="cls-7" d="M62.83,211.44a19.47,19.47,0,0,1,3.79,11.74,22.08,22.08,0,0,1-.65,5.27C61.31,230,55.63,229.87,49,226.12c0,0-4.42-2.2-9.41-12.4,2.58-4.86,7.15-8.11,12.34-8.11a11.78,11.78,0,0,1,1.43.09"/><path class="cls-7" d="M70.68,193.19a12.59,12.59,0,0,1,1.79,6.56c0,6.24-4.27,11.34-9.64,11.7a13.81,13.81,0,0,0-9.43-5.75A12.92,12.92,0,0,1,52,199.75a12,12,0,0,1,5.09-10.1,13.26,13.26,0,0,0,9.55,4.24A11.73,11.73,0,0,0,70.68,193.19Z"/></g></g></svg>